<svg xmlns="http://www.w3.org/2000/svg" viewBox="0 0 100.77 23.14"><defs><style>.cls-1{fill:#300;}.cls-2{fill:#fa9600;}.cls-3{fill:#001e36;}.cls-4{fill:#2a95e3;}.cls-5{fill:#49021f;}.cls-6{fill:#f36;}.cls-7{fill:#00005a;}.cls-8{fill:#9a9afd;}</style></defs><g id="레이어_2" data-name="레이어 2"><g id="Layer_1" data-name="Layer 1"><rect class="cls-1" width="23.14" height="23.14" rx="4.25"/><path class="cls-2" d="M10.85,6l3,10.84H11.7L10.92,14H8l-.75,2.86H5.15L8.23,6Zm-2.54,6.4h2.32L10,10c-.17-.67-.36-1.55-.5-2.21h0C9.3,8.44,9.12,9.32,9,10Z"/><path class="cls-2" d="M16.21,8a1.08,1.08,0,0,1-1.12-1.12,1.08,1.08,0,0,1,1.12-1.11,1.07,1.07,0,0,1,1.12,1.11A1.07,1.07,0,0,1,16.21,8Zm1.05,1v7.85H15.18V9Z"/><rect class="cls-3" x="26.12" width="23.14" height="23.14" rx="4.25"/><path class="cls-4" d="M31.32,16.88V6.18A15.16,15.16,0,0,1,34.13,6a4.65,4.65,0,0,1,3.09.86,3.18,3.18,0,0,1,1,2.43c0,3-2.48,3.64-4.1,3.64a4.3,4.3,0,0,1-.77-.06v4.06Zm2.07-5.69a3.84,3.84,0,0,0,.74.05,1.83,1.83,0,0,0,2.06-1.9A1.67,1.67,0,0,0,34.3,7.58a4.41,4.41,0,0,0-.91.08Z"/><path class="cls-4" d="M39.58,15a4.15,4.15,0,0,0,1.84.52c.73,0,1.08-.31,1.08-.79s-.27-.73-1.13-1.1c-1.46-.59-2-1.42-2-2.28a2.58,2.58,0,0,1,2.88-2.48,4.24,4.24,0,0,1,1.94.44l-.39,1.46a3.29,3.29,0,0,0-1.48-.41c-.64,0-1,.33-1,.75s.3.66,1.2,1c1.33.55,2,1.32,2,2.4C44.49,16,43.36,17,41.4,17a4.56,4.56,0,0,1-2.21-.52Z"/><rect class="cls-5" x="52.25" width="23.14" height="23.14" rx="4.25"/><path class="cls-6" d="M58.82,16.88V7.31h1.84v9.57Z"/><path class="cls-6" d="M69.29,5.55v9.09c0,.79,0,1.66.06,2.24H67.51l-.09-1.11h0A2.47,2.47,0,0,1,65.16,17c-1.78,0-3-1.64-3-4,0-2.68,1.49-4.15,3.18-4.15a2.09,2.09,0,0,1,1.89.92h0V5.55ZM67.2,12.23c0-1.14-.69-1.71-1.38-1.71-1.07,0-1.6,1.1-1.6,2.47s.59,2.37,1.57,2.37c.63,0,1.41-.45,1.41-1.69Z"/><rect class="cls-7" x="77.63" width="23.14" height="23.14" rx="4.25"/><path class="cls-8" d="M87,6.56l2.68,9.58H87.78l-.69-2.53H84.53l-.66,2.53H82l2.72-9.58Zm-2.24,5.65h2L86.26,10c-.15-.6-.31-1.37-.44-2h0c-.13.6-.29,1.38-.43,1.94Z"/><path class="cls-8" d="M92.24,13.22a1.68,1.68,0,0,0,1.89,1.66,5,5,0,0,0,1.69-.29l.27,1.27a5.9,5.9,0,0,1-2.24.4,3.15,3.15,0,0,1-3.37-3.5c0-2,1.15-3.71,3.18-3.71,1.68,0,2.77,1.2,2.77,3.44a4,4,0,0,1-.05.73Zm2.49-1.28c0-.72-.27-1.61-1.18-1.61s-1.26.93-1.31,1.61Z"/></g></g></svg>