<svg xmlns="http://www.w3.org/2000/svg" viewBox="0 0 23.14 23.14"><defs><style>.cls-1{fill:#00005a;}.cls-2{fill:#9a9afd;}</style></defs><g id="레이어_2" data-name="레이어 2"><g id="Layer_1" data-name="Layer 1"><rect class="cls-1" width="23.14" height="23.14" rx="4.25"/><path class="cls-2" d="M9.41,6.56l2.67,9.58H10.15l-.68-2.53H6.9l-.66,2.53H4.38L7.09,6.56ZM7.17,12.21h2L8.63,10c-.15-.6-.31-1.37-.43-2h0C8,8.68,7.87,9.46,7.74,10Z"/><path class="cls-2" d="M14.61,13.22a1.68,1.68,0,0,0,1.89,1.66,5.14,5.14,0,0,0,1.7-.29l.26,1.27a5.83,5.83,0,0,1-2.24.4,3.15,3.15,0,0,1-3.36-3.5c0-2,1.14-3.71,3.17-3.71,1.68,0,2.78,1.2,2.78,3.44a4,4,0,0,1,0,.73Zm2.49-1.28c0-.72-.27-1.61-1.18-1.61s-1.26.93-1.31,1.61Z"/></g></g></svg>