<?xml version="1.0" encoding="utf-8"?>
<!-- Generator: Adobe Illustrator 25.2.3, SVG Export Plug-In . SVG Version: 6.00 Build 0)  -->
<svg version="1.1" id="Layer_1" xmlns="http://www.w3.org/2000/svg" xmlns:xlink="http://www.w3.org/1999/xlink" x="0px" y="0px"
	 viewBox="0 0 928.4 697.6" style="enable-background:new 0 0 928.4 697.6;" xml:space="preserve">
<style type="text/css">
	.st0{fill:none;stroke:#FFFFFF;stroke-width:3;stroke-linecap:round;stroke-linejoin:round;stroke-miterlimit:10;}
	.st1{fill:#C8C9CA;}
	.st2{fill:#D5007F;}
	.st3{fill:#FFFFFF;}
</style>
<path class="st0" d="M122.5,555.6l-3.6,11l16.1-0.1l8.1,3.5l40-3.2c0,0-6.3-4.5,5.2-7s25.6-4.6,25.6-4.6l8.5-12c0,0,5.3-4.5,11.9-5
	l26.9-45.3c0,0,1.8-1.7,6.2-1.9s12.8-0.1,12.8-0.1s3.4-4,4-5.8s38.9-70.2,38.9-70.2l16.5-14.4l-0.6-12.4c0,0,53.9-88.6,55.8-92
	s6-2.5,4.5,0S343,387.5,343,387.5l3.6,12.1l-14,10.2c0,0,36.3,3.8,42.6,5.1s45.3,11.7,51.8,12s45.4,8.7,45.4,8.7s13.4,0.3,15.1-0.8
	s31-8.5,31-8.5s10.6,7.9,11.7,17.6c0.6,5.2,7.7,23.9,7.7,23.9l175.5-22.9c0,0-2.3-8.3-7.4-10.6s-46.5,1.3-59.4-1.1
	c-16.1-2.9-22.2-5.2-20.9-7.5s3.4-2.8,10-0.1s11.4,4.4,16.2,4.6s46.4,0.1,50.1-0.3s14.6,3.7,14.8,6.5s2.5,7.1,2.5,7.1
	s121.4-17,123.2-17s9.2,2.6,0,3.7s-299.6,36.9-299.6,36.9l-6.5-26.6l-5.7-14.9l-10.3-1.7l-22,4.5c0,0-13.8,4.4-17.1,2.8
	s-4-5.9,2.1-7s19.2-3,31.9-6.5c12.6-3.5,28.2-14.8,38.4-18.2s19.2-7.4,19.2-7.4s-0.3-20.3,3.5-24.3s15.2-10.8,17.8-11.8s7.1-3,7.1-3
	s4.4-4.7,7.7-6.4s10-7.3,11.9-11s-9.4-5.3-12.4-8.6s-1-14.3-2.5-16s-12.7-8.2-12.7-8.2l-8.2-15.6l-11.6,8.7l-46.6,11.9"/>
<path class="st1" d="M633,422.3c0-3.5-2.8-6.3-6.3-6.3c-3.5,0-6.3,2.8-6.3,6.3c0,3.5,2.8,6.3,6.3,6.3S633,425.8,633,422.3L633,422.3
	z"/>
<circle class="st2" cx="626.7" cy="422.3" r="3.4"/>
<path class="st1" d="M851.2,426.1c0-3.5-2.8-6.3-6.3-6.3c-3.5,0-6.3,2.8-6.3,6.3c0,3.5,2.8,6.3,6.3,6.3S851.2,429.5,851.2,426.1
	L851.2,426.1z"/>
<circle class="st2" cx="844.9" cy="426.1" r="3.4"/>
<path class="st2" d="M137.5,527.4c0-8.4-6.8-15.2-15.2-15.2s-15.2,6.8-15.2,15.2c0,8.4,15.2,29.2,15.2,29.2S137.5,535.8,137.5,527.4
	z"/>
<path class="st3" d="M131.5,526.4c0-5.1-4.1-9.2-9.2-9.2s-9.2,4.1-9.2,9.2s4.1,9.2,9.2,9.2S131.5,531.5,131.5,526.4L131.5,526.4z"/>
<path class="st2" d="M537.8,288c0-6.1-4.9-11-11-11c-6.1,0-11,4.9-11,11c0,6.1,11,21.2,11,21.2S537.8,294.1,537.8,288z"/>
<path class="st3" d="M533.4,287.3c0-3.7-3-6.7-6.7-6.7c-3.7,0-6.7,3-6.7,6.7c0,3.7,3,6.7,6.7,6.7l0,0
	C530.4,294,533.4,291,533.4,287.3z"/>
</svg>
