<svg xmlns="http://www.w3.org/2000/svg" viewBox="0 0 23.14 23.14"><defs><style>.cls-1{fill:#300;}.cls-2{fill:#fa9600;}</style></defs><g id="레이어_2" data-name="레이어 2"><g id="Layer_1" data-name="Layer 1"><rect class="cls-1" width="23.14" height="23.14" rx="4.25"/><path class="cls-2" d="M10.85,6l3,10.84H11.7L10.92,14H8l-.75,2.86H5.15L8.23,6Zm-2.54,6.4h2.32L10,10c-.17-.67-.36-1.55-.5-2.21h0C9.3,8.44,9.12,9.32,9,10Z"/><path class="cls-2" d="M16.21,8a1.08,1.08,0,0,1-1.12-1.12,1.08,1.08,0,0,1,1.12-1.11,1.07,1.07,0,0,1,1.12,1.11A1.07,1.07,0,0,1,16.21,8Zm1.05,1v7.85H15.18V9Z"/></g></g></svg>