<svg xmlns="http://www.w3.org/2000/svg" viewBox="0 0 23.14 23.14"><defs><style>.cls-1{fill:#001e36;}.cls-2{fill:#2a95e3;}</style></defs><g id="레이어_2" data-name="레이어 2"><g id="Layer_1" data-name="Layer 1"><rect class="cls-1" width="23.14" height="23.14" rx="4.25"/><path class="cls-2" d="M5.2,16.88V6.18A15,15,0,0,1,8,6a4.65,4.65,0,0,1,3.09.86,3.15,3.15,0,0,1,1.05,2.43c0,3-2.49,3.64-4.11,3.64a4.18,4.18,0,0,1-.76-.06v4.06Zm2.07-5.69a3.73,3.73,0,0,0,.73.05,1.83,1.83,0,0,0,2.06-1.9A1.66,1.66,0,0,0,8.17,7.58a4.3,4.3,0,0,0-.9.08Z"/><path class="cls-2" d="M13.46,15a4.11,4.11,0,0,0,1.83.52c.73,0,1.09-.31,1.09-.79s-.27-.73-1.13-1.1c-1.47-.59-2-1.42-2-2.28a2.57,2.57,0,0,1,2.87-2.48,4.26,4.26,0,0,1,1.95.44l-.4,1.46a3.21,3.21,0,0,0-1.48-.41c-.63,0-1,.33-1,.75s.3.66,1.2,1c1.32.55,1.95,1.32,1.95,2.4,0,1.5-1.13,2.48-3.09,2.48a4.61,4.61,0,0,1-2.22-.52Z"/></g></g></svg>