<?xml version="1.0" encoding="utf-8"?>
<!-- Generator: Adobe Illustrator 24.3.0, SVG Export Plug-In . SVG Version: 6.00 Build 0)  -->
<svg version="1.1" id="Layer_1" xmlns="http://www.w3.org/2000/svg" xmlns:xlink="http://www.w3.org/1999/xlink" x="0px" y="0px"
	 viewBox="0 0 406 209" style="enable-background:new 0 0 406 209;" xml:space="preserve">
<style type="text/css">
	.st0{display:none;fill:none;stroke:#172944;stroke-miterlimit:10;}
	.st1{display:none;}
	.st2{display:inline;}
	.st3{display:inline;clip-path:url(#SVGID_2_);}
	.st4{fill:none;stroke:#172944;stroke-miterlimit:10;}
	.st5{fill:#FFFFFF;stroke:#172944;stroke-miterlimit:10;}
	.st6{fill:#FFFFFF;}
	.st7{clip-path:url(#SVGID_4_);fill:#1F4B9E;}
	.st8{opacity:0.12;clip-path:url(#SVGID_4_);fill:#D0D0D0;}
	.st9{fill:#C8C9CA;}
	.st10{fill:#B2B3B3;}
</style>
<circle class="st0" cx="-972" cy="864" r="50"/>
<g class="st1">
	<defs>
		<circle id="SVGID_1_" cx="-972" cy="864" r="50"/>
	</defs>
	<clipPath id="SVGID_2_" class="st2">
		<use xlink:href="#SVGID_1_"  style="overflow:visible;"/>
	</clipPath>
	<g class="st3">
		<path class="st4" d="M-971,863c0,0,1-3,4-4s7-1.4,8-0.7c1,0.7,4.79,2.7,4.89,4.7s0,2.83,0,2.83S-951,867-949,868s4,3,5,5s3,7,3,8
			s0,4.49,0,4.49s3,1.51,3,3.51s1,4.87,0,5.94s-5,4.06-6,4.06s-5,0-6-1s-1-3-1-3s-4,1-5,2s-4,1-4,1s-1,3-3,3s-5,0.32-8-1.34
			c-3-1.66-6-2.66-6-2.66s-2,3-7,0c-2.06-1.24-3-4-3-4s-2,2-4,1s-7-6-7-10s1-8,3-9s6-2,6-2s1-6,2-7s7-5,10-5S-973,861-971,863z"/>
		<path class="st4" d="M-970,849l-2.11,1.5c0,0-0.89,2.5-1.89,2.5s-3.62,1.22-5.31,2.11c-1.69,0.89-4.69,0-4.69,0s-3,4.89-5,4.89
			s-8,1-10-1s-5-6-4-8s2-4,2-4s0-9,1-11s4-9,6-10s11-3,11-3s2-5,6-5s8,3,8,3s5-2,9,0s7,8,7,8v4.02c0,0,5,1.98,6,6.98s-3,11-6,12
			s-8,1.11-11,0.55C-967,852-970,849-970,849z"/>
		<path class="st5" d="M-974,841l3,6v4.79v3.7h-1.5L-978,853h-4v1.6l4.66,0.89L-973,860l1,4c0,0,2,2,3,2s0-6,0-6l1-10l1-4l3-4
			l-1.6-1l-3.4,5l-2-4l-1-3L-974,841z"/>
		<polygon class="st5" points="-968,890 -968,898 -971,903 -973,905.66 -975,905 -978,898 -981,893 -984,893 -980.79,898.33 
			-978,905 -979,912 -981,918 -968.91,918 -968,904.5 -963,899 -957,892 -961,892 -965,896 -966,890 		"/>
	</g>
</g>
<g>
	<g>
		<g>
			<path class="st6" d="M397.49,185.1c0,8.9-7.28,16.18-16.18,16.18H25.46c-8.9,0-16.18-7.28-16.18-16.18V26.28
				c0-8.9,7.28-16.18,16.18-16.18h355.84c8.9,0,16.18,7.28,16.18,16.18V185.1z"/>
			<g>
				<defs>
					<path id="SVGID_3_" d="M397.49,185.1c0,8.9-7.28,16.18-16.18,16.18H25.46c-8.9,0-16.18-7.28-16.18-16.18V26.28
						c0-8.9,7.28-16.18,16.18-16.18h355.84c8.9,0,16.18,7.28,16.18,16.18V185.1z"/>
				</defs>
				<clipPath id="SVGID_4_">
					<use xlink:href="#SVGID_3_"  style="overflow:visible;"/>
				</clipPath>
				<rect x="7" y="10.09" class="st7" width="392.77" height="32.44"/>
				<rect x="24.55" y="10.09" class="st8" width="5.85" height="187.19"/>
				<rect x="55.35" y="10.09" class="st8" width="5.85" height="187.19"/>
				<rect x="86.16" y="10.09" class="st8" width="5.85" height="187.19"/>
				<rect x="116.97" y="10.09" class="st8" width="5.85" height="187.19"/>
				<rect x="147.78" y="10.09" class="st8" width="5.85" height="187.19"/>
				<rect x="178.59" y="10.09" class="st8" width="5.85" height="187.19"/>
				<rect x="209.4" y="10.09" class="st8" width="5.85" height="187.19"/>
				<rect x="240.21" y="10.09" class="st8" width="5.85" height="187.19"/>
				<rect x="271.02" y="10.09" class="st8" width="5.85" height="187.19"/>
				<rect x="332.63" y="10.09" class="st8" width="5.85" height="187.19"/>
				<rect x="363.44" y="10.09" class="st8" width="5.85" height="187.19"/>
				<rect x="7" y="171.51" class="st7" width="392.77" height="32.44"/>
			</g>
		</g>
		<g>
			<polygon class="st6" points="157.23,35.42 157.23,25.31 164.97,30.36 			"/>
			<g>
				<path class="st6" d="M52.72,26.03h7.93v1.46h-2.27c0.23,0.12,0.48,0.23,0.73,0.33c0.25,0.09,0.51,0.17,0.76,0.23
					s0.5,0.11,0.74,0.16c0.24,0.04,0.46,0.08,0.66,0.1l-0.64,1.44c-0.29-0.03-0.6-0.09-0.94-0.16c-0.33-0.07-0.67-0.16-1-0.27
					c-0.33-0.11-0.66-0.24-0.98-0.39s-0.6-0.32-0.86-0.52c-0.48,0.35-1.07,0.65-1.79,0.88s-1.49,0.38-2.32,0.44l-0.53-1.39
					c0.25-0.03,0.51-0.07,0.79-0.12s0.55-0.11,0.82-0.19c0.27-0.07,0.53-0.16,0.78-0.25c0.25-0.09,0.47-0.19,0.66-0.3h-2.55V26.03z
					 M52.69,33.71c0-0.25,0.07-0.48,0.21-0.67c0.14-0.19,0.34-0.36,0.6-0.5c0.26-0.14,0.57-0.25,0.94-0.33
					c0.37-0.08,0.78-0.14,1.23-0.18V31.5h-3.42v-1.52h8.76v1.52h-3.46v0.52c0.47,0.03,0.9,0.08,1.28,0.17
					c0.39,0.08,0.72,0.19,0.99,0.33c0.27,0.14,0.48,0.31,0.63,0.5c0.15,0.2,0.22,0.43,0.22,0.69c0,0.3-0.1,0.56-0.3,0.78
					c-0.2,0.21-0.47,0.39-0.82,0.53c-0.35,0.14-0.77,0.24-1.26,0.3c-0.49,0.07-1.03,0.1-1.61,0.1c-0.59,0-1.14-0.03-1.62-0.1
					s-0.91-0.17-1.26-0.3c-0.35-0.14-0.62-0.31-0.82-0.53C52.79,34.27,52.69,34.01,52.69,33.71z M54.73,33.71
					c0,0.1,0.06,0.19,0.18,0.25c0.12,0.06,0.27,0.11,0.46,0.14s0.39,0.06,0.63,0.07s0.46,0.02,0.7,0.02c0.23,0,0.47-0.01,0.7-0.02
					c0.23-0.01,0.44-0.04,0.63-0.07s0.34-0.08,0.46-0.14c0.12-0.06,0.18-0.15,0.18-0.25s-0.06-0.19-0.18-0.25
					c-0.12-0.06-0.27-0.11-0.46-0.15c-0.19-0.04-0.4-0.06-0.63-0.08c-0.23-0.01-0.46-0.02-0.7-0.02c-0.23,0-0.47,0.01-0.7,0.02
					s-0.44,0.04-0.63,0.08c-0.19,0.04-0.34,0.09-0.46,0.15C54.79,33.52,54.73,33.6,54.73,33.71z"/>
				<path class="st6" d="M62.69,28.43c0-0.34,0.06-0.66,0.18-0.96c0.12-0.3,0.3-0.57,0.53-0.79c0.23-0.22,0.52-0.4,0.85-0.53
					s0.71-0.2,1.14-0.2c0.42,0,0.8,0.07,1.13,0.2s0.62,0.31,0.85,0.53c0.23,0.22,0.41,0.49,0.53,0.79c0.12,0.3,0.18,0.62,0.18,0.96
					c0,0.35-0.06,0.67-0.18,0.97c-0.12,0.3-0.3,0.57-0.53,0.8c-0.23,0.23-0.52,0.41-0.85,0.55c-0.33,0.13-0.71,0.2-1.13,0.2
					c-0.43,0-0.81-0.07-1.14-0.2c-0.33-0.13-0.61-0.32-0.85-0.55c-0.23-0.23-0.41-0.5-0.53-0.8C62.75,29.1,62.69,28.77,62.69,28.43z
					 M63.31,33.47c0,0.29,0.08,0.55,0.23,0.79s0.38,0.43,0.7,0.6c0.31,0.17,0.71,0.29,1.2,0.38c0.49,0.09,1.06,0.13,1.73,0.13
					s1.25-0.04,1.73-0.13c0.49-0.09,0.89-0.22,1.2-0.38c0.31-0.17,0.55-0.37,0.7-0.6s0.23-0.5,0.23-0.79c0-0.29-0.08-0.55-0.23-0.79
					s-0.38-0.44-0.7-0.61s-0.71-0.3-1.2-0.39c-0.49-0.09-1.06-0.13-1.73-0.13s-1.25,0.04-1.73,0.13c-0.49,0.09-0.89,0.22-1.2,0.39
					c-0.31,0.17-0.55,0.37-0.7,0.61S63.31,33.18,63.31,33.47z M64.45,28.44c0,0.24,0.08,0.45,0.25,0.62
					c0.17,0.17,0.4,0.26,0.69,0.26s0.53-0.09,0.69-0.26c0.17-0.17,0.25-0.38,0.25-0.62s-0.08-0.45-0.25-0.61
					c-0.17-0.17-0.4-0.25-0.69-0.25s-0.53,0.08-0.69,0.25C64.53,27.99,64.45,28.2,64.45,28.44z M65.23,33.47
					c0-0.17,0.15-0.3,0.46-0.4s0.8-0.16,1.48-0.16s1.18,0.05,1.48,0.16s0.46,0.24,0.46,0.4c0,0.17-0.15,0.3-0.46,0.4
					c-0.3,0.1-0.8,0.15-1.48,0.15s-1.18-0.05-1.48-0.15C65.38,33.77,65.23,33.63,65.23,33.47z M69.13,25.86h1.71v1.84h0.9v1.75h-0.9
					v1.9h-1.71V25.86z"/>
				<path class="st6" d="M81.63,35.19h-8.77V33.5h3.47v-1.07h-2.87v-3.86h5.87v-0.65h-5.88v-1.73h7.73v3.9h-5.9v0.61h5.9v1.73h-2.85
					v1.07h3.29V35.19z"/>
				<path class="st6" d="M86.68,31.32l-0.79-1.69c0.4-0.12,0.81-0.28,1.24-0.47c0.42-0.19,0.82-0.41,1.18-0.66
					c0.36-0.25,0.67-0.53,0.92-0.84c0.25-0.31,0.39-0.66,0.44-1.03v-0.45h2.03v0.42c-0.04,0.43-0.14,0.83-0.3,1.22
					c0.27,0.21,0.57,0.41,0.91,0.58c0.33,0.18,0.67,0.33,1.02,0.47c0.35,0.14,0.68,0.25,1.01,0.35c0.33,0.09,0.62,0.16,0.86,0.21
					l-0.81,1.74c-0.3-0.05-0.63-0.13-0.99-0.25c-0.36-0.12-0.72-0.26-1.09-0.42s-0.72-0.34-1.06-0.54s-0.63-0.41-0.89-0.63
					c-0.49,0.49-1.06,0.9-1.7,1.22C88,30.88,87.35,31.13,86.68,31.32z M94.88,35.19H86V33.5h3.42v-2.31h1.96v2.31h3.51V35.19z"/>
				<path class="st6" d="M102.76,25.86h1.83v3.76h0.89v1.92h-0.89v3.81h-1.83v-0.37h-5.97v-8.86h1.82v7.14h4.15V25.86z"/>
				<path class="st6" d="M115.41,32.86H112v2.47h-1.88v-2.47h-3.49v-1.67h8.78V32.86z M107.2,30.6v-4.4h7.73v4.4H107.2z
					 M113.11,27.84h-4.1v1.13h4.1V27.84z"/>
				<path class="st6" d="M122.46,26.06c0.01,0.63-0.08,1.19-0.26,1.67s-0.46,0.9-0.83,1.25c-0.37,0.36-0.85,0.66-1.43,0.9
					c-0.58,0.25-1.26,0.44-2.05,0.6l-0.77-1.5c0.14-0.01,0.31-0.04,0.51-0.07c0.2-0.04,0.41-0.08,0.63-0.14
					c0.22-0.06,0.44-0.13,0.66-0.21s0.42-0.17,0.61-0.26c0.18-0.1,0.34-0.2,0.46-0.32c0.12-0.11,0.2-0.23,0.22-0.36l-2.65,0.01
					v-1.57H122.46z M119.36,34.06h6.18v1.31h-7.81v-2.85h6.09v-0.39h-6.08v-1.31h7.75v2.85h-6.13V34.06z M123.63,25.87h1.86v4.62
					h-1.86V25.87z"/>
			</g>
			<g>
				<g>
					<path class="st9" d="M36.68,181.99l-0.52,0.26c-0.23,0.07-0.41,0.04-0.53-0.08s-0.18-0.33-0.18-0.64v-0.41l2.93-1
						c0.42-0.14,0.66-0.13,0.73,0.04c0.07,0.17,0.09,0.41,0.06,0.74v6.77c0,0.37-0.09,0.63-0.26,0.8c-0.17,0.17-0.41,0.26-0.71,0.26
						h-1.52V181.99z"/>
					<path class="st9" d="M44.83,186.92c0.07-0.13,0.12-0.31,0.16-0.52c0.04-0.22,0.07-0.53,0.07-0.93
						c-0.28,0.29-0.51,0.47-0.69,0.55c-0.17,0.08-0.39,0.11-0.64,0.11c-0.33,0-0.62-0.06-0.87-0.17c-0.25-0.12-0.48-0.29-0.69-0.52
						c-0.2-0.26-0.35-0.58-0.46-0.95c-0.1-0.38-0.16-0.82-0.16-1.33c0-0.6,0.07-1.11,0.22-1.53s0.37-0.77,0.66-1.05
						c0.28-0.29,0.58-0.49,0.9-0.6c0.32-0.11,0.7-0.16,1.16-0.16c0.36,0,0.68,0.03,0.96,0.1c0.28,0.07,0.53,0.16,0.74,0.29
						c0.26,0.16,0.48,0.36,0.67,0.61c0.19,0.25,0.34,0.55,0.45,0.9c0.09,0.26,0.16,0.56,0.21,0.91c0.05,0.35,0.07,0.74,0.07,1.17
						c0,1.16-0.17,2.11-0.51,2.87c-0.34,0.76-0.85,1.34-1.53,1.74c-0.3,0.17-0.61,0.29-0.93,0.38s-0.68,0.13-1.07,0.12
						c-0.26-0.01-0.43-0.06-0.51-0.16s-0.18-0.32-0.3-0.66c-0.06-0.21-0.08-0.34-0.05-0.4s0.19-0.04,0.5,0.06
						c0.03,0.01,0.05,0.01,0.09,0.01s0.07,0,0.1,0c0.31,0,0.59-0.08,0.84-0.23C44.51,187.35,44.7,187.16,44.83,186.92z M45.13,184
						c0.02-0.26,0.03-0.48,0.04-0.67s0.02-0.34,0.02-0.45c0-0.67-0.05-1.16-0.14-1.48s-0.26-0.48-0.48-0.48
						c-0.24,0-0.41,0.16-0.51,0.49c-0.1,0.33-0.15,0.84-0.15,1.53c0,0.57,0.05,1.01,0.15,1.32c0.1,0.3,0.26,0.46,0.49,0.46
						c0.16,0,0.29-0.09,0.41-0.27C45.07,184.25,45.13,184.11,45.13,184z"/>
					<path class="st9" d="M49.17,186.88c0.24-0.17,0.47-0.38,0.7-0.6s0.42-0.46,0.6-0.69c0.37-0.47,0.64-0.96,0.82-1.45
						c0.18-0.49,0.27-0.98,0.27-1.47c0-0.44-0.1-0.8-0.31-1.08c-0.21-0.28-0.5-0.42-0.89-0.42c-0.13,0-0.21,0-0.24,0.01
						c-0.02,0.01-0.1,0.04-0.24,0.09c-0.2,0.02-0.37-0.01-0.5-0.12c-0.13-0.1-0.28-0.3-0.45-0.59c-0.02-0.12,0-0.22,0.06-0.32
						s0.19-0.17,0.39-0.2c0.33-0.07,0.65-0.12,0.97-0.16c0.31-0.04,0.61-0.06,0.89-0.06c0.49,0,0.89,0.05,1.21,0.16
						c0.32,0.1,0.6,0.29,0.86,0.57c0.23,0.22,0.41,0.49,0.52,0.79c0.11,0.3,0.17,0.64,0.17,1.04c0,0.32-0.05,0.65-0.14,0.97
						c-0.1,0.32-0.24,0.65-0.42,0.97c-0.35,0.61-0.72,1.07-1.12,1.4c-0.4,0.32-0.93,0.71-1.6,1.15h2.74c0.27,0,0.44,0.05,0.51,0.15
						c0.08,0.1,0.1,0.25,0.09,0.44v0.61c0,0.22-0.04,0.38-0.13,0.5s-0.23,0.18-0.44,0.18h-4.19c-0.27,0.03-0.43-0.01-0.47-0.1
						s-0.06-0.24-0.06-0.44v-0.59c-0.02-0.12,0-0.24,0.06-0.37C48.91,187.12,49.01,187,49.17,186.88z"/>
					<path class="st9" d="M57.39,181.99l-0.52,0.26c-0.23,0.07-0.41,0.04-0.53-0.08c-0.12-0.12-0.18-0.33-0.18-0.64v-0.41l2.93-1
						c0.42-0.14,0.66-0.13,0.73,0.04c0.07,0.17,0.09,0.41,0.06,0.74v6.77c0,0.37-0.09,0.63-0.26,0.8c-0.17,0.17-0.41,0.26-0.71,0.26
						h-1.52V181.99z"/>
					<path class="st9" d="M72.94,184.27c0.02,0.21,0,0.41-0.06,0.6c-0.06,0.19-0.25,0.28-0.57,0.26h-1.94v-1.02h-0.5
						c-0.16,0-0.29-0.04-0.39-0.12c-0.1-0.08-0.18-0.17-0.22-0.28c-0.29,0.39-0.69,0.7-1.19,0.94c-0.5,0.24-1.05,0.36-1.65,0.36
						c-0.94,0-1.74-0.27-2.39-0.8s-0.98-1.18-0.98-1.93s0.33-1.4,0.98-1.94c0.65-0.54,1.45-0.81,2.39-0.81
						c0.67,0,1.26,0.15,1.8,0.44c0.53,0.29,0.93,0.67,1.2,1.13c0.06-0.04,0.12-0.08,0.19-0.1c0.07-0.03,0.15-0.04,0.24-0.04h0.51
						l0.01-0.62c0-0.13-0.11-0.26-0.32-0.39c-0.22-0.12-0.36-0.25-0.42-0.37c-0.02-0.09,0.02-0.16,0.12-0.21s0.19-0.07,0.28-0.07
						h2.01c0.29,0,0.51,0.08,0.67,0.25c0.16,0.17,0.24,0.4,0.24,0.69V184.27z M72.68,188.66c0.37,0,0.56,0.17,0.56,0.52
						c0,0.35-0.19,0.52-0.56,0.52h-7.57c-0.36,0-0.62-0.09-0.77-0.26c-0.16-0.17-0.24-0.39-0.24-0.66v-0.95
						c0-0.23,0.06-0.41,0.17-0.52s0.28-0.17,0.52-0.17h5.63v-0.45h-5.48c-0.26-0.02-0.46-0.13-0.62-0.34s-0.23-0.35-0.22-0.41
						c0-0.11,0.03-0.19,0.09-0.24c0.06-0.05,0.14-0.08,0.25-0.08h7.54c0.37,0,0.62,0.08,0.77,0.25c0.15,0.17,0.22,0.38,0.22,0.65
						v1.12c0,0.17-0.05,0.3-0.16,0.39c-0.11,0.08-0.27,0.12-0.49,0.12h-5.66v0.47L72.68,188.66z M66.41,180.79
						c-0.22,0-0.41,0.14-0.56,0.43c-0.15,0.29-0.23,0.63-0.23,1.04c0,0.41,0.08,0.75,0.23,1.05s0.34,0.44,0.56,0.44
						c0.21,0,0.4-0.15,0.56-0.44c0.16-0.29,0.24-0.64,0.24-1.05c0-0.41-0.08-0.75-0.24-1.04C66.81,180.94,66.62,180.79,66.41,180.79
						z M69.77,182.3c0,0.1-0.01,0.2-0.02,0.29c-0.01,0.1-0.03,0.19-0.06,0.28c0.03-0.01,0.07-0.01,0.1-0.02s0.06-0.01,0.1-0.01h0.48
						v-0.62h-0.49c-0.02,0-0.03,0-0.05,0c-0.02,0-0.04,0-0.05,0c0,0.01,0,0.02,0,0.03C69.77,182.27,69.77,182.28,69.77,182.3z"/>
					<path class="st9" d="M79.48,185.66c-0.35,1.01-0.57,1.62-0.67,1.83c-0.1,0.22-0.27,0.58-0.53,1.1
						c-0.61,0.77-1.2,0.96-1.78,0.57c-0.58-0.4-0.64-0.83-0.19-1.3c0.37-0.68,0.68-1.37,0.94-2.05c0.26-0.69,0.47-1.83,0.62-3.45
						h-0.95c-0.33,0-0.6-0.1-0.79-0.29s-0.29-0.42-0.29-0.67c0.02-0.17,0.11-0.26,0.27-0.29c0.16-0.03,0.37-0.03,0.63-0.01
						l1.18-0.03l-0.03-0.45c0-0.14-0.11-0.27-0.34-0.38c-0.22-0.11-0.3-0.22-0.24-0.33c0.09-0.1,0.18-0.17,0.27-0.21
						c0.09-0.04,0.22-0.06,0.37-0.06h1.72c0.22,0,0.38,0.04,0.48,0.11c0.1,0.07,0.16,0.2,0.16,0.36v0.97h1.32
						c0.39-0.02,0.58,0.2,0.57,0.64c-0.01,0.44-0.2,0.65-0.57,0.62H80.3c-0.01,0.21-0.03,0.42-0.06,0.65
						c-0.03,0.22-0.06,0.41-0.11,0.56c0.53,0.71,0.97,1.39,1.31,2.05c0.34,0.66,0.63,1.41,0.86,2.24c0.23,0.83,0,1.26-0.7,1.29
						s-1.12-0.25-1.26-0.84c-0.12-0.44-0.22-0.79-0.29-1.06C80,186.97,79.8,186.45,79.48,185.66z M85.31,184.07h0.79
						c0.39-0.02,0.59,0.18,0.6,0.59c0.01,0.41-0.19,0.63-0.6,0.67h-0.79v3.37c0,0.28-0.02,0.58-0.07,0.9
						c-0.05,0.32-0.18,0.47-0.38,0.44h-2.11v-9.84c0-0.13-0.11-0.25-0.33-0.34s-0.36-0.21-0.43-0.33c-0.02-0.09,0.02-0.16,0.12-0.21
						s0.19-0.07,0.28-0.07h2.01c0.3,0,0.53,0.08,0.68,0.25c0.16,0.17,0.24,0.4,0.24,0.69V184.07z"/>
					<path class="st9" d="M95.71,179.5c0.98,0,1.82,0.26,2.51,0.78c0.69,0.52,1.04,1.15,1.04,1.89c0,0.74-0.35,1.36-1.04,1.88
						s-1.53,0.78-2.51,0.78c-1,0-1.84-0.26-2.54-0.78s-1.04-1.14-1.04-1.88c0-0.73,0.35-1.36,1.04-1.89
						C93.87,179.76,94.71,179.5,95.71,179.5z M102.17,188.66c0.37,0,0.56,0.17,0.56,0.52c0,0.35-0.19,0.52-0.56,0.52H94.6
						c-0.36,0-0.62-0.09-0.77-0.26s-0.24-0.39-0.24-0.66v-0.95c0-0.23,0.06-0.41,0.17-0.52c0.11-0.11,0.28-0.17,0.52-0.17h5.63
						v-0.45h-5.48c-0.26-0.02-0.46-0.13-0.62-0.34c-0.15-0.21-0.23-0.35-0.22-0.41c0-0.11,0.03-0.19,0.09-0.24
						c0.06-0.05,0.14-0.08,0.25-0.08h7.54c0.37,0,0.62,0.08,0.77,0.25c0.15,0.17,0.22,0.38,0.22,0.65v1.12
						c0,0.17-0.05,0.3-0.16,0.39c-0.11,0.08-0.27,0.12-0.49,0.12h-5.66v0.47L102.17,188.66z M95.68,180.75
						c-0.23,0-0.43,0.14-0.6,0.41c-0.17,0.27-0.25,0.6-0.25,0.99c0,0.38,0.08,0.71,0.25,0.99s0.37,0.42,0.6,0.42
						c0.24,0,0.45-0.14,0.62-0.42s0.26-0.61,0.26-0.99c0-0.39-0.09-0.72-0.26-0.99C96.12,180.89,95.92,180.75,95.68,180.75z
						 M99.9,180.34c0-0.13-0.08-0.26-0.23-0.39c-0.15-0.12-0.26-0.25-0.33-0.37c-0.02-0.09,0.02-0.16,0.12-0.21s0.19-0.07,0.28-0.07
						h1.82c0.3,0,0.53,0.08,0.68,0.25c0.15,0.17,0.23,0.39,0.23,0.67v3.97c0,0.43-0.21,0.68-0.63,0.75
						c-0.42,0.07-1.06,0.11-1.91,0.11L99.9,180.34z"/>
					<path class="st9" d="M105.23,180.56c0-0.14-0.11-0.27-0.34-0.38c-0.22-0.11-0.3-0.22-0.24-0.33c0.09-0.1,0.18-0.17,0.27-0.21
						c0.09-0.04,0.22-0.06,0.38-0.06l2.12-0.01c0.13,0,0.22,0.06,0.28,0.17c0.06,0.12,0.09,0.27,0.1,0.46v0.67h0.77l-0.02-0.35
						c0-0.14-0.11-0.27-0.34-0.38c-0.22-0.11-0.3-0.22-0.24-0.33c0.09-0.1,0.18-0.17,0.27-0.21c0.09-0.04,0.22-0.06,0.38-0.06h1.95
						c0.15,0,0.27,0.05,0.38,0.14s0.16,0.26,0.16,0.5v3.61c0,0.29-0.07,0.5-0.2,0.65c-0.13,0.14-0.34,0.22-0.61,0.22h-3.98
						c-0.22,0-0.46-0.07-0.71-0.22c-0.26-0.14-0.39-0.4-0.39-0.77V180.56z M106.89,189.7c-0.36,0-0.6-0.09-0.72-0.28
						s-0.18-0.47-0.18-0.86v-1.93c0-0.14-0.09-0.27-0.28-0.38c-0.19-0.11-0.27-0.23-0.26-0.34c-0.01-0.14,0.06-0.22,0.2-0.24
						c0.14-0.02,0.29-0.03,0.45-0.02h1.78c0.23,0,0.4,0.05,0.51,0.14s0.17,0.24,0.17,0.44v2.21h5.75c0.5,0,0.75,0.21,0.75,0.63
						c0,0.42-0.25,0.63-0.75,0.63H106.89z M107.8,183.42h0.89v-1.28h-0.89V183.42z M114.77,182.61h0.85c0.37,0,0.56,0.21,0.56,0.64
						s-0.19,0.63-0.56,0.62h-0.85v2.23c0.02,0.38-0.19,0.61-0.63,0.69c-0.44,0.08-1.08,0.12-1.94,0.12v-6.6
						c0-0.13-0.11-0.26-0.32-0.37c-0.21-0.12-0.35-0.24-0.42-0.36c-0.02-0.09,0.02-0.16,0.12-0.21s0.19-0.07,0.28-0.07h2
						c0.29,0,0.51,0.08,0.67,0.25c0.16,0.17,0.24,0.4,0.24,0.69V182.61z"/>
					<path class="st9" d="M120.06,180.48c0-0.14-0.11-0.27-0.34-0.38c-0.22-0.11-0.3-0.22-0.24-0.33c0.09-0.1,0.18-0.17,0.27-0.21
						c0.09-0.04,0.22-0.06,0.37-0.06h2.12c0.21,0,0.35,0.06,0.43,0.18c0.08,0.12,0.1,0.26,0.06,0.42c-0.03,0.16-0.09,0.34-0.18,0.55
						s-0.16,0.39-0.23,0.54c0.48,0.38,0.83,0.69,1.05,0.91c0.22,0.22,0.46,0.53,0.74,0.92c0.27,0.66,0.11,1.12-0.48,1.4
						c-0.59,0.27-1.02,0.15-1.27-0.37c-0.05-0.16-0.16-0.37-0.32-0.64c-0.17-0.27-0.35-0.53-0.55-0.79
						c-0.39,0.64-0.72,1.09-0.98,1.36c-0.26,0.27-0.6,0.57-1.02,0.9c-0.36,0.3-0.74,0.29-1.14-0.02c-0.4-0.32-0.43-0.62-0.07-0.92
						c0.25-0.32,0.56-0.79,0.94-1.42C119.6,181.89,119.88,181.21,120.06,180.48z M127.71,188.66c0.37,0,0.56,0.17,0.56,0.52
						c0,0.35-0.19,0.52-0.56,0.52h-7.57c-0.36,0-0.62-0.09-0.77-0.26c-0.16-0.17-0.24-0.39-0.24-0.66v-0.95
						c0-0.23,0.06-0.41,0.17-0.52c0.11-0.11,0.28-0.17,0.52-0.17h5.63v-0.45h-5.48c-0.26-0.02-0.46-0.13-0.62-0.34
						s-0.23-0.35-0.22-0.41c0-0.11,0.03-0.19,0.09-0.24s0.14-0.08,0.25-0.08h7.54c0.37,0,0.62,0.08,0.77,0.25
						c0.15,0.17,0.22,0.38,0.22,0.65v1.12c0,0.17-0.05,0.3-0.16,0.39s-0.27,0.12-0.49,0.12h-5.66v0.47L127.71,188.66z
						 M125.42,180.34c0-0.13-0.08-0.26-0.23-0.39s-0.26-0.25-0.33-0.37c-0.02-0.09,0.02-0.16,0.12-0.21s0.19-0.07,0.28-0.07h1.82
						c0.3,0,0.53,0.08,0.68,0.25c0.15,0.17,0.23,0.39,0.23,0.67v3.97c0,0.43-0.21,0.68-0.64,0.75c-0.42,0.07-1.06,0.11-1.92,0.11
						L125.42,180.34z"/>
					<path class="st9" d="M136.04,181.99l-0.52,0.26c-0.23,0.07-0.41,0.04-0.53-0.08c-0.12-0.12-0.18-0.33-0.18-0.64v-0.41l2.93-1
						c0.42-0.14,0.66-0.13,0.73,0.04c0.07,0.17,0.09,0.41,0.06,0.74v6.77c0,0.37-0.09,0.63-0.26,0.8c-0.17,0.17-0.41,0.26-0.71,0.26
						h-1.52V181.99z"/>
					<path class="st9" d="M142.94,181.99l-0.52,0.26c-0.23,0.07-0.41,0.04-0.53-0.08s-0.18-0.33-0.18-0.64v-0.41l2.93-1
						c0.42-0.14,0.66-0.13,0.73,0.04c0.07,0.17,0.09,0.41,0.06,0.74v6.77c0,0.37-0.09,0.63-0.26,0.8c-0.17,0.17-0.41,0.26-0.71,0.26
						h-1.52V181.99z"/>
					<path class="st9" d="M151.68,179.53c0.86,0,1.6,0.18,2.2,0.53c0.6,0.35,0.9,0.78,0.9,1.27c0,0.48-0.3,0.9-0.9,1.25
						c-0.6,0.35-1.33,0.52-2.2,0.52c-0.88,0-1.63-0.17-2.24-0.52c-0.62-0.35-0.92-0.77-0.92-1.25c0-0.49,0.31-0.91,0.92-1.27
						C150.05,179.71,150.8,179.53,151.68,179.53z M150.77,184.75v0.75h1.75c0.29-0.02,0.5-0.06,0.64-0.13s0.2-0.16,0.19-0.28
						l-0.01-0.35h1.73c0.34-0.03,0.51-0.26,0.49-0.67c-0.01-0.42-0.18-0.61-0.49-0.59h-5.97c-0.13,0-0.25,0.03-0.34,0.08
						c-0.09,0.05-0.14,0.13-0.14,0.24c0.12,0.19,0.24,0.39,0.36,0.61c0.12,0.21,0.27,0.33,0.42,0.36H150.77z M155.91,186.95h-5.59
						c-0.17,0-0.33-0.06-0.49-0.17s-0.29-0.25-0.38-0.41l-0.07-0.16c0-0.09,0.04-0.16,0.11-0.19c0.07-0.04,0.21-0.06,0.41-0.06
						l7.6,0.01c0.36,0,0.61,0.08,0.76,0.22s0.23,0.36,0.23,0.62v1.01c0,0.18-0.05,0.32-0.14,0.41c-0.09,0.09-0.23,0.13-0.41,0.13
						h-5.92v0.45h6.12c0.4,0.03,0.59,0.21,0.57,0.52c-0.02,0.32-0.21,0.47-0.57,0.46h-7.7c-0.35,0-0.6-0.08-0.76-0.25
						c-0.16-0.17-0.24-0.38-0.24-0.64v-1c0-0.19,0.05-0.33,0.15-0.42c0.1-0.09,0.25-0.13,0.46-0.13h5.86V186.95z M151.62,180.37
						c-0.2,0-0.37,0.09-0.52,0.27s-0.22,0.41-0.22,0.69c0,0.26,0.07,0.48,0.22,0.65s0.32,0.27,0.52,0.27c0.22,0,0.4-0.09,0.56-0.27
						s0.23-0.4,0.23-0.65c0-0.28-0.08-0.51-0.23-0.69S151.84,180.37,151.62,180.37z M155.95,180.36c0-0.23-0.1-0.39-0.29-0.48
						c-0.19-0.09-0.3-0.18-0.34-0.29l-0.01-0.09c0-0.07,0.02-0.13,0.07-0.16c0.05-0.03,0.11-0.05,0.19-0.05l2.12-0.02
						c0.29,0,0.51,0.08,0.63,0.25c0.13,0.17,0.19,0.39,0.19,0.67v4.29c0,0.26-0.07,0.46-0.21,0.59c-0.14,0.14-0.36,0.23-0.65,0.27
						h-1.7v-2.46h-0.47c-0.36-0.02-0.55-0.26-0.57-0.72c-0.03-0.46,0.17-0.69,0.57-0.69h0.47V180.36z"/>
					<path class="st9" d="M166.56,181.99l-0.52,0.26c-0.23,0.07-0.41,0.04-0.53-0.08c-0.12-0.12-0.18-0.33-0.18-0.64v-0.41l2.93-1
						c0.42-0.14,0.66-0.13,0.73,0.04c0.07,0.17,0.09,0.41,0.06,0.74v6.77c0,0.37-0.08,0.63-0.26,0.8c-0.17,0.17-0.41,0.26-0.7,0.26
						h-1.52V181.99z"/>
					<path class="st9" d="M175.39,179.5c0.98,0,1.82,0.26,2.51,0.78c0.69,0.52,1.04,1.15,1.04,1.89c0,0.74-0.35,1.36-1.04,1.88
						c-0.69,0.52-1.53,0.78-2.51,0.78c-1,0-1.84-0.26-2.54-0.78c-0.69-0.52-1.04-1.14-1.04-1.88c0-0.73,0.35-1.36,1.04-1.89
						C173.54,179.76,174.39,179.5,175.39,179.5z M181.85,188.66c0.37,0,0.56,0.17,0.56,0.52c0,0.35-0.19,0.52-0.56,0.52h-7.57
						c-0.36,0-0.62-0.09-0.77-0.26c-0.16-0.17-0.24-0.39-0.24-0.66v-0.95c0-0.23,0.06-0.41,0.17-0.52c0.11-0.11,0.28-0.17,0.52-0.17
						h5.63v-0.45h-5.48c-0.26-0.02-0.46-0.13-0.62-0.34s-0.23-0.35-0.22-0.41c0-0.11,0.03-0.19,0.09-0.24s0.14-0.08,0.25-0.08h7.54
						c0.37,0,0.62,0.08,0.77,0.25c0.15,0.17,0.22,0.38,0.22,0.65v1.12c0,0.17-0.05,0.3-0.16,0.39s-0.27,0.12-0.49,0.12h-5.66v0.47
						L181.85,188.66z M175.35,180.75c-0.23,0-0.43,0.14-0.6,0.41c-0.17,0.27-0.25,0.6-0.25,0.99c0,0.38,0.08,0.71,0.25,0.99
						c0.17,0.28,0.37,0.42,0.6,0.42c0.24,0,0.45-0.14,0.62-0.42c0.17-0.28,0.26-0.61,0.26-0.99c0-0.39-0.09-0.72-0.26-0.99
						C175.8,180.89,175.59,180.75,175.35,180.75z M179.58,180.34c0-0.13-0.08-0.26-0.23-0.39s-0.26-0.25-0.33-0.37
						c-0.02-0.09,0.02-0.16,0.12-0.21c0.1-0.05,0.19-0.07,0.28-0.07h1.82c0.3,0,0.53,0.08,0.68,0.25c0.15,0.17,0.23,0.39,0.23,0.67
						v3.97c0,0.43-0.21,0.68-0.63,0.75c-0.42,0.07-1.06,0.11-1.91,0.11L179.58,180.34z"/>
					<path class="st9" d="M191.13,179.79c0.42,0,0.79,0.03,1.11,0.1s0.59,0.17,0.8,0.31c0.25,0.18,0.47,0.42,0.67,0.72
						s0.34,0.64,0.44,1.01c0.08,0.26,0.13,0.58,0.17,0.98c0.04,0.39,0.06,0.84,0.06,1.33c0,0.64-0.03,1.2-0.08,1.68
						c-0.05,0.48-0.14,0.86-0.26,1.13c-0.23,0.66-0.57,1.12-1.02,1.4c-0.44,0.28-1.07,0.42-1.86,0.42c-0.37,0-0.71-0.04-1-0.11
						c-0.3-0.07-0.56-0.18-0.78-0.32c-0.25-0.17-0.48-0.4-0.68-0.7s-0.35-0.64-0.44-1.02c-0.06-0.23-0.11-0.54-0.14-0.92
						c-0.04-0.38-0.06-0.82-0.06-1.33c0-0.65,0.02-1.22,0.07-1.71s0.12-0.86,0.23-1.12c0.08-0.23,0.17-0.44,0.28-0.63
						c0.11-0.19,0.24-0.36,0.38-0.5c0.24-0.28,0.52-0.47,0.82-0.57S190.57,179.8,191.13,179.79z M191.2,180.98
						c-0.37,0-0.57,0.3-0.6,0.9c-0.02,0.6-0.04,1.42-0.04,2.46c0,0.79,0.01,1.41,0.03,1.87s0.04,0.74,0.04,0.83
						c0.02,0.18,0.08,0.34,0.19,0.47s0.24,0.2,0.4,0.2c0.38,0,0.58-0.26,0.59-0.78c0.01-0.52,0.02-1.46,0.02-2.83
						c0-0.62,0-1.12-0.01-1.5c-0.01-0.39-0.02-0.66-0.04-0.82c-0.03-0.25-0.09-0.45-0.19-0.59
						C191.49,181.05,191.36,180.98,191.2,180.98z"/>
					<path class="st9" d="M198.36,186.92c0.07-0.13,0.12-0.31,0.16-0.52c0.04-0.22,0.07-0.53,0.07-0.93
						c-0.28,0.29-0.51,0.47-0.69,0.55c-0.17,0.08-0.39,0.11-0.64,0.11c-0.33,0-0.62-0.06-0.87-0.17c-0.25-0.12-0.48-0.29-0.69-0.52
						c-0.2-0.26-0.35-0.58-0.46-0.95c-0.1-0.38-0.16-0.82-0.16-1.33c0-0.6,0.07-1.11,0.22-1.53s0.37-0.77,0.66-1.05
						c0.28-0.29,0.58-0.49,0.9-0.6c0.32-0.11,0.7-0.16,1.16-0.16c0.36,0,0.68,0.03,0.96,0.1c0.28,0.07,0.53,0.16,0.74,0.29
						c0.26,0.16,0.48,0.36,0.67,0.61c0.19,0.25,0.34,0.55,0.45,0.9c0.09,0.26,0.16,0.56,0.21,0.91c0.05,0.35,0.07,0.74,0.07,1.17
						c0,1.16-0.17,2.11-0.51,2.87c-0.34,0.76-0.85,1.34-1.53,1.74c-0.3,0.17-0.61,0.29-0.93,0.38s-0.68,0.13-1.07,0.12
						c-0.26-0.01-0.43-0.06-0.51-0.16s-0.18-0.32-0.3-0.66c-0.06-0.21-0.08-0.34-0.05-0.4s0.19-0.04,0.5,0.06
						c0.03,0.01,0.05,0.01,0.09,0.01s0.07,0,0.1,0c0.31,0,0.59-0.08,0.84-0.23C198.03,187.35,198.23,187.16,198.36,186.92z
						 M198.66,184c0.02-0.26,0.03-0.48,0.04-0.67s0.02-0.34,0.02-0.45c0-0.67-0.05-1.16-0.14-1.48s-0.26-0.48-0.48-0.48
						c-0.24,0-0.41,0.16-0.51,0.49c-0.1,0.33-0.15,0.84-0.15,1.53c0,0.57,0.05,1.01,0.15,1.32c0.1,0.3,0.26,0.46,0.49,0.46
						c0.16,0,0.29-0.09,0.41-0.27C198.6,184.25,198.66,184.11,198.66,184z"/>
					<path class="st9" d="M203.41,181.43c0.39,0,0.7,0.12,0.94,0.36c0.23,0.24,0.35,0.58,0.35,1.02c0,0.21-0.03,0.39-0.08,0.54
						c-0.05,0.15-0.12,0.28-0.21,0.4c-0.13,0.16-0.28,0.27-0.43,0.33c-0.15,0.06-0.34,0.09-0.56,0.09c-0.38,0-0.69-0.12-0.92-0.37
						c-0.23-0.25-0.35-0.58-0.35-1.02c0-0.42,0.11-0.74,0.34-0.99C202.72,181.56,203.03,181.44,203.41,181.43z M203.41,186.06
						c0.39,0,0.7,0.12,0.94,0.37c0.23,0.25,0.35,0.59,0.35,1.03c0,0.2-0.02,0.38-0.07,0.53c-0.05,0.15-0.12,0.29-0.22,0.41
						c-0.13,0.17-0.28,0.28-0.43,0.34s-0.34,0.09-0.56,0.09c-0.38,0-0.69-0.12-0.92-0.37c-0.23-0.25-0.35-0.59-0.35-1.02
						c0-0.41,0.11-0.74,0.34-0.99C202.72,186.19,203.03,186.06,203.41,186.06z"/>
					<path class="st9" d="M210.99,187.89c0,0.24-0.08,0.44-0.25,0.6c-0.17,0.16-0.4,0.24-0.71,0.24h-1.07
						c-0.22,0.01-0.35-0.04-0.4-0.14c-0.05-0.1-0.07-0.24-0.07-0.41v-1.06h-2.29c-0.21,0-0.36-0.05-0.46-0.15
						c-0.1-0.1-0.15-0.24-0.15-0.42v-0.77c0.02-0.18,0.04-0.34,0.07-0.48c0.03-0.14,0.12-0.3,0.26-0.48l2.64-4.39
						c0.12-0.24,0.22-0.37,0.32-0.4c0.1-0.03,0.24-0.04,0.43-0.05h0.83c0.34,0,0.57,0.04,0.68,0.11c0.11,0.08,0.17,0.3,0.17,0.66
						v4.5h0.41c0.23-0.02,0.38,0.02,0.43,0.1c0.05,0.08,0.08,0.22,0.07,0.42v0.95c-0.02,0.21-0.09,0.32-0.21,0.34
						c-0.12,0.02-0.24,0.04-0.34,0.06h-0.36V187.89z M207.18,184.78c-0.1,0.16-0.15,0.28-0.15,0.36s0.05,0.12,0.14,0.12h1.22
						c0.06,0,0.11-0.03,0.14-0.09c0.04-0.06,0.06-0.15,0.06-0.29v-2.38L207.18,184.78z"/>
					<path class="st9" d="M215.56,179.79c0.42,0,0.79,0.03,1.11,0.1s0.59,0.17,0.8,0.31c0.25,0.18,0.47,0.42,0.67,0.72
						c0.2,0.3,0.34,0.64,0.44,1.01c0.07,0.26,0.13,0.58,0.17,0.98c0.04,0.39,0.06,0.84,0.06,1.33c0,0.64-0.03,1.2-0.08,1.68
						c-0.05,0.48-0.14,0.86-0.26,1.13c-0.23,0.66-0.57,1.12-1.02,1.4c-0.44,0.28-1.07,0.42-1.86,0.42c-0.37,0-0.71-0.04-1-0.11
						c-0.29-0.07-0.55-0.18-0.78-0.32c-0.25-0.17-0.48-0.4-0.68-0.7c-0.2-0.3-0.35-0.64-0.44-1.02c-0.06-0.23-0.11-0.54-0.14-0.92
						c-0.04-0.38-0.06-0.82-0.06-1.33c0-0.65,0.02-1.22,0.07-1.71c0.05-0.49,0.12-0.86,0.23-1.12c0.07-0.23,0.17-0.44,0.28-0.63
						c0.11-0.19,0.24-0.36,0.38-0.5c0.24-0.28,0.52-0.47,0.82-0.57S215,179.8,215.56,179.79z M215.63,180.98
						c-0.37,0-0.57,0.3-0.6,0.9c-0.02,0.6-0.04,1.42-0.04,2.46c0,0.79,0.01,1.41,0.03,1.87c0.02,0.46,0.04,0.74,0.04,0.83
						c0.02,0.18,0.08,0.34,0.19,0.47c0.11,0.13,0.24,0.2,0.4,0.2c0.38,0,0.58-0.26,0.59-0.78c0.01-0.52,0.02-1.46,0.02-2.83
						c0-0.62,0-1.12-0.01-1.5c-0.01-0.39-0.02-0.66-0.04-0.82c-0.02-0.25-0.09-0.45-0.19-0.59
						C215.92,181.05,215.79,180.98,215.63,180.98z"/>
				</g>
			</g>
			<g>
				<path class="st6" d="M188.64,30.59l-1.94-1.92c0.33-0.26,0.65-0.51,0.95-0.77c0.3-0.25,0.57-0.51,0.82-0.77
					c0.25-0.26,0.46-0.54,0.64-0.84c0.18-0.29,0.33-0.62,0.45-0.98h-2.26v-2.6h2.5v-0.89h2.84v0.89h3.14v2.43h1.56V21.9h2.66v8.84
					h-2.66v-3.01h-1.37c0.37,0.19,0.68,0.33,0.94,0.42l-1.63,2.34c-0.24-0.08-0.52-0.2-0.85-0.37c-0.33-0.17-0.68-0.37-1.03-0.59
					c-0.35-0.22-0.71-0.46-1.06-0.72c-0.35-0.26-0.67-0.52-0.95-0.79c-0.38,0.52-0.8,0.98-1.27,1.38
					C189.65,29.79,189.15,30.19,188.64,30.59z M187.96,33.75c0,0.9,0.49,1.62,1.48,2.16c0.99,0.54,2.53,0.81,4.61,0.81
					c2.09,0,3.62-0.27,4.61-0.81c0.99-0.54,1.48-1.26,1.48-2.16c0-0.9-0.5-1.63-1.48-2.17c-0.99-0.54-2.53-0.81-4.61-0.81
					c-2.09,0-3.62,0.27-4.61,0.81C188.45,32.12,187.96,32.85,187.96,33.75z M190.96,33.75c0-0.26,0.25-0.47,0.74-0.63
					c0.49-0.16,1.28-0.24,2.35-0.24s1.86,0.08,2.35,0.24c0.49,0.16,0.74,0.37,0.74,0.63s-0.25,0.46-0.74,0.62
					c-0.5,0.16-1.28,0.23-2.35,0.23s-1.86-0.08-2.35-0.23C191.21,34.21,190.96,34.01,190.96,33.75z M195.59,27.49v-2.18h-2.77
					c0.4,0.42,0.84,0.82,1.34,1.19C194.65,26.88,195.12,27.21,195.59,27.49z"/>
				<path class="st6" d="M216.82,32.52h-5.5v4.26h-2.94v-4.26h-5.52v-2.6h13.95V32.52z M203.71,22.43h12.35v2.37h-4.21v0.16
					c-0.01,0.14-0.04,0.27-0.1,0.4c0.39,0.29,0.81,0.53,1.27,0.73c0.46,0.2,0.93,0.37,1.4,0.5c0.47,0.13,0.93,0.24,1.38,0.32
					c0.45,0.08,0.87,0.14,1.24,0.19l-1,2.32c-0.45-0.05-0.94-0.13-1.46-0.24c-0.52-0.11-1.04-0.25-1.56-0.42s-1.03-0.37-1.52-0.6
					c-0.49-0.23-0.94-0.5-1.34-0.81c-0.74,0.55-1.67,1.01-2.78,1.38c-1.11,0.37-2.32,0.6-3.62,0.68l-0.82-2.24
					c0.56-0.06,1.15-0.17,1.78-0.31c0.63-0.14,1.22-0.31,1.77-0.52c0.55-0.2,1.02-0.44,1.4-0.7c0.39-0.26,0.62-0.55,0.69-0.85h-4.87
					V22.43z"/>
				<path class="st6" d="M233.05,34.55l-1.26,2.29c-0.55-0.04-1.1-0.14-1.64-0.28c-0.55-0.15-1.11-0.34-1.69-0.59
					c-0.44-0.2-0.84-0.41-1.19-0.62c-0.35-0.21-0.67-0.44-0.95-0.69c-1.54,1.2-3.36,1.92-5.47,2.16l-1.39-2.39
					c0.48-0.05,0.94-0.12,1.36-0.21c0.42-0.09,0.82-0.19,1.2-0.32c0.43-0.16,0.81-0.32,1.13-0.48s0.6-0.34,0.84-0.55
					s0.44-0.43,0.6-0.69c0.17-0.25,0.31-0.55,0.43-0.9h3.23c0,0.15-0.04,0.34-0.12,0.56c-0.08,0.23-0.16,0.42-0.25,0.58
					c0.13,0.15,0.28,0.3,0.44,0.44c0.17,0.14,0.37,0.28,0.6,0.41c0.54,0.31,1.13,0.57,1.79,0.77
					C231.36,34.28,232.14,34.44,233.05,34.55z M219.47,26.49c0-0.61,0.04-1.19,0.13-1.72c0.09-0.53,0.24-1,0.47-1.39
					c0.23-0.4,0.53-0.71,0.93-0.94s0.9-0.35,1.52-0.35c0.74,0,1.32,0.16,1.74,0.48c0.42,0.32,0.73,0.75,0.94,1.3h1.27v-1.92h2.48
					v8.74h-2.48v-1.4h-1.34c-0.22,0.5-0.53,0.89-0.94,1.18c-0.41,0.29-0.97,0.43-1.68,0.43c-0.58,0-1.07-0.12-1.46-0.35
					c-0.39-0.23-0.7-0.54-0.94-0.94c-0.23-0.4-0.4-0.86-0.5-1.39S219.47,27.1,219.47,26.49z M221.74,26.49
					c0,0.28,0.01,0.54,0.03,0.8s0.06,0.47,0.11,0.65c0.05,0.18,0.13,0.33,0.23,0.44c0.1,0.11,0.23,0.16,0.4,0.16
					c0.16,0,0.29-0.05,0.4-0.16c0.1-0.11,0.18-0.25,0.23-0.44c0.05-0.18,0.09-0.4,0.11-0.65s0.03-0.52,0.03-0.8
					c0-0.28-0.01-0.54-0.03-0.79c-0.02-0.25-0.06-0.46-0.11-0.65c-0.05-0.19-0.13-0.34-0.23-0.44c-0.1-0.11-0.23-0.16-0.4-0.16
					c-0.16,0-0.29,0.05-0.4,0.16c-0.1,0.11-0.18,0.25-0.23,0.44c-0.05,0.19-0.09,0.41-0.11,0.65
					C221.75,25.95,221.74,26.21,221.74,26.49z M225.56,26.49c0,0.12,0,0.23-0.01,0.34s-0.01,0.22-0.01,0.32h0.92v-0.94h-0.9V26.49z
					 M229.69,21.9h2.6v9.26h-2.6V21.9z"/>
				<path class="st6" d="M235.69,26.38c0-0.61,0.09-1.19,0.28-1.72s0.46-0.99,0.83-1.38c0.37-0.39,0.81-0.69,1.32-0.92
					c0.52-0.23,1.11-0.34,1.77-0.34c0.75,0,1.41,0.14,1.98,0.43c0.57,0.29,1.04,0.68,1.4,1.18h2.45V21.9h2.66v9.14h-2.66V29.3h-2.56
					c-0.37,0.46-0.82,0.83-1.37,1.1c-0.55,0.27-1.18,0.4-1.9,0.4c-0.67,0-1.26-0.12-1.77-0.35c-0.52-0.23-0.96-0.54-1.32-0.94
					c-0.37-0.4-0.64-0.87-0.83-1.4C235.79,27.57,235.69,26.99,235.69,26.38z M245.69,34.1h-9.5v-2.45h12.21v5.03h-2.71V34.1z
					 M238.43,26.39c0,0.54,0.13,0.98,0.39,1.33s0.62,0.52,1.08,0.52c0.46,0,0.82-0.17,1.08-0.52c0.26-0.35,0.39-0.79,0.39-1.33
					c0-0.54-0.13-0.98-0.39-1.31c-0.26-0.34-0.62-0.51-1.08-0.51c-0.46,0-0.82,0.17-1.08,0.51
					C238.56,25.42,238.43,25.86,238.43,26.39z M244.11,26.38c0,0.26-0.02,0.5-0.05,0.73h1.68v-1.26h-1.66
					c0.01,0.09,0.02,0.17,0.02,0.27C244.11,26.2,244.11,26.29,244.11,26.38z"/>
				<path class="st6" d="M259.48,36.1c-0.68-0.58-1.34-1.24-1.98-1.99c-0.64-0.75-1.2-1.57-1.69-2.46c-0.31,0.91-0.7,1.76-1.17,2.53
					s-0.99,1.54-1.57,2.31l-2.39-1.61c0.56-0.75,1.03-1.47,1.42-2.16c0.39-0.69,0.7-1.39,0.94-2.12c0.24-0.73,0.42-1.49,0.55-2.31
					c0.12-0.81,0.2-1.72,0.22-2.73v-3.4h2.82v3.82c0.25,1.09,0.55,2.05,0.92,2.89c0.37,0.84,0.76,1.58,1.19,2.23
					c0.42,0.64,0.86,1.21,1.31,1.71c0.45,0.49,0.89,0.94,1.31,1.34V21.9h2.85v5.85h1.39v2.98h-1.39v5.93h-2.85v-2.42L259.48,36.1z"
					/>
				<path class="st6" d="M281.34,30.22h-13.87v-2.27h4v-2.44h2.63v2.44h2.92l0.35-3.26h-9.03v-2.5h12.22l-0.66,5.76h1.44V30.22z
					 M268.17,33.88c0,0.51,0.15,0.94,0.45,1.31c0.3,0.37,0.73,0.67,1.27,0.9c0.55,0.24,1.2,0.41,1.97,0.52
					c0.76,0.11,1.61,0.17,2.53,0.17c0.91,0,1.75-0.06,2.52-0.17c0.76-0.11,1.42-0.29,1.97-0.52c0.55-0.24,0.98-0.54,1.28-0.9
					c0.31-0.37,0.46-0.8,0.46-1.31c0-0.5-0.15-0.94-0.46-1.31c-0.31-0.37-0.73-0.67-1.28-0.91s-1.2-0.41-1.97-0.52
					s-1.6-0.17-2.52-0.17c-0.92,0-1.77,0.06-2.53,0.17c-0.76,0.11-1.42,0.29-1.97,0.52s-0.97,0.54-1.27,0.91
					C268.32,32.93,268.17,33.37,268.17,33.88z M271.34,33.88c0-0.19,0.09-0.36,0.27-0.49c0.18-0.13,0.42-0.24,0.71-0.31
					s0.62-0.13,0.98-0.16s0.72-0.05,1.09-0.05s0.73,0.02,1.09,0.05s0.69,0.09,0.98,0.16s0.53,0.18,0.71,0.31
					c0.18,0.13,0.27,0.3,0.27,0.49s-0.09,0.36-0.27,0.48c-0.18,0.13-0.42,0.23-0.71,0.31s-0.62,0.13-0.98,0.16s-0.72,0.05-1.09,0.05
					s-0.73-0.02-1.09-0.05s-0.69-0.09-0.98-0.16s-0.53-0.18-0.71-0.31C271.44,34.23,271.34,34.07,271.34,33.88z"/>
				<path class="st6" d="M289.86,33.05h-2.23v1.39h9.39v2.23h-12.29v-4.11h2.45v-1.32h-3.35V28.7h9.06v2.53h-3.03V33.05z
					 M283.92,25.14c0-0.41,0.08-0.8,0.25-1.16c0.17-0.37,0.42-0.69,0.77-0.97c0.34-0.28,0.79-0.5,1.33-0.67
					c0.54-0.17,1.19-0.25,1.94-0.25c0.75,0,1.4,0.08,1.94,0.24c0.54,0.16,0.99,0.38,1.33,0.66c0.34,0.28,0.6,0.61,0.77,0.98
					c0.17,0.37,0.25,0.76,0.25,1.17c0,0.41-0.08,0.8-0.25,1.17c-0.17,0.37-0.42,0.69-0.77,0.97c-0.34,0.27-0.79,0.49-1.33,0.65
					c-0.54,0.16-1.19,0.24-1.94,0.24c-0.75,0-1.4-0.08-1.94-0.24s-0.99-0.38-1.33-0.66c-0.34-0.28-0.6-0.6-0.77-0.97
					C284.01,25.93,283.92,25.55,283.92,25.14z M286.66,25.14c0,0.27,0.12,0.5,0.36,0.71c0.24,0.2,0.64,0.31,1.19,0.31
					c0.55,0,0.94-0.1,1.19-0.31s0.36-0.44,0.36-0.71c0-0.27-0.12-0.51-0.36-0.71s-0.64-0.31-1.19-0.31c-0.55,0-0.94,0.1-1.19,0.31
					C286.78,24.63,286.66,24.87,286.66,25.14z M294.07,32.65v-4.53h-1.11V25.4h1.11v-3.48h2.73v10.74H294.07z"/>
			</g>
			<g>
				<path class="st10" d="M270.4,56.12v-5.47c-0.32,0.22-0.63,0.41-0.94,0.59c-0.31,0.18-0.64,0.32-0.98,0.43v-2.19
					c0.58-0.24,1.06-0.55,1.45-0.93s0.68-0.83,0.88-1.34h1.56v8.91H270.4z"/>
				<path class="st10" d="M280.29,53.99v2.12h-5.86c0.05-0.4,0.12-0.77,0.22-1.11c0.1-0.34,0.23-0.65,0.39-0.94
					c0.17-0.3,0.41-0.65,0.74-1.04c0.33-0.39,0.71-0.79,1.13-1.2c0.07-0.05,0.14-0.11,0.21-0.17l0.09-0.09
					c0.14-0.14,0.27-0.27,0.37-0.38c0.1-0.11,0.18-0.19,0.24-0.25c0.14-0.17,0.25-0.35,0.31-0.53c0.06-0.18,0.1-0.36,0.1-0.52
					c0-0.53-0.26-0.79-0.77-0.79c-0.26,0-0.46,0.11-0.61,0.32s-0.25,0.51-0.3,0.9c-0.19-0.03-0.35-0.05-0.5-0.07
					c-0.15-0.01-0.31-0.03-0.48-0.04l-0.98-0.09c0.04-0.45,0.12-0.84,0.23-1.17s0.25-0.61,0.42-0.84c0.46-0.63,1.19-0.95,2.2-0.95
					c0.45,0,0.86,0.07,1.21,0.2c0.36,0.13,0.66,0.33,0.92,0.58c0.49,0.47,0.73,1.1,0.73,1.87c0,0.45-0.1,0.88-0.31,1.3
					c-0.21,0.42-0.52,0.85-0.93,1.28c-0.04,0.06-0.18,0.22-0.44,0.48c-0.26,0.26-0.64,0.64-1.15,1.13H280.29z"/>
				<path class="st10" d="M283.94,56.29c-0.83,0-1.48-0.22-1.95-0.66s-0.79-1.13-0.95-2.07c0.32-0.05,0.64-0.09,0.95-0.13
					s0.63-0.08,0.95-0.12c0.08,0.37,0.19,0.65,0.34,0.84c0.15,0.19,0.36,0.29,0.63,0.29c0.56,0,0.84-0.36,0.84-1.08
					c0-0.72-0.27-1.08-0.81-1.08c-0.27,0-0.53,0.03-0.78,0.08l0.1-0.94c0.01-0.14,0.03-0.29,0.04-0.45c0.01-0.16,0.03-0.3,0.04-0.43
					h0.12c0.65,0,0.97-0.3,0.97-0.91c0-0.42-0.21-0.63-0.63-0.63c-0.47,0-0.75,0.28-0.84,0.85c-0.24-0.03-0.46-0.06-0.67-0.08
					c-0.21-0.03-0.43-0.06-0.66-0.09c-0.08-0.01-0.16-0.03-0.25-0.04c-0.09-0.01-0.17-0.02-0.25-0.04c0.22-1.62,1.13-2.44,2.74-2.44
					c0.49,0,0.91,0.08,1.26,0.23s0.64,0.37,0.87,0.65c0.12,0.19,0.23,0.43,0.32,0.7c0.09,0.27,0.14,0.52,0.14,0.76
					c0,0.65-0.29,1.2-0.86,1.66c0.84,0.55,1.26,1.28,1.26,2.17c0,0.39-0.06,0.75-0.17,1.07c-0.12,0.32-0.28,0.63-0.51,0.91
					C285.66,55.96,284.91,56.29,283.94,56.29z"/>
				<path class="st10" d="M292.78,54.68v1.43h-1.91v-1.42h-3.47v-2.08l1.53-2.23l2.18-3.17h1.67v5.4h0.88v2.07H292.78z
					 M290.87,50.58l-1.39,2.02h1.39V50.58z"/>
				<path class="st10" d="M297.09,56.29c-0.36,0-0.7-0.07-1.02-0.2c-0.32-0.13-0.62-0.32-0.89-0.57c-0.27-0.25-0.49-0.53-0.66-0.83
					c-0.17-0.3-0.28-0.66-0.33-1.07c0.19-0.01,0.35-0.03,0.5-0.05c0.15-0.02,0.3-0.05,0.47-0.08c0.31-0.04,0.63-0.08,0.97-0.11
					c0.12,0.61,0.41,0.92,0.88,0.92c0.63,0,0.94-0.35,0.94-1.06c0-0.83-0.31-1.25-0.92-1.25c-0.39,0-0.69,0.17-0.92,0.5l-0.9-0.11
					l-0.86-0.11c0.1-0.63,0.19-1.25,0.26-1.84c0.08-0.6,0.15-1.21,0.23-1.84c0.04-0.22,0.07-0.43,0.1-0.66
					c0.03-0.22,0.06-0.45,0.1-0.68h4.58v2.09h-3.01l-0.1,0.98c0.19-0.06,0.36-0.1,0.52-0.13c0.16-0.03,0.3-0.04,0.43-0.04
					c0.75,0,1.36,0.27,1.83,0.8c0.49,0.53,0.73,1.21,0.73,2.04c0,0.87-0.23,1.6-0.68,2.19C298.84,55.92,298.08,56.29,297.09,56.29z"
					/>
				<path class="st10" d="M300.6,53.24v-1.51h2.85v1.51H300.6z"/>
				<path class="st10" d="M309.64,53.99v2.12h-5.86c0.05-0.4,0.12-0.77,0.22-1.11c0.1-0.34,0.23-0.65,0.39-0.94
					c0.17-0.3,0.41-0.65,0.74-1.04c0.33-0.39,0.71-0.79,1.13-1.2c0.07-0.05,0.14-0.11,0.21-0.17l0.09-0.09
					c0.14-0.14,0.27-0.27,0.37-0.38c0.1-0.11,0.18-0.19,0.24-0.25c0.14-0.17,0.25-0.35,0.31-0.53c0.06-0.18,0.1-0.36,0.1-0.52
					c0-0.53-0.25-0.79-0.77-0.79c-0.26,0-0.46,0.11-0.61,0.32s-0.25,0.51-0.3,0.9c-0.19-0.03-0.35-0.05-0.5-0.07
					c-0.15-0.01-0.31-0.03-0.48-0.04l-0.98-0.09c0.04-0.45,0.12-0.84,0.23-1.17s0.25-0.61,0.42-0.84c0.46-0.63,1.19-0.95,2.2-0.95
					c0.45,0,0.86,0.07,1.21,0.2c0.36,0.13,0.66,0.33,0.92,0.58c0.49,0.47,0.73,1.1,0.73,1.87c0,0.45-0.1,0.88-0.31,1.3
					c-0.21,0.42-0.52,0.85-0.93,1.28c-0.04,0.06-0.18,0.22-0.44,0.48s-0.64,0.64-1.15,1.13H309.64z"/>
				<path class="st10" d="M313.29,56.29c-0.83,0-1.48-0.22-1.95-0.66s-0.79-1.13-0.95-2.07c0.32-0.05,0.64-0.09,0.95-0.13
					s0.63-0.08,0.95-0.12c0.08,0.37,0.19,0.65,0.34,0.84c0.15,0.19,0.36,0.29,0.63,0.29c0.56,0,0.84-0.36,0.84-1.08
					c0-0.72-0.27-1.08-0.81-1.08c-0.27,0-0.53,0.03-0.78,0.08l0.1-0.94c0.01-0.14,0.03-0.29,0.04-0.45c0.01-0.16,0.03-0.3,0.04-0.43
					h0.12c0.65,0,0.97-0.3,0.97-0.91c0-0.42-0.21-0.63-0.63-0.63c-0.47,0-0.75,0.28-0.84,0.85c-0.24-0.03-0.46-0.06-0.67-0.08
					s-0.43-0.06-0.66-0.09c-0.08-0.01-0.16-0.03-0.25-0.04s-0.17-0.02-0.25-0.04c0.22-1.62,1.13-2.44,2.74-2.44
					c0.49,0,0.91,0.08,1.26,0.23c0.35,0.15,0.64,0.37,0.87,0.65c0.12,0.19,0.23,0.43,0.32,0.7c0.09,0.27,0.14,0.52,0.14,0.76
					c0,0.65-0.29,1.2-0.86,1.66c0.84,0.55,1.26,1.28,1.26,2.17c0,0.39-0.06,0.75-0.17,1.07c-0.11,0.32-0.28,0.63-0.51,0.91
					C315.01,55.96,314.26,56.29,313.29,56.29z"/>
				<path class="st10" d="M322.14,54.68v1.43h-1.91v-1.42h-3.47v-2.08l1.53-2.23l2.18-3.17h1.67v5.4h0.88v2.07H322.14z
					 M320.23,50.58l-1.39,2.02h1.39V50.58z"/>
				<path class="st10" d="M326.44,56.29c-0.36,0-0.7-0.07-1.02-0.2c-0.32-0.13-0.62-0.32-0.89-0.57c-0.27-0.25-0.49-0.53-0.66-0.83
					c-0.17-0.3-0.28-0.66-0.33-1.07c0.19-0.01,0.35-0.03,0.5-0.05c0.15-0.02,0.3-0.05,0.47-0.08c0.31-0.04,0.63-0.08,0.97-0.11
					c0.11,0.61,0.41,0.92,0.88,0.92c0.63,0,0.94-0.35,0.94-1.06c0-0.83-0.31-1.25-0.92-1.25c-0.39,0-0.69,0.17-0.92,0.5l-0.9-0.11
					l-0.86-0.11c0.1-0.63,0.19-1.25,0.26-1.84s0.15-1.21,0.23-1.84c0.04-0.22,0.07-0.43,0.1-0.66c0.03-0.22,0.06-0.45,0.1-0.68h4.58
					v2.09h-3.01l-0.1,0.98c0.19-0.06,0.36-0.1,0.52-0.13c0.16-0.03,0.3-0.04,0.43-0.04c0.75,0,1.36,0.27,1.83,0.8
					c0.49,0.53,0.73,1.21,0.73,2.04c0,0.87-0.23,1.6-0.68,2.19C328.19,55.92,327.43,56.29,326.44,56.29z"/>
				<path class="st10" d="M329.96,53.24v-1.51h2.85v1.51H329.96z"/>
				<path class="st10" d="M336.41,56.3c-0.93,0-1.65-0.45-2.17-1.35c-0.23-0.41-0.4-0.88-0.52-1.4c-0.12-0.52-0.18-1.12-0.18-1.78
					c0-0.56,0.04-1.09,0.13-1.6s0.21-0.95,0.37-1.34c0.23-0.52,0.54-0.93,0.93-1.23c0.39-0.3,0.85-0.45,1.38-0.45
					c1.08,0,1.87,0.56,2.36,1.68c0.19,0.41,0.33,0.86,0.42,1.34c0.09,0.48,0.13,1.01,0.13,1.6c0,0.68-0.06,1.27-0.17,1.8
					c-0.12,0.52-0.29,0.99-0.52,1.4C338.06,55.85,337.34,56.3,336.41,56.3z M336.38,49c-0.19,0-0.34,0.06-0.46,0.18
					c-0.12,0.12-0.21,0.31-0.27,0.58c-0.06,0.32-0.1,0.96-0.1,1.91c0,0.49,0.01,0.89,0.02,1.21c0.01,0.32,0.04,0.56,0.06,0.72
					c0.09,0.55,0.34,0.83,0.74,0.83c0.39,0,0.64-0.27,0.74-0.82c0.03-0.17,0.05-0.41,0.06-0.73c0.01-0.32,0.02-0.72,0.02-1.21
					c0-0.38,0-0.7-0.01-0.96c-0.01-0.26-0.02-0.46-0.03-0.58c-0.05-0.37-0.14-0.65-0.27-0.84C336.76,49.09,336.59,49,336.38,49z"/>
				<path class="st10" d="M342.71,56.3c-1.32,0-2.14-0.79-2.44-2.38c0.17-0.02,0.33-0.04,0.48-0.06c0.15-0.02,0.3-0.04,0.47-0.05
					l0.95-0.09c0.04,0.23,0.12,0.41,0.24,0.53c0.12,0.12,0.28,0.18,0.46,0.18c0.57,0,0.87-0.62,0.91-1.87
					c-0.24,0.17-0.46,0.29-0.67,0.38c-0.21,0.09-0.43,0.13-0.64,0.13c-0.37,0-0.7-0.08-0.99-0.23c-0.29-0.15-0.55-0.36-0.78-0.61
					c-0.42-0.55-0.64-1.26-0.64-2.12c0-0.87,0.24-1.57,0.72-2.1c0.52-0.55,1.22-0.83,2.09-0.83c0.53,0,1,0.12,1.41,0.37
					c0.41,0.24,0.74,0.59,0.99,1.05v-0.01c0.42,0.78,0.63,1.8,0.63,3.06c0,1.32-0.22,2.38-0.67,3.18c-0.27,0.49-0.62,0.86-1.04,1.11
					C343.76,56.17,343.27,56.3,342.71,56.3z M342.86,49.02c-0.53,0-0.79,0.37-0.79,1.12c0,0.74,0.27,1.11,0.8,1.11
					c0.55,0,0.82-0.37,0.82-1.11C343.69,49.39,343.41,49.02,342.86,49.02z"/>
				<path class="st10" d="M349.57,56.29c-0.53,0-0.99-0.08-1.38-0.23c-0.39-0.16-0.71-0.4-0.96-0.74c-0.37-0.49-0.56-1.1-0.56-1.84
					c0-0.82,0.34-1.54,1.02-2.16c-0.27-0.23-0.48-0.49-0.61-0.78c-0.13-0.29-0.2-0.62-0.2-1c0-0.27,0.06-0.55,0.17-0.84
					c0.11-0.28,0.23-0.53,0.36-0.74c0.23-0.25,0.51-0.45,0.85-0.59c0.34-0.14,0.74-0.21,1.21-0.21c0.36,0,0.7,0.06,1.02,0.17
					s0.59,0.24,0.83,0.38c0.27,0.23,0.47,0.5,0.62,0.81s0.22,0.66,0.22,1.05c0,0.66-0.27,1.23-0.81,1.74
					c0.73,0.62,1.09,1.34,1.09,2.14c0,0.34-0.04,0.66-0.12,0.96c-0.08,0.29-0.21,0.56-0.37,0.81
					C351.47,55.93,350.67,56.29,349.57,56.29z M349.53,52.31c-0.53,0-0.8,0.36-0.8,1.07s0.27,1.07,0.82,1.07
					c0.52,0,0.78-0.36,0.78-1.07S350.07,52.31,349.53,52.31z M349.53,48.96c-0.47,0-0.7,0.25-0.7,0.75c0,0.51,0.23,0.77,0.7,0.77
					c0.45,0,0.68-0.25,0.68-0.77C350.21,49.22,349.99,48.96,349.53,48.96z"/>
				<path class="st10" d="M354.16,56.12c0.11-1.19,0.35-2.33,0.69-3.43c0.35-1.1,0.81-2.19,1.39-3.26h-3.2v-2.18h5.75v1.73
					c-0.27,0.27-0.54,0.61-0.79,1s-0.49,0.84-0.7,1.34c-0.29,0.68-0.54,1.43-0.73,2.24c-0.19,0.81-0.32,1.66-0.38,2.56H354.16z"/>
				<path class="st10" d="M362.46,56.29c-1.08,0-1.88-0.47-2.4-1.42c-0.43-0.74-0.65-1.76-0.65-3.06c0-0.68,0.06-1.29,0.18-1.83
					s0.28-1,0.49-1.39c0.3-0.45,0.67-0.8,1.1-1.05c0.43-0.25,0.9-0.38,1.41-0.38c0.3,0,0.57,0.03,0.81,0.1
					c0.24,0.07,0.44,0.15,0.6,0.25c0.51,0.35,0.87,0.93,1.07,1.75c-0.34,0.07-0.66,0.14-0.95,0.21s-0.62,0.14-0.95,0.22
					c-0.12-0.45-0.36-0.67-0.7-0.67c-0.58,0-0.87,0.6-0.9,1.81c0.21-0.19,0.42-0.32,0.63-0.4c0.21-0.08,0.43-0.12,0.67-0.12
					c0.34,0,0.65,0.08,0.94,0.23s0.55,0.34,0.78,0.56c0.22,0.27,0.38,0.59,0.5,0.94c0.12,0.36,0.18,0.74,0.18,1.16
					c0,0.88-0.24,1.61-0.73,2.19C364.03,55.98,363.33,56.29,362.46,56.29z M362.45,52.09c-0.55,0-0.83,0.37-0.83,1.12
					c0,0.81,0.29,1.21,0.87,1.21c0.5,0,0.75-0.38,0.75-1.14C363.25,52.49,362.98,52.09,362.45,52.09z"/>
				<path class="st10" d="M365.83,53.24v-1.51h2.85v1.51H365.83z"/>
				<path class="st10" d="M371.23,56.12v-5.47c-0.32,0.22-0.63,0.41-0.94,0.59c-0.31,0.18-0.64,0.32-0.98,0.43v-2.19
					c0.58-0.24,1.06-0.55,1.45-0.93c0.38-0.38,0.68-0.83,0.88-1.34h1.56v8.91H371.23z"/>
				<path class="st10" d="M381.12,53.99v2.12h-5.86c0.05-0.4,0.12-0.77,0.22-1.11c0.1-0.34,0.23-0.65,0.39-0.94
					c0.17-0.3,0.41-0.65,0.74-1.04c0.33-0.39,0.71-0.79,1.13-1.2c0.07-0.05,0.14-0.11,0.21-0.17l0.09-0.09
					c0.14-0.14,0.27-0.27,0.37-0.38c0.1-0.11,0.18-0.19,0.24-0.25c0.14-0.17,0.25-0.35,0.31-0.53c0.06-0.18,0.1-0.36,0.1-0.52
					c0-0.53-0.26-0.79-0.77-0.79c-0.26,0-0.46,0.11-0.61,0.32s-0.25,0.51-0.3,0.9c-0.19-0.03-0.35-0.05-0.5-0.07
					c-0.15-0.01-0.31-0.03-0.48-0.04l-0.98-0.09c0.04-0.45,0.12-0.84,0.23-1.17c0.11-0.33,0.25-0.61,0.42-0.84
					c0.46-0.63,1.19-0.95,2.2-0.95c0.45,0,0.86,0.07,1.21,0.2c0.36,0.13,0.66,0.33,0.92,0.58c0.49,0.47,0.73,1.1,0.73,1.87
					c0,0.45-0.1,0.88-0.31,1.3c-0.21,0.42-0.52,0.85-0.93,1.28c-0.04,0.06-0.18,0.22-0.44,0.48c-0.25,0.26-0.64,0.64-1.15,1.13
					H381.12z"/>
			</g>
			<g>
				<g>
					<path class="st9" d="M285.6,181.26l-0.58,0.29c-0.26,0.07-0.45,0.05-0.59-0.08c-0.13-0.13-0.2-0.36-0.2-0.71v-0.46l3.25-1.11
						c0.46-0.16,0.73-0.14,0.81,0.04s0.1,0.46,0.06,0.82v7.51c0,0.41-0.09,0.7-0.28,0.89c-0.19,0.19-0.45,0.28-0.78,0.28h-1.69
						V181.26z"/>
					<path class="st9" d="M293.25,189.42c-0.26,0.01-0.52-0.1-0.78-0.34c-0.26-0.23-0.44-0.52-0.55-0.85c0-0.13,0.08-0.2,0.23-0.2
						s0.29-0.01,0.39-0.01h4.35v-1.55h1.47c0.27,0,0.47,0.04,0.6,0.11c0.13,0.07,0.2,0.18,0.2,0.33v1.11h4.02
						c0.46-0.04,0.7,0.18,0.71,0.66s-0.23,0.72-0.73,0.73H293.25z M302.75,183.88c0,0.65-0.49,1.15-1.47,1.52
						c-0.98,0.37-2.18,0.55-3.59,0.55c-1.41,0-2.6-0.18-3.59-0.55c-0.99-0.37-1.48-0.88-1.48-1.52c0-0.41,0.27-0.84,0.79-1.27
						c0.53-0.43,1.17-0.74,1.93-0.91l-1.73-0.01c-0.27,0-0.51-0.14-0.73-0.42c-0.22-0.28-0.36-0.52-0.44-0.72
						c-0.01-0.16,0.05-0.27,0.17-0.35c0.12-0.07,0.27-0.11,0.45-0.11h3.33v-0.29c0.04-0.19,0-0.32-0.14-0.38
						c-0.14-0.06-0.23-0.17-0.28-0.34c-0.01-0.13,0.03-0.22,0.11-0.26s0.18-0.07,0.3-0.07h2.19c0.18,0,0.33,0.07,0.44,0.2
						c0.12,0.13,0.19,0.25,0.21,0.35v0.79l3.08,0.01c0.44-0.03,0.66,0.22,0.66,0.75c0,0.52-0.22,0.81-0.66,0.84h-2.14
						c0.8,0.15,1.43,0.44,1.88,0.89C302.52,183.03,302.75,183.46,302.75,183.88z M297.7,182.4c-0.42,0-0.84,0.08-1.26,0.25
						c-0.41,0.17-0.62,0.38-0.62,0.65c0,0.29,0.21,0.51,0.62,0.68c0.42,0.17,0.83,0.25,1.26,0.25c0.62,0,1.14-0.08,1.56-0.25
						c0.42-0.17,0.64-0.39,0.64-0.68c0-0.27-0.21-0.48-0.64-0.65C298.84,182.48,298.32,182.4,297.7,182.4z"/>
					<path class="st9" d="M310.08,185.33c-0.39,1.11-0.63,1.79-0.74,2.03c-0.11,0.24-0.3,0.65-0.59,1.22
						c-0.67,0.86-1.33,1.07-1.97,0.63c-0.64-0.44-0.71-0.92-0.21-1.44c0.41-0.76,0.75-1.51,1.04-2.27c0.29-0.76,0.52-2.03,0.69-3.82
						h-1.05c-0.37,0-0.66-0.11-0.88-0.32c-0.22-0.21-0.33-0.46-0.33-0.75c0.02-0.18,0.12-0.29,0.3-0.32
						c0.18-0.03,0.41-0.03,0.7-0.01l1.31-0.03l-0.03-0.5c0-0.16-0.12-0.3-0.37-0.42c-0.25-0.12-0.34-0.25-0.26-0.37
						c0.1-0.11,0.2-0.19,0.3-0.23c0.1-0.04,0.24-0.06,0.41-0.06h1.91c0.24,0,0.42,0.04,0.53,0.12s0.17,0.22,0.17,0.4v1.08h1.46
						c0.43-0.02,0.64,0.22,0.63,0.71s-0.22,0.72-0.63,0.69h-1.49c-0.01,0.23-0.03,0.47-0.06,0.72c-0.03,0.25-0.07,0.46-0.12,0.62
						c0.59,0.78,1.07,1.54,1.45,2.27c0.38,0.73,0.7,1.56,0.95,2.49c0.26,0.92,0,1.4-0.77,1.43c-0.77,0.03-1.24-0.28-1.4-0.93
						c-0.14-0.49-0.24-0.88-0.32-1.17S310.43,186.2,310.08,185.33z M316.54,183.57h0.87c0.43-0.02,0.66,0.2,0.67,0.65
						c0.01,0.45-0.21,0.7-0.67,0.75h-0.87v3.73c0,0.31-0.03,0.65-0.08,1c-0.06,0.35-0.2,0.52-0.43,0.49h-2.34v-10.91
						c0-0.15-0.12-0.27-0.37-0.38c-0.24-0.11-0.4-0.23-0.48-0.37c-0.02-0.1,0.03-0.18,0.13-0.23c0.11-0.05,0.21-0.08,0.31-0.08h2.23
						c0.33,0,0.58,0.09,0.76,0.28c0.17,0.18,0.26,0.44,0.26,0.76V183.57z"/>
					<path class="st9" d="M326.83,181.01c-0.08,0.14-0.15,0.33-0.19,0.57s-0.07,0.57-0.08,1c0.32-0.29,0.58-0.48,0.77-0.56
						c0.19-0.08,0.42-0.12,0.7-0.12c0.37,0,0.69,0.06,0.97,0.19c0.28,0.13,0.53,0.33,0.75,0.59c0.22,0.29,0.39,0.64,0.5,1.05
						c0.12,0.41,0.17,0.91,0.17,1.48c0,0.65-0.08,1.22-0.24,1.69c-0.16,0.47-0.4,0.86-0.73,1.17c-0.31,0.31-0.64,0.53-1,0.65
						c-0.35,0.12-0.78,0.18-1.3,0.18c-0.4,0-0.75-0.03-1.06-0.1c-0.31-0.06-0.59-0.17-0.83-0.32c-0.28-0.17-0.52-0.4-0.73-0.68
						c-0.21-0.28-0.38-0.62-0.51-1c-0.1-0.28-0.18-0.61-0.24-1.01c-0.06-0.4-0.08-0.83-0.08-1.3c0-1.28,0.19-2.34,0.57-3.19
						c0.38-0.84,0.95-1.49,1.69-1.93c0.33-0.18,0.68-0.32,1.04-0.41c0.36-0.09,0.76-0.14,1.2-0.14c0.05,0,0.1,0,0.16,0.01
						c0.06,0,0.11,0.01,0.16,0.01c0.21,0,0.34,0.03,0.37,0.08c0.04,0.05,0.06,0.13,0.07,0.23l0.11,0.55
						c0.05,0.27,0.08,0.44,0.1,0.51c0.02,0.07-0.15,0.05-0.5-0.07c-0.04-0.01-0.08-0.02-0.13-0.02c-0.05,0-0.1-0.01-0.14-0.01
						c-0.33,0-0.64,0.08-0.93,0.25C327.19,180.53,326.98,180.75,326.83,181.01z M326.47,184.26c-0.01,0.29-0.02,0.53-0.03,0.73
						c-0.01,0.2-0.02,0.37-0.02,0.5c0,0.74,0.05,1.28,0.16,1.64c0.11,0.35,0.29,0.53,0.55,0.53c0.27,0,0.46-0.18,0.57-0.54
						c0.11-0.36,0.17-0.93,0.17-1.7c0-0.64-0.06-1.12-0.17-1.46c-0.12-0.34-0.29-0.5-0.53-0.5c-0.2,0-0.36,0.1-0.47,0.29
						C326.57,183.95,326.5,184.12,326.47,184.26z"/>
					<path class="st9" d="M332.73,186.25l-0.53,1.71c-0.06,0.27-0.16,0.46-0.3,0.59c-0.13,0.12-0.35,0.19-0.64,0.19h-0.17
						c-0.13,0-0.22-0.03-0.28-0.08c-0.06-0.06-0.04-0.17,0.06-0.35l2.78-8.72c0.05-0.28,0.12-0.45,0.21-0.51
						c0.09-0.06,0.27-0.09,0.52-0.07h0.84c0.31,0,0.55,0.06,0.72,0.19c0.17,0.12,0.29,0.38,0.37,0.77l2.42,7.42
						c0.21,0.64,0.21,1.02-0.02,1.15c-0.23,0.13-0.55,0.2-0.96,0.2h-1.59l-0.73-2.49H332.73z M333.19,184.84h1.82l-0.88-3.21
						L333.19,184.84z"/>
					<path class="st9" d="M342.68,179.59c0-0.16-0.12-0.3-0.37-0.42c-0.25-0.12-0.34-0.25-0.26-0.37c0.1-0.11,0.2-0.19,0.3-0.23
						c0.1-0.04,0.24-0.06,0.42-0.06h2.25c0.23,0,0.39,0.07,0.48,0.2c0.09,0.13,0.11,0.29,0.06,0.46c-0.04,0.17-0.1,0.38-0.2,0.61
						s-0.18,0.43-0.26,0.59c0.39,0.29,0.77,0.62,1.14,1.01c0.37,0.39,0.66,0.72,0.86,1c0.28,0.66,0.07,1.17-0.61,1.53
						s-1.14,0.2-1.38-0.48c-0.23-0.38-0.4-0.65-0.5-0.83c-0.11-0.17-0.25-0.39-0.44-0.64c-0.43,0.71-0.79,1.21-1.06,1.49
						c-0.27,0.29-0.64,0.61-1.1,0.98c-0.3,0.33-0.72,0.32-1.24-0.03c-0.52-0.35-0.56-0.69-0.1-1.02c0.25-0.34,0.6-0.86,1.04-1.55
						C342.17,181.15,342.49,180.4,342.68,179.59z M342.64,186.67c-0.09,0.01-0.24-0.08-0.46-0.27c-0.21-0.19-0.39-0.42-0.53-0.69
						c0-0.14,0.05-0.25,0.14-0.32c0.09-0.07,0.23-0.11,0.4-0.11h8.12c0.41,0,0.69,0.11,0.85,0.32s0.24,0.49,0.24,0.85v2.4
						c0.03,0.72-0.2,1.14-0.69,1.26c-0.49,0.12-1.21,0.19-2.16,0.19v-3.62H342.64z M351.42,183.7c0,0.48-0.24,0.76-0.72,0.84
						s-1.19,0.12-2.12,0.12v-1.94h-0.55c-0.48,0-0.72-0.23-0.73-0.7c0-0.47,0.24-0.7,0.73-0.69h0.55v-1.87
						c0-0.15-0.12-0.3-0.35-0.46c-0.24-0.16-0.39-0.3-0.46-0.44c-0.02-0.1,0.03-0.18,0.13-0.23c0.11-0.05,0.21-0.08,0.31-0.08h2.22
						c0.32,0,0.56,0.09,0.74,0.28s0.27,0.44,0.27,0.76V183.7z"/>
				</g>
			</g>
		</g>
	</g>
</g>
</svg>
