<svg xmlns="http://www.w3.org/2000/svg" xmlns:xlink="http://www.w3.org/1999/xlink" viewBox="0 0 300.72 67.92"><defs><style>.cls-1{fill:none;}.cls-2{fill:#bb6d37;}.cls-3{fill:#319c39;}.cls-4{fill:#7e461c;}.cls-5{fill:#6ea72f;}.cls-6{clip-path:url(#clip-path);}.cls-7{fill:#52801f;}.cls-8{fill:#9dc814;}</style><clipPath id="clip-path"><path class="cls-1" d="M239.68,44.36h9.4C245.44,42.06,242,38,239,33.72h6.85c-8.24-5.2-15.41-21.5-15.41-21.5-5.36,14.89-13.26,21.5-13.26,21.5h5.41A49.18,49.18,0,0,1,214,44.36h8A42,42,0,0,1,214,52h35.1A33.84,33.84,0,0,1,239.68,44.36Z"/></clipPath></defs><g id="레이어_2" data-name="레이어 2"><g id="레이어_1-2" data-name="레이어 1"><rect class="cls-2" x="20.17" y="45.74" width="4.33" height="19.82"/><circle class="cls-3" cx="25.76" cy="21.23" r="11.17"/><circle class="cls-3" cx="14.13" cy="33.83" r="14.13"/><circle class="cls-3" cx="28.26" cy="38.84" r="13.22" transform="translate(-5.42 4.59) rotate(-8.48)"/><rect class="cls-4" x="229.19" y="50.78" width="4.17" height="9.54"/><path class="cls-5" d="M239.68,44.36h9.4C245.44,42.06,242,38,239,33.72h6.85c-8.24-5.2-15.41-21.5-15.41-21.5-5.36,14.89-13.26,21.5-13.26,21.5h5.41A49.18,49.18,0,0,1,214,44.36h8A42,42,0,0,1,214,52h35.1A33.84,33.84,0,0,1,239.68,44.36Z"/><g class="cls-6"><path class="cls-7" d="M242.62,16.89S243,33.36,231.5,42c-7,5.29-19.85,6.42-20.41,6.56S200,32.73,200,32.73s7.18-25,7.46-25.41S237.56,0,237.56,0Z"/></g><path class="cls-8" d="M267.32,32.16c0-3.78-3.06-32.16-6.84-32.16s-6.83,28.38-6.83,32.16a6.84,6.84,0,0,0,13.67,0Z"/><rect class="cls-2" x="259.51" y="34.91" width="1.95" height="13.73"/><path class="cls-3" d="M300.72,36.56c0-3.77-3.06-32.15-6.83-32.15s-6.83,28.38-6.83,32.15a6.83,6.83,0,1,0,13.66,0Z"/><rect class="cls-2" x="292.91" y="39.32" width="1.95" height="13.73"/><path class="cls-8" d="M50.59,51.44c0-3.78-3.06-32.16-6.83-32.16s-6.83,28.38-6.83,32.16a6.83,6.83,0,0,0,13.66,0Z"/><rect class="cls-2" x="42.78" y="54.19" width="1.95" height="13.73"/></g></g></svg>