<svg xmlns="http://www.w3.org/2000/svg" viewBox="0 0 34.8 34.09"><defs><style>.cls-1{fill:#0075b7;}.cls-2{fill:#0083d0;}.cls-3{fill:#24adf3;}</style></defs><g id="레이어_2" data-name="레이어 2"><g id="Layer_1" data-name="Layer 1"><path class="cls-1" d="M2.74,29.66l-.5-.5a3.2,3.2,0,0,1,0-4.49l21.69-22,.53-.53a3.19,3.19,0,0,1,4.31-.22h0c1.42,1.18,2.81,3.91,1.54,5.26l-23,22.44A3.18,3.18,0,0,1,2.74,29.66Z"/><polygon class="cls-1" points="26.73 0 27.63 1.79 24.1 2.98 23.37 3.25 26.73 0"/><path class="cls-2" d="M.7,9.89l.18-.23A3.43,3.43,0,0,1,5.7,9L28.53,24.22c1.51,1.15,1.71,5.38.56,6.9l-2.26,3L1.36,14.71A3.44,3.44,0,0,1,.7,9.89Z"/><polygon class="cls-3" points="34.8 30.5 26.73 34.08 26.73 0 34.8 2.69 34.8 30.5"/></g></g></svg>