<svg id="Layer_1" data-name="Layer 1" xmlns="http://www.w3.org/2000/svg" viewBox="0 0 873.19 833.36"><defs><style>.cls-1{fill:none;stroke:#403e7c;stroke-miterlimit:10;}.cls-2{fill:#c11616;}</style></defs><path class="cls-1" d="M818.09,527.6a1.46,1.46,0,0,0-.07-.19L798.29,479,788,445.3a2.51,2.51,0,0,0-.76-1.16l-12.69-11-19.91-26.25L730,363.58a2.7,2.7,0,0,0-.27-.39l-13.66-16.07a2.2,2.2,0,0,0-.45-.41l-16.43-11.79a2.42,2.42,0,0,0-.74-.36L669.94,326l-11.45-11.13-23.09-46a1.71,1.71,0,0,0-.13-.23L628,257.41a2.17,2.17,0,0,0-.36-.44l-25.81-25.1-.17-.15L576,210.89,528.8,165a3,3,0,0,0-.39-.31l-30-19.38a2.5,2.5,0,0,0-2-.31l-40.15,11.17a2.51,2.51,0,0,0-1.48,1.13l-151,253.63-4.95-7.79a2.27,2.27,0,0,0-.37-.45l-44.28-43.06,13-26.86a2.42,2.42,0,0,0,.24-.95l2.83-50.13,4.45-29.35,12.21-28.86a2.49,2.49,0,0,0,.19-1.18l-2.56-31.72c-.06-1.86-1.25-43.09.62-53.16,1.45-7.81,10.27-18.14,26.22-30.69,2.54-2,5.73-4.17,9.11-6.46,12.69-8.61,28.47-19.33,32.91-35.74C358.66,45,366.09,23,366.16,22.79a2.5,2.5,0,1,0-4.73-1.61c-.07.22-7.56,22.33-12.89,42.05-4,14.62-18.89,24.76-30.89,32.91-3.45,2.34-6.71,4.56-9.39,6.67-17.17,13.51-26.34,24.54-28,33.71-2,10.77-.76,52.51-.7,54.29a.62.62,0,0,0,0,.13l2.52,31.18L270,250.71a2.43,2.43,0,0,0-.17.6l-1.36,9-6.95-2.21-18.1-12.17-14.71-14.3,1.75-15.07a2.47,2.47,0,0,0-.18-1.26L225,202.79l.35-13.75a2.5,2.5,0,0,0-.76-1.86l-10.27-10a2.53,2.53,0,0,0-1.85-.71l-25.42,1-17.19-10a2.5,2.5,0,0,0-2.51,4.33l17.82,10.36a2.48,2.48,0,0,0,1.36.34l25.08-1,8.72,8.48-.34,13.2a2.58,2.58,0,0,0,.19,1l5.21,12.38-1.82,15.64a2.49,2.49,0,0,0,.74,2.08L240,249.65a2.39,2.39,0,0,0,.35.28L259,262.42a2.53,2.53,0,0,0,.64.31l8.05,2.56-2.4,15.8a2,2,0,0,0,0,.23l-2.8,49.75L250.75,355.3l-4-5.66a2.44,2.44,0,0,0-.7-.66l-52.8-33.2a2.39,2.39,0,0,0-.93-.35c-4.13-.67-14-1.74-16.68,2.82-1.84,3.16-12.41,21.07-14.61,24.79-11.56-7.61-27.39-17.09-40-24.66-8.28-5-15.43-9.25-18.34-11.2-8.2-5.51-26.85-21.62-38.72-43.13-11.23-20.36-29-46.45-32.25-49.64s-12.13-5.62-13.9-6.1a2.5,2.5,0,0,0-1.31,4.83c3.87,1.05,10.06,3.25,11.72,4.86,2.44,2.38,19.6,27.15,31.36,48.47,12.33,22.35,31.75,39.12,40.31,44.87,3,2,9.88,6.14,18.56,11.34,18.25,10.93,43.24,25.91,51.83,33.1,12.32,10.32,29.56,25.05,30.72,26l1.71,1.66-86.8,46.76-20-16.73a2.5,2.5,0,0,0-3.2,3.84L351.77,633.74,258.46,778.06a2.5,2.5,0,0,0,.74,3.46,2.47,2.47,0,0,0,2.09.29,2.57,2.57,0,0,0,1.37-1l93-143.81,1,.86.1.08,62.14,46.48,43.58,34,121.6,98.72a2.52,2.52,0,0,0,2,.53,2,2,0,0,0,.33-.08,2.47,2.47,0,0,0,1.38-1.06l43.6-69.24,37.26-61.22,15.58-20.22,62-35.31,83.45-50a2.52,2.52,0,0,0,1.15-1.57l1.33-5.68a2.5,2.5,0,0,0-.05-1.33Zm-150.17-197,28.72,8.67,15.84,11.37,13.31,15.66,2.12,3.74-19.48,11.32c-10.32,6.23-37.59,22.66-39.83,23.82-1.22.63-4.16.43-6.14.06l-31.88-28.26-16-15.53.07,0,48-35,.28-.25,3.95,3.84A2.67,2.67,0,0,0,667.92,330.56Zm-13.7-13.13a2.52,2.52,0,0,0,.49.67l4.63,4.5-47.6,34.72a2.66,2.66,0,0,0-.63.67l-16.84-16.37L570.89,316.1a.94.94,0,0,0-.1-.1l-7.22-7,.92-.71c17.57-13.62,53.07-40.28,61.7-43.66a2.74,2.74,0,0,0,.42-.21l4.38,6.8ZM458.57,160.72l38.1-10.6,28.82,18.64,47.09,45.79.17.15,25.72,20.83,25.37,24.67c-12.38,5.39-60.34,42.54-62.39,44.13-7.27,5.55-43.63,33.36-45.68,35.47-2,1.55-17.62,5.2-27.4,6.09-8.88.81-72.87-4.59-78-5.25-3.23-.42-29.83-12.15-47-20l21-35.21,11.14,12.11c4.89,5.82,13,16,13.93,18.77,1.82,5.23,10.69,10.86,15.33,10.73a5.85,5.85,0,0,0,1.55-.29c2.27-.69,5.75-2.67,11.78-6.22,3.25-1.92,8.12-4.78,9.55-5.18,1.61.11,7.27-.72,34.91-9.24a2.5,2.5,0,0,0-1.47-4.77h0c-14.24,4.39-30.23,8.92-32.83,9.05-1.34-.27-3,.33-6.9,2.49l0-.05-3.69-4.61,30.58-32.81a2.5,2.5,0,0,0,.62-2.23l-.48-2.22,30.76-31.63a2.5,2.5,0,1,0-3.59-3.49l-31.69,32.59a2.5,2.5,0,0,0-.65,2.27l.48,2.25-31.16,33.44a2.49,2.49,0,0,0-.12,3.27l4.59,5.74-1.41.83c-3.8,2.24-9.55,5.63-10.93,5.82-2.39.06-9.36-4.2-10.47-7.38-1.55-4.43-12.66-17.76-14.87-20.39l-.07-.08L387,281ZM204.37,378.16l-.12-.11c-.18-.15-18.11-15.48-30.82-26.13-2-1.69-4.88-3.78-8.31-6.12,1.82-3.08,12.88-21.81,14.76-25.05.83-1,6.12-1.23,11.08-.5l51.94,32.67,4.56,6.39L207.26,381Zm43.87-13.58-1.37,15.3-15.59,24.46a2.69,2.69,0,0,0-.16.29l-40.7,87.86L120,433.67ZM194.4,495.81l41.19-88.93,15.83-24.83a2.38,2.38,0,0,0,.38-1.12l1.37-15.3,41.6,40.45,6.15,9.68-67.2,112.88Zm68.46-6.36,8.72,4.85a2.53,2.53,0,0,0,1.95.21,2.47,2.47,0,0,0,1.45-1.17,2.5,2.5,0,0,0-1-3.4l-8.59-4.78,38.5-64.66,6.88,10.84c1.46,2.56,27,47.27,34.16,57,7.71,10.48,47.86,36.41,53.09,38.93,1.9.92,8.41,4.5,17.06,9.44l-57.48,95.41-120-100.24Zm98.7,145.79,57.87-96.06c22.7,13.09,55.77,33.08,62.74,40.76,7.67,8.45,22.83,22.73,33.9,33.16,4.6,4.33,8.57,8.08,11,10.44.63.62,1.59,1.49,2.8,2.56l-66.28,86.8-41.66-32.52ZM585,811.44,467.51,716l30.58-40c3.56,2,26.3,14.75,33.95,22.18,8.76,8.52,52.89,46,60,51.35,5.5,4.18,17.51,12.25,22.31,15.46Zm79.38-128.13-37.31,61.31L617,760.74c-4.84-3.23-16.67-11.19-22-15.2-6.8-5.17-51.12-42.82-59.49-51-7.82-7.6-29.14-19.7-34.37-22.61l32.52-42.58c13.83,11.72,42.64,34.24,49.86,34.14,2.3,0,6.75-.61,12.37-1.35,10-1.3,28.59-3.73,32.34-1.72,4.48,2.41,22.44,13,32.51,19a1.12,1.12,0,0,0,.1.16,2.47,2.47,0,0,0,2,1.12l2.37,1.41-.69.89ZM826.24,576.78l-82.5,49.39L681.3,661.7a2.3,2.3,0,0,0-.74.65L668.35,678.2l-3.8-2.26c-3-6.7-16.12-41.38-24.21-63.22a2.5,2.5,0,1,0-4.69,1.73c3,8.07,15.42,41.54,21.73,57.22-10.07-6-23-13.57-26.76-15.62-4.79-2.57-18.25-1.07-35.35,1.16-5.25.68-9.79,1.28-11.8,1.3-4.9,0-34.52-22.38-48.3-34.37a2.6,2.6,0,0,0-.38-.36l-.1-.06c-1.63-1.43-3-2.71-4.11-3.76-2.45-2.4-6.44-6.16-11.06-10.51-11-10.37-26.09-24.58-33.63-32.88-7.77-8.56-43.1-29.72-66-42.86a.18.18,0,0,0-.07-.05l-.12-.06c-10.25-5.88-18-10.13-19.5-10.87-5.29-2.55-44.42-28.13-51.23-37.39-7-9.57-33.61-56.09-33.88-56.56l-.06-.1-8.27-13,54-90.7c9.57,4.36,44.07,20,48.92,20.6s69.56,6.14,79.12,5.27a150.82,150.82,0,0,0,24.3-4.72c3-.91,5.27-1.87,6.16-2.79,1.53-1.52,23.38-18.36,40.31-31.31a2.13,2.13,0,0,0,.28.33l7.39,7.18L590.64,345l.1.1,36.4,35.4.09.08,32.42,28.74a2.52,2.52,0,0,0,1.1.57c1,.22,5.51,1.17,8.93.12a6.91,6.91,0,0,0,1.22-.49c2.85-1.47,38.6-23.06,40.08-23.95l19.39-11.27,20,35.2.18.28,20.17,26.59a2.6,2.6,0,0,0,.36.38l12.34,10.66,10.16,33.11c0,.07.05.14.07.21l19.74,48.43,13.82,43.6Z"/><circle class="cls-2" cx="457.63" cy="160.72" r="7"/><circle class="cls-2" cx="310.51" cy="404.44" r="7"/></svg>