<svg id="Layer_1" data-name="Layer 1" xmlns="http://www.w3.org/2000/svg" viewBox="0 0 212.94 116.43"><defs><style>.cls-1{fill:none;stroke:#fff;stroke-linecap:round;stroke-linejoin:round;stroke-width:6px;}.cls-2{fill:#162042;}.cls-3{fill:#fff;}.cls-4{fill:#efb925;}.cls-5{fill:#c4b696;}</style></defs><path class="cls-1" d="M106.32,35.88l-.4-.62-.26-.41a1,1,0,0,1-.08-.37v-.22l-.7-1a.64.64,0,0,1-.07-.51l.15-.41a.65.65,0,0,1,.33-.4l.66-.3.26-.18a.36.36,0,0,1,.26-.11l.73-.08.74-.51a.58.58,0,0,1,.41-.11l.4.07.59-.55.48-.77a.42.42,0,0,1,.15-.15l.33-.26.51-.55.45-.37.25-.74.48-.95,0-.37,0,0-.81-.15-.29.22a.65.65,0,0,1-.63,0l-.55-.26-.48.22a.55.55,0,0,1-.48,0l-.26-.11-.88-.15h-.55a.59.59,0,0,1-.52-.26l-.26-.33a.5.5,0,0,1-.07-.4v-.11l0-.19.25-.51-.36-.85a.63.63,0,0,1,0-.52l.26-.55-.29-.55a.66.66,0,0,1,0-.26v-.18a.66.66,0,0,1,.37-.59l.66-.3a.15.15,0,0,1,.11,0l.41-.11.59-.3a.55.55,0,0,1,.36-.07l.63.07.7.08.52.11,1-.23.48,0a.58.58,0,0,1,.22,0l.4.12v-1l0-.7a.39.39,0,0,1,0-.36l.18-.34a.7.7,0,0,1,.7-.33l.7.08.66-.08.41-.14c.18-.08.37-.08.44,0l.15.07,1.18.22.59-.18.18,0a.67.67,0,0,1,.52,0l.4.22.3-.11a.61.61,0,0,1,.77.07l.44.41a.67.67,0,0,1,.22.66l-.11.33-.29.56,0,.66s.08,0,.11,0l.56.22.88,0,.77-.26c.08,0,.08,0,.11,0l.26,0a.58.58,0,0,1,.55.18l.12.22.73,0L125,20a.26.26,0,0,1,.15,0l.7,0a.65.65,0,0,1,.51.22l.41.44a.57.57,0,0,1,.14.48l0,.29-.37,1.07.26.55a.67.67,0,0,1,0,.52l-.22.59.11.37a.53.53,0,0,1,0,.22v.66a.46.46,0,0,1-.14.33l-.15.22a.59.59,0,0,1-.48.22h-.81l-.66-.07-.81.18h-.19l-.18,0-.92-.08-.59-.07-1,.11h-.11l-.37,0,0,.3a.48.48,0,0,1-.07.37l-.55.95-.22.7-.11.37a.14.14,0,0,0,0,.08l-.41.88,0,.37a.33.33,0,0,1-.08.18l-.4.74-.08.4a.59.59,0,0,1-.25.41l-.7.44-.48.37v.15a.57.57,0,0,1-.22.48l-.26.22-.15.07-.92.44-.26.45s-.07.11-.07.11l-.37.4a.88.88,0,0,1-.33.18l-.55.12-.74.4-.26.41c-.18.29-.44.44-.55.4l-.22-.11L111,37l-.41.3-.63.37a.53.53,0,0,1-.51.07l-.26-.11-.48.33a.5.5,0,0,1-.51.07l-.48-.11a.65.65,0,0,1-.52-.59V37l-.33-.11a.64.64,0,0,1-.41-.41Zm15.62,6.85-.33.59.07.22a.51.51,0,0,1,.07.22v.41a.52.52,0,0,1-.18.4l-.55.56a.56.56,0,0,1-.48.18l-.48,0-.48,0a.54.54,0,0,1-.48-.15l-.18-.18-.74.33a.75.75,0,0,1-.55,0l-.33-.18-.67-.22-.88.25-.15,0h-1.21l.11,1.14,1,.22a.09.09,0,0,1,.07,0l.74.33.7-.22a.43.43,0,0,1,.22,0l.7.08s.07,0,.11,0l.52.19.66-.41a.57.57,0,0,1,.33-.07l.92.07.33,0a.91.91,0,0,1,.41.22l.48.63c.11.15.18.33.14.4l0,.15,0,.59-.15.85.3.88s0,.07,0,.15v.29a.36.36,0,0,1,0,.22l-.19.48a.15.15,0,0,1-.07.11l-.37.56a.62.62,0,0,1-.44.29l-.44,0h-.15l-.77-.11-1.11.11a.49.49,0,0,1-.44-.15l-.37-.26-.62.3a.57.57,0,0,1-.59,0l-.52-.26-.37.18a.49.49,0,0,1-.22.08l-.7,0h-.15l-.36,0-1.37-.3-1,0s-.12,0-.19,0l-.44-.15L110,51.65l-.33-.11a.21.21,0,0,1-.19-.08l-.29-.22-.74-.26c-.18-.07-.33-.14-.36-.29l0-.22-.7-.74-.3-.44c0-.07-.07-.11-.07-.15l-.11-.33-.52-.66a.34.34,0,0,1-.07-.15l-.15-.48a.77.77,0,0,1,0-.26l.07-.73s0,0,0-.08l.25-1-.18-1v-.22l.11-.55c0-.08,0-.08,0-.11l.33-.74.26-.37.48-.77.07-.11a.35.35,0,0,1,.18-.22l.78-.45.48-.22.33-.33a.49.49,0,0,1,.44-.18h.74l.36-.3a.84.84,0,0,1,.41-.14H112l.29-.19a.57.57,0,0,1,.55-.07l1,.37.52-.08h.88l.85-.14s.08,0,.11,0h.55l.81-.19H118l.14,0,.78.22.51-.22a.48.48,0,0,1,.3-.07l.81,0,.07,0,.3.08a.5.5,0,0,1,.4.33l.3.55.18.44a.37.37,0,0,1,.07.19L122,42l0,.33A.6.6,0,0,1,121.94,42.73Zm1.47-5.26-.55-.52-.52-.37-.7-.07-.07,0-.59-.15a.6.6,0,0,1-.44-.4l-.15-.41-1-.59-.63-.44a.67.67,0,0,1-.37-.74l.11-.44c0-.07,0-.07,0-.11l.22-.44a.54.54,0,0,1,.37-.33l.37-.11.26-.66.07-.63v-.11l.26-.7a.55.55,0,0,1,.14-.26l.7-.66.08-.48a1.3,1.3,0,0,1,0-.15l.23-.44a.55.55,0,0,1,.33-.26c.11,0,.29.08.4.26l.19.37.47.4.89.37a.7.7,0,0,1,.26.19l.37.47.4.45.41-.08a.65.65,0,0,1,.62.19l.41.48.66.14a.13.13,0,0,1,.11,0l.66.37a.6.6,0,0,1,.74.4l.15.45a.72.72,0,0,1,0,.25l-.07.45a.41.41,0,0,1-.15.29l-.25.29-.37.71-.19.51s0,.07,0,.11l-.41.66-.15.52s-.07.07-.07.11l-.26.48a.48.48,0,0,1-.29.26l-.15.07-1.07.41-.66.14a.67.67,0,0,1-.37,0l-.29-.11A.62.62,0,0,1,123.41,37.47Zm15.8,8,0,1.32v.08l-.08.36-.14.92-.19.74a.49.49,0,0,1-.07.19l-.22.33a.51.51,0,0,1-.3.25l-.18,0-.89.59v.3a.72.72,0,0,1-.22.47l-.59.48-.11.08-.4.18-.08,0-.51.15-.92.22a.75.75,0,0,1-.48-.08l-.3-.18L133,52l-1.66.22-.77.18-.4,0a.62.62,0,0,1-.45-.08l-.51-.29-.48,0-.74.14-1.58.15h-.19l-.77-.15-.26,0c-.11,0-.14,0-.22,0l-.59-.15a.2.2,0,0,1-.18-.07l-.37-.26c-.33-.26-.48-.48-.41-.59l.12-.18V50l-.08-.59a.59.59,0,0,1,0-.26l.15-.41-.19-.51a.85.85,0,0,1,0-.48l.12-.11.44-.7a.72.72,0,0,1,.62-.3l.63.08h.52l1,.11a.21.21,0,0,1,.15,0L127,47l.88-.3.52-.18a.74.74,0,0,1,.48.07l.7.41,1.29-.45-.08-1.21-1,0-.81.07c-.07,0-.15,0-.22,0l-.85-.25-1.18.22a.47.47,0,0,1-.37-.08l-.44-.18-.48.26a.66.66,0,0,1-.36.07l-.67-.07a.7.7,0,0,1-.26-.08l-.51-.33a.57.57,0,0,1-.3-.55v-.66a.45.45,0,0,1,.11-.33l.26-.34-.14-.33a.6.6,0,0,1,0-.37l.18-.7-.26-.22a.57.57,0,0,1-.18-.48v-.33a.65.65,0,0,1,.22-.4l.41-.37c.29-.29.59-.41.73-.26l.26.22.59-.25a.75.75,0,0,1,.3,0l.66,0a.47.47,0,0,1,.22.07l.4.22.85-.18s.08,0,.11,0h1.22s.07,0,.11,0l.81.14h.66l.41,0,1.62,0,.59-.22a.68.68,0,0,1,.55,0l.15.15h.66a.67.67,0,0,1,.55.33l.19.37.81.14a.61.61,0,0,1,.33.19l.15.14.51.15c.22.08.41.22.44.37l.08.26.48.85.33.29a.69.69,0,0,1,.18.48v.44l.26,1,.15.59A1.3,1.3,0,0,0,139.21,45.5ZM127.72,26.64l.11-.26-.07-.74,0-1.18,0-.07a.63.63,0,0,1,.26-.55l.52-.41c.07-.07.15-.07.22-.11l.07,0,.15,0h.77s.08,0,.15,0l.55.14.45,0,0-.33L131,22v-.37l-.15-.85v-.15l.07-.77,0-.07.11-.37L131,19a.71.71,0,0,1,.29-.74l.3-.18a.67.67,0,0,1,.44-.15l.15,0,.74-.11.62-.22a.56.56,0,0,1,.44,0l.41.15,1,.11.36-.15a.57.57,0,0,1,.34,0l.55.11.77,0a.64.64,0,0,1,.7.11l.48.37a.7.7,0,0,1,.26.62l-.08.37,0,.81v.3l0,.18-.25.74.22,1,.07.67,0,.07v.37a.52.52,0,0,1-.19.37l-.22.29,0,.74.18.48a.61.61,0,0,1,0,.51l-.26.63,0,.55v1.18l.07.55v.48l-.07,1,0,.44.3,1v.22l0,.63.19.48a.4.4,0,0,1,0,.18l0,.78,0,.25,0,.19-.26.59-.11,1.14.25.4a.73.73,0,0,1,.12.3v.26a.67.67,0,0,1-.37.62l-.3.15a.44.44,0,0,1-.22.07l-.81,0-.55,0-.81.15h-1.22l-.7,0h-.11l-.84-.15-.37.12c-.26.07-.52,0-.59-.08l-.11-.18-.45-.08a.77.77,0,0,1-.51-.59l-.07-.55v-.15l.07-.73-.15-.55a.48.48,0,0,1,0-.34l.22-.55-.07-.07a.57.57,0,0,1-.08-.59l.22-.66-.18-.63-.11-.55V31c0-.07,0-.07,0-.15l.11-.37-.48-.07-.7.11-.7.18a.53.53,0,0,1-.41,0l-.29-.15a.5.5,0,0,1-.22-.18l-.26-.37a.93.93,0,0,1-.11-.44l.07-.34-.11-.73v-.11l0-1-.08-.52A.64.64,0,0,1,127.72,26.64Z"/><path class="cls-1" d="M176.86,40.89v.19a.51.51,0,0,1-.07.18l-.26.63.22.73a.67.67,0,0,1,0,.48l-.11.26.11,1.07v.07a.7.7,0,0,1-.37.77l-.44.23-.7.36a.61.61,0,0,1-.26.08h-.33a.55.55,0,0,1-.25,0l-.78-.37-.48.15a.49.49,0,0,1-.55,0l-.22-.18-1,.22-.29.07a.72.72,0,0,1-.41,0l-.62-.22h-.89l-.36.18a.72.72,0,0,1-.3.11H168l-.92-.11-.93-.14-.22.07a.56.56,0,0,1-.4,0l-.66-.19-.7.33a.7.7,0,0,1-.26.08h-.15l.11.37a.56.56,0,0,1,0,.36l-.18.7,0,.63.08.77.14.7a.39.39,0,0,1,0,.3l-.14.66-.11.78v.11a.59.59,0,0,1-.22.58l-.45.37a.52.52,0,0,1-.37.15h-.33l-.62.15a.6.6,0,0,1-.48-.08l-.52-.33-.25.11a.72.72,0,0,1-.3.11h-1l-.44.15a.54.54,0,0,1-.52,0l-.62-.33-.48.3a.62.62,0,0,1-.48.11l-.44-.08a.7.7,0,0,1-.81-.25l-.44-.63a.54.54,0,0,1-.11-.33V50.8l-.08-.15a.77.77,0,0,1,0-.26l.07-1,.11-.59-.15-.51a.65.65,0,0,1,0-.44l.29-.48-.18-.52s0-.07,0-.11l0-.63v-.33a.4.4,0,0,1-.19,0l-.81,0h-.11l-.66,0a.49.49,0,0,1-.19-.07l-.55-.22-.48.22a.6.6,0,0,1-.44.07l-.33-.07-.7.07-.92.07h-.11l-.67,0-.11,0-1.36-.33-.55.18-.74.19a.76.76,0,0,1-.26,0l-.81-.19-.48-.14-.92.07-.07,0a.63.63,0,0,1-.85,0l-.25-.23a.59.59,0,0,1-.23-.62l.15-.66-.15-.19a.65.65,0,0,1-.11-.37l.08-.92c0-.07,0-.07,0-.11l.15-.37-.07-.73,0-.81v-.34a.56.56,0,0,1,.15-.4l.52-.52.11-.07.37-.22a.57.57,0,0,1,.59,0l.36.15.34-.18a.6.6,0,0,1,.44-.08l.81.11h.88l.67.19.4-.22a.57.57,0,0,1,.55,0l.37.14.41.19.77-.26a.57.57,0,0,1,.44,0l.44.18h.81l.59-.18.48-.11a.29.29,0,0,1,.26,0l1.14.22c.22-.22.48-.33.67-.22l.33.14.77.19,1-.08.74,0,.33-.11a.6.6,0,0,1,.41,0l.51.15,1.25-.22h2.77l.62-.11a.29.29,0,0,1,.26,0l.26,0,1.1.3.48-.22a.48.48,0,0,1,.41,0l.48.11.66,0a.61.61,0,0,1,.26,0l.4.11.85,0h.77l.26-.11c.11,0,.26-.11.37-.07l.92.15.37-.08.11,0,.85,0a.55.55,0,0,1,.25,0l.22.07.59-.22a.51.51,0,0,1,.23-.07h1.21a.49.49,0,0,1,.3.07l.62.29.63.34a.62.62,0,0,1,.29.4l.22.74Zm-34.44-8.84a.73.73,0,0,1,.11-.88l.11-.11c.18-.22.37-.3.48-.26l.22.07.52-.33a.7.7,0,0,1,.55-.11l.55.18.59-.36.11-.08.59-.18.85-.19a.54.54,0,0,1,.22,0l.62.11.85-.33.59-.4a.47.47,0,0,1,.33-.11l.59,0,.26-.41.41-.44a1.21,1.21,0,0,1,.36-.18l.59-.11.81-.3.08-.36A.73.73,0,0,1,153,27l.63-.63.41-.44.47-.81-.25,0-.59.26a.45.45,0,0,1-.22,0h-.67l-.7,0-.77,0a.62.62,0,0,1-.33-.11l-.19-.11-1.14,0-.66-.07-.26.11a.26.26,0,0,1-.15.07l-.81.08a.55.55,0,0,1-.25,0l-.7-.33-.37.22a.72.72,0,0,1-.67,0l-.47-.29-.15,0a.7.7,0,0,1-.37-.07l-.59-.37a.73.73,0,0,1-.29-.4l-.08-.41a.62.62,0,0,1,0-.33l.3-.66,0-.74v-.7h0a.6.6,0,0,1-.07-.55l.33-.85-.11-.18a.71.71,0,0,1,.3-1l.25-.15a1.07,1.07,0,0,1,.33-.07h1.11a.92.92,0,0,1,.26.07l.44.19.66,0,.81-.07.41-.19a.83.83,0,0,1,.29,0l1,.07.4,0,.11,0h.67a.59.59,0,0,1,.4.18l.19.15.81-.3a.72.72,0,0,1,.25,0l.78,0h.55l.88.11h.52l.7.15.66-.15.78-.07h1.73l.48-.15a.25.25,0,0,1,.14,0h.85l.63.12a.66.66,0,0,1,.29.14l.19.11.62-.14h1.25l.48-.11a.47.47,0,0,1,.33,0l.67.18.33-.15a.38.38,0,0,1,.44,0l.19.07,1.06-.07a.74.74,0,0,1,.26,0l.48.15.77.07.26-.11a.64.64,0,0,1,.52-.07l.29.07.78-.14a.48.48,0,0,1,.44.07l.18.11.74-.11,1-.19a.28.28,0,0,1,.22,0l.33.08a.63.63,0,0,1,.37.29l.44.67.11.22a.61.61,0,0,1,0,.66l-.19.26.08.77.14.89s0,.07,0,.11V23l0,.47-.11.48a.6.6,0,0,1-.18.34l-.59.51-.11.07-.22.12a1.3,1.3,0,0,1-.33.07l-.78-.11-.48.07-.48.22a.38.38,0,0,1-.33.08l-.59-.15-1.1.07h-.22l-.37-.14-.88.11h-.15l-.59-.11-.66-.08,0,0a.66.66,0,0,1-.77.07l-.41-.26-.52.3a.44.44,0,0,1-.22.07l-.66,0h-.15L163,25.2h-.15l0,.22c.07.37,0,.59-.18.7l-.34.15-.11.81a.7.7,0,0,1-.14.37l-.19.14-.48,1.11-.14.29-.41.78-.11.14-.52.52s0,.07-.07.07l-.33.22-.07.52a.62.62,0,0,1-.37.48l-.52.22-.62.63-.23.18a.58.58,0,0,1-.29.15l-.81.15-.37.4-.26.18-.59.19-.4.63-.11.14-.15.15a.64.64,0,0,1-.44.15l-.7,0-.55.44a.59.59,0,0,1-.48.11l-.37-.07-.74.29-.18.22a.79.79,0,0,1-.26.15l-.85.26-.48.22a.15.15,0,0,1-.11.07l-.88.19h-.11l-.41,0s-.07,0-.11,0l-.44,0-.59.41a.58.58,0,0,1-.55.11l-.44-.11-.67.14a.42.42,0,0,1-.36,0l-.48-.22a.67.67,0,0,1-.37-.41l0-.29-.4-.37a.66.66,0,0,1-.19-.55l.08-.3-.41-1.1-.15-.15a.53.53,0,0,1,0-.11l-.3-.66-.37-.59Zm31.86-1.8.74.18a.13.13,0,0,1,.11,0l.51.22.15.11h0a.7.7,0,0,1,.18.7l-.14.48-.15.55c0,.07-.08.11-.11.18l-.48.63,0,.4a.52.52,0,0,1-.11.45l-.63.77,0,.3-.29.77s0,.07,0,.11l-.18.26a.75.75,0,0,1-.22.22l-.89.48a.77.77,0,0,1-.26.07h-1.36a.42.42,0,0,1-.29-.11l-.41-.26-.48-.11-.07,0-.89-.37-.95-.33-.41-.12-.4-.07a.41.41,0,0,1-.22-.07l-.82-.56-.29,0c-.37,0-.66-.07-.7-.29l-.11-.37-.74,0a.57.57,0,0,1-.37-.15l-.14-.14-.89-.52-.59-.18a.68.68,0,0,1-.36-.33l-.26-.59s0-.08,0-.15l-.07-.37a.55.55,0,0,1,.11-.48l.51-.66.37-.63.22-.4.15-.15.66-.55.22-.59.3-.92v-.11l.22-.45v-.18c-.07-.29,0-.55.18-.66h0a.57.57,0,0,1,.59,0l.41.23.66.33.15.11.33.33.81.59.33.29.7.41,1,.07s.11,0,.14,0l.3.11a.65.65,0,0,1,.22.18l.37.45h.81a.42.42,0,0,1,.26.07l.51.29.7.34.52.14.7-.07A.37.37,0,0,1,174.28,30.25Z"/><path class="cls-1" d="M49.47,83.54l-.11.37a.67.67,0,0,1-.22.33l-.7.52a.22.22,0,0,0-.11,0L48,85a1,1,0,0,1-.29,0l-.48,0-.78-.11-1-.22-.26.14a.61.61,0,0,1-.26.08H44l-.3,0h-.11l-1.66-.18-.77-.11-.74.15-.48,0L39,84.9h-.18l-.66-.14h-.56l-.81-.08-.62,0-.08.4-.22.81.22.33a.79.79,0,0,1,.08.63l-.22.59,0,1.07,0,.22a.69.69,0,0,1-.19.73l-.26.15a.25.25,0,0,1-.18.08l-.77.11h-.41a.27.27,0,0,1-.15,0l-.59-.22-.55.33a1.21,1.21,0,0,1-.37.07l-.73-.07s0,0-.08,0l-.29-.11h-.7l-.7.15-.52.07a.58.58,0,0,1-.51-.18l-.55-.59a.48.48,0,0,1-.19-.37v-.51l-.11-.89v-.11l0-.37V85.82a.84.84,0,0,1,0-.25l.26-.45V85l-.59-.08a.51.51,0,0,1-.22-.07l-.37-.26-.44.26a.59.59,0,0,1-.55,0l-.66-.3-.45.15a.27.27,0,0,1-.25,0l-.59-.15-.45.19a.53.53,0,0,1-.22,0h-.7l-.7-.11-1-.07-.37.22a.66.66,0,0,1-.51,0l-.55-.22-.56-.11h-.66l-.85,0-.59.22a.59.59,0,0,1-.55,0l-.22-.18-.52.11a.61.61,0,0,1-.62-.26l-.26-.29a.43.43,0,0,1,0-.11l-.22-.45a.62.62,0,0,1,0-.7l.26-.33L14.77,82l-.18-.55A.89.89,0,0,1,14.7,81l.26-.4-.26-.63a.65.65,0,0,1,.15-.63L15.1,79a.71.71,0,0,1,.48-.22h.59l.85.11.74.15.88,0,.3-.18a.47.47,0,0,1,.44-.07l.37.07a.14.14,0,0,1,.11,0l.59.25.81-.07.81-.29a.47.47,0,0,1,.33,0l.48.11a.17.17,0,0,1,.11,0l.29.15,1,0,.33-.19a.51.51,0,0,1,.4,0l.81.11.78.18.22-.11a.73.73,0,0,1,.29,0h.78l1,0h.7l.3-.11a.52.52,0,0,1,.47,0l.81.33.26-.07c.08,0,.08,0,.11,0l1.11-.07.37-.15a.79.79,0,0,1,.4,0l.22,0,.85,0,.88.14.78.08.22-.11a.52.52,0,0,1,.51-.08l.41.11,1.91-.14h1.4a.52.52,0,0,1,.19,0l.4.11.92,0,1.15-.29a.63.63,0,0,1,.51.07l.3.15,1.36-.19a.53.53,0,0,1,.44.11l.37.22.66-.29a.58.58,0,0,1,.48,0l.55.19.41,0a.54.54,0,0,1,.26.11l.14.08a.68.68,0,0,1,.34.55v.63l.22.33a.81.81,0,0,1,.14.37v.51c0,.08,0,.11,0,.15l-.3,1,.19.19A.63.63,0,0,1,49.47,83.54ZM48.37,95a.74.74,0,0,1,0,.26l-.22,1.1-.11.52a.45.45,0,0,1-.18.29l-.37.3a.57.57,0,0,1-.66.15l-.41-.15-.29.18a.68.68,0,0,1-.7,0l-.3-.22-.22.18a.61.61,0,0,1-.7.08l-.33-.15-1,0-.82-.08-.33.08-1.14.29-.15,0h-.55a.42.42,0,0,1-.29-.11l-.26-.15-.81-.26-.48.11s-.07,0-.11,0l-1.14,0-.44.11a.43.43,0,0,1-.3,0l-.63-.11L35,97.54l-1,0h-.11l-.55,0h-.81l-.7-.15-.44.22a.7.7,0,0,1-.55,0l-.41-.15-1,.19a.74.74,0,0,1-.48.07l-.7-.18-1-.19-.67.26-.11,0-.51.11s-.08,0-.11,0l-.85,0-.3,0-1.14-.07-.55.07c-.07,0-.18,0-.26,0s-.07,0-.11,0L22,97.69h-.37s-.08,0-.11,0l-.67-.11-1.14,0-.15,0a.54.54,0,0,1-.33,0l-.7-.15-.62.22a.67.67,0,0,1-.59,0l-.22-.18L16.47,97c-.22-.19-.37-.41-.33-.48l.07-.15.29-1-.14-.89L16.17,94l0-.18v-.89l0-.44-.07-1v-.63c0-.07,0-.18,0-.22l.22-.59.22-.55L16.21,89a.6.6,0,0,1-.07-.44l.11-.7v-.33a.55.55,0,0,1,.07-.34l.33-.47a.52.52,0,0,1,.37-.26l.33-.08a.38.38,0,0,1,.26,0l1,.22.34-.14a.45.45,0,0,1,.22-.08H20l.52.15.29-.11a.51.51,0,0,1,.59.07l.26.19h.85l.36-.11a.72.72,0,0,1,.81.22l.15.22a.75.75,0,0,1,.11.37v.77l.11.22c0,.08.08.11.08.15l.14.52a.42.42,0,0,1,0,.29l-.19.81L24,90.8l.15.51h0l.15,0,1,.33.52.07,1-.07.33-.18a.64.64,0,0,1,.44-.08l.74.22.62-.25a.8.8,0,0,1,.3,0l.55.07.08,0,.73.26.55,0,.93,0,.29-.14a.48.48,0,0,1,.33,0l.59.15h1.4s.07,0,.15,0l.55.18.92,0,.89-.22a.28.28,0,0,1,.25,0l.63.18c.15-.29.4-.37.59-.22l.37.26.66-.3a.56.56,0,0,1,.22,0h1l.44,0,1.1.26.08-.07a.46.46,0,0,1,.4,0l.74.15.74-.22s.07,0,.11,0H45l.85.07.52-.25a.73.73,0,0,1,.29,0l.48,0a.77.77,0,0,1,.55.4l.19.44a.68.68,0,0,1,.07.23v.88c.26.15.44.37.37.63l-.11.36ZM16.21,67.41l.15-.33-.19-1a.57.57,0,0,1,0-.4l.15-.23-.11-.51a.74.74,0,0,1,.37-.74l.29-.14a.73.73,0,0,1,.29,0h.45l.81-.19a.32.32,0,0,1,.25,0l.45.07.66,0,1-.11a1,1,0,0,1,.33.07l.56.26.44-.19.44-.11a.61.61,0,0,1,.63.15l.07.08.33.07,1.58-.26.67-.07c.14,0,.22,0,.33.07l.48.22,1,0,.48,0h.66l.59-.29a.57.57,0,0,1,.59,0l.55.29.08,0,.4.29a.7.7,0,0,1,.3.59l-.08.26s0,.07,0,.11L31,66l.26.66a.37.37,0,0,1,.07.19l.08,1v.14a.71.71,0,0,1-.3.63l-.66.44-.44.26a.26.26,0,0,1-.15.07l-.66.15a.51.51,0,0,1-.34,0L28,69.06l-.19.19a.53.53,0,0,1-.62.11l-.26-.18-1.14-.12a.57.57,0,0,1-.67.12l-.4-.19-1,.3-.07,0,.07.19a1.16,1.16,0,0,1,.07.37l-.11.77.11.33a.63.63,0,0,1,0,.52l-.11.22h.59a.31.31,0,0,1,.14,0l.85.26.7-.11h.74l.37-.11a.51.51,0,0,1,.33,0l1,.22L29,71.9l.11,0h.37l.66-.07a.55.55,0,0,1,.48.11l.33.26a.71.71,0,0,1,.26.63l-.08.51-.14,1,.22.62a.47.47,0,0,1,0,.33l0,.26v.63a.72.72,0,0,1-.22.48l-.4.36a.49.49,0,0,1-.34.15l-.7.07-.51.19a.55.55,0,0,1-.44,0l-.48-.26-.56,0-.7,0-1.73.3-.66.07h-.63l-.18,0-.44-.18a.62.62,0,0,1-.48.15l-.44-.08H21.4a.77.77,0,0,1-.29-.07l-.07,0a.5.5,0,0,1-.3-.11l-.15-.11-.7.07-.33.15a.73.73,0,0,1-.29,0l-.74-.11-.44.22a.75.75,0,0,1-.55,0l-.74-.37-.11-.07a.53.53,0,0,1-.19-.41l-.07-.88V75l-.18-.67a.68.68,0,0,1,.14-.59l.23-.26-.08-.81-.18-.47s0,0,0-.12l0-.58a.57.57,0,0,1,.08-.37l.26-.41L16.5,70l-.11-1.11-.07,0a.71.71,0,0,1-.18-.48l0-.74A1.27,1.27,0,0,1,16.21,67.41ZM32.6,75.25c-.07-.07-.07-.22-.07-.37v-.81a.78.78,0,0,1,0-.14L33,72.71l.22-.59a.64.64,0,0,1,.52-.4l.18,0a.43.43,0,0,1,.37.07l.48.22.77-.29a.59.59,0,0,1,.26,0l.88,0,.08,0,.29,0,1.18.33h.59l.44-.07.7-.29a.39.39,0,0,1,.19-.08V70.57l.18-.81-.15-.47V69l-.62.07-.52.11-.88.26h-.22l-.74-.11-.85-.22-.4.11-.81.11c-.08,0-.19,0-.26,0l-.37-.15h-1a.47.47,0,0,1-.33-.11L33,69a.7.7,0,0,1-.25-.63l.14-.77,0-.66L33,66l-.22-.48s0-.07,0-.15l0-.29a.64.64,0,0,1,.18-.55l.26-.26a.78.78,0,0,1,.55-.15l.52.08.4-.26a.61.61,0,0,1,.56-.08l.4.11.63-.18c.07,0,.15,0,.18,0h1l.07,0,.55.07.7,0h.11l.52,0,1.07.22.44-.26a.77.77,0,0,1,.4-.11l.59.08a.27.27,0,0,1,.15,0l.52.23.22,0a2.29,2.29,0,0,1,.48-.08h.11L44,63.8a.54.54,0,0,1,.41,0l.36.15.45-.15a.54.54,0,0,1,.33,0l.84.18h.26a.71.71,0,0,1,.59.3l.22.33a.25.25,0,0,1,.08.18l.07.33,0,.11,0,.92v.19l-.07.37-.11,1.14.11.26a.81.81,0,0,1,.07.33l0,.62-.19.89.15.77c0,.08,0,.08,0,.11v.7l.07.19a.34.34,0,0,1,.07.22l.08.66v.74l-.15,1.14V75l-.07.51-.11,1a.53.53,0,0,1-.19.4L47.3,77a.52.52,0,0,1-.37.14l-1,0-.15.07a.46.46,0,0,1-.29.08h-.85a.62.62,0,0,1-.29-.08l-.48-.29-.33.22a.48.48,0,0,1-.37,0,1,1,0,0,1-.26.15l-.29.07a.59.59,0,0,1-.37,0l-.22-.07h0a1,1,0,0,1-.29,0l-.26,0c-.15,0-.22,0-.3-.12a.56.56,0,0,1-.36,0l-.45-.15L39.42,77l-.89.07h-.11L38,77h-.52l-1,.11-.62.14a.32.32,0,0,1-.26,0L35,77l-.92.11,0,0A.68.68,0,0,1,33.3,77l-.18-.26a.66.66,0,0,1-.11-.37v-.48Z"/><path class="cls-1" d="M74.56,92.6a.92.92,0,0,1,0,.3l-.07.55-.18.81v.66c0,.08,0,.11,0,.19l-.15.44.11.63a.65.65,0,0,1-.11.51l-.3.41a.72.72,0,0,1-.51.25H73l-1-.18h-.37a.45.45,0,0,1-.29-.07l-.48-.23-.55.3a.46.46,0,0,1-.37.07l-.66-.11-.45,0-.7-.11-.62.22a.8.8,0,0,1-.26,0l-1-.11L65.68,97l-.48-.18-.77.29a.59.59,0,0,1-.37,0L63.29,97l-.37.07a.51.51,0,0,1-.41,0L62.29,97l-.74,0-1,.3h-.44s-.07,0-.11,0L59,97l-.59.22a.65.65,0,0,1-.51,0L57.47,97l-.59,0-.22.18a.78.78,0,0,1-.48.15l-.48,0-1.07,0h-.22l-.19,0-.81-.26-.4.22a.6.6,0,0,1-.55,0l-.74-.3a.32.32,0,0,1-.18-.14l-.15-.15-.08-.15L51.09,96a.6.6,0,0,1,0-.55l.26-.44-.22-1.07v-.22l.11-.55-.08-.55v-.23l.19-.51.18-.41a.59.59,0,0,1,.63-.33l.44.08h.81l.48-.11h.15l.81.07.66,0,.92.11.19-.11a.72.72,0,0,1,.47-.08l.3.11.66-.33a.65.65,0,0,1,.44,0l.34.11v-.07l0-.37-.11-.81,0-1a.58.58,0,0,1,0-.22l.08-.18-.11-.48a.66.66,0,0,1,.18-.63L59.2,87a.62.62,0,0,1,.62-.18l.33.11.67-.3a.54.54,0,0,1,.48,0l.33.11.81.22.62-.3a.52.52,0,0,1,.56,0l.26.15.51-.15a.6.6,0,0,1,.48.08l.33.18.59-.11a.46.46,0,0,1,.37.08l.15.07a.65.65,0,0,1,.4.74l-.11.51.22.33a.85.85,0,0,1,.11.34v.55a.77.77,0,0,1-.07.29l-.15.33-.15.92,0,.23.63,0,.84-.11.41-.07h.77l1,.07.55-.11a.38.38,0,0,1,.3,0l.51.22.37-.3a.71.71,0,0,1,.52-.11l.62.11h.26a.66.66,0,0,1,.63.37l.29.52ZM51.42,69.18l.19-.3-.22-.66a.78.78,0,0,1,0-.3l.19-.81-.12-.22a.62.62,0,0,1,.12-.7l.07-.07a.6.6,0,0,1,.77-.19l.41.19,1-.33c.07,0,.14,0,.22,0h.44a.45.45,0,0,1,.18,0l.81.26.22-.11a.72.72,0,0,1,.3-.11h1.32l0-.66.18-.67,0-.18a.74.74,0,0,1,.4-.77l.48-.22.37-.15a.36.36,0,0,1,.18-.08l.81-.07h.15l.85.11s.11,0,.14,0l.45.11h.51a.54.54,0,0,1,.3.44l.18,1V65l0,.51,0,.81a.59.59,0,0,1,0,.26l-.11.37-.14.88.07.48v.22l-.15.78,0,.92v0A.64.64,0,0,1,62,71l-.25.63,0,.29a.38.38,0,0,1-.41.33h-.4l-.59.37-.37.55,0,.67c0,.11,0,.14-.08.25l-.36.89,0,1.18.33,1.06.18.48.45,1,.29.33h.55a.58.58,0,0,1,.48.22l.11.11A.62.62,0,0,1,62,80l-.18.48,0,.77,0,.56,0,.59-.08,1,.08.48v.52l-.08.37a.68.68,0,0,1-.81.62l-.7-.11-1,0-.78-.15L58.2,85a.23.23,0,0,1-.14-.07l-.63-.33-.66,0a.43.43,0,0,1-.26-.11l-.63-.4-.44-.37-.59-.19a.35.35,0,0,1-.18-.11l-.41-.33a.59.59,0,0,1-.22-.48l0-.29-.56-.44-.4-.37a.63.63,0,0,1-.18-.59L53,80.3l-.19-.37-.36-.44c-.08-.11-.15-.15-.15-.3l-.07-.47a1,1,0,0,1,0-.3l.22-.66-.07-1.7V76l.07-.55-.11-.26a.74.74,0,0,1,0-.55l.29-.55.34-.52-.08-.7,0-.66-.52.15a.71.71,0,0,1-.77-.34l-.15-.29a1,1,0,0,1-.08-.37l0-.33c0-.07,0-.07,0-.11l.26-.63-.3-.36A.68.68,0,0,1,51.42,69.18Zm12,15.65a.53.53,0,0,1-.18-.41v-.55a.93.93,0,0,1,0-.26l.26-.44-.22-.59a.59.59,0,0,1,0-.37l.22-.51V81c0-.07,0-.11,0-.15l.14-.37-.25-.55a.27.27,0,0,1-.08-.18v-.26a.69.69,0,0,1,.48-.74l.52-.07.7-.33.51-.67-.07-.4a.74.74,0,0,1,.07-.48l.22-.29.19-1.4L66,74l-.44-.55a.49.49,0,0,1-.14-.4v-.22l-.85-.45h-.33c-.45,0-.85-.26-.81-.51l.07-.52v-.74l0-.18.11-.22-.15-.81a1.3,1.3,0,0,1,.07-.33l.22-.44-.29-.48a.89.89,0,0,1-.11-.37l.15-.92L63.43,66V65.9l.08-.48.11-.89-.15-.25a.71.71,0,0,1,.22-.81l.37-.3a.6.6,0,0,1,.66-.11l.37.15.77-.08,1-.07h.22a.65.65,0,0,1,.63.37l.25.48a.48.48,0,0,1,0,.4l-.07.52L68.15,66l1,0,.62-.07h.11l.7,0,.59-.07.92-.07h.26l.74,0a.61.61,0,0,1,.25.08l.59.33a.6.6,0,0,1,.37.59l0,.37-.12.55.12.77a.59.59,0,0,1-.12.41l-.11.22v.85l-.18.77.07.29a.71.71,0,0,1-.22.78l-.33.26s-.07.07-.11.07l-.66.33.15.92c0,.08,0,.08,0,.15l-.07.74.07,0c.3.26.41.52.33.63l-.11.22.37.88a.72.72,0,0,1,0,.41L73,77.87l.19.77.07.19a.55.55,0,0,1,0,.25l-.11.7a.6.6,0,0,1-.19.37l-.4.37.07.52a.59.59,0,0,1-.22.59l-.55.44-.22.44-.92,1s-.08.07-.11.07l-.93.59-.47.44a.61.61,0,0,1-.37.15l-.59,0-.7.36a.59.59,0,0,1-.52,0l-.48-.18-.4.11-.52.22a.61.61,0,0,1-.25.08H64.24a.6.6,0,0,1-.4-.19Zm23.61-6.37,0,.59.15.33a1,1,0,0,1,.08.37l-.08.73-.07.56-.15.77.07.77a.62.62,0,0,1-.14.52l-.26.26a.65.65,0,0,1-.66.18l-.37-.11h-.74a.43.43,0,0,1-.22,0l-.52-.22-.66.08h0l-.07.11.22.77v.81l0,.88-.08,1v.08a.58.58,0,0,1,0,.51l-.26.63.26.73a.8.8,0,0,1,0,.3l-.08.59,0,.59v.73l.11.37a.56.56,0,0,1,0,.37l-.19.92,0,.59-.11.7.11.7v.19l0,.73.07.26a.63.63,0,0,1,0,.59l-.19.29-.14.45a.69.69,0,0,1-.48.51l-.37.08h-.74a.61.61,0,0,1-.26,0L81,97.5l-.81.3a.67.67,0,0,1-.37,0l-.67-.14-.14.07a.61.61,0,0,1-.56,0l-.7-.26a.55.55,0,0,1-.58.08l-.34-.12-.73-.36a.67.67,0,0,1-.37-.59V95.44l.18-1v-.33l.19-1v-.69l-.19-.59a1,1,0,0,1,0-.41L76.1,91V90.5L76,89.4v-.11l.07-.7,0-.45,0-.73-.18-.59-.26-.74a.75.75,0,0,1,0-.15v-.69a.4.4,0,0,1,0-.19l.33-.92-.25-.59s0,0,0-.11l0-.29a.78.78,0,0,1,.11-.41L76,82.4l-.33-1a.9.9,0,0,1,0-.4l.26-.63,0-.07a.77.77,0,0,1,0-.26l.14-1,.08-.73-.19-.44a.94.94,0,0,1,0-.41l.15-.33-.26-.59a.59.59,0,0,1,0-.48l.26-.52-.15-.88V72.38l.07-.74.11-.77-.18-.15a.61.61,0,0,1-.22-.59l.15-.59L75.74,69v-.77l.22-.92-.22-.55a.46.46,0,0,1,0-.33l.15-.56v-.37l.11-.77a.55.55,0,0,1,.14-.33l.34-.33a.57.57,0,0,1,.62-.15l.44.11.26-.18a.69.69,0,0,1,.7-.11l.37.18.37.07.55-.22a.34.34,0,0,1,.15-.07l.7-.07a.56.56,0,0,1,.22,0l.66.19.52.11.88.07a.45.45,0,0,1,.33.15l.33.26a.58.58,0,0,1,.23.59l-.08.73-.11.81-.15.7-.11.67.37.88a.45.45,0,0,1,0,.33l-.07.37-.08,1,.08.3a.59.59,0,0,1,0,.62l-.19.15,0,1.1.15.37a.38.38,0,0,1,.07.22l0,.89a.59.59,0,0,1,0,.26l0,.11.14.66a.3.3,0,0,1,0,.26l-.14.55.36-.11h.22l.7.07.81,0H86a.67.67,0,0,1,.66.29l.48.74.07.18a.62.62,0,0,1,.08.45Z"/><path class="cls-1" d="M99.16,86.56l-.44.52-.15.77-.14.66a.26.26,0,0,1,0,.15l-.4.74-.45.59-.55.4,0,.48a1.3,1.3,0,0,1,0,.15l-.26.85s-.07.07-.11.14l-.3.41-.14.15-.63.4-.55.41-.44.66-.08.4-.18.26-.66.7L92.9,96v.11a.65.65,0,0,1-.51.59l-1,.22a.5.5,0,0,1-.59-.15l-.26-.25-.66-.81-.22-.22-.77-.67-.52-.18a.57.57,0,0,1-.29-.22l-.37-.59-.41-.41a.58.58,0,0,1-.18-.51l.07-.52a.74.74,0,0,1,.22-.44l.19-.07.73-.85.41-.37.22-.59A.1.1,0,0,1,89,90l.33-.52a.15.15,0,0,1,.11-.11l.7-.66.07-.3c0-.07,0-.07,0-.11l.55-.88.26-.59a.8.8,0,0,1,.22-.26l.41-.26,0-.62s0-.08,0-.11l.26-.92,0-.48a.68.68,0,0,1,.19-.44l.22-.19.15-.74.11-.62.11-.89c0-.11.11-.22.18-.29l.3-.33.22-1,0-.63V79l.18-.62-.11-.81-.11-.37a.6.6,0,0,1,.07-.44L94,76v-.66L94,74.7l-.22-.7-.11-.4c0-.08,0-.15,0-.19l0-.7.11-.7v-.15l-.48.15c-.07,0-.14,0-.18,0l-.88,0-.19,0-.37-.19-.51.22L91,72h-.84s-.11,0-.19,0l-.44-.15a.31.31,0,0,1-.18-.07L89,71.5a.67.67,0,0,1-.26-.78l.19-.48-.08-.55-.18-.55a.69.69,0,0,1,0-.41l.07-.14V67.7a.75.75,0,0,1,.11-.37l.15-.18-.22-.55a.47.47,0,0,1,0-.33l.11-.52a.71.71,0,0,1,.07-.18l.19-.3c.18-.37.55-.55.77-.44l.41.22.22-.18a.7.7,0,0,1,.66-.15l.48.15.44-.19a.61.61,0,0,1,.26,0h.7l.59.08s.07,0,.11,0l.92.3L95,64.9a.6.6,0,0,1,.44,0L96,65l.74-.33a.55.55,0,0,1,.25,0h.78l.33,0,.85.07.7,0h.55a.43.43,0,0,1,.22,0l.7.22.7-.33s.15,0,.18,0l.67-.07c.07,0,.14,0,.22,0l.51.14.52.08,1,.11.11,0a.63.63,0,0,1,.73.19l.26.29a.53.53,0,0,1,.15.3l.15.62a.54.54,0,0,1,0,.33l-.18.52.25.48c0,.07.08.07.08.11l.11.33v.85l0,.62,0,.67s0,.07,0,.11l-.11.48s0,.07-.07.14l-.3.56c-.18.33-.55.47-.74.33l-.36-.26-.22.22a.69.69,0,0,1-.74.07l-.63-.29-.48.29a.53.53,0,0,1-.51.08l-.59-.22-.15.07a.85.85,0,0,1-.59.07l.08.34.22.77a.56.56,0,0,1,0,.22l-.11.7-.18.7.11.66,0,.56a.73.73,0,0,1-.08.33l-.29.51.18.33a.81.81,0,0,1,.11.26l0,.41A1.3,1.3,0,0,1,101,78l-.37.7.14.92v.18l-.07.41a.52.52,0,0,1-.18.37l-.19.18-.07,1.07.15.4a.69.69,0,0,1,0,.45l-.19.44a.15.15,0,0,0,0,.07l-.45.74.11.26a.68.68,0,0,1,0,.4l-.25.7-.23.59-.07.41C99.31,86.38,99.24,86.45,99.16,86.56Zm23.32-12.93v.15c0,.07,0,.07,0,.11l-.25.85-.11.81.18.62,0,.11.11.67v.62l-.15,1.07,0,.48.11.48a.78.78,0,0,1,0,.4l-.19.48.26.67a.64.64,0,0,1,0,.51l-.15.22.15.81a.5.5,0,0,1,0,.34l-.33.81,0,.77,0,.11a.66.66,0,0,1,.11.37v1l.19.41a1.09,1.09,0,0,1,0,.33l0,.4c0,.08,0,.08,0,.12l-.18.55,0,.81v.7l.26.77a1,1,0,0,1,0,.41l-.11.33-.08.81a.34.34,0,0,1-.07.18l-.15.41,0,.88v.11l0,.78.19.47a.94.94,0,0,1,0,.41l-.19.63.15.29a.93.93,0,0,1,0,.33l-.11.63a.63.63,0,0,1-.23.4l-.33.26a.49.49,0,0,1-.44.11l-.22,0-1.11.22h-.36l-.81-.19-.7.15a.3.3,0,0,1-.26,0l-.52-.15a.5.5,0,0,1-.22-.11l-.74-.59a.53.53,0,0,1-.18-.29.5.5,0,0,1,0-.41l.33-.62-.26-.67a.64.64,0,0,1,0-.37l.23-.77,0-.44-.11-1.07v-.63l.07-.36,0-.78.08-1-.15-.3a.55.55,0,0,1,0-.36l.19-.67-.19-1.07-.11-.18a.27.27,0,0,1-.07-.18l-.08-.89a1,1,0,0,1,.08-.33l.25-.52.15-.88-.07,0a.66.66,0,0,1-.3-.73l0-.11-.22.07c-.07,0-.11,0-.15,0h-.44l-.85-.22-.14,0s0,0,0,.07l-.15.37,0,1v.11l0,.55-.11.44v1l.15.41a.51.51,0,0,1,0,.33l-.15.7.26.7a1.09,1.09,0,0,1,0,.33l-.07.44s0,.08,0,.11l-.26.7V91l.15.26a.63.63,0,0,1,0,.62l-.19.44.15,1,.19.59a.55.55,0,0,1-.08.52l-.22.4.26.59a.6.6,0,0,1,0,.55l-.18.41,0,.48a.62.62,0,0,1-.18.51l-.29.3a.5.5,0,0,1-.48.18l-.19,0-1-.08-1,0-.48.11a.61.61,0,0,1-.44-.08l-.33-.14-.85-.08a.78.78,0,0,1-.25-.07l-.45-.3a.69.69,0,0,1-.29-.4l-.07-.37V96.1l.25-.88,0-.78-.22-.47a.63.63,0,0,1,0-.45l.11-.29.26-.85s0,0-.08,0l-.47.33-.23.29-.22.41s0,.07-.07.11l-.81.81-.59.63-.07.18a.67.67,0,0,1-.22.33l-.59.41-.19.18a.59.59,0,0,1-.62.19l-.37-.11c-.08,0-.15,0-.22-.12l-.48-.4-.48-.11a.66.66,0,0,1-.41-.33l-.11-.26-.44-.66-.81-.81-.44-.41-.44-.44a.33.33,0,0,1-.11-.18L99.46,92l-.37-.59s-.07-.08-.07-.11l-.15-.56a.66.66,0,0,1,.15-.66l.29-.22.41-.92.14-.44a.78.78,0,0,1,.15-.22l.63-.59,0-.59.19-.63c0-.07,0-.11.07-.18l.37-.56-.07-.84v-.11l.07-.59a.44.44,0,0,1,.07-.22l.34-.59.11-.3c.07-.22.22-.4.33-.4a.2.2,0,0,1,.18.22l0,.26.51.66a.77.77,0,0,1,.11.4l0,.74.37.66.33.26a.56.56,0,0,1,.19.3l.22.66.88.66.22.11a.61.61,0,0,1,.26.33l.22.52.3.18a.55.55,0,0,1,.26.3l.18.44.85.77.55.48s0,0,.07,0l.19-.41.07-.51-.26-.48a.57.57,0,0,1,0-.48l.33-.77,0-.44-.19-1-.11-.74a.58.58,0,0,1,.11-.48l.22-.26v-.84l-.18-.41a.41.41,0,0,1,0-.22V83.1l.11-.81-.25-.52a.69.69,0,0,1,0-.4l.26-.85-.22-.4a.64.64,0,0,1,.07-.59l.22-.37.07-.7-.07-.59-.26-.85a.39.39,0,0,1,0-.26l.15-.51-.18-.59s0-.08,0-.11l0-.7a.66.66,0,0,1,0-.26l.18-.37.11-.77-.18-.59a.6.6,0,0,1,.07-.44l.22-.45-.33-.81a.8.8,0,0,1,0-.4l.22-.63.07-.44-.15-.77v-.19l.08-.33.07-.77.11-1.11-.26-.37a.63.63,0,0,1,0-.66l.22-.26L108,65a.7.7,0,0,1,.29-.84l.41-.26a.57.57,0,0,1,.44-.11l.48.07.48-.18a.65.65,0,0,1,.59,0l.29.18.55-.26a.54.54,0,0,1,.48,0l.44.14,1,.11a.49.49,0,0,1,.22.08l.22.11a.76.76,0,0,1,.33.7l-.07.55c0,.07,0,.07,0,.11l-.18.48.26.63a.75.75,0,0,1,0,.55l-.19.4.15.3a.7.7,0,0,1,.07.48l-.18.66-.11,1,0,.07a.63.63,0,0,1,.19.55l-.07.55v1.07l-.08.48.11.44a.86.86,0,0,1-.07.52l-.19.33.23.59s0,0,0,.11l.15.88a1.61,1.61,0,0,1-.07.37l-.26.55v.15a.23.23,0,0,1,.15,0l.33.11.29-.18a.72.72,0,0,1,.48-.12l.88.15.15,0,0-.48,0-.66v-.11l.07-.59-.22-.63a.57.57,0,0,1,0-.26l.07-.29-.14-.92a.56.56,0,0,1,.07-.44l.33-.45-.18-.59-.15-.51v-.26l.18-.7-.18-.81v-.26l.18-.7-.14-.25s0-.15,0-.19v-1a.67.67,0,0,1,0-.52l.26-.48-.08-.51a.79.79,0,0,1,.12-.37l.29-.48a.31.31,0,0,1,.15-.15l.44-.29a.61.61,0,0,1,.44-.11l1.51.22a.12.12,0,0,1,.11,0l.52.18h.81l.33-.15a.62.62,0,0,1,.77.08l.48.44a.72.72,0,0,1,.15.22l.15.52a.78.78,0,0,1,0,.48l-.22.4-.07.74v.77l-.08.92.08.41.14.66.08.66.14,1a.6.6,0,0,1-.07.44l-.29.44.11.3.25,1.21C122.44,73.6,122.48,73.6,122.48,73.63Z"/><path class="cls-1" d="M135.67,67.67l-.22.36.22.92a.61.61,0,0,1,0,.48l-.11.15v.81l0,.44a.68.68,0,0,1-.62.7l-.59.08,0,.07a.51.51,0,0,1-.29.29l-.33.15-.08.92a.68.68,0,0,1-.29.48l-.3.19L132.72,75l.15.55a.7.7,0,0,1-.07.48l-.15.18,0,1.92.34.63c0,.07.07.11.07.14l0,.15v.22l-.19.89.11.73a.67.67,0,0,1,0,.37l-.08.22-.26,1,.15.15a.66.66,0,0,1,.22.52l-.07.92-.3,1.29.08.66.4.92,0,.18,0,.41v.15l-.11.7.11,1,.33.48,1,.22.18,0c.48.08.77.34.7.67l-.11.59.07.07a.67.67,0,0,1,.15.63l-.18.73.07.67.07,1V95l0,.66.14.55a.62.62,0,0,1-.18.63l-.37.4a.8.8,0,0,1-.51.19l-2.07-.15-.14,0-.7-.18-.11,0a.51.51,0,0,1-.34-.11l-.62-.4-.63-.19a.29.29,0,0,1-.22-.11l-.59-.48a1.64,1.64,0,0,1-.22-.25l0-.19-.62-.4-.11-.11-.33-.45-.41-.73-.4-.41a.62.62,0,0,1-.19-.37l0-.14-.26-1.07-.22-.41-.55-1.07s0-.07,0-.14l-.11-.48-.11-.78v-.11l.11-.92-.18-.36a.39.39,0,0,1-.08-.19l-.11-.81v-.18l.37-1.4V84.2l-.07-.84v-.19l.18-.66-.33-.59a.65.65,0,0,1,0-.48l.11-.33.15-.63-.15-.36a.68.68,0,0,1,0-.52l.22-.37-.22-.85V78.2l.07-.7-.11-.77v-.15l.15-1.18-.15-.74c0-.18,0-.33,0-.4l.11-.15-.18-.63a.37.37,0,0,1,0-.29l.22-.88.11-.23.33-.4L126,71a.37.37,0,0,1,0-.29l.07-.3c0-.07,0-.07,0-.11l.44-.85.19-.4.66-1.33.15-.18.55-.48.7-.52.41-.55a.66.66,0,0,1,.29-.26l.18,0,.56-.45a.63.63,0,0,1,.44-.14l.29,0,.92-.4a.73.73,0,0,1,.41,0l.37.11.73-.37a.92.92,0,0,1,.26-.07h.74a.57.57,0,0,1,.4.18l.41.41a.62.62,0,0,1,.22.44v.89l.18.47.12.41A.93.93,0,0,1,135.67,67.67ZM147.2,78.83a1.15,1.15,0,0,1,.11.29V80l0,.4V81a.43.43,0,0,1,0,.22l-.18.56.18.51a.59.59,0,0,1,0,.37l-.18.74v.92l.11.7,0,1.25v.15l-.22.84-.19.81,0,.74.11.15a.92.92,0,0,1,.15.44l-.11.88-.22.78s-.08.07-.08.11l-.33.7v.51a1,1,0,0,1-.07.3l-.19.29-.11.15-.77.59-.08.52a.68.68,0,0,1-.18.33l-.55.55-.22.18-.11.11-.59.34-.44.59c0,.07-.12.07-.15.11l-.55.36s-.08,0-.15.08l-.37.15a1,1,0,0,1-.3,0l-.92-.11-.14.11a.52.52,0,0,1-.41.08l-.51-.08H138a.55.55,0,0,1-.3-.11l-.18-.11a.67.67,0,0,1-.33-.59l0-.55.11-.7-.3-.77a.43.43,0,0,1,0-.11l-.11-.85,0-.55v-.85a.86.86,0,0,1,0-.26l.3-.55c0-.22.15-.37.4-.52l1.11-.55.55-.77.15-.59a.56.56,0,0,1,.15-.26l.22-.22.11-.92-.08-.89v-.14l.08-.48,0-1.59-.29-.84a.78.78,0,0,1,0-.3l.19-.77v-.63l-.08-.51-.11-.7a.94.94,0,0,1,.11-.45l.22-.25-.07-.85v-.07l.07-.78-.11-1.73-.11-.37a1,1,0,0,1,0-.29l.18-.92-.18-.33a.39.39,0,0,1-.08-.19l-.11-.66L139,72.38l-.29-.66-.41-.11-.74-.15a.65.65,0,0,1-.48-.48l-.18-.55V70c0-.08,0-.11,0-.19l.33-.85-.15-.18a.69.69,0,0,1-.07-.7l.3-.55-.23-.74v-.66l-.14-.41a.67.67,0,0,1,.11-.66l.44-.48a.55.55,0,0,1,.48-.18l1.21,0a.55.55,0,0,1,.34.11l.22.15.73.15h.92a.47.47,0,0,1,.23,0l.66.22.44.07a.77.77,0,0,1,.33.18l.44.41.45.48a.15.15,0,0,1,0,.07l.33.48.56.48c.14.15.25.22.25.33l0,.15.4.88.59.44.19.26.18.59a.6.6,0,0,1,0,.44l-.22.48.48.59a.26.26,0,0,1,.07.15l.15.37,0,.18,0,.7.19.85a.54.54,0,0,1,0,.33l-.18.52v.73l0,1.77.15.18a.63.63,0,0,1,.14.67l-.22.62Zm13.85,5.63,0,.81a1,1,0,0,1,0,.3l-.15.33,0,.77a.69.69,0,0,1-.11.52l-.15.11.26,1.1v.19a.68.68,0,0,1-.33.77l-.45.15-.73.18h-1.07l-.7-.18-.44.22a.26.26,0,0,1-.15.07V90l-.07.77.25,1,.19.85c0,.07,0,.07,0,.11v.4a.57.57,0,0,1-.14.37L157,94l.11.47v.85l0,.11-.11.74.11.33c.14.4.11.7-.08.81l-.22.07a.4.4,0,0,1-.18.08l-1.07,0-.59,0-.44.15a.57.57,0,0,1-.48,0l-.19-.12-.62,0-.85.22h-.22l-.7-.07a.48.48,0,0,1-.22-.07l-.22-.12-.55.12a.61.61,0,0,1-.67-.19l-.18-.29-.3-.52a.81.81,0,0,1-.07-.33l0-.66a.42.42,0,0,1,0-.19l.41-.85-.3-.58a1.05,1.05,0,0,1,0-.3l.07-.66-.11-.26a.55.55,0,0,1,0-.48l.29-.59-.11-.62-.07-.78a.58.58,0,0,1,.11-.37l.11-.14-.33-.81a.59.59,0,0,1,0-.26l0-.63,0-.11.19-.74-.19-.51a.62.62,0,0,1,0-.33l.19-.67.11-.84-.22-.59v-.41l-.11-.73v-1l.18-.92,0-.45,0-.88,0-.51.15-.74-.11-.85-.11-.55v-.19l.22-1-.11-.11a.81.81,0,0,1-.15-.4v-.74l0-1,0-.34a.64.64,0,0,1,0-.25l.19-.41-.23-.77a.67.67,0,0,1,.08-.48l.15-.22V69.51l.11-.63-.37-1-.08-.22a.66.66,0,0,1,.15-.59l.26-.23-.3-1v-.18l0-.41-.07-.48a.55.55,0,0,1,.11-.48l.22-.29a.69.69,0,0,1,.51-.26h.67l.48,0h.92a.47.47,0,0,1,.22.07l.22.07.81-.22a.54.54,0,0,1,.22,0l.66.08h.45l.95,0h.41a.54.54,0,0,1,.37.15l.59.44a.58.58,0,0,1,.25.56l0,.22a.27.27,0,0,1-.08.18L157,66l.29.59a.65.65,0,0,1,0,.63l-.22.4.18.41c.11.22.15.48,0,.59l-.15.22-.07.7.29.66a.83.83,0,0,1,0,.33v.11l.51.08.48.11.85-.11h.52a.4.4,0,0,1,.25.07l.63.37a.73.73,0,0,1,.29.4l.11.52a.51.51,0,0,1,0,.33l-.15.37-.18.66.07.59v.22l-.15.74.15.77.07.44c0,.15,0,.22-.07.34l-.15.4-.11.33c-.11.44-.44.67-.66.59l-.41-.15-.92,0-.7.22c-.07,0-.11,0-.14,0h-.52l-.07.33.22.74a.62.62,0,0,1,0,.33l-.11.41.18,1,0,.59v.11l-.08.85v.15l.59.25.74-.33a.21.21,0,0,1,.15,0l.33,0a.57.57,0,0,1,.33.07l.66.37s.15.07.19.15l.33.4a.26.26,0,0,1,.07.15l.11.22s0,0,0,.11Z"/><path class="cls-1" d="M162.71,76.65l.18-1.58-.11-.48a.47.47,0,0,1,0-.33l.18-.52.26-.55L163,72.12l-.33-.51-.63-.85s0,0,0-.07l-.18-.41a.6.6,0,0,1,0-.66l.22-.3-.19-.22a.66.66,0,0,1-.07-.62l.15-.3V67.11a.54.54,0,0,1,.25-.66l.59-.44.08-.11a.71.71,0,0,1,.59-.3h.66l.55,0h1.51l.08-.37.14-.77.11-.81a.85.85,0,0,1,.11-.26l.19-.26a.93.93,0,0,1,.4-.22l.3,0,.07,0h.63s.07,0,.11,0l.74.15H170a.54.54,0,0,1,.4.15l.19.18a.62.62,0,0,1,.22.55l0,.37.11.59a.47.47,0,0,1,0,.33l-.25.81-.11.34.25.7a.57.57,0,0,1,0,.51l-.11.19.11,1a.83.83,0,0,1,0,.29l-.26.63,0,.44.15.7a.64.64,0,0,1,0,.48l-.07.11a.41.41,0,0,1-.19.15l-.55.33-.29.29-.52.81-.15.92,0,1.66-.11.66.7.67.59.62a.73.73,0,0,1,.74.89l0,.62,0,1a.51.51,0,0,1,0,.26l-.18.55v.78l-.15.69v0a.7.7,0,0,1,0,1l-.26.25a.68.68,0,0,1-.55.15l-1-.15h-.92a.59.59,0,0,1-.48-.22l-.22-.22h-.66l-.81-.26a.64.64,0,0,1-.3-.25l-.44-.63-.44-.33a.51.51,0,0,1-.22-.33l0-.15-.48-.52a.67.67,0,0,1-.14-.33l-.08-.55L163,79a1.17,1.17,0,0,1,0-.37l.07-.4-.36-.7a.85.85,0,0,1-.08-.34Zm16.2,18.2a.43.43,0,0,1,0,.22v.44a.66.66,0,0,1-.11.26l-.29.55.11.52,0,.15a.69.69,0,0,1-.4.88l-.56.15-.51.11a.39.39,0,0,1-.26,0l-.51-.11-.59.25a.7.7,0,0,1-.26.08H175l-.15,0-.66-.22-.55-.07-.77.22a.52.52,0,0,1-.19,0h-.59l-.62.12h-1.15l-1.54-.34-.3-.11-.55,0a1.61,1.61,0,0,1-.37-.07l-.59-.33-.29.07a.62.62,0,0,1-.7-.19l-.3-.33-1.18-.77c-.11-.07-.14-.07-.18-.18l-.11-.26-.41-.44-.51-.78a.45.45,0,0,1-.11-.33v-.7l-.22-.18a.57.57,0,0,1-.22-.59l0-.48.11-1.22.19-.92v-.74s0,0,0-.07l.08-.51,0-.11.18-.52a.71.71,0,0,1,.22-.3l.55-.44,0-.14a.63.63,0,0,1,.52-.56l.47,0,.45-.45L166,86a.58.58,0,0,1,.63-.22l.3.11.33-.33a.58.58,0,0,1,.4-.19l.7-.07h.15l.74.11,1-.33a.43.43,0,0,1,.44,0l.44.18,1-.26a.21.21,0,0,1,.14,0h.52l.18,0,.63.22.59-.15a.57.57,0,0,1,.4,0l.26.08,2.58.25.55-.07a.45.45,0,0,1,.33,0l.15.07a.55.55,0,0,1,.33.52l0,.44v.22l-.15.59-.14.92,0,.63V89l0,.22.22.55a.76.76,0,0,1-.11.78l-.08.07a.59.59,0,0,1-.73.11l-.45-.22-.4.18a.38.38,0,0,1-.41,0l-.55-.18-.81.22s-.07,0-.11,0h-.55a.78.78,0,0,1-.3,0l-.44-.26-.88.44-.15,0-.22,0h-.15l-1.77-.08.15,1.74,1.77.18.51-.07.89-.11.22-.11a.6.6,0,0,1,.44-.08l.52.15.14.07.37.26.7-.37a.48.48,0,0,1,.22-.07l.52,0a.8.8,0,0,1,.33.08l.37.22.59.4a.7.7,0,0,1,.29.52v.51ZM180,76.58l-.18,1,.07.85v.18l-.11.41-.07.81a.6.6,0,0,1-.19.4l-.25.26-.08.44a.61.61,0,0,1-.15.33l-.47.48-.37.3-.92.81s-.08.07-.11.07l-.45.26a.12.12,0,0,1-.11,0l-.62.22s-.08,0-.11,0l-.41,0h-.07l-.92-.07H173a.63.63,0,0,1-.41-.19l-.07-.07a.48.48,0,0,1-.15-.3l-.14-.73V82l.07-.84.07-.41L172,80a.4.4,0,0,1-.08-.18l0-.37V79.3l.23-1.06c0-.19.22-.37.62-.52l.15,0,.74-.36.55-1.26-.15-.4a.43.43,0,0,1,0-.22l0-1.51-.22-.89-.37-.55-.59-.66-.33-.15c-.29-.15-.48-.29-.48-.37l0-.15-.15-.77a.62.62,0,0,1,.11-.44l.26-.33-.22-.44a.64.64,0,0,1,0-.63l.22-.26-.26-.92v-.59c0-.07,0-.07,0-.15l.18-.62-.22-.48a.54.54,0,0,1,0-.33l.18-.78.11-.77a.1.1,0,0,1,0-.07l.11-.26a.57.57,0,0,1,.51-.44l.41,0h1.18l.4.07.55.08a.45.45,0,0,1,.3.11l.26.18c.29.22.44.44.33.66l-.15.34v.92l.08.55,1.73,0,.29-.08a.38.38,0,0,1,.26,0l.85.15.25,0a.91.91,0,0,1,.37.18l.52.48a.43.43,0,0,1,.18.29v.23l-.07,1.1.18.59c0,.07,0,.15,0,.22v.41l-.11.84,0,.11a.71.71,0,0,1-.26.89l-.48.22-.77,1.14.22.15a.68.68,0,0,1,.26.55v.37l.37.63a.81.81,0,0,1,.07.33l0,.7Zm16.39,16.24-.25.52v.29a.73.73,0,0,1-.26.52l-.26.22-.37,1,0,.22a.62.62,0,0,1-.33.63l-.52.33-.26.33a.37.37,0,0,1-.25.18l-.37.11-.33.45a.64.64,0,0,1-.48.22l-.45,0-.7.26a.55.55,0,0,1-.25,0l-.63,0-.52.26a.53.53,0,0,1-.4.07l-1.29-.29-.26.18a.54.54,0,0,1-.37.15H187s-.15,0-.18,0l-.59-.22-.7.07h-1.7l-.26-.07-1,.07a1,1,0,0,1-.3,0l-.44-.19-.26.11a.69.69,0,0,1-.92-.14l-.18-.22c-.26-.34-.33-.67-.19-.78l.26-.22-.22-.48a.61.61,0,0,1,0-.55l.15-.11,0-.74-.15-1-.07-.41a.66.66,0,0,1,.22-.59l.26-.22a.4.4,0,0,1,.25-.11l.33-.07h.23l.73.15.85.07.88,0,.37-.15s.08,0,.11,0l.52-.07a.61.61,0,0,1,.26,0l1,.33,0-.08c.07-.11.26-.14.37-.18l1.77-.3-.37-1.28-1.36,0-.15,0-.63-.18a.32.32,0,0,1-.15-.08l-.22-.18h-.88l-1,.18-.52.15a.55.55,0,0,1-.44,0l-.22-.14-.81.11a.57.57,0,0,1-.26,0l-.41-.11a.58.58,0,0,1-.33-.29l-.11-.19a.66.66,0,0,1,0-.26v-.33l-.14-.66v-.19l.07-.55-.29-.77a.59.59,0,0,1,0-.37l.18-.55-.07-.33a.63.63,0,0,1,.18-.52l.18-.15a.62.62,0,0,1,.45-.18l.88,0h.85l.51.14.56,0,.7,0,.7-.22a.56.56,0,0,1,.44,0l.66.22.66-.11a.38.38,0,0,1,.3,0l.29.07.92-.26c.08,0,.11,0,.15,0h1.4a.48.48,0,0,1,.3.08l.62.36.37.11,1.07.15h.33a.52.52,0,0,1,.33.11l.52.33.11.08.22.29.66.37s.15.07.19.15l.29.44.37.59.37,1,.11.11a.59.59,0,0,1,.18.44V91.2l.26,1.18A.55.55,0,0,1,196.37,92.82ZM182.08,80.56a.62.62,0,0,1-.22-.59l.22-.89v-.44l0-.7.08-.92,0-.48v-.07l.11-.85-.26-.74a.73.73,0,0,1,0-.36l.11-.22.11-1.15-.07-.66,0-.7a.36.36,0,0,1,0-.22l.22-.55-.15-.48-.22-.78,0-.07,0-.59v-.18l.22-.81v-.78l-.11-.55-.07-.63,0-1v-.11l.07-.48a.68.68,0,0,1,.26-.37l.37-.3a.55.55,0,0,1,.33-.14l.74,0,.48-.07a.56.56,0,0,1,.48.11l.25.18,1-.22.7-.15a.48.48,0,0,1,.29,0l.15,0a.63.63,0,0,1,.41.26l.51.84a.75.75,0,0,1,.26.82l-.22.44.29.4a.64.64,0,0,1,.11.52l-.14.74,0,.55v.14l0,.45-.08,1.07,0,.44h0l.89-.26.25-.11a.45.45,0,0,1,.52,0v-.48l.15-.52-.08-.7v-.58l-.22-.82a.48.48,0,0,1,0-.29l.11-.44c0-.08,0-.08.08-.15l.29-.48-.11-.7a.66.66,0,0,1,.3-.66l.47-.3.15-.07.41-.15H193a.54.54,0,0,1,.22.08l.51.18.37-.15a.37.37,0,0,1,.33-.07l.41.07a.45.45,0,0,1,.26.11l.66.48a.66.66,0,0,1,.26.7l-.11.44-.11.26.37,1a.77.77,0,0,1,0,.37l0,.14-.37.85.33,1,0,.19v.55l0,.51v.81a.59.59,0,0,1,0,.26l-.19.48.11.85v.81l0,.85,0,.18v.22l-.07.77.19.59a.68.68,0,0,1,0,.45l-.15.33.19.62v1a.36.36,0,0,1-.08.22l-.15.4-.07.93,0,.81V81l0,.51,0,.52.11.66a.72.72,0,0,1-.3.7l-.48.33a.59.59,0,0,1-.55.08l-.44-.19-.63-.07-.18.18a.73.73,0,0,1-.66.15l-.85-.3-.52,0-.36.15a.62.62,0,0,1-.74-.19l-.15-.18a.73.73,0,0,1-.15-.59l.11-.37-.22-.88-.22-.74a.65.65,0,0,1,0-.44l.15-.22.14-.63-.29-.66a.43.43,0,0,1,0-.22V77l0-.18-.55.11c-.08,0-.15,0-.22,0l-.59-.15h-.15v.15l-.22,1.18.29.48a.54.54,0,0,1,.11.44l0,.44,0,.63a.61.61,0,0,1-.11.4l-.18.26.18.63.11.55a1,1,0,0,1,0,.29l-.19.59a.26.26,0,0,1-.07.15l-.3.52a.71.71,0,0,1-.44.29l-.51.11a.29.29,0,0,1-.26,0l-.74-.22-.44.26a.65.65,0,0,1-.44,0l-.59-.19-1-.18a.65.65,0,0,1-1-.19l-.26-.51s0-.08,0-.11l-.08-.33v-.93l.19-.81Z"/><path class="cls-2" d="M106.32,35.88l-.4-.62-.26-.41a1,1,0,0,1-.08-.37v-.22l-.7-1a.64.64,0,0,1-.07-.51l.15-.41a.65.65,0,0,1,.33-.4l.66-.3.26-.18a.36.36,0,0,1,.26-.11l.73-.08.74-.51a.58.58,0,0,1,.41-.11l.4.07.59-.55.48-.77a.42.42,0,0,1,.15-.15l.33-.26.51-.55.45-.37.25-.74.48-.95,0-.37,0,0-.81-.15-.29.22a.65.65,0,0,1-.63,0l-.55-.26-.48.22a.55.55,0,0,1-.48,0l-.26-.11-.88-.15h-.55a.59.59,0,0,1-.52-.26l-.26-.33a.5.5,0,0,1-.07-.4v-.11l0-.19.25-.51-.36-.85a.63.63,0,0,1,0-.52l.26-.55-.29-.55a.66.66,0,0,1,0-.26v-.18a.66.66,0,0,1,.37-.59l.66-.3a.15.15,0,0,1,.11,0l.41-.11.59-.3a.55.55,0,0,1,.36-.07l.63.07.7.08.52.11,1-.23.48,0a.58.58,0,0,1,.22,0l.4.12v-1l0-.7a.39.39,0,0,1,0-.36l.18-.34a.7.7,0,0,1,.7-.33l.7.08.66-.08.41-.14c.18-.08.37-.08.44,0l.15.07,1.18.22.59-.18.18,0a.67.67,0,0,1,.52,0l.4.22.3-.11a.61.61,0,0,1,.77.07l.44.41a.67.67,0,0,1,.22.66l-.11.33-.29.56,0,.66s.08,0,.11,0l.56.22.88,0,.77-.26c.08,0,.08,0,.11,0l.26,0a.58.58,0,0,1,.55.18l.12.22.73,0L125,20a.26.26,0,0,1,.15,0l.7,0a.65.65,0,0,1,.51.22l.41.44a.57.57,0,0,1,.14.48l0,.29-.37,1.07.26.55a.67.67,0,0,1,0,.52l-.22.59.11.37a.53.53,0,0,1,0,.22v.66a.46.46,0,0,1-.14.33l-.15.22a.59.59,0,0,1-.48.22h-.81l-.66-.07-.81.18h-.19l-.18,0-.92-.08-.59-.07-1,.11h-.11l-.37,0,0,.3a.48.48,0,0,1-.07.37l-.55.95-.22.7-.11.37a.14.14,0,0,0,0,.08l-.41.88,0,.37a.33.33,0,0,1-.08.18l-.4.74-.08.4a.59.59,0,0,1-.25.41l-.7.44-.48.37v.15a.57.57,0,0,1-.22.48l-.26.22-.15.07-.92.44-.26.45s-.07.11-.07.11l-.37.4a.88.88,0,0,1-.33.18l-.55.12-.74.4-.26.41c-.18.29-.44.44-.55.4l-.22-.11L111,37l-.41.3-.63.37a.53.53,0,0,1-.51.07l-.26-.11-.48.33a.5.5,0,0,1-.51.07l-.48-.11a.65.65,0,0,1-.52-.59V37l-.33-.11a.64.64,0,0,1-.41-.41Zm15.62,6.85-.33.59.07.22a.51.51,0,0,1,.07.22v.41a.52.52,0,0,1-.18.4l-.55.56a.56.56,0,0,1-.48.18l-.48,0-.48,0a.54.54,0,0,1-.48-.15l-.18-.18-.74.33a.75.75,0,0,1-.55,0l-.33-.18-.67-.22-.88.25-.15,0h-1.21l.11,1.14,1,.22a.09.09,0,0,1,.07,0l.74.33.7-.22a.43.43,0,0,1,.22,0l.7.08s.07,0,.11,0l.52.19.66-.41a.57.57,0,0,1,.33-.07l.92.07.33,0a.91.91,0,0,1,.41.22l.48.63c.11.15.18.33.14.4l0,.15,0,.59-.15.85.3.88s0,.07,0,.15v.29a.36.36,0,0,1,0,.22l-.19.48a.15.15,0,0,1-.07.11l-.37.56a.62.62,0,0,1-.44.29l-.44,0h-.15l-.77-.11-1.11.11a.49.49,0,0,1-.44-.15l-.37-.26-.62.3a.57.57,0,0,1-.59,0l-.52-.26-.37.18a.49.49,0,0,1-.22.08l-.7,0h-.15l-.36,0-1.37-.3-1,0s-.12,0-.19,0l-.44-.15L110,51.65l-.33-.11a.21.21,0,0,1-.19-.08l-.29-.22-.74-.26c-.18-.07-.33-.14-.36-.29l0-.22-.7-.74-.3-.44c0-.07-.07-.11-.07-.15l-.11-.33-.52-.66a.34.34,0,0,1-.07-.15l-.15-.48a.77.77,0,0,1,0-.26l.07-.73s0,0,0-.08l.25-1-.18-1v-.22l.11-.55c0-.08,0-.08,0-.11l.33-.74.26-.37.48-.77.07-.11a.35.35,0,0,1,.18-.22l.78-.45.48-.22.33-.33a.49.49,0,0,1,.44-.18h.74l.36-.3a.84.84,0,0,1,.41-.14H112l.29-.19a.57.57,0,0,1,.55-.07l1,.37.52-.08h.88l.85-.14s.08,0,.11,0h.55l.81-.19H118l.14,0,.78.22.51-.22a.48.48,0,0,1,.3-.07l.81,0,.07,0,.3.08a.5.5,0,0,1,.4.33l.3.55.18.44a.37.37,0,0,1,.07.19L122,42l0,.33A.6.6,0,0,1,121.94,42.73Zm1.47-5.26-.55-.52-.52-.37-.7-.07-.07,0-.59-.15a.6.6,0,0,1-.44-.4l-.15-.41-1-.59-.63-.44a.67.67,0,0,1-.37-.74l.11-.44c0-.07,0-.07,0-.11l.22-.44a.54.54,0,0,1,.37-.33l.37-.11.26-.66.07-.63v-.11l.26-.7a.55.55,0,0,1,.14-.26l.7-.66.08-.48a1.3,1.3,0,0,1,0-.15l.23-.44a.55.55,0,0,1,.33-.26c.11,0,.29.08.4.26l.19.37.47.4.89.37a.7.7,0,0,1,.26.19l.37.47.4.45.41-.08a.65.65,0,0,1,.62.19l.41.48.66.14a.13.13,0,0,1,.11,0l.66.37a.6.6,0,0,1,.74.4l.15.45a.72.72,0,0,1,0,.25l-.07.45a.41.41,0,0,1-.15.29l-.25.29-.37.71-.19.51s0,.07,0,.11l-.41.66-.15.52s-.07.07-.07.11l-.26.48a.48.48,0,0,1-.29.26l-.15.07-1.07.41-.66.14a.67.67,0,0,1-.37,0l-.29-.11A.62.62,0,0,1,123.41,37.47Zm15.8,8,0,1.32v.08l-.08.36-.14.92-.19.74a.49.49,0,0,1-.07.19l-.22.33a.51.51,0,0,1-.3.25l-.18,0-.89.59v.3a.72.72,0,0,1-.22.47l-.59.48-.11.08-.4.18-.08,0-.51.15-.92.22a.75.75,0,0,1-.48-.08l-.3-.18L133,52l-1.66.22-.77.18-.4,0a.62.62,0,0,1-.45-.08l-.51-.29-.48,0-.74.14-1.58.15h-.19l-.77-.15-.26,0c-.11,0-.14,0-.22,0l-.59-.15a.2.2,0,0,1-.18-.07l-.37-.26c-.33-.26-.48-.48-.41-.59l.12-.18V50l-.08-.59a.59.59,0,0,1,0-.26l.15-.41-.19-.51a.85.85,0,0,1,0-.48l.12-.11.44-.7a.72.72,0,0,1,.62-.3l.63.08h.52l1,.11a.21.21,0,0,1,.15,0L127,47l.88-.3.52-.18a.74.74,0,0,1,.48.07l.7.41,1.29-.45-.08-1.21-1,0-.81.07c-.07,0-.15,0-.22,0l-.85-.25-1.18.22a.47.47,0,0,1-.37-.08l-.44-.18-.48.26a.66.66,0,0,1-.36.07l-.67-.07a.7.7,0,0,1-.26-.08l-.51-.33a.57.57,0,0,1-.3-.55v-.66a.45.45,0,0,1,.11-.33l.26-.34-.14-.33a.6.6,0,0,1,0-.37l.18-.7-.26-.22a.57.57,0,0,1-.18-.48v-.33a.65.65,0,0,1,.22-.4l.41-.37c.29-.29.59-.41.73-.26l.26.22.59-.25a.75.75,0,0,1,.3,0l.66,0a.47.47,0,0,1,.22.07l.4.22.85-.18s.08,0,.11,0h1.22s.07,0,.11,0l.81.14h.66l.41,0,1.62,0,.59-.22a.68.68,0,0,1,.55,0l.15.15h.66a.67.67,0,0,1,.55.33l.19.37.81.14a.61.61,0,0,1,.33.19l.15.14.51.15c.22.08.41.22.44.37l.08.26.48.85.33.29a.69.69,0,0,1,.18.48v.44l.26,1,.15.59A1.3,1.3,0,0,0,139.21,45.5ZM127.72,26.64l.11-.26-.07-.74,0-1.18,0-.07a.63.63,0,0,1,.26-.55l.52-.41c.07-.07.15-.07.22-.11l.07,0,.15,0h.77s.08,0,.15,0l.55.14.45,0,0-.33L131,22v-.37l-.15-.85v-.15l.07-.77,0-.07.11-.37L131,19a.71.71,0,0,1,.29-.74l.3-.18a.67.67,0,0,1,.44-.15l.15,0,.74-.11.62-.22a.56.56,0,0,1,.44,0l.41.15,1,.11.36-.15a.57.57,0,0,1,.34,0l.55.11.77,0a.64.64,0,0,1,.7.11l.48.37a.7.7,0,0,1,.26.62l-.08.37,0,.81v.3l0,.18-.25.74.22,1,.07.67,0,.07v.37a.52.52,0,0,1-.19.37l-.22.29,0,.74.18.48a.61.61,0,0,1,0,.51l-.26.63,0,.55v1.18l.07.55v.48l-.07,1,0,.44.3,1v.22l0,.63.19.48a.4.4,0,0,1,0,.18l0,.78,0,.25,0,.19-.26.59-.11,1.14.25.4a.73.73,0,0,1,.12.3v.26a.67.67,0,0,1-.37.62l-.3.15a.44.44,0,0,1-.22.07l-.81,0-.55,0-.81.15h-1.22l-.7,0h-.11l-.84-.15-.37.12c-.26.07-.52,0-.59-.08l-.11-.18-.45-.08a.77.77,0,0,1-.51-.59l-.07-.55v-.15l.07-.73-.15-.55a.48.48,0,0,1,0-.34l.22-.55-.07-.07a.57.57,0,0,1-.08-.59l.22-.66-.18-.63-.11-.55V31c0-.07,0-.07,0-.15l.11-.37-.48-.07-.7.11-.7.18a.53.53,0,0,1-.41,0l-.29-.15a.5.5,0,0,1-.22-.18l-.26-.37a.93.93,0,0,1-.11-.44l.07-.34-.11-.73v-.11l0-1-.08-.52A.64.64,0,0,1,127.72,26.64Z"/><path class="cls-2" d="M176.86,40.89v.19a.51.51,0,0,1-.07.18l-.26.63.22.73a.67.67,0,0,1,0,.48l-.11.26.11,1.07v.07a.7.7,0,0,1-.37.77l-.44.23-.7.36a.61.61,0,0,1-.26.08h-.33a.55.55,0,0,1-.25,0l-.78-.37-.48.15a.49.49,0,0,1-.55,0l-.22-.18-1,.22-.29.07a.72.72,0,0,1-.41,0l-.62-.22h-.89l-.36.18a.72.72,0,0,1-.3.11H168l-.92-.11-.93-.14-.22.07a.56.56,0,0,1-.4,0l-.66-.19-.7.33a.7.7,0,0,1-.26.08h-.15l.11.37a.56.56,0,0,1,0,.36l-.18.7,0,.63.08.77.14.7a.39.39,0,0,1,0,.3l-.14.66-.11.78v.11a.59.59,0,0,1-.22.58l-.45.37a.52.52,0,0,1-.37.15h-.33l-.62.15a.6.6,0,0,1-.48-.08l-.52-.33-.25.11a.72.72,0,0,1-.3.11h-1l-.44.15a.54.54,0,0,1-.52,0l-.62-.33-.48.3a.62.62,0,0,1-.48.11l-.44-.08a.7.7,0,0,1-.81-.25l-.44-.63a.54.54,0,0,1-.11-.33V50.8l-.08-.15a.77.77,0,0,1,0-.26l.07-1,.11-.59-.15-.51a.65.65,0,0,1,0-.44l.29-.48-.18-.52s0-.07,0-.11l0-.63v-.33a.4.4,0,0,1-.19,0l-.81,0h-.11l-.66,0a.49.49,0,0,1-.19-.07l-.55-.22-.48.22a.6.6,0,0,1-.44.07l-.33-.07-.7.07-.92.07h-.11l-.67,0-.11,0-1.36-.33-.55.18-.74.19a.76.76,0,0,1-.26,0l-.81-.19-.48-.14-.92.07-.07,0a.63.63,0,0,1-.85,0l-.25-.23a.59.59,0,0,1-.23-.62l.15-.66-.15-.19a.65.65,0,0,1-.11-.37l.08-.92c0-.07,0-.07,0-.11l.15-.37-.07-.73,0-.81v-.34a.56.56,0,0,1,.15-.4l.52-.52.11-.07.37-.22a.57.57,0,0,1,.59,0l.36.15.34-.18a.6.6,0,0,1,.44-.08l.81.11h.88l.67.19.4-.22a.57.57,0,0,1,.55,0l.37.14.41.19.77-.26a.57.57,0,0,1,.44,0l.44.18h.81l.59-.18.48-.11a.29.29,0,0,1,.26,0l1.14.22c.22-.22.48-.33.67-.22l.33.14.77.19,1-.08.74,0,.33-.11a.6.6,0,0,1,.41,0l.51.15,1.25-.22h2.77l.62-.11a.29.29,0,0,1,.26,0l.26,0,1.1.3.48-.22a.48.48,0,0,1,.41,0l.48.11.66,0a.61.61,0,0,1,.26,0l.4.11.85,0h.77l.26-.11c.11,0,.26-.11.37-.07l.92.15.37-.08.11,0,.85,0a.55.55,0,0,1,.25,0l.22.07.59-.22a.51.51,0,0,1,.23-.07h1.21a.49.49,0,0,1,.3.07l.62.29.63.34a.62.62,0,0,1,.29.4l.22.74Zm-34.44-8.84a.73.73,0,0,1,.11-.88l.11-.11c.18-.22.37-.3.48-.26l.22.07.52-.33a.7.7,0,0,1,.55-.11l.55.18.59-.36.11-.08.59-.18.85-.19a.54.54,0,0,1,.22,0l.62.11.85-.33.59-.4a.47.47,0,0,1,.33-.11l.59,0,.26-.41.41-.44a1.21,1.21,0,0,1,.36-.18l.59-.11.81-.3.08-.36A.73.73,0,0,1,153,27l.63-.63.41-.44.47-.81-.25,0-.59.26a.45.45,0,0,1-.22,0h-.67l-.7,0-.77,0a.62.62,0,0,1-.33-.11l-.19-.11-1.14,0-.66-.07-.26.11a.26.26,0,0,1-.15.07l-.81.08a.55.55,0,0,1-.25,0l-.7-.33-.37.22a.72.72,0,0,1-.67,0l-.47-.29-.15,0a.7.7,0,0,1-.37-.07l-.59-.37a.73.73,0,0,1-.29-.4l-.08-.41a.62.62,0,0,1,0-.33l.3-.66,0-.74v-.7h0a.6.6,0,0,1-.07-.55l.33-.85-.11-.18a.71.71,0,0,1,.3-1l.25-.15a1.07,1.07,0,0,1,.33-.07h1.11a.92.92,0,0,1,.26.07l.44.19.66,0,.81-.07.41-.19a.83.83,0,0,1,.29,0l1,.07.4,0,.11,0h.67a.59.59,0,0,1,.4.18l.19.15.81-.3a.72.72,0,0,1,.25,0l.78,0h.55l.88.11h.52l.7.15.66-.15.78-.07h1.73l.48-.15a.25.25,0,0,1,.14,0h.85l.63.12a.66.66,0,0,1,.29.14l.19.11.62-.14h1.25l.48-.11a.47.47,0,0,1,.33,0l.67.18.33-.15a.38.38,0,0,1,.44,0l.19.07,1.06-.07a.74.74,0,0,1,.26,0l.48.15.77.07.26-.11a.64.64,0,0,1,.52-.07l.29.07.78-.14a.48.48,0,0,1,.44.07l.18.11.74-.11,1-.19a.28.28,0,0,1,.22,0l.33.08a.63.63,0,0,1,.37.29l.44.67.11.22a.61.61,0,0,1,0,.66l-.19.26.08.77.14.89s0,.07,0,.11V23l0,.47-.11.48a.6.6,0,0,1-.18.34l-.59.51-.11.07-.22.12a1.3,1.3,0,0,1-.33.07l-.78-.11-.48.07-.48.22a.38.38,0,0,1-.33.08l-.59-.15-1.1.07h-.22l-.37-.14-.88.11h-.15l-.59-.11-.66-.08,0,0a.66.66,0,0,1-.77.07l-.41-.26-.52.3a.44.44,0,0,1-.22.07l-.66,0h-.15L163,25.2h-.15l0,.22c.07.37,0,.59-.18.7l-.34.15-.11.81a.7.7,0,0,1-.14.37l-.19.14-.48,1.11-.14.29-.41.78-.11.14-.52.52s0,.07-.07.07l-.33.22-.07.52a.62.62,0,0,1-.37.48l-.52.22-.62.63-.23.18a.58.58,0,0,1-.29.15l-.81.15-.37.4-.26.18-.59.19-.4.63-.11.14-.15.15a.64.64,0,0,1-.44.15l-.7,0-.55.44a.59.59,0,0,1-.48.11l-.37-.07-.74.29-.18.22a.79.79,0,0,1-.26.15l-.85.26-.48.22a.15.15,0,0,1-.11.07l-.88.19h-.11l-.41,0s-.07,0-.11,0l-.44,0-.59.41a.58.58,0,0,1-.55.11l-.44-.11-.67.14a.42.42,0,0,1-.36,0l-.48-.22a.67.67,0,0,1-.37-.41l0-.29-.4-.37a.66.66,0,0,1-.19-.55l.08-.3-.41-1.1-.15-.15a.53.53,0,0,1,0-.11l-.3-.66-.37-.59Zm31.86-1.8.74.18a.13.13,0,0,1,.11,0l.51.22.15.11h0a.7.7,0,0,1,.18.7l-.14.48-.15.55c0,.07-.08.11-.11.18l-.48.63,0,.4a.52.52,0,0,1-.11.45l-.63.77,0,.3-.29.77s0,.07,0,.11l-.18.26a.75.75,0,0,1-.22.22l-.89.48a.77.77,0,0,1-.26.07h-1.36a.42.42,0,0,1-.29-.11l-.41-.26-.48-.11-.07,0-.89-.37-.95-.33-.41-.12-.4-.07a.41.41,0,0,1-.22-.07l-.82-.56-.29,0c-.37,0-.66-.07-.7-.29l-.11-.37-.74,0a.57.57,0,0,1-.37-.15l-.14-.14-.89-.52-.59-.18a.68.68,0,0,1-.36-.33l-.26-.59s0-.08,0-.15l-.07-.37a.55.55,0,0,1,.11-.48l.51-.66.37-.63.22-.4.15-.15.66-.55.22-.59.3-.92v-.11l.22-.45v-.18c-.07-.29,0-.55.18-.66h0a.57.57,0,0,1,.59,0l.41.23.66.33.15.11.33.33.81.59.33.29.7.41,1,.07s.11,0,.14,0l.3.11a.65.65,0,0,1,.22.18l.37.45h.81a.42.42,0,0,1,.26.07l.51.29.7.34.52.14.7-.07A.37.37,0,0,1,174.28,30.25Z"/><path class="cls-2" d="M49.47,83.54l-.11.37a.67.67,0,0,1-.22.33l-.7.52a.22.22,0,0,0-.11,0L48,85a1,1,0,0,1-.29,0l-.48,0-.78-.11-1-.22-.26.14a.61.61,0,0,1-.26.08H44l-.3,0h-.11l-1.66-.18-.77-.11-.74.15-.48,0L39,84.9h-.18l-.66-.14h-.56l-.81-.08-.62,0-.08.4-.22.81.22.33a.79.79,0,0,1,.08.63l-.22.59,0,1.07,0,.22a.69.69,0,0,1-.19.73l-.26.15a.25.25,0,0,1-.18.08l-.77.11h-.41a.27.27,0,0,1-.15,0l-.59-.22-.55.33a1.21,1.21,0,0,1-.37.07l-.73-.07s0,0-.08,0l-.29-.11h-.7l-.7.15-.52.07a.58.58,0,0,1-.51-.18l-.55-.59a.48.48,0,0,1-.19-.37v-.51l-.11-.89v-.11l0-.37V85.82a.84.84,0,0,1,0-.25l.26-.45V85l-.59-.08a.51.51,0,0,1-.22-.07l-.37-.26-.44.26a.59.59,0,0,1-.55,0l-.66-.3-.45.15a.27.27,0,0,1-.25,0l-.59-.15-.45.19a.53.53,0,0,1-.22,0h-.7l-.7-.11-1-.07-.37.22a.66.66,0,0,1-.51,0l-.55-.22-.56-.11h-.66l-.85,0-.59.22a.59.59,0,0,1-.55,0l-.22-.18-.52.11a.61.61,0,0,1-.62-.26l-.26-.29a.43.43,0,0,1,0-.11l-.22-.45a.62.62,0,0,1,0-.7l.26-.33L14.77,82l-.18-.55A.89.89,0,0,1,14.7,81l.26-.4-.26-.63a.65.65,0,0,1,.15-.63L15.1,79a.71.71,0,0,1,.48-.22h.59l.85.11.74.15.88,0,.3-.18a.47.47,0,0,1,.44-.07l.37.07a.14.14,0,0,1,.11,0l.59.25.81-.07.81-.29a.47.47,0,0,1,.33,0l.48.11a.17.17,0,0,1,.11,0l.29.15,1,0,.33-.19a.51.51,0,0,1,.4,0l.81.11.78.18.22-.11a.73.73,0,0,1,.29,0h.78l1,0h.7l.3-.11a.52.52,0,0,1,.47,0l.81.33.26-.07c.08,0,.08,0,.11,0l1.11-.07.37-.15a.79.79,0,0,1,.4,0l.22,0,.85,0,.88.14.78.08.22-.11a.52.52,0,0,1,.51-.08l.41.11,1.91-.14h1.4a.52.52,0,0,1,.19,0l.4.11.92,0,1.15-.29a.63.63,0,0,1,.51.07l.3.15,1.36-.19a.53.53,0,0,1,.44.11l.37.22.66-.29a.58.58,0,0,1,.48,0l.55.19.41,0a.54.54,0,0,1,.26.11l.14.08a.68.68,0,0,1,.34.55v.63l.22.33a.81.81,0,0,1,.14.37v.51c0,.08,0,.11,0,.15l-.3,1,.19.19A.63.63,0,0,1,49.47,83.54ZM48.37,95a.74.74,0,0,1,0,.26l-.22,1.1-.11.52a.45.45,0,0,1-.18.29l-.37.3a.57.57,0,0,1-.66.15l-.41-.15-.29.18a.68.68,0,0,1-.7,0l-.3-.22-.22.18a.61.61,0,0,1-.7.08l-.33-.15-1,0-.82-.08-.33.08-1.14.29-.15,0h-.55a.42.42,0,0,1-.29-.11l-.26-.15-.81-.26-.48.11s-.07,0-.11,0l-1.14,0-.44.11a.43.43,0,0,1-.3,0l-.63-.11L35,97.54l-1,0h-.11l-.55,0h-.81l-.7-.15-.44.22a.7.7,0,0,1-.55,0l-.41-.15-1,.19a.74.74,0,0,1-.48.07l-.7-.18-1-.19-.67.26-.11,0-.51.11s-.08,0-.11,0l-.85,0-.3,0-1.14-.07-.55.07c-.07,0-.18,0-.26,0s-.07,0-.11,0L22,97.69h-.37s-.08,0-.11,0l-.67-.11-1.14,0-.15,0a.54.54,0,0,1-.33,0l-.7-.15-.62.22a.67.67,0,0,1-.59,0l-.22-.18L16.47,97c-.22-.19-.37-.41-.33-.48l.07-.15.29-1-.14-.89L16.17,94l0-.18v-.89l0-.44-.07-1v-.63c0-.07,0-.18,0-.22l.22-.59.22-.55L16.21,89a.6.6,0,0,1-.07-.44l.11-.7v-.33a.55.55,0,0,1,.07-.34l.33-.47a.52.52,0,0,1,.37-.26l.33-.08a.38.38,0,0,1,.26,0l1,.22.34-.14a.45.45,0,0,1,.22-.08H20l.52.15.29-.11a.51.51,0,0,1,.59.07l.26.19h.85l.36-.11a.72.72,0,0,1,.81.22l.15.22a.75.75,0,0,1,.11.37v.77l.11.22c0,.08.08.11.08.15l.14.52a.42.42,0,0,1,0,.29l-.19.81L24,90.8l.15.51h0l.15,0,1,.33.52.07,1-.07.33-.18a.64.64,0,0,1,.44-.08l.74.22.62-.25a.8.8,0,0,1,.3,0l.55.07.08,0,.73.26.55,0,.93,0,.29-.14a.48.48,0,0,1,.33,0l.59.15h1.4s.07,0,.15,0l.55.18.92,0,.89-.22a.28.28,0,0,1,.25,0l.63.18c.15-.29.4-.37.59-.22l.37.26.66-.3a.56.56,0,0,1,.22,0h1l.44,0,1.1.26.08-.07a.46.46,0,0,1,.4,0l.74.15.74-.22s.07,0,.11,0H45l.85.07.52-.25a.73.73,0,0,1,.29,0l.48,0a.77.77,0,0,1,.55.4l.19.44a.68.68,0,0,1,.07.23v.88c.26.15.44.37.37.63l-.11.36ZM16.21,67.41l.15-.33-.19-1a.57.57,0,0,1,0-.4l.15-.23-.11-.51a.74.74,0,0,1,.37-.74l.29-.14a.73.73,0,0,1,.29,0h.45l.81-.19a.32.32,0,0,1,.25,0l.45.07.66,0,1-.11a1,1,0,0,1,.33.07l.56.26.44-.19.44-.11a.61.61,0,0,1,.63.15l.07.08.33.07,1.58-.26.67-.07c.14,0,.22,0,.33.07l.48.22,1,0,.48,0h.66l.59-.29a.57.57,0,0,1,.59,0l.55.29.08,0,.4.29a.7.7,0,0,1,.3.59l-.08.26s0,.07,0,.11L31,66l.26.66a.37.37,0,0,1,.07.19l.08,1v.14a.71.71,0,0,1-.3.63l-.66.44-.44.26a.26.26,0,0,1-.15.07l-.66.15a.51.51,0,0,1-.34,0L28,69.06l-.19.19a.53.53,0,0,1-.62.11l-.26-.18-1.14-.12a.57.57,0,0,1-.67.12l-.4-.19-1,.3-.07,0,.07.19a1.16,1.16,0,0,1,.07.37l-.11.77.11.33a.63.63,0,0,1,0,.52l-.11.22h.59a.31.31,0,0,1,.14,0l.85.26.7-.11h.74l.37-.11a.51.51,0,0,1,.33,0l1,.22L29,71.9l.11,0h.37l.66-.07a.55.55,0,0,1,.48.11l.33.26a.71.71,0,0,1,.26.63l-.08.51-.14,1,.22.62a.47.47,0,0,1,0,.33l0,.26v.63a.72.72,0,0,1-.22.48l-.4.36a.49.49,0,0,1-.34.15l-.7.07-.51.19a.55.55,0,0,1-.44,0l-.48-.26-.56,0-.7,0-1.73.3-.66.07h-.63l-.18,0-.44-.18a.62.62,0,0,1-.48.15l-.44-.08H21.4a.77.77,0,0,1-.29-.07l-.07,0a.5.5,0,0,1-.3-.11l-.15-.11-.7.07-.33.15a.73.73,0,0,1-.29,0l-.74-.11-.44.22a.75.75,0,0,1-.55,0l-.74-.37-.11-.07a.53.53,0,0,1-.19-.41l-.07-.88V75l-.18-.67a.68.68,0,0,1,.14-.59l.23-.26-.08-.81-.18-.47s0,0,0-.12l0-.58a.57.57,0,0,1,.08-.37l.26-.41L16.5,70l-.11-1.11-.07,0a.71.71,0,0,1-.18-.48l0-.74A1.27,1.27,0,0,1,16.21,67.41ZM32.6,75.25c-.07-.07-.07-.22-.07-.37v-.81a.78.78,0,0,1,0-.14L33,72.71l.22-.59a.64.64,0,0,1,.52-.4l.18,0a.43.43,0,0,1,.37.07l.48.22.77-.29a.59.59,0,0,1,.26,0l.88,0,.08,0,.29,0,1.18.33h.59l.44-.07.7-.29a.39.39,0,0,1,.19-.08V70.57l.18-.81-.15-.47V69l-.62.07-.52.11-.88.26h-.22l-.74-.11-.85-.22-.4.11-.81.11c-.08,0-.19,0-.26,0l-.37-.15h-1a.47.47,0,0,1-.33-.11L33,69a.7.7,0,0,1-.25-.63l.14-.77,0-.66L33,66l-.22-.48s0-.07,0-.15l0-.29a.64.64,0,0,1,.18-.55l.26-.26a.78.78,0,0,1,.55-.15l.52.08.4-.26a.61.61,0,0,1,.56-.08l.4.11.63-.18c.07,0,.15,0,.18,0h1l.07,0,.55.07.7,0h.11l.52,0,1.07.22.44-.26a.77.77,0,0,1,.4-.11l.59.08a.27.27,0,0,1,.15,0l.52.23.22,0a2.29,2.29,0,0,1,.48-.08h.11L44,63.8a.54.54,0,0,1,.41,0l.36.15.45-.15a.54.54,0,0,1,.33,0l.84.18h.26a.71.71,0,0,1,.59.3l.22.33a.25.25,0,0,1,.08.18l.07.33,0,.11,0,.92v.19l-.07.37-.11,1.14.11.26a.81.81,0,0,1,.07.33l0,.62-.19.89.15.77c0,.08,0,.08,0,.11v.7l.07.19a.34.34,0,0,1,.07.22l.08.66v.74l-.15,1.14V75l-.07.51-.11,1a.53.53,0,0,1-.19.4L47.3,77a.52.52,0,0,1-.37.14l-1,0-.15.07a.46.46,0,0,1-.29.08h-.85a.62.62,0,0,1-.29-.08l-.48-.29-.33.22a.48.48,0,0,1-.37,0,1,1,0,0,1-.26.15l-.29.07a.59.59,0,0,1-.37,0l-.22-.07h0a1,1,0,0,1-.29,0l-.26,0c-.15,0-.22,0-.3-.12a.56.56,0,0,1-.36,0l-.45-.15L39.42,77l-.89.07h-.11L38,77h-.52l-1,.11-.62.14a.32.32,0,0,1-.26,0L35,77l-.92.11,0,0A.68.68,0,0,1,33.3,77l-.18-.26a.66.66,0,0,1-.11-.37v-.48Z"/><path class="cls-2" d="M74.56,92.6a.92.92,0,0,1,0,.3l-.07.55-.18.81v.66c0,.08,0,.11,0,.19l-.15.44.11.63a.65.65,0,0,1-.11.51l-.3.41a.72.72,0,0,1-.51.25H73l-1-.18h-.37a.45.45,0,0,1-.29-.07l-.48-.23-.55.3a.46.46,0,0,1-.37.07l-.66-.11-.45,0-.7-.11-.62.22a.8.8,0,0,1-.26,0l-1-.11L65.68,97l-.48-.18-.77.29a.59.59,0,0,1-.37,0L63.29,97l-.37.07a.51.51,0,0,1-.41,0L62.29,97l-.74,0-1,.3h-.44s-.07,0-.11,0L59,97l-.59.22a.65.65,0,0,1-.51,0L57.47,97l-.59,0-.22.18a.78.78,0,0,1-.48.15l-.48,0-1.07,0h-.22l-.19,0-.81-.26-.4.22a.6.6,0,0,1-.55,0l-.74-.3a.32.32,0,0,1-.18-.14l-.15-.15-.08-.15L51.09,96a.6.6,0,0,1,0-.55l.26-.44-.22-1.07v-.22l.11-.55-.08-.55v-.23l.19-.51.18-.41a.59.59,0,0,1,.63-.33l.44.08h.81l.48-.11h.15l.81.07.66,0,.92.11.19-.11a.72.72,0,0,1,.47-.08l.3.11.66-.33a.65.65,0,0,1,.44,0l.34.11v-.07l0-.37-.11-.81,0-1a.58.58,0,0,1,0-.22l.08-.18-.11-.48a.66.66,0,0,1,.18-.63L59.2,87a.62.62,0,0,1,.62-.18l.33.11.67-.3a.54.54,0,0,1,.48,0l.33.11.81.22.62-.3a.52.52,0,0,1,.56,0l.26.15.51-.15a.6.6,0,0,1,.48.08l.33.18.59-.11a.46.46,0,0,1,.37.08l.15.07a.65.65,0,0,1,.4.74l-.11.51.22.33a.85.85,0,0,1,.11.34v.55a.77.77,0,0,1-.07.29l-.15.33-.15.92,0,.23.63,0,.84-.11.41-.07h.77l1,.07.55-.11a.38.38,0,0,1,.3,0l.51.22.37-.3a.71.71,0,0,1,.52-.11l.62.11h.26a.66.66,0,0,1,.63.37l.29.52ZM51.42,69.18l.19-.3-.22-.66a.78.78,0,0,1,0-.3l.19-.81-.12-.22a.62.62,0,0,1,.12-.7l.07-.07a.6.6,0,0,1,.77-.19l.41.19,1-.33c.07,0,.14,0,.22,0h.44a.45.45,0,0,1,.18,0l.81.26.22-.11a.72.72,0,0,1,.3-.11h1.32l0-.66.18-.67,0-.18a.74.74,0,0,1,.4-.77l.48-.22.37-.15a.36.36,0,0,1,.18-.08l.81-.07h.15l.85.11s.11,0,.14,0l.45.11h.51a.54.54,0,0,1,.3.44l.18,1V65l0,.51,0,.81a.59.59,0,0,1,0,.26l-.11.37-.14.88.07.48v.22l-.15.78,0,.92v0A.64.64,0,0,1,62,71l-.25.63,0,.29a.38.38,0,0,1-.41.33h-.4l-.59.37-.37.55,0,.67c0,.11,0,.14-.08.25l-.36.89,0,1.18.33,1.06.18.48.45,1,.29.33h.55a.58.58,0,0,1,.48.22l.11.11A.62.62,0,0,1,62,80l-.18.48,0,.77,0,.56,0,.59-.08,1,.08.48v.52l-.08.37a.68.68,0,0,1-.81.62l-.7-.11-1,0-.78-.15L58.2,85a.23.23,0,0,1-.14-.07l-.63-.33-.66,0a.43.43,0,0,1-.26-.11l-.63-.4-.44-.37-.59-.19a.35.35,0,0,1-.18-.11l-.41-.33a.59.59,0,0,1-.22-.48l0-.29-.56-.44-.4-.37a.63.63,0,0,1-.18-.59L53,80.3l-.19-.37-.36-.44c-.08-.11-.15-.15-.15-.3l-.07-.47a1,1,0,0,1,0-.3l.22-.66-.07-1.7V76l.07-.55-.11-.26a.74.74,0,0,1,0-.55l.29-.55.34-.52-.08-.7,0-.66-.52.15a.71.71,0,0,1-.77-.34l-.15-.29a1,1,0,0,1-.08-.37l0-.33c0-.07,0-.07,0-.11l.26-.63-.3-.36A.68.68,0,0,1,51.42,69.18Zm12,15.65a.53.53,0,0,1-.18-.41v-.55a.93.93,0,0,1,0-.26l.26-.44-.22-.59a.59.59,0,0,1,0-.37l.22-.51V81c0-.07,0-.11,0-.15l.14-.37-.25-.55a.27.27,0,0,1-.08-.18v-.26a.69.69,0,0,1,.48-.74l.52-.07.7-.33.51-.67-.07-.4a.74.74,0,0,1,.07-.48l.22-.29.19-1.4L66,74l-.44-.55a.49.49,0,0,1-.14-.4v-.22l-.85-.45h-.33c-.45,0-.85-.26-.81-.51l.07-.52v-.74l0-.18.11-.22-.15-.81a1.3,1.3,0,0,1,.07-.33l.22-.44-.29-.48a.89.89,0,0,1-.11-.37l.15-.92L63.43,66V65.9l.08-.48.11-.89-.15-.25a.71.71,0,0,1,.22-.81l.37-.3a.6.6,0,0,1,.66-.11l.37.15.77-.08,1-.07h.22a.65.65,0,0,1,.63.37l.25.48a.48.48,0,0,1,0,.4l-.07.52L68.15,66l1,0,.62-.07h.11l.7,0,.59-.07.92-.07h.26l.74,0a.61.61,0,0,1,.25.08l.59.33a.6.6,0,0,1,.37.59l0,.37-.12.55.12.77a.59.59,0,0,1-.12.41l-.11.22v.85l-.18.77.07.29a.71.71,0,0,1-.22.78l-.33.26s-.07.07-.11.07l-.66.33.15.92c0,.08,0,.08,0,.15l-.07.74.07,0c.3.26.41.52.33.63l-.11.22.37.88a.72.72,0,0,1,0,.41L73,77.87l.19.77.07.19a.55.55,0,0,1,0,.25l-.11.7a.6.6,0,0,1-.19.37l-.4.37.07.52a.59.59,0,0,1-.22.59l-.55.44-.22.44-.92,1s-.08.07-.11.07l-.93.59-.47.44a.61.61,0,0,1-.37.15l-.59,0-.7.36a.59.59,0,0,1-.52,0l-.48-.18-.4.11-.52.22a.61.61,0,0,1-.25.08H64.24a.6.6,0,0,1-.4-.19Zm23.61-6.37,0,.59.15.33a1,1,0,0,1,.08.37l-.08.73-.07.56-.15.77.07.77a.62.62,0,0,1-.14.52l-.26.26a.65.65,0,0,1-.66.18l-.37-.11h-.74a.43.43,0,0,1-.22,0l-.52-.22-.66.08h0l-.07.11.22.77v.81l0,.88-.08,1v.08a.58.58,0,0,1,0,.51l-.26.63.26.73a.8.8,0,0,1,0,.3l-.08.59,0,.59v.73l.11.37a.56.56,0,0,1,0,.37l-.19.92,0,.59-.11.7.11.7v.19l0,.73.07.26a.63.63,0,0,1,0,.59l-.19.29-.14.45a.69.69,0,0,1-.48.51l-.37.08h-.74a.61.61,0,0,1-.26,0L81,97.5l-.81.3a.67.67,0,0,1-.37,0l-.67-.14-.14.07a.61.61,0,0,1-.56,0l-.7-.26a.55.55,0,0,1-.58.08l-.34-.12-.73-.36a.67.67,0,0,1-.37-.59V95.44l.18-1v-.33l.19-1v-.69l-.19-.59a1,1,0,0,1,0-.41L76.1,91V90.5L76,89.4v-.11l.07-.7,0-.45,0-.73-.18-.59-.26-.74a.75.75,0,0,1,0-.15v-.69a.4.4,0,0,1,0-.19l.33-.92-.25-.59s0,0,0-.11l0-.29a.78.78,0,0,1,.11-.41L76,82.4l-.33-1a.9.9,0,0,1,0-.4l.26-.63,0-.07a.77.77,0,0,1,0-.26l.14-1,.08-.73-.19-.44a.94.94,0,0,1,0-.41l.15-.33-.26-.59a.59.59,0,0,1,0-.48l.26-.52-.15-.88V72.38l.07-.74.11-.77-.18-.15a.61.61,0,0,1-.22-.59l.15-.59L75.74,69v-.77l.22-.92-.22-.55a.46.46,0,0,1,0-.33l.15-.56v-.37l.11-.77a.55.55,0,0,1,.14-.33l.34-.33a.57.57,0,0,1,.62-.15l.44.11.26-.18a.69.69,0,0,1,.7-.11l.37.18.37.07.55-.22a.34.34,0,0,1,.15-.07l.7-.07a.56.56,0,0,1,.22,0l.66.19.52.11.88.07a.45.45,0,0,1,.33.15l.33.26a.58.58,0,0,1,.23.59l-.08.73-.11.81-.15.7-.11.67.37.88a.45.45,0,0,1,0,.33l-.07.37-.08,1,.08.3a.59.59,0,0,1,0,.62l-.19.15,0,1.1.15.37a.38.38,0,0,1,.07.22l0,.89a.59.59,0,0,1,0,.26l0,.11.14.66a.3.3,0,0,1,0,.26l-.14.55.36-.11h.22l.7.07.81,0H86a.67.67,0,0,1,.66.29l.48.74.07.18a.62.62,0,0,1,.08.45Z"/><path class="cls-2" d="M99.16,86.56l-.44.52-.15.77-.14.66a.26.26,0,0,1,0,.15l-.4.74-.45.59-.55.4,0,.48a1.3,1.3,0,0,1,0,.15l-.26.85s-.07.07-.11.14l-.3.41-.14.15-.63.4-.55.41-.44.66-.08.4-.18.26-.66.7L92.9,96v.11a.65.65,0,0,1-.51.59l-1,.22a.5.5,0,0,1-.59-.15l-.26-.25-.66-.81-.22-.22-.77-.67-.52-.18a.57.57,0,0,1-.29-.22l-.37-.59-.41-.41a.58.58,0,0,1-.18-.51l.07-.52a.74.74,0,0,1,.22-.44l.19-.07.73-.85.41-.37.22-.59A.1.1,0,0,1,89,90l.33-.52a.15.15,0,0,1,.11-.11l.7-.66.07-.3c0-.07,0-.07,0-.11l.55-.88.26-.59a.8.8,0,0,1,.22-.26l.41-.26,0-.62s0-.08,0-.11l.26-.92,0-.48a.68.68,0,0,1,.19-.44l.22-.19.15-.74.11-.62.11-.89c0-.11.11-.22.18-.29l.3-.33.22-1,0-.63V79l.18-.62-.11-.81-.11-.37a.6.6,0,0,1,.07-.44L94,76v-.66L94,74.7l-.22-.7-.11-.4c0-.08,0-.15,0-.19l0-.7.11-.7v-.15l-.48.15c-.07,0-.14,0-.18,0l-.88,0-.19,0-.37-.19-.51.22L91,72h-.84s-.11,0-.19,0l-.44-.15a.31.31,0,0,1-.18-.07L89,71.5a.67.67,0,0,1-.26-.78l.19-.48-.08-.55-.18-.55a.69.69,0,0,1,0-.41l.07-.14V67.7a.75.75,0,0,1,.11-.37l.15-.18-.22-.55a.47.47,0,0,1,0-.33l.11-.52a.71.71,0,0,1,.07-.18l.19-.3c.18-.37.55-.55.77-.44l.41.22.22-.18a.7.7,0,0,1,.66-.15l.48.15.44-.19a.61.61,0,0,1,.26,0h.7l.59.08s.07,0,.11,0l.92.3L95,64.9a.6.6,0,0,1,.44,0L96,65l.74-.33a.55.55,0,0,1,.25,0h.78l.33,0,.85.07.7,0h.55a.43.43,0,0,1,.22,0l.7.22.7-.33s.15,0,.18,0l.67-.07c.07,0,.14,0,.22,0l.51.14.52.08,1,.11.11,0a.63.63,0,0,1,.73.19l.26.29a.53.53,0,0,1,.15.3l.15.62a.54.54,0,0,1,0,.33l-.18.52.25.48c0,.07.08.07.08.11l.11.33v.85l0,.62,0,.67s0,.07,0,.11l-.11.48s0,.07-.07.14l-.3.56c-.18.33-.55.47-.74.33l-.36-.26-.22.22a.69.69,0,0,1-.74.07l-.63-.29-.48.29a.53.53,0,0,1-.51.08l-.59-.22-.15.07a.85.85,0,0,1-.59.07l.08.34.22.77a.56.56,0,0,1,0,.22l-.11.7-.18.7.11.66,0,.56a.73.73,0,0,1-.08.33l-.29.51.18.33a.81.81,0,0,1,.11.26l0,.41A1.3,1.3,0,0,1,101,78l-.37.7.14.92v.18l-.07.41a.52.52,0,0,1-.18.37l-.19.18-.07,1.07.15.4a.69.69,0,0,1,0,.45l-.19.44a.15.15,0,0,0,0,.07l-.45.74.11.26a.68.68,0,0,1,0,.4l-.25.7-.23.59-.07.41C99.31,86.38,99.24,86.45,99.16,86.56Zm23.32-12.93v.15c0,.07,0,.07,0,.11l-.25.85-.11.81.18.62,0,.11.11.67v.62l-.15,1.07,0,.48.11.48a.78.78,0,0,1,0,.4l-.19.48.26.67a.64.64,0,0,1,0,.51l-.15.22.15.81a.5.5,0,0,1,0,.34l-.33.81,0,.77,0,.11a.66.66,0,0,1,.11.37v1l.19.41a1.09,1.09,0,0,1,0,.33l0,.4c0,.08,0,.08,0,.12l-.18.55,0,.81v.7l.26.77a1,1,0,0,1,0,.41l-.11.33-.08.81a.34.34,0,0,1-.07.18l-.15.41,0,.88v.11l0,.78.19.47a.94.94,0,0,1,0,.41l-.19.63.15.29a.93.93,0,0,1,0,.33l-.11.63a.63.63,0,0,1-.23.4l-.33.26a.49.49,0,0,1-.44.11l-.22,0-1.11.22h-.36l-.81-.19-.7.15a.3.3,0,0,1-.26,0l-.52-.15a.5.5,0,0,1-.22-.11l-.74-.59a.53.53,0,0,1-.18-.29.5.5,0,0,1,0-.41l.33-.62-.26-.67a.64.64,0,0,1,0-.37l.23-.77,0-.44-.11-1.07v-.63l.07-.36,0-.78.08-1-.15-.3a.55.55,0,0,1,0-.36l.19-.67-.19-1.07-.11-.18a.27.27,0,0,1-.07-.18l-.08-.89a1,1,0,0,1,.08-.33l.25-.52.15-.88-.07,0a.66.66,0,0,1-.3-.73l0-.11-.22.07c-.07,0-.11,0-.15,0h-.44l-.85-.22-.14,0s0,0,0,.07l-.15.37,0,1v.11l0,.55-.11.44v1l.15.41a.51.51,0,0,1,0,.33l-.15.7.26.7a1.09,1.09,0,0,1,0,.33l-.07.44s0,.08,0,.11l-.26.7V91l.15.26a.63.63,0,0,1,0,.62l-.19.44.15,1,.19.59a.55.55,0,0,1-.08.52l-.22.4.26.59a.6.6,0,0,1,0,.55l-.18.41,0,.48a.62.62,0,0,1-.18.51l-.29.3a.5.5,0,0,1-.48.18l-.19,0-1-.08-1,0-.48.11a.61.61,0,0,1-.44-.08l-.33-.14-.85-.08a.78.78,0,0,1-.25-.07l-.45-.3a.69.69,0,0,1-.29-.4l-.07-.37V96.1l.25-.88,0-.78-.22-.47a.63.63,0,0,1,0-.45l.11-.29.26-.85s0,0-.08,0l-.47.33-.23.29-.22.41s0,.07-.07.11l-.81.81-.59.63-.07.18a.67.67,0,0,1-.22.33l-.59.41-.19.18a.59.59,0,0,1-.62.19l-.37-.11c-.08,0-.15,0-.22-.12l-.48-.4-.48-.11a.66.66,0,0,1-.41-.33l-.11-.26-.44-.66-.81-.81-.44-.41-.44-.44a.33.33,0,0,1-.11-.18L99.46,92l-.37-.59s-.07-.08-.07-.11l-.15-.56a.66.66,0,0,1,.15-.66l.29-.22.41-.92.14-.44a.78.78,0,0,1,.15-.22l.63-.59,0-.59.19-.63c0-.07,0-.11.07-.18l.37-.56-.07-.84v-.11l.07-.59a.44.44,0,0,1,.07-.22l.34-.59.11-.3c.07-.22.22-.4.33-.4a.2.2,0,0,1,.18.22l0,.26.51.66a.77.77,0,0,1,.11.4l0,.74.37.66.33.26a.56.56,0,0,1,.19.3l.22.66.88.66.22.11a.61.61,0,0,1,.26.33l.22.52.3.18a.55.55,0,0,1,.26.3l.18.44.85.77.55.48s0,0,.07,0l.19-.41.07-.51-.26-.48a.57.57,0,0,1,0-.48l.33-.77,0-.44-.19-1-.11-.74a.58.58,0,0,1,.11-.48l.22-.26v-.84l-.18-.41a.41.41,0,0,1,0-.22V83.1l.11-.81-.25-.52a.69.69,0,0,1,0-.4l.26-.85-.22-.4a.64.64,0,0,1,.07-.59l.22-.37.07-.7-.07-.59-.26-.85a.39.39,0,0,1,0-.26l.15-.51-.18-.59s0-.08,0-.11l0-.7a.66.66,0,0,1,0-.26l.18-.37.11-.77-.18-.59a.6.6,0,0,1,.07-.44l.22-.45-.33-.81a.8.8,0,0,1,0-.4l.22-.63.07-.44-.15-.77v-.19l.08-.33.07-.77.11-1.11-.26-.37a.63.63,0,0,1,0-.66l.22-.26L108,65a.7.7,0,0,1,.29-.84l.41-.26a.57.57,0,0,1,.44-.11l.48.07.48-.18a.65.65,0,0,1,.59,0l.29.18.55-.26a.54.54,0,0,1,.48,0l.44.14,1,.11a.49.49,0,0,1,.22.08l.22.11a.76.76,0,0,1,.33.7l-.07.55c0,.07,0,.07,0,.11l-.18.48.26.63a.75.75,0,0,1,0,.55l-.19.4.15.3a.7.7,0,0,1,.07.48l-.18.66-.11,1,0,.07a.63.63,0,0,1,.19.55l-.07.55v1.07l-.08.48.11.44a.86.86,0,0,1-.07.52l-.19.33.23.59s0,0,0,.11l.15.88a1.61,1.61,0,0,1-.07.37l-.26.55v.15a.23.23,0,0,1,.15,0l.33.11.29-.18a.72.72,0,0,1,.48-.12l.88.15.15,0,0-.48,0-.66v-.11l.07-.59-.22-.63a.57.57,0,0,1,0-.26l.07-.29-.14-.92a.56.56,0,0,1,.07-.44l.33-.45-.18-.59-.15-.51v-.26l.18-.7-.18-.81v-.26l.18-.7-.14-.25s0-.15,0-.19v-1a.67.67,0,0,1,0-.52l.26-.48-.08-.51a.79.79,0,0,1,.12-.37l.29-.48a.31.31,0,0,1,.15-.15l.44-.29a.61.61,0,0,1,.44-.11l1.51.22a.12.12,0,0,1,.11,0l.52.18h.81l.33-.15a.62.62,0,0,1,.77.08l.48.44a.72.72,0,0,1,.15.22l.15.52a.78.78,0,0,1,0,.48l-.22.4-.07.74v.77l-.08.92.08.41.14.66.08.66.14,1a.6.6,0,0,1-.07.44l-.29.44.11.3.25,1.21C122.44,73.6,122.48,73.6,122.48,73.63Z"/><path class="cls-2" d="M135.67,67.67l-.22.36.22.92a.61.61,0,0,1,0,.48l-.11.15v.81l0,.44a.68.68,0,0,1-.62.7l-.59.08,0,.07a.51.51,0,0,1-.29.29l-.33.15-.08.92a.68.68,0,0,1-.29.48l-.3.19L132.72,75l.15.55a.7.7,0,0,1-.07.48l-.15.18,0,1.92.34.63c0,.07.07.11.07.14l0,.15v.22l-.19.89.11.73a.67.67,0,0,1,0,.37l-.08.22-.26,1,.15.15a.66.66,0,0,1,.22.52l-.07.92-.3,1.29.08.66.4.92,0,.18,0,.41v.15l-.11.7.11,1,.33.48,1,.22.18,0c.48.08.77.34.7.67l-.11.59.07.07a.67.67,0,0,1,.15.63l-.18.73.07.67.07,1V95l0,.66.14.55a.62.62,0,0,1-.18.63l-.37.4a.8.8,0,0,1-.51.19l-2.07-.15-.14,0-.7-.18-.11,0a.51.51,0,0,1-.34-.11l-.62-.4-.63-.19a.29.29,0,0,1-.22-.11l-.59-.48a1.64,1.64,0,0,1-.22-.25l0-.19-.62-.4-.11-.11-.33-.45-.41-.73-.4-.41a.62.62,0,0,1-.19-.37l0-.14-.26-1.07-.22-.41-.55-1.07s0-.07,0-.14l-.11-.48-.11-.78v-.11l.11-.92-.18-.36a.39.39,0,0,1-.08-.19l-.11-.81v-.18l.37-1.4V84.2l-.07-.84v-.19l.18-.66-.33-.59a.65.65,0,0,1,0-.48l.11-.33.15-.63-.15-.36a.68.68,0,0,1,0-.52l.22-.37-.22-.85V78.2l.07-.7-.11-.77v-.15l.15-1.18-.15-.74c0-.18,0-.33,0-.4l.11-.15-.18-.63a.37.37,0,0,1,0-.29l.22-.88.11-.23.33-.4L126,71a.37.37,0,0,1,0-.29l.07-.3c0-.07,0-.07,0-.11l.44-.85.19-.4.66-1.33.15-.18.55-.48.7-.52.41-.55a.66.66,0,0,1,.29-.26l.18,0,.56-.45a.63.63,0,0,1,.44-.14l.29,0,.92-.4a.73.73,0,0,1,.41,0l.37.11.73-.37a.92.92,0,0,1,.26-.07h.74a.57.57,0,0,1,.4.18l.41.41a.62.62,0,0,1,.22.44v.89l.18.47.12.41A.93.93,0,0,1,135.67,67.67ZM147.2,78.83a1.15,1.15,0,0,1,.11.29V80l0,.4V81a.43.43,0,0,1,0,.22l-.18.56.18.51a.59.59,0,0,1,0,.37l-.18.74v.92l.11.7,0,1.25v.15l-.22.84-.19.81,0,.74.11.15a.92.92,0,0,1,.15.44l-.11.88-.22.78s-.08.07-.08.11l-.33.7v.51a1,1,0,0,1-.07.3l-.19.29-.11.15-.77.59-.08.52a.68.68,0,0,1-.18.33l-.55.55-.22.18-.11.11-.59.34-.44.59c0,.07-.12.07-.15.11l-.55.36s-.08,0-.15.08l-.37.15a1,1,0,0,1-.3,0l-.92-.11-.14.11a.52.52,0,0,1-.41.08l-.51-.08H138a.55.55,0,0,1-.3-.11l-.18-.11a.67.67,0,0,1-.33-.59l0-.55.11-.7-.3-.77a.43.43,0,0,1,0-.11l-.11-.85,0-.55v-.85a.86.86,0,0,1,0-.26l.3-.55c0-.22.15-.37.4-.52l1.11-.55.55-.77.15-.59a.56.56,0,0,1,.15-.26l.22-.22.11-.92-.08-.89v-.14l.08-.48,0-1.59-.29-.84a.78.78,0,0,1,0-.3l.19-.77v-.63l-.08-.51-.11-.7a.94.94,0,0,1,.11-.45l.22-.25-.07-.85v-.07l.07-.78-.11-1.73-.11-.37a1,1,0,0,1,0-.29l.18-.92-.18-.33a.39.39,0,0,1-.08-.19l-.11-.66L139,72.38l-.29-.66-.41-.11-.74-.15a.65.65,0,0,1-.48-.48l-.18-.55V70c0-.08,0-.11,0-.19l.33-.85-.15-.18a.69.69,0,0,1-.07-.7l.3-.55-.23-.74v-.66l-.14-.41a.67.67,0,0,1,.11-.66l.44-.48a.55.55,0,0,1,.48-.18l1.21,0a.55.55,0,0,1,.34.11l.22.15.73.15h.92a.47.47,0,0,1,.23,0l.66.22.44.07a.77.77,0,0,1,.33.18l.44.41.45.48a.15.15,0,0,1,0,.07l.33.48.56.48c.14.15.25.22.25.33l0,.15.4.88.59.44.19.26.18.59a.6.6,0,0,1,0,.44l-.22.48.48.59a.26.26,0,0,1,.07.15l.15.37,0,.18,0,.7.19.85a.54.54,0,0,1,0,.33l-.18.52v.73l0,1.77.15.18a.63.63,0,0,1,.14.67l-.22.62Zm13.85,5.63,0,.81a1,1,0,0,1,0,.3l-.15.33,0,.77a.69.69,0,0,1-.11.52l-.15.11.26,1.1v.19a.68.68,0,0,1-.33.77l-.45.15-.73.18h-1.07l-.7-.18-.44.22a.26.26,0,0,1-.15.07V90l-.07.77.25,1,.19.85c0,.07,0,.07,0,.11v.4a.57.57,0,0,1-.14.37L157,94l.11.47v.85l0,.11-.11.74.11.33c.14.4.11.7-.08.81l-.22.07a.4.4,0,0,1-.18.08l-1.07,0-.59,0-.44.15a.57.57,0,0,1-.48,0l-.19-.12-.62,0-.85.22h-.22l-.7-.07a.48.48,0,0,1-.22-.07l-.22-.12-.55.12a.61.61,0,0,1-.67-.19l-.18-.29-.3-.52a.81.81,0,0,1-.07-.33l0-.66a.42.42,0,0,1,0-.19l.41-.85-.3-.58a1.05,1.05,0,0,1,0-.3l.07-.66-.11-.26a.55.55,0,0,1,0-.48l.29-.59-.11-.62-.07-.78a.58.58,0,0,1,.11-.37l.11-.14-.33-.81a.59.59,0,0,1,0-.26l0-.63,0-.11.19-.74-.19-.51a.62.62,0,0,1,0-.33l.19-.67.11-.84-.22-.59v-.41l-.11-.73v-1l.18-.92,0-.45,0-.88,0-.51.15-.74-.11-.85-.11-.55v-.19l.22-1-.11-.11a.81.81,0,0,1-.15-.4v-.74l0-1,0-.34a.64.64,0,0,1,0-.25l.19-.41-.23-.77a.67.67,0,0,1,.08-.48l.15-.22V69.51l.11-.63-.37-1-.08-.22a.66.66,0,0,1,.15-.59l.26-.23-.3-1v-.18l0-.41-.07-.48a.55.55,0,0,1,.11-.48l.22-.29a.69.69,0,0,1,.51-.26h.67l.48,0h.92a.47.47,0,0,1,.22.07l.22.07.81-.22a.54.54,0,0,1,.22,0l.66.08h.45l.95,0h.41a.54.54,0,0,1,.37.15l.59.44a.58.58,0,0,1,.25.56l0,.22a.27.27,0,0,1-.08.18L157,66l.29.59a.65.65,0,0,1,0,.63l-.22.4.18.41c.11.22.15.48,0,.59l-.15.22-.07.7.29.66a.83.83,0,0,1,0,.33v.11l.51.08.48.11.85-.11h.52a.4.4,0,0,1,.25.07l.63.37a.73.73,0,0,1,.29.4l.11.52a.51.51,0,0,1,0,.33l-.15.37-.18.66.07.59v.22l-.15.74.15.77.07.44c0,.15,0,.22-.07.34l-.15.4-.11.33c-.11.44-.44.67-.66.59l-.41-.15-.92,0-.7.22c-.07,0-.11,0-.14,0h-.52l-.07.33.22.74a.62.62,0,0,1,0,.33l-.11.41.18,1,0,.59v.11l-.08.85v.15l.59.25.74-.33a.21.21,0,0,1,.15,0l.33,0a.57.57,0,0,1,.33.07l.66.37s.15.07.19.15l.33.4a.26.26,0,0,1,.07.15l.11.22s0,0,0,.11Z"/><path class="cls-2" d="M162.71,76.65l.18-1.58-.11-.48a.47.47,0,0,1,0-.33l.18-.52.26-.55L163,72.12l-.33-.51-.63-.85s0,0,0-.07l-.18-.41a.6.6,0,0,1,0-.66l.22-.3-.19-.22a.66.66,0,0,1-.07-.62l.15-.3V67.11a.54.54,0,0,1,.25-.66l.59-.44.08-.11a.71.71,0,0,1,.59-.3h.66l.55,0h1.51l.08-.37.14-.77.11-.81a.85.85,0,0,1,.11-.26l.19-.26a.93.93,0,0,1,.4-.22l.3,0,.07,0h.63s.07,0,.11,0l.74.15H170a.54.54,0,0,1,.4.15l.19.18a.62.62,0,0,1,.22.55l0,.37.11.59a.47.47,0,0,1,0,.33l-.25.81-.11.34.25.7a.57.57,0,0,1,0,.51l-.11.19.11,1a.83.83,0,0,1,0,.29l-.26.63,0,.44.15.7a.64.64,0,0,1,0,.48l-.07.11a.41.41,0,0,1-.19.15l-.55.33-.29.29-.52.81-.15.92,0,1.66-.11.66.7.67.59.62a.73.73,0,0,1,.74.89l0,.62,0,1a.51.51,0,0,1,0,.26l-.18.55v.78l-.15.69v0a.7.7,0,0,1,0,1l-.26.25a.68.68,0,0,1-.55.15l-1-.15h-.92a.59.59,0,0,1-.48-.22l-.22-.22h-.66l-.81-.26a.64.64,0,0,1-.3-.25l-.44-.63-.44-.33a.51.51,0,0,1-.22-.33l0-.15-.48-.52a.67.67,0,0,1-.14-.33l-.08-.55L163,79a1.17,1.17,0,0,1,0-.37l.07-.4-.36-.7a.85.85,0,0,1-.08-.34Zm16.2,18.2a.43.43,0,0,1,0,.22v.44a.66.66,0,0,1-.11.26l-.29.55.11.52,0,.15a.69.69,0,0,1-.4.88l-.56.15-.51.11a.39.39,0,0,1-.26,0l-.51-.11-.59.25a.7.7,0,0,1-.26.08H175l-.15,0-.66-.22-.55-.07-.77.22a.52.52,0,0,1-.19,0h-.59l-.62.12h-1.15l-1.54-.34-.3-.11-.55,0a1.61,1.61,0,0,1-.37-.07l-.59-.33-.29.07a.62.62,0,0,1-.7-.19l-.3-.33-1.18-.77c-.11-.07-.14-.07-.18-.18l-.11-.26-.41-.44-.51-.78a.45.45,0,0,1-.11-.33v-.7l-.22-.18a.57.57,0,0,1-.22-.59l0-.48.11-1.22.19-.92v-.74s0,0,0-.07l.08-.51,0-.11.18-.52a.71.71,0,0,1,.22-.3l.55-.44,0-.14a.63.63,0,0,1,.52-.56l.47,0,.45-.45L166,86a.58.58,0,0,1,.63-.22l.3.11.33-.33a.58.58,0,0,1,.4-.19l.7-.07h.15l.74.11,1-.33a.43.43,0,0,1,.44,0l.44.18,1-.26a.21.21,0,0,1,.14,0h.52l.18,0,.63.22.59-.15a.57.57,0,0,1,.4,0l.26.08,2.58.25.55-.07a.45.45,0,0,1,.33,0l.15.07a.55.55,0,0,1,.33.52l0,.44v.22l-.15.59-.14.92,0,.63V89l0,.22.22.55a.76.76,0,0,1-.11.78l-.08.07a.59.59,0,0,1-.73.11l-.45-.22-.4.18a.38.38,0,0,1-.41,0l-.55-.18-.81.22s-.07,0-.11,0h-.55a.78.78,0,0,1-.3,0l-.44-.26-.88.44-.15,0-.22,0h-.15l-1.77-.08.15,1.74,1.77.18.51-.07.89-.11.22-.11a.6.6,0,0,1,.44-.08l.52.15.14.07.37.26.7-.37a.48.48,0,0,1,.22-.07l.52,0a.8.8,0,0,1,.33.08l.37.22.59.4a.7.7,0,0,1,.29.52v.51ZM180,76.58l-.18,1,.07.85v.18l-.11.41-.07.81a.6.6,0,0,1-.19.4l-.25.26-.08.44a.61.61,0,0,1-.15.33l-.47.48-.37.3-.92.81s-.08.07-.11.07l-.45.26a.12.12,0,0,1-.11,0l-.62.22s-.08,0-.11,0l-.41,0h-.07l-.92-.07H173a.63.63,0,0,1-.41-.19l-.07-.07a.48.48,0,0,1-.15-.3l-.14-.73V82l.07-.84.07-.41L172,80a.4.4,0,0,1-.08-.18l0-.37V79.3l.23-1.06c0-.19.22-.37.62-.52l.15,0,.74-.36.55-1.26-.15-.4a.43.43,0,0,1,0-.22l0-1.51-.22-.89-.37-.55-.59-.66-.33-.15c-.29-.15-.48-.29-.48-.37l0-.15-.15-.77a.62.62,0,0,1,.11-.44l.26-.33-.22-.44a.64.64,0,0,1,0-.63l.22-.26-.26-.92v-.59c0-.07,0-.07,0-.15l.18-.62-.22-.48a.54.54,0,0,1,0-.33l.18-.78.11-.77a.1.1,0,0,1,0-.07l.11-.26a.57.57,0,0,1,.51-.44l.41,0h1.18l.4.07.55.08a.45.45,0,0,1,.3.11l.26.18c.29.22.44.44.33.66l-.15.34v.92l.08.55,1.73,0,.29-.08a.38.38,0,0,1,.26,0l.85.15.25,0a.91.91,0,0,1,.37.18l.52.48a.43.43,0,0,1,.18.29v.23l-.07,1.1.18.59c0,.07,0,.15,0,.22v.41l-.11.84,0,.11a.71.71,0,0,1-.26.89l-.48.22-.77,1.14.22.15a.68.68,0,0,1,.26.55v.37l.37.63a.81.81,0,0,1,.07.33l0,.7Zm16.39,16.24-.25.52v.29a.73.73,0,0,1-.26.52l-.26.22-.37,1,0,.22a.62.62,0,0,1-.33.63l-.52.33-.26.33a.37.37,0,0,1-.25.18l-.37.11-.33.45a.64.64,0,0,1-.48.22l-.45,0-.7.26a.55.55,0,0,1-.25,0l-.63,0-.52.26a.53.53,0,0,1-.4.07l-1.29-.29-.26.18a.54.54,0,0,1-.37.15H187s-.15,0-.18,0l-.59-.22-.7.07h-1.7l-.26-.07-1,.07a1,1,0,0,1-.3,0l-.44-.19-.26.11a.69.69,0,0,1-.92-.14l-.18-.22c-.26-.34-.33-.67-.19-.78l.26-.22-.22-.48a.61.61,0,0,1,0-.55l.15-.11,0-.74-.15-1-.07-.41a.66.66,0,0,1,.22-.59l.26-.22a.4.4,0,0,1,.25-.11l.33-.07h.23l.73.15.85.07.88,0,.37-.15s.08,0,.11,0l.52-.07a.61.61,0,0,1,.26,0l1,.33,0-.08c.07-.11.26-.14.37-.18l1.77-.3-.37-1.28-1.36,0-.15,0-.63-.18a.32.32,0,0,1-.15-.08l-.22-.18h-.88l-1,.18-.52.15a.55.55,0,0,1-.44,0l-.22-.14-.81.11a.57.57,0,0,1-.26,0l-.41-.11a.58.58,0,0,1-.33-.29l-.11-.19a.66.66,0,0,1,0-.26v-.33l-.14-.66v-.19l.07-.55-.29-.77a.59.59,0,0,1,0-.37l.18-.55-.07-.33a.63.63,0,0,1,.18-.52l.18-.15a.62.62,0,0,1,.45-.18l.88,0h.85l.51.14.56,0,.7,0,.7-.22a.56.56,0,0,1,.44,0l.66.22.66-.11a.38.38,0,0,1,.3,0l.29.07.92-.26c.08,0,.11,0,.15,0h1.4a.48.48,0,0,1,.3.08l.62.36.37.11,1.07.15h.33a.52.52,0,0,1,.33.11l.52.33.11.08.22.29.66.37s.15.07.19.15l.29.44.37.59.37,1,.11.11a.59.59,0,0,1,.18.44V91.2l.26,1.18A.55.55,0,0,1,196.37,92.82ZM182.08,80.56a.62.62,0,0,1-.22-.59l.22-.89v-.44l0-.7.08-.92,0-.48v-.07l.11-.85-.26-.74a.73.73,0,0,1,0-.36l.11-.22.11-1.15-.07-.66,0-.7a.36.36,0,0,1,0-.22l.22-.55-.15-.48-.22-.78,0-.07,0-.59v-.18l.22-.81v-.78l-.11-.55-.07-.63,0-1v-.11l.07-.48a.68.68,0,0,1,.26-.37l.37-.3a.55.55,0,0,1,.33-.14l.74,0,.48-.07a.56.56,0,0,1,.48.11l.25.18,1-.22.7-.15a.48.48,0,0,1,.29,0l.15,0a.63.63,0,0,1,.41.26l.51.84a.75.75,0,0,1,.26.82l-.22.44.29.4a.64.64,0,0,1,.11.52l-.14.74,0,.55v.14l0,.45-.08,1.07,0,.44h0l.89-.26.25-.11a.45.45,0,0,1,.52,0v-.48l.15-.52-.08-.7v-.58l-.22-.82a.48.48,0,0,1,0-.29l.11-.44c0-.08,0-.08.08-.15l.29-.48-.11-.7a.66.66,0,0,1,.3-.66l.47-.3.15-.07.41-.15H193a.54.54,0,0,1,.22.08l.51.18.37-.15a.37.37,0,0,1,.33-.07l.41.07a.45.45,0,0,1,.26.11l.66.48a.66.66,0,0,1,.26.7l-.11.44-.11.26.37,1a.77.77,0,0,1,0,.37l0,.14-.37.85.33,1,0,.19v.55l0,.51v.81a.59.59,0,0,1,0,.26l-.19.48.11.85v.81l0,.85,0,.18v.22l-.07.77.19.59a.68.68,0,0,1,0,.45l-.15.33.19.62v1a.36.36,0,0,1-.08.22l-.15.4-.07.93,0,.81V81l0,.51,0,.52.11.66a.72.72,0,0,1-.3.7l-.48.33a.59.59,0,0,1-.55.08l-.44-.19-.63-.07-.18.18a.73.73,0,0,1-.66.15l-.85-.3-.52,0-.36.15a.62.62,0,0,1-.74-.19l-.15-.18a.73.73,0,0,1-.15-.59l.11-.37-.22-.88-.22-.74a.65.65,0,0,1,0-.44l.15-.22.14-.63-.29-.66a.43.43,0,0,1,0-.22V77l0-.18-.55.11c-.08,0-.15,0-.22,0l-.59-.15h-.15v.15l-.22,1.18.29.48a.54.54,0,0,1,.11.44l0,.44,0,.63a.61.61,0,0,1-.11.4l-.18.26.18.63.11.55a1,1,0,0,1,0,.29l-.19.59a.26.26,0,0,1-.07.15l-.3.52a.71.71,0,0,1-.44.29l-.51.11a.29.29,0,0,1-.26,0l-.74-.22-.44.26a.65.65,0,0,1-.44,0l-.59-.19-1-.18a.65.65,0,0,1-1-.19l-.26-.51s0-.08,0-.11l-.08-.33v-.93l.19-.81Z"/><rect class="cls-3" x="20.3" y="17.29" width="76.4" height="36.86" rx="18.02"/><rect class="cls-2" x="24.81" y="21.9" width="67.38" height="27.64" rx="13.78"/><rect class="cls-2" x="23.28" y="19.97" width="70.45" height="31.5" rx="14.84"/><path class="cls-4" d="M45.3,41.85l-.18.31,0,.17.08.24a.37.37,0,0,1,0,.25l-.12.29.06.42v.13a.4.4,0,0,1-.07.24l-.27.32a.32.32,0,0,1-.25.14h-.15l-.21,0a.44.44,0,0,1-.16,0l-.24-.1-.4.14-.1,0h-.23l-.06,0-.43-.1-.29,0H42l-.08,0-.4-.13-.23.13a.39.39,0,0,1-.25.06l-.19,0-.59-.06h-.29a.25.25,0,0,1-.11,0l-.14,0-.57.08a.3.3,0,0,1-.13,0l-.13,0-.31.06L38,44.4s-.08,0-.12,0l-.27,0-.42-.1-.11.08a.28.28,0,0,1-.21.08h-.27a.3.3,0,0,1-.11,0l-.36-.18-.23.12a.27.27,0,0,1-.14.06l-.44,0h-.24a.36.36,0,0,1-.19-.08l-.21-.15a.34.34,0,0,1-.12-.37l.1-.35-.06-.19v-.42l0-.1.15-.35,0,0-.13-.13a.38.38,0,0,1-.08-.25l.06-.37.11-.54-.07-.54,0-.13a.32.32,0,0,1,0-.27l.17-.25-.1-.37a.31.31,0,0,1,0-.27l.08-.11.21-.29.24-.52a.37.37,0,0,1,.1-.37l.15-.12.06-.23a.36.36,0,0,1,.27-.25l.19,0,.19-.34a.33.33,0,0,1,.17-.16l.13,0,.56-.63.07-.06.19-.1a.15.15,0,0,1,.08,0l.27,0,.25-.23.07-.06.46-.2.06-.13a.3.3,0,0,1,.25-.21l.32-.06.1-.33a.24.24,0,0,1,.09-.13l.19-.18a.19.19,0,0,1,.1,0l.34-.14.31-.23.36-.29.15-.25s.06,0,.08-.06l.32-.25,0-.21s0,0,0-.08l.21-.31-.06-.77-.27-.56-.19-.3-.07,0-.35-.31h-.32l-1,0-.23.13a.26.26,0,0,1-.15,0l-.21,0-.42.43-.14.19a.09.09,0,0,1-.06.06l-.19.15,0,0-.21.14-.2.34a.3.3,0,0,1-.21.18l-.15,0a.26.26,0,0,1-.28,0L36.56,32l-.41-.29h-.09a.36.36,0,0,1-.23-.11l-.19-.21-.36-.22L35,31.06l-.26-.15a.28.28,0,0,1-.12-.14l-.19-.38a.31.31,0,0,1,0-.24l.08-.29a.15.15,0,0,1,0-.09l.09-.16.34-.42.21-.25.12-.27s0-.12.07-.14l.23-.17.06,0,.34-.13L36,28a.35.35,0,0,1,.21-.22l.29-.09.45-.39.16-.06.36-.07L38,27l.11-.06s.12,0,.15,0l.39.06L39,27l.34-.13a.23.23,0,0,1,.11,0l.71,0h.06l.4.08.34-.06h.1l.23,0a.39.39,0,0,1,.21.11l.07.08.52.23.21,0,.11,0,.33.1a.31.31,0,0,1,.17.17l.15.27.29.12a.06.06,0,0,1,0,0l.17.09.34.35.25.13a.3.3,0,0,1,.15.24l.06.34.15.29.21.12a.28.28,0,0,1,.15.31l0,.17.17.25a.48.48,0,0,1,0,.15l0,.49.07.19s0,.1,0,.11l0,.39.1.52a.75.75,0,0,1,0,.15l-.16.49-.11.44,0,.19.08.18a.37.37,0,0,1,0,.25L45,34l0,.08-.34.36-.17.21v.2c0,.21-.06.36-.17.38l-.21,0-.12.39a.26.26,0,0,1-.15.19l-.29.15a.2.2,0,0,1-.15,0h-.15l-.42.54s-.06,0-.08.06l-.32.19-.23.31a.24.24,0,0,1-.1.1l-.21.11-.28.12-.42.31a.24.24,0,0,1-.14,0l-.3,0-.21.35,0,.06-.19.19-.31.25-.17.16-.07.05-.41.18-.15.25a.07.07,0,0,1,0,0l-.3.29-.1.5s0,0,0,.06l0,.12,0,.23.06,0,.19.08.34,0,.46-.08.25-.06s.07,0,.09,0l.34,0a.21.21,0,0,1,.1,0l.38.15.25-.07.08,0,.38,0,.42,0,.26-.06s.06,0,.1,0l.19,0,.06,0,.4.16.65-.14h.11l.29,0,.55.13.06,0a.37.37,0,0,1,.5,0l.13.15a.36.36,0,0,1,.08.19v.27l0,.33A.4.4,0,0,1,45.3,41.85Z"/><path class="cls-4" d="M51.82,44.49h-.46l-.32,0-.4-.09h-.33l-.09,0-.5-.16a.2.2,0,0,1-.09,0l-.14-.1-.38-.1-.3,0a.27.27,0,0,1-.14,0l-.19-.14a.36.36,0,0,1-.15-.21l0-.19L48,42.87s0,0,0,0l-.08-.2-.21-.27L47.45,42l-.17-.27a.24.24,0,0,1-.06-.18v-.44l0-.27s0,0,0-.08l.08-.33-.21-.32a.4.4,0,0,1-.06-.25l.19-.81,0-.23-.13-.33a.32.32,0,0,1,0-.27l.13-.21-.06-.45v-.25L47.09,37a.29.29,0,0,1,0-.32l.11-.1-.09-.52V36l.07-.34-.09-.33a.25.25,0,0,1,0-.17l.09-.25-.07-.37-.06-.31a.39.39,0,0,1,0-.15l.11-.31-.11-.23a.35.35,0,0,1,0-.29l.07-.12-.09-.58v-.07l0-.14.17-.83L47.11,31l0-.09v-.2a.13.13,0,0,1,0-.09l.09-.25.18-.48,0-.22a.32.32,0,0,1,.09-.27l.21-.23,0-.34a.42.42,0,0,1,.06-.14l.13-.19a.2.2,0,0,1,.1-.08l.36-.19.08-.21a.26.26,0,0,1,.19-.2l.17-.05.21-.29a.29.29,0,0,1,.15-.12l.13,0,.1,0h.34l.31-.19s0,0,.06,0l.53-.19h.06l.17,0a.29.29,0,0,1,.29.08l.09.11.34-.09c.2-.06.39,0,.42.07l0,.14a.27.27,0,0,1,0,.13l0,.39.12.21a.34.34,0,0,1,0,.19l0,.29,0,.23v.14l0,.27-.08.52.08.23,0,.1v.32a.34.34,0,0,1,0,.14.3.3,0,0,1-.29.21l-.21,0-.32.41-.29.25-.15.48.19.67a.41.41,0,0,1,0,.22l-.1.23-.11.21.13.35a.36.36,0,0,1,0,.32l-.09.14.11.38a.3.3,0,0,1,0,.14l0,.27,0,.38,0,.33a.34.34,0,0,1,0,.14l-.08.31-.11.42.11.25a.3.3,0,0,1,0,.29l-.05.11,0,.45.09.42v.25l0,.62,0,.15a.39.39,0,0,1,0,.14l0,.38-.08.79.12.37.34.29.25.23h.1A.27.27,0,0,1,52,41l0,0a.34.34,0,0,1,.06.22l-.08.54,0,0a.42.42,0,0,1,.08.2v.44l0,.06a.4.4,0,0,1,0,.19l0,.31,0,.44,0,.41,0,.36,0,.1,0,.06C52,44.47,51.94,44.49,51.82,44.49Zm1.87-3.7.25-.36L53.86,40v-.09l.12-.7.07-.5,0-.06a.35.35,0,0,1,0-.25l.15-.48h0A.38.38,0,0,1,54,37.5l.11-.33-.07-.1a.33.33,0,0,1,0-.36l.13-.23L54,36.34a.32.32,0,0,1-.08-.23l0-.48-.06-.21v-.14l.1-.35,0-.48L54,34.2l0-.06v-.46l0-.37-.08-.17s0-.08,0-.11l0-.51,0-.21.15-.92-.21-.18s-.05-.09-.07-.13l-.1-.25-.23-.27-.3,0a.33.33,0,0,1-.25-.19l-.06-.1a.43.43,0,0,1,0-.27l.06-.11-.13-.41a.37.37,0,0,1,0-.21l.13-.31h0a.33.33,0,0,1,0-.27l.06-.19.06-.52-.17-.27a.44.44,0,0,1,0-.16v-.23a.35.35,0,0,1,.09-.25L53,27c.13-.13.28-.17.4-.07l.17.13.5-.13s.07,0,.11,0l.34,0,.08,0,.32.11.37.16.09.07.12.12.26,0a.36.36,0,0,1,.18.07l.22.23h.1a.34.34,0,0,1,.31.22l.13.31.15.05a.33.33,0,0,1,.17.2l.08.21.27.38.23.41a.44.44,0,0,1,0,.19v.12l.12.19a.3.3,0,0,1,0,.23l-.08.4.08.27.05.43.14.85v.09l0,.29,0,.37,0,.23v.12l-.13.55v.29l0,.41.13.33a.31.31,0,0,1,0,.19l0,.13,0,.56,0,.23a.48.48,0,0,1,0,.18l-.13.31,0,.53.07.26.1.38a.32.32,0,0,1-.06.27l-.09.15.17.35a.39.39,0,0,1,0,.16v.15l0,.6,0,.52c0,.06,0,.08,0,.11l-.15.49-.08.32.06.18a.37.37,0,0,1,0,.21l-.19.52,0,.21,0,.25a.3.3,0,0,1-.08.17l-.21.26-.26.36-.1.27a.18.18,0,0,1-.08.12l-.28.27-.25.19-.32.23-.06,0-.4.15-.33.08h-.45l-.21.06-.27.23a.42.42,0,0,1-.21.08h-.33l-.49-.14L53,44.42a.38.38,0,0,1-.16-.31v-.33l0-.21v-.72a.23.23,0,0,1,0-.15l.17-.21L52.91,42l-.1-.39v-.23a.37.37,0,0,1,0-.15l0-.1A.27.27,0,0,1,53.1,41l.29-.08Z"/><path class="cls-4" d="M70.49,41.85l-.18.31,0,.17.08.24a.37.37,0,0,1,0,.25l-.12.29.06.42v.13a.4.4,0,0,1-.07.24l-.27.32a.32.32,0,0,1-.25.14h-.15l-.21,0a.44.44,0,0,1-.16,0l-.24-.1-.4.14-.1,0h-.23l-.06,0-.43-.1-.29,0h-.34l-.08,0-.4-.13-.23.13a.39.39,0,0,1-.25.06l-.19,0-.59-.06h-.29a.25.25,0,0,1-.11,0l-.14,0-.57.08a.3.3,0,0,1-.13,0l-.13,0-.31.06-.55.14s-.08,0-.12,0l-.27,0-.42-.1-.11.08a.28.28,0,0,1-.21.08h-.27a.3.3,0,0,1-.11,0l-.36-.18-.23.12a.27.27,0,0,1-.14.06l-.44,0h-.24a.36.36,0,0,1-.19-.08l-.21-.15a.34.34,0,0,1-.12-.37l.1-.35-.06-.19v-.42l0-.1.15-.35,0,0-.13-.13a.38.38,0,0,1-.08-.25l.06-.37.11-.54-.07-.54,0-.13a.32.32,0,0,1,0-.27l.17-.25-.1-.37a.31.31,0,0,1,0-.27l.08-.11.21-.29.24-.52a.37.37,0,0,1,.1-.37l.15-.12.06-.23a.36.36,0,0,1,.27-.25l.19,0,.19-.34a.33.33,0,0,1,.17-.16l.13,0,.56-.63.07-.06.19-.1a.15.15,0,0,1,.08,0l.27,0,.25-.23.07-.06.46-.2.06-.13a.3.3,0,0,1,.25-.21l.32-.06.1-.33a.24.24,0,0,1,.09-.13l.19-.18a.19.19,0,0,1,.1,0l.34-.14.31-.23.36-.29.15-.25s.06,0,.08-.06l.32-.25,0-.21s0,0,0-.08l.21-.31-.06-.77-.27-.56-.19-.3-.07,0-.35-.31h-.32l-1,0-.23.13a.26.26,0,0,1-.15,0l-.21,0-.42.43-.14.19a.09.09,0,0,1-.06.06l-.19.15,0,0-.21.14-.2.34a.3.3,0,0,1-.21.18l-.15,0a.26.26,0,0,1-.28,0L61.75,32l-.41-.29h-.09a.36.36,0,0,1-.23-.11l-.19-.21-.36-.22-.33-.15-.27-.15a.33.33,0,0,1-.11-.14l-.19-.38a.31.31,0,0,1,0-.24l.08-.29a.15.15,0,0,1,0-.09l.09-.16.34-.42.21-.25.12-.27s0-.12.07-.14l.23-.17.06,0,.34-.13.08-.21a.35.35,0,0,1,.21-.22l.29-.09.46-.39.15-.06.36-.07.48-.12.11-.06s.12,0,.15,0l.39.06.4-.08.34-.13a.23.23,0,0,1,.11,0l.71,0h.06l.4.08.34-.06h.1l.23,0a.39.39,0,0,1,.21.11l.07.08.52.23.21,0,.11,0,.33.1a.31.31,0,0,1,.17.17l.15.27.29.12a.06.06,0,0,1,0,0l.17.09.34.35.25.13a.3.3,0,0,1,.15.24l.06.34.15.29.21.12a.28.28,0,0,1,.15.31l0,.17.17.25a.48.48,0,0,1,0,.15l0,.49.07.19s0,.1,0,.11l0,.39.1.52a.75.75,0,0,1,0,.15l-.16.49-.11.44,0,.19.08.18a.37.37,0,0,1,0,.25l-.1.21,0,.08-.34.36-.17.21v.2c0,.21-.06.36-.17.38l-.21,0-.12.39a.26.26,0,0,1-.15.19l-.29.15a.2.2,0,0,1-.15,0h-.15l-.42.54s-.06,0-.08.06l-.32.19-.23.31a.24.24,0,0,1-.1.1l-.21.11-.28.12-.42.31a.24.24,0,0,1-.14,0l-.3,0-.21.35,0,.06-.19.19-.31.25-.17.16-.07.05-.41.18-.15.25a.07.07,0,0,1,0,0l-.3.29-.1.5s0,0,0,.06l-.05.12,0,.23.06,0,.19.08.34,0,.46-.08.25-.06s.07,0,.09,0l.34,0a.21.21,0,0,1,.1,0l.38.15.25-.07.08,0,.38,0,.42,0,.26-.06s.06,0,.1,0l.19,0,.06,0,.4.16.65-.14h.11l.29,0,.55.13.06,0a.37.37,0,0,1,.5,0l.13.15a.36.36,0,0,1,.08.19v.27l0,.33A.4.4,0,0,1,70.49,41.85Z"/><path class="cls-4" d="M82.66,43.51a.44.44,0,0,1,0,.17l-.11.23-.29.33a.37.37,0,0,1-.23.12l-.28,0-.31,0-.15,0a.25.25,0,0,1-.17,0l-.42-.19-.21.13a.33.33,0,0,1-.33,0L80,44.28l-.55-.11-.1.09a.29.29,0,0,1-.19.1l-.33,0h-.11l-.38-.1-.44-.1-.34.16a.21.21,0,0,1-.12,0h-.11c-.06,0-.14,0-.17,0l-.33-.19-.13.11a.32.32,0,0,1-.33.06l-.3-.08-.14.1a.36.36,0,0,1-.19.08h-.28a.37.37,0,0,1-.14,0l-.4-.2-.38,0-.23.13a.25.25,0,0,1-.26,0l-.2,0-.4,0a.15.15,0,0,1-.09,0l-.21-.07-.08,0c-.23-.08-.4-.22-.36-.29l.08-.16-.16-.46v-.35a.41.41,0,0,1,0-.15l.14-.21-.14-.37a.36.36,0,0,1,0-.25l.12-.19,0-.45a.33.33,0,0,1,0-.3l0-.16a.38.38,0,0,1,.33-.23l.59,0a.39.39,0,0,1,.15,0l.34.14.27-.06a.27.27,0,0,1,.25,0l.1.07.42-.15a.11.11,0,0,1,.07,0l.33,0h.21l-.06-.4v-.19l-.13-.43s0,0,0-.06l0-.34V39l.11-.4.06-.29.06-.47-.16-.25a.4.4,0,0,1,0-.34l.16-.22-.16-.19a.22.22,0,0,1-.07-.17l0-.23a.36.36,0,0,1,0-.2l.07-.09-.09-.48a.55.55,0,0,1,0-.18l.11-.23-.13-.38s0,0,0-.08v-.46l.09-.37,0-.21a.37.37,0,0,1,0-.19l.06-.08V33l-.4-.42L75,32.49l-.61.17a.28.28,0,0,1-.25,0L74,32.49l-.36,0a.3.3,0,0,1-.18,0l-.19-.12c-.11-.08-.19-.21-.17-.29l0-.15.06-.41-.08-.58L73,30.81a.32.32,0,0,1,0-.29l.17-.42v-.41a.3.3,0,0,1,.06-.46l.28-.16.17-.11a.38.38,0,0,1,.19-.06h.29l.25-.11a.32.32,0,0,1,.27,0l.17.05.44-.25.23-.23.24-.29.16-.4.15-.29.06-.08.15-.15a.35.35,0,0,1,.3-.1l.39.08.28,0,.21-.14a.39.39,0,0,1,.21,0L78,27a.07.07,0,0,1,.06,0l.21.08.35-.12,0,0,.21,0A.28.28,0,0,1,79,27l.34.14a.3.3,0,0,1,.17.13l.08.14a.43.43,0,0,1,0,.13l0,.25.14.51a.25.25,0,0,1,0,.17l-.08.29v.23s0,0,0,.06l-.06.29,0,.34v.56l0,.39.16.36a1.09,1.09,0,0,1,0,.18l0,.21s0,0,0,.06l-.08.19,0,.52a.39.39,0,0,1,0,.14l-.1.27.12.3a.35.35,0,0,1,0,.2l-.06.3,0,.24,0,.36v.58l-.06.19-.11.45,0,.4.08.31V36l-.06.41.1.25a.31.31,0,0,1,0,.27l-.08.1,0,.42,0,.5v.33l.08.42v.14l-.06.29,0,.07c.12.16.14.33.06.39l-.13.11.13.22a.32.32,0,0,1,0,.27l-.1.36h.06a.32.32,0,0,1,.23.08l.15.13h.57l.4,0h.19l.58-.16s.07,0,.09,0h0a.29.29,0,0,1,.23.14l.25.32a.36.36,0,0,1,.07.22v.21l0,.31v.09l-.09.41,0,.11.11.29c0,.06.06.1,0,.18l0,.25Z"/><path class="cls-5" d="M76.76,50.1H40.25c-8.5,0-15.41-6.45-15.41-14.38s6.91-14.38,15.41-14.38H76.76c8.5,0,15.41,6.45,15.41,14.38S85.26,50.1,76.76,50.1ZM40.25,22.46C32.37,22.46,26,28.41,26,35.72S32.37,49,40.25,49H76.76C84.64,49,91,43,91,35.72s-6.4-13.26-14.28-13.26Z"/></svg>