<?xml version="1.0" encoding="utf-8"?>
<!-- Generator: Adobe Illustrator 25.2.3, SVG Export Plug-In . SVG Version: 6.00 Build 0)  -->
<svg version="1.1" id="레이어_1" xmlns="http://www.w3.org/2000/svg" xmlns:xlink="http://www.w3.org/1999/xlink" x="0px"
	 y="0px" viewBox="0 0 1920 1442.8" style="enable-background:new 0 0 1920 1442.8;" xml:space="preserve">
<style type="text/css">
	.st0{fill:none;stroke:#FFFFFF;stroke-width:3;stroke-miterlimit:10;}
	.st1{fill:#C6C6C6;}
	.st2{fill:#D7007F;}
</style>
<g>
	
		<image style="overflow:visible;enable-background:new    ;" width="742" height="443" xlink:href="Layer 2.png"  transform="matrix(0.2224 0 0 0.2224 986.8764 512.8727)">
	</image>
</g>
<g>
	
		<image style="overflow:visible;enable-background:new    ;" width="1173" height="451" xlink:href="Layer 3.png"  transform="matrix(0.22 0 0 0.22 190.16 1013.3)">
	</image>
</g>
<g>
	
		<image style="overflow:visible;enable-background:new    ;" width="656" height="467" xlink:href="Layer 4.png"  transform="matrix(0.18 0 0 0.18 123.61 1079.72)">
	</image>
</g>
<g>
	<g transform="translate(1111.69 502.53) scale(0.22)">
		
			<image style="overflow:visible;enable-background:new    ;" width="697" height="472" id="image_2_" xlink:href="../../design/SVG/Layer 3.png"  transform="matrix(0.8974 0 0 0.8974 2517.7622 1191.9562)">
		</image>
	</g>
</g>
<path class="st0" d="M253.2,1149.2l-7.4,22.7l33.4-0.2l16.6,7.2l82.8-6.6c0,0-13.1-9.2,10.7-14.5s53-9.5,53-9.5l17.7-24.8
	c0,0,10.9-9.3,24.6-10.4l55.6-93.8c0,0,3.8-3.5,12.9-3.8s26.5-0.1,26.5-0.1s7-8.3,8.3-12.1s80.5-145.1,80.5-145.1l34-29.7l-1.4-25.7
	l115.3-190.3l9.4-0.1l-116.5,189l7.4,25l-29,21.1c0,0,75.1,7.8,88.1,10.5s93.6,24.3,107,24.9s93.9,18.1,93.9,18.1s27.6,0.5,31.2-1.5
	s64.2-17.7,64.2-17.7s21.9,16.4,24.1,36.5c1.3,10.7,15.9,49.5,15.9,49.5l363-47.4c0,0-4.8-17.1-15.3-21.9s-96.1,2.7-122.8-2.2
	c-33.3-6.1-46-10.7-43.3-15.5s7.1-5.7,20.6-0.3s23.5,9,33.5,9.6s95.9,0.2,103.6-0.5s30.3,7.7,30.6,13.4s5.2,14.6,5.2,14.6
	s251.1-35.1,254.9-35.1s18.9,5.4,0,7.6s-619.6,76.3-619.6,76.3l-13.4-55l-11.9-30.8l-21.3-3.5l-45.4,9.2c0,0-28.5,9.2-35.4,5.7
	s-8.3-12.1,4.4-14.5s39.8-6.3,65.9-13.4c25.9-7.2,58.4-30.6,79.4-37.6c20.8-7,39.7-15.4,39.7-15.4s-0.7-42,7.3-50.3
	s31.4-22.2,36.8-24.3s14.8-6.3,14.8-6.3s9.1-9.7,15.9-13.2s20.7-15,24.5-22.9s-19.3-10.9-25.7-17.7s-2.2-29.6-5.2-33
	s-26.2-17-26.2-17l-17-32.2l-24.1,18l-96.3,24.7"/>
<path class="st1" d="M1309.2,873.5c0-7.2-5.8-13-13-13s-13,5.8-13,13s5.8,13,13,13l0,0C1303.3,886.5,1309.2,880.6,1309.2,873.5z"/>
<circle class="st2" cx="1296.2" cy="873.5" r="7"/>
<path class="st1" d="M1095.1,635.8c0-7.2-5.8-13-13-13s-13,5.8-13,13s5.8,13,13,13l0,0C1089.3,648.8,1095.1,642.9,1095.1,635.8z"/>
<circle class="st2" cx="1082.1" cy="635.8" r="7"/>
<path class="st1" d="M868.8,878.1c0-7.2-5.8-13-13-13s-13,5.8-13,13s5.8,13,13,13S868.8,885.3,868.8,878.1L868.8,878.1z"/>
<circle class="st2" cx="855.8" cy="878.1" r="7"/>
<path class="st1" d="M264.6,1142.9c0-7.2-5.8-13-13-13c-7.2,0-13,5.8-13,13s5.8,13,13,13l0,0
	C258.8,1155.9,264.6,1150.1,264.6,1142.9z"/>
<circle class="st2" cx="251.6" cy="1142.9" r="7"/>
<path class="st1" d="M1760.4,881.2c0-7.2-5.8-13-13-13s-13,5.8-13,13s5.8,13,13,13l0,0C1754.6,894.2,1760.4,888.4,1760.4,881.2z"/>
<circle class="st2" cx="1747.4" cy="881.2" r="7"/>
<image style="overflow:visible;enable-background:new    ;" width="636" height="350" xlink:href="../../design/SVG/Layer 4.png"  transform="matrix(0.2256 0 0 0.2256 1231.4347 779.8936)">
</image>
</svg>
