<?xml version="1.0" encoding="utf-8"?>
<!-- Generator: Adobe Illustrator 25.2.3, SVG Export Plug-In . SVG Version: 6.00 Build 0)  -->
<svg version="1.1" id="Layer_1" xmlns="http://www.w3.org/2000/svg" xmlns:xlink="http://www.w3.org/1999/xlink" x="0px" y="0px"
	 viewBox="0 0 928.4 697.6" style="enable-background:new 0 0 928.4 697.6;" xml:space="preserve">
<style type="text/css">
	.st0{fill:none;stroke:#FFFFFF;stroke-width:3;stroke-linecap:round;stroke-linejoin:round;stroke-miterlimit:10;}
	.st1{fill:#C8C9CA;}
	.st2{fill:#D5007F;}
	.st3{fill:#FFFFFF;}
</style>
<path class="st0" d="M393,597.5c0,0,21.3-2.3,21.4-7.3c7.6-3.5,15.5-6.4,23.5-8.9c11.7-3.5,108.9-23.5,108.9-23.5l90.8-19l78.6-18.3
	c0,0,9-2.9-0.9-1.1s-73,15.1-73,15.1L577.5,468l-2.1-2.2l-74.2,14.6l-9.1-5.7l-12,2.1l0.8,1.6l9.6-0.8l6.9,5.4l75.3-15l-0.6-4.6
	L479,351.6l-5.6-9.9l-10.7-8.7L443.5,312l-53-69.3L317.6,150l32-2.1l12,5.1"/>
<path class="st1" d="M726,515.4c0-3.4-2.8-6.1-6.2-6.1c-3.4,0-6.1,2.8-6.1,6.2s2.8,6.1,6.1,6.1S726,518.8,726,515.4L726,515.4z"/>
<circle class="st2" cx="719.9" cy="515.4" r="3.3"/>
<path class="st1" d="M484.6,476.7c0-3.4-2.8-6.1-6.1-6.1c-3.4,0-6.1,2.8-6.1,6.1c0,3.4,2.8,6.1,6.1,6.1l0,0
	C481.9,482.8,484.6,480.1,484.6,476.7z"/>
<circle class="st2" cx="478.5" cy="476.7" r="3.3"/>
<path class="st1" d="M503.6,372.2c0-3.4-2.8-6.1-6.1-6.1c-3.4,0-6.1,2.8-6.1,6.1c0,3.4,2.8,6.1,6.1,6.1l0,0
	C500.9,378.3,503.6,375.6,503.6,372.2z"/>
<circle class="st2" cx="497.5" cy="372.2" r="3.3"/>
<path class="st2" d="M407,575.8c0-7.6-6.2-13.8-13.8-13.8s-13.8,6.2-13.8,13.8l0,0c0,7.6,13.8,26.5,13.8,26.5S407,583.4,407,575.8z"
	/>
<path class="st3" d="M401.5,574.9c0-4.6-3.7-8.4-8.3-8.4c-4.6,0-8.4,3.7-8.4,8.3c0,4.6,3.7,8.4,8.3,8.4c0,0,0,0,0,0
	C397.8,583.2,401.5,579.5,401.5,574.9z"/>
<path class="st2" d="M370.7,136.1c0.2-5.2-3.9-9.5-9.1-9.7s-9.5,3.9-9.7,9.1c0,0.2,0,0.4,0,0.6c0,5.2,9.4,18,9.4,18
	S370.7,141.3,370.7,136.1z"/>
<path class="st3" d="M367,135.5c0-3.1-2.5-5.7-5.7-5.7c-3.1,0-5.7,2.5-5.7,5.7c0,3.1,2.5,5.7,5.7,5.7c0,0,0,0,0,0
	C364.5,141.2,367,138.7,367,135.5z"/>
</svg>
