<?xml version="1.0" encoding="utf-8"?>
<!-- Generator: Adobe Illustrator 24.3.0, SVG Export Plug-In . SVG Version: 6.00 Build 0)  -->
<svg version="1.1" id="레이어_1" xmlns="http://www.w3.org/2000/svg" xmlns:xlink="http://www.w3.org/1999/xlink" x="0px"
	 y="0px" viewBox="0 0 1154.3 278.03" style="enable-background:new 0 0 1154.3 278.03;" xml:space="preserve">
<style type="text/css">
	.st0{fill:#FFFFFF;}
</style>
<g id="레이어_2_1_">
	<g id="Layer_1">
		<g>
			<path class="st0" d="M493.14,233.11l-40.61-42.47l-35.49,41.86H351.2l-6.23,0.15l-3.01-3.76l3.57-1.84l-2.16-5.42l7.59,2.79
				l24.46-22.02l-0.18-3.84l4.76,2.14h56.11l16.33-19.48l17.43,19.22H635.3l5.07-3.24v5.34l22.84,21.28l4.25,0.59l-0.89,2.7
				l3.36,1.81l-2.64,3.34l-0.51,0L493.14,233.11z M452.44,187.5l41.59,43.51l172.23-0.85l0.46-0.58l-2.7-1.45l0.65-1.98l-2.41-0.33
				l-24-22.36v-2.42l-2.35,1.5H468.94l-16.43-18.12L437.1,202.8h-57.53l-2.06-0.92l0.06,1.42l-26.14,23.54l-4.37-1.61l1.12,2.82
				l-2.99,1.54l0.75,0.94l5.22-0.13h64.9L452.44,187.5z"/>
		</g>
		<g>
			<polygon class="st0" points="415.12,229.06 343.58,229.06 343.58,226.96 414.14,226.96 435.8,201.08 437.42,202.42 			"/>
		</g>
		<g>
			<polygon class="st0" points="495.01,229.85 468.65,202.21 470.17,200.77 495.91,227.75 665.29,226.57 665.31,228.67 			"/>
		</g>
		<g>
			<polygon class="st0" points="662.16,277.57 350.15,277.57 350.15,231.45 352.25,231.45 352.25,275.47 660.06,275.47 
				660.06,231.45 662.16,231.45 			"/>
		</g>
		<g>
			<path class="st0" d="M463.49,227h-20.9v-8.6h20.9V227z M444.69,224.9h16.7v-4.4h-16.7V224.9z"/>
		</g>
		<g>
			<path class="st0" d="M581.26,245.74h-103.2v-6.53h103.2V245.74z M480.16,243.64h99v-2.33h-99V243.64z"/>
		</g>
		<g>
			<path class="st0" d="M581.25,269.56h-14.73v-21.79h14.73V269.56z M568.62,267.46h10.53v-17.59h-10.53V267.46z"/>
		</g>
		<g>
			<path class="st0" d="M519.83,269.56H505.1v-21.79h14.73V269.56z M507.2,267.46h10.53v-17.59H507.2V267.46z"/>
		</g>
		<g>
			<path class="st0" d="M501.89,269.56h-14.73v-21.79h14.73V269.56z M489.26,267.46h10.53v-17.59h-10.53V267.46z"/>
		</g>
		<g>
			<path class="st0" d="M443.95,263.21h-11.91v-21.79h11.91V263.21z M434.14,261.11h7.71v-17.59h-7.71V261.11z"/>
		</g>
		<g>
			<path class="st0" d="M423.35,263.21h-10.82v-21.79h10.82V263.21z M414.63,261.11h6.62v-17.59h-6.62V261.11z"/>
		</g>
		<g>
			<path class="st0" d="M411.68,263.21h-10.82v-21.79h10.82V263.21z M402.96,261.11h6.62v-17.59h-6.62V261.11z"/>
		</g>
		<g>
			<path class="st0" d="M365.15,263.21h-10.82v-21.79h10.82V263.21z M356.43,261.11h6.62v-17.59h-6.62V261.11z"/>
		</g>
		<g>
			<path class="st0" d="M377.17,263.21h-10.82v-21.79h10.82V263.21z M368.45,261.11h6.62v-17.59h-6.62V261.11z"/>
		</g>
		<g>
			<path class="st0" d="M651.93,263.21h-11.91v-21.79h11.91V263.21z M642.12,261.11h7.71v-17.59h-7.71V261.11z"/>
		</g>
		<g>
			<path class="st0" d="M636.17,263.21h-11.91v-21.79h11.91V263.21z M626.36,261.11h7.71v-17.59h-7.71V261.11z"/>
		</g>
		<g>
			<path class="st0" d="M604.65,263.21h-11.91v-21.79h11.91V263.21z M594.84,261.11h7.71v-17.59h-7.71V261.11z"/>
		</g>
		<g>
			<path class="st0" d="M620.41,263.21H608.5v-21.79h11.91V263.21z M610.6,261.11h7.71v-17.59h-7.71V261.11z"/>
		</g>
		<g>
			<path class="st0" d="M458.94,263.21h-11.91v-21.79h11.91V263.21z M449.13,261.11h7.71v-17.59h-7.71V261.11z"/>
		</g>
		<g>
			<path class="st0" d="M473.93,263.21h-11.91v-21.79h11.91V263.21z M464.12,261.11h7.71v-17.59h-7.71V261.11z"/>
		</g>
		<g>
			<path class="st0" d="M399.07,253.36h-19.8v-5.59h19.8V253.36z M381.37,251.26h15.6v-1.39h-15.6V251.26z"/>
		</g>
		<g>
			<rect x="563.14" y="267.47" class="st0" width="97.97" height="2.1"/>
		</g>
		<g>
			<rect x="393.39" y="267.47" class="st0" width="129.57" height="2.1"/>
		</g>
		<g>
			<rect x="351.2" y="267.47" class="st0" width="32.95" height="2.1"/>
		</g>
		<g>
			<path class="st0" d="M534.06,277.57h-12.15v-30.81h12.15V277.57z M524.01,275.47h7.95v-26.61h-7.95V275.47z"/>
		</g>
		<g>
			<path class="st0" d="M564.19,277.57h-12.15v-30.81h12.15V277.57z M554.14,275.47h7.95v-26.61h-7.95V275.47z"/>
		</g>
		<g>
			<path class="st0" d="M554.14,277.56h-22.19v-29.79h22.19V277.56z M534.05,275.46h17.99v-25.59h-17.99V275.46z"/>
		</g>
		<g>
			<path class="st0" d="M395.25,277.06H383.1v-25.79h12.15V277.06z M385.2,274.96h7.95v-21.59h-7.95V274.96z"/>
		</g>
		<g>
			<path class="st0" d="M469.11,222.7h-2.1c0-7.74-6.29-14.03-14.03-14.03s-14.03,6.29-14.03,14.03h-2.1
				c0-8.89,7.24-16.13,16.13-16.13S469.11,213.81,469.11,222.7z"/>
		</g>
		<g>
			<rect x="533" y="267.47" class="st0" width="19.05" height="2.1"/>
		</g>
		<g>
			<path class="st0" d="M953.9,193.59c-0.21-0.52-0.73-0.84-1.29-0.78c0,0-1.69,0.17-4.22,0.33c1-3.16-0.45-7.71-0.65-8.29
				c-0.19-0.6-0.81-0.96-1.43-0.83c-6.32,1.29-16.31,3.21-17.92,3.21c-2.94,0-26.26-12.7-50.38-26.66c1.12-1.33,1.6-3.08,1.33-4.79
				c-0.43-2.27-2.29-4.01-4.59-4.28c0.04-0.17,0.07-0.35,0.09-0.53c0.11-2.87-1.08-5.63-3.23-7.53c0.39-0.84,0.46-1.8,0.2-2.69
				c-0.42-1.14-1.26-2.06-2.36-2.57h-0.05c-0.24-0.17-0.54-0.25-0.84-0.22c-0.25,0.01-0.49,0.09-0.69,0.23
				c-1.12,0.5-2,1.44-2.42,2.6c-0.26,0.89-0.2,1.85,0.19,2.69c-2.15,1.9-3.33,4.66-3.22,7.53c0,0.18,0.05,0.36,0.08,0.53
				c-2.3,0.27-4.16,2.01-4.59,4.28c-0.27,1.7,0.21,3.43,1.31,4.76c-24.11,14-47.5,26.69-50.45,26.69c-1.61,0-11.77-1.92-18.2-3.21
				c-0.63-0.13-1.26,0.24-1.44,0.86c-0.18,0.58-1.46,5.07-0.43,8.22c-1.8-0.15-2.93-0.28-3-0.28c-0.69-0.08-1.31,0.41-1.38,1.1
				c-0.05,0.43,0.13,0.85,0.46,1.12c3.67,2.76,7.67,5.06,11.9,6.86c0.24,0.25,0.53,0.44,0.86,0.56c0.14,0.06,0.3,0.09,0.45,0.09
				c0.07,0,0.13,0,0.2,0c1.69,0.66,3.41,1.22,5.16,1.67c0.24,0.31,0.61,0.49,1,0.49h1.15c0.57,0.11,1.15,0.21,1.73,0.29v3.74
				c0.02,0.69,0.58,1.23,1.27,1.22h4v2.45c0,0.6,0.42,1.11,1,1.23c0,0.14,0,0.29,0,0.43c0.01,3.59,2.84,6.54,6.43,6.7
				c0.35,2.21,1.89,4.05,4,4.8v14.1h-2.59c-0.17-0.51-0.64-0.86-1.18-0.86h-6.93c-0.57,0-1.07,0.39-1.21,0.94
				c-0.44,2.43,0.59,4.89,2.63,6.28c-0.82,2.4-0.53,5.04,0.79,7.2c0.56,0.86,1.32,1.57,2.23,2.06v2.82c0,0.69,0.56,1.25,1.25,1.25
				h1.82l-1,15.83c-0.02,0.34,0.1,0.68,0.33,0.94c0.24,0.25,0.57,0.39,0.91,0.39h13.05c0.69,0,1.25-0.56,1.25-1.25
				c0.01-0.09,0.01-0.19,0-0.28l-0.95-15.63h14.9l-1,15.83c-0.02,0.35,0.1,0.69,0.34,0.94c0.24,0.25,0.57,0.39,0.91,0.39h13.12
				c0.68,0,1.24-0.56,1.24-1.24c0,0,0-0.01,0-0.01c0.01-0.09,0.01-0.19,0-0.28l-0.94-15.63h12.45l-1,15.83
				c-0.02,0.35,0.1,0.69,0.34,0.94c0.24,0.25,0.57,0.39,0.91,0.39h13c0.68,0,1.24-0.56,1.24-1.24c0,0,0-0.01,0-0.01
				c0.01-0.09,0.01-0.19,0-0.28l-0.94-15.63h13.3l-1,15.83c-0.02,0.34,0.1,0.68,0.33,0.94c0.24,0.25,0.57,0.39,0.91,0.39h13
				c0.69,0,1.25-0.56,1.25-1.25c0.01-0.09,0.01-0.19,0-0.28l-1-15.63h1.52c0.69,0,1.25-0.56,1.25-1.25v-2.53
				c1.19-0.46,2.21-1.28,2.9-2.35c1.31-2.17,1.6-4.8,0.78-7.2c2.04-1.39,3.08-3.85,2.64-6.28c-0.14-0.55-0.64-0.94-1.21-0.94h-6.93
				c-0.54,0-1.02,0.35-1.18,0.86h-2v-13.96c2.4-0.59,4.21-2.56,4.59-5c3.59-0.15,6.43-3.1,6.44-6.7c0-0.14,0-0.27,0-0.41h1.34
				c0.69,0,1.25-0.56,1.25-1.25V210h4.64c0.69,0,1.25-0.56,1.25-1.25v-4.09c11.08-2.27,20-9.23,20.46-9.58
				C953.91,194.75,954.11,194.14,953.9,193.59z M943.47,198.26v-2.38l2.76-0.11l1.94-0.11
				C946.87,196.46,945.27,197.37,943.47,198.26L943.47,198.26z M935.83,201.34v-5.44h1.71h2.59v3.84
				C938.73,200.35,937.29,200.88,935.83,201.34z M930.55,207.46h-120.8v-2.21c0.7,0.05,1.4,0.08,2.1,0.08h115.31
				c1.13-0.03,2.27-0.12,3.39-0.27V207.46z M924.66,211.16H815V210h109.66V211.16z M917.18,218.21c-0.36-0.05-0.73,0.07-1,0.31
				c-0.28,0.25-0.43,0.62-0.41,1c0,0.09,0,0.19,0,0.28c0,1.43-0.86,2.73-2.17,3.3v-7.46c0.17-0.26,0.23-0.57,0.18-0.88
				c-0.04-0.23-0.06-0.47-0.06-0.71c-0.01-0.09-0.01-0.18,0-0.27h8.39c0.01,0.09,0.01,0.18,0,0.27c0.02,2.31-1.84,4.21-4.15,4.23
				C917.7,218.28,917.44,218.26,917.18,218.21L917.18,218.21z M920.1,244.49c-0.52,0.32-0.74,0.97-0.5,1.53
				c0.89,1.86,0.8,4.04-0.22,5.83c-0.26,0.41-0.6,0.77-1,1.05l-0.37,0.22v-11.81h4.48C922.22,242.68,921.34,243.85,920.1,244.49
				L920.1,244.49z M914.19,274h-10.38l0.89-14.66h8.6L914.19,274z M887.31,274h-10.37l0.88-14.66h8.6L887.31,274z M861.25,274
				h-10.37l0.88-14.66h8.6L861.25,274z M832.75,274h-10.38l0.89-14.66h8.6L832.75,274z M816.82,244.47
				c-1.24-0.64-2.12-1.81-2.38-3.18h4.48v11.81c-0.27-0.14-0.52-0.31-0.75-0.52c-0.25-0.22-0.46-0.47-0.64-0.75
				c-1.02-1.79-1.1-3.97-0.21-5.83c0.22-0.56,0.01-1.19-0.5-1.51V244.47z M822.38,219.8c-0.01-0.1-0.01-0.19,0-0.29
				c0.03-0.38-0.12-0.75-0.41-1c-0.23-0.21-0.53-0.33-0.84-0.33h-0.2c-2.28,0.41-4.46-1.11-4.86-3.38c-0.04-0.25-0.07-0.5-0.07-0.76
				c0-0.09,0-0.18,0-0.27h7.92v9c-0.97-0.67-1.54-1.77-1.54-2.95V219.8z M902.8,239.65h-15v-26h15V239.65z M915.51,254.81
				c0.04,0.28,0.16,0.54,0.36,0.74c0.06,0.06,0.13,0.11,0.2,0.16v1.13h-95.89v-0.93c0.32-0.01,0.63-0.13,0.86-0.36
				c0.2-0.2,0.33-0.46,0.36-0.74L915.51,254.81L915.51,254.81z M849.73,242.15h13.59v10.16H846.6v-10.14L849.73,242.15z
				 M871.06,242.15v10.16h-5.25v-10.14L871.06,242.15z M877.06,242.15h13.54v10.16h-17v-10.14L877.06,242.15z M838.91,242.15h5.25
				v10.16h-5.25V242.15z M898.35,252.31h-5.25v-10.14h5.25V252.31z M885.35,239.65h-5.77v-26h5.77V239.65z M877.08,239.65H860.5v-26
				H877L877.08,239.65z M858.08,239.65h-5.77v-26H858L858.08,239.65z M849.81,239.65h-15v-26h15V239.65z M826.52,225.81v-12.15h5.77
				v26h-5.77V225.81z M826.52,242.15h9.92v10.16h-15.02v-10.14h5L826.52,242.15z M915.33,252.31H900.8v-10.14h14.45L915.33,252.31z
				 M905.33,239.65v-26h5.77v26H905.33z M791.41,193c-0.92-1.27-0.65-4.2-0.18-6.32c3.93,0.77,15.46,3,17.54,3
				c4.46,0,35.15-17.42,52.42-27.43c0.65,0.42,1.35,0.77,2.08,1.05c0.06,0.01,0.13,0.01,0.19,0l-5.22,3
				c-0.27-0.04-0.55,0.01-0.79,0.15c-0.34,0.2-0.63,0.47-0.85,0.79l0,0l-6,3.45c-0.27-0.05-0.56,0-0.8,0.14
				c-0.34,0.2-0.63,0.47-0.85,0.8l-6,3.45c-0.27-0.05-0.55,0.01-0.79,0.15c-0.34,0.19-0.63,0.46-0.85,0.79l-6,3.45
				c-0.27-0.04-0.55,0.01-0.79,0.14c-0.34,0.2-0.63,0.47-0.85,0.8l-6,3.44c-0.27-0.04-0.55,0.01-0.79,0.15
				c-0.34,0.19-0.63,0.46-0.84,0.79l-6,3.43c-0.28-0.03-0.56,0.02-0.8,0.15c-0.34,0.19-0.63,0.46-0.84,0.79l-4.06,2.3
				c-0.46,0.24-0.93,0.45-1.42,0.62c-0.21-0.05-0.44-0.05-0.65,0c-0.26,0.1-0.52,0.22-0.75,0.38c-1.99,0.46-4.02,0.76-6.06,0.87
				c-0.1-0.01-0.2-0.01-0.3,0l-0.49,0.05h-0.19c-1.36,0.07-2.83,0.11-4.4,0.11c-3,0-5.9-0.14-8.32-0.3
				C791.63,193.14,791.52,193.08,791.41,193z M860.41,156.22c0.28-1.41,1.56-2.4,3-2.3c0.38,0,0.77,0.05,1.14,0.15
				c0.67,0.16,1.34-0.26,1.5-0.94c0.13-0.54-0.12-1.1-0.61-1.37c-0.3-0.28-0.46-0.67-0.46-1.08c-0.15-1.44,0.56-3.89,3.1-6
				c0.48-0.41,0.58-1.1,0.25-1.63c-0.35-0.44-0.5-1-0.42-1.55c0.16-0.38,0.44-0.7,0.8-0.91c0.36,0.2,0.64,0.53,0.79,0.91
				c0.06,0.55-0.12,1.1-0.5,1.5c-0.34,0.53-0.24,1.22,0.24,1.63c2.54,2.14,3.26,4.59,3.1,6c0.01,0.41-0.16,0.8-0.46,1.08
				c-0.61,0.33-0.83,1.09-0.5,1.7c0.27,0.5,0.85,0.75,1.4,0.61c0.37-0.1,0.75-0.15,1.13-0.15c1.44-0.1,2.72,0.89,3,2.3
				c0.17,1.13-0.23,2.27-1.06,3.06c-0.3,0.32-0.63,0.61-1,0.85c-0.41,0.27-0.85,0.5-1.3,0.69l-0.19,0.09H864l-0.24-0.11
				c-0.45-0.2-0.89-0.43-1.3-0.7c-0.36-0.25-0.7-0.53-1-0.85c-0.82-0.76-1.22-1.86-1.09-2.96L860.41,156.22z M945.75,193.03
				c-0.07,0.09-0.15,0.17-0.23,0.25l-2.27,0.09c-0.03-0.05-0.07-0.1-0.11-0.14c-0.25-0.23-0.57-0.36-0.91-0.35
				c-0.46,0-0.89,0.2-1.19,0.54h-1.9c-1.23,0-2.4,0-3.52-0.06c-0.23-0.32-0.6-0.52-1-0.53c-0.41,0-0.8,0.15-1.11,0.42
				c-1.84-0.1-3.67-0.31-5.48-0.62c-0.18-0.29-0.47-0.49-0.8-0.56c-0.37-0.09-0.76-0.04-1.1,0.13c-0.72-0.18-1.43-0.43-2.11-0.74
				c-0.85-0.41-2.08-1-3.59-1.85c-0.12-0.2-0.29-0.37-0.5-0.48c-0.27-0.16-0.57-0.25-0.88-0.26c-1.81-1-3.94-2.14-6.27-3.44
				c-0.12-0.19-0.28-0.36-0.48-0.47c-0.27-0.16-0.56-0.25-0.87-0.28l-6.3-3.53c-0.11-0.2-0.27-0.36-0.47-0.47
				c-0.27-0.15-0.56-0.25-0.87-0.29l-6.31-3.57c-0.11-0.2-0.27-0.36-0.47-0.47c-0.26-0.16-0.56-0.26-0.86-0.29
				c-2.14-1.21-4.26-2.42-6.32-3.61c-0.11-0.19-0.27-0.34-0.46-0.45c-0.26-0.17-0.56-0.27-0.87-0.3c-5.81-3.33-11-6.35-14.57-8.38
				c0.04,0,0.09,0,0.13,0c0.7-0.27,1.37-0.6,2-1c17.23,10,47.91,27.41,52.36,27.41c2.09,0,13.44-2.25,17.29-3
				c0.52,2.1,0.88,5.05,0,6.32L945.75,193.03z M931.84,202.29c-0.41,0.08-0.83,0.14-1.25,0.2c-0.78,0.12-1.58,0.21-2.37,0.26v-7.53
				c1,0.17,2.11,0.3,3.31,0.41l1,0.08v6.45L931.84,202.29z M791,195.79c1.48,0.1,3.16,0.2,4.95,0.26v2.73
				c-1.93-0.89-3.81-1.9-5.63-3L791,195.79z M913.51,202.84h-0.62v-14.42l4.31,2.36v12.06H913.51z M874.64,202.84v-36.15l4.31,2.48
				v33.67H874.64z M860.44,202.84h-1.1v-34.21l4.31-2.47v36.68H860.44z M821.09,202.84v-12.27l4.31-2.46v14.73H821.09z
				 M813.91,201.52v-7.07c0.57-0.2,1.11-0.45,1.64-0.74l2.19-1.24v10.37h-3.83V201.52z M828.74,202.84v-16.65l4.31-2.46v19.11
				H828.74z M836.39,202.77v-21l4.31-2.47v23.5h-4.31V202.77z M844.04,202.77v-25.35l4.31-2.47v27.89H844L844.04,202.77z
				 M856.04,170.56v32.28h-4.31V173L856.04,170.56z M867.04,202.77v-38.53c0.57-0.33,1-0.6,1.41-0.82H869l2.32,1.34v38.08H867
				L867.04,202.77z M882.34,202.84v-31.75l4.31,2.47v29.28H882.34z M889.99,202.77v-27.3l4.31,2.46v24.91h-4.31V202.77z
				 M897.64,202.77v-22.94l4.31,2.44v20.57h-4.31V202.77z M909.64,188.25v14.59h-4.31v-18.69l4.31,2.41V188.25z M920.64,202.77
				v-10.2c1,0.49,1.74,0.89,2.35,1.18c0.65,0.3,1.32,0.54,2,0.74v8.35h-4.31L920.64,202.77z M799.4,197.15v-1h1.48
				c0.82,0,1.6,0,2.36-0.05v5.44c-1.32-0.38-2.61-0.82-3.84-1.29L799.4,197.15z M806.59,202.3v-6.42h0.38
				c1.35-0.12,2.58-0.29,3.69-0.5v7.46l-0.79-0.06l-1.25-0.12l-1.25-0.18L806.59,202.3z"/>
		</g>
		<g>
			<polygon class="st0" points="187.24,277.2 17.76,277.2 17.76,220.63 19.12,220.63 19.12,275.84 185.88,275.84 185.88,226.2 
				187.24,226.2 			"/>
		</g>
		<g>
			<path class="st0" d="M150.41,277.2H54.58v-52.49h95.83V277.2z M55.94,275.84h93.11v-49.77H55.94V275.84z"/>
		</g>
		<g>
			
				<rect x="7.02" y="205.01" transform="matrix(0.9838 -0.1795 0.1795 0.9838 -36.5555 7.4138)" class="st0" width="31.34" height="1.36"/>
		</g>
		<g>
			<path class="st0" d="M99.9,163.03l-0.18-0.42c-0.14-0.33-3.45-8.11,1.55-11.82c0.98-0.73,2.08-0.75,3-0.06
				c2.08,1.57,3.11,6.76,1.25,11.71l-0.16,0.43L99.9,163.03z M102.82,151.59c-0.24,0-0.48,0.1-0.75,0.3
				c-3.54,2.63-1.85,8.19-1.28,9.76l3.6-0.1c1.49-4.4,0.47-8.66-0.95-9.72C103.24,151.67,103.03,151.59,102.82,151.59z"/>
		</g>
		<g>
			<path class="st0" d="M97.71,167.06c-1.48,0-2.68-1.2-2.68-2.68s1.2-2.68,2.68-2.68s2.68,1.2,2.68,2.68S99.19,167.06,97.71,167.06
				z M97.71,163.06c-0.73,0-1.32,0.59-1.32,1.32s0.59,1.32,1.32,1.32s1.32-0.59,1.32-1.32S98.44,163.06,97.71,163.06z"/>
		</g>
		<g>
			<path class="st0" d="M93.79,169.6c-1.48,0-2.68-1.2-2.68-2.68s1.2-2.68,2.68-2.68s2.68,1.2,2.68,2.68S95.27,169.6,93.79,169.6z
				 M93.79,165.6c-0.73,0-1.32,0.59-1.32,1.32s0.59,1.32,1.32,1.32s1.32-0.59,1.32-1.32S94.52,165.6,93.79,165.6z"/>
		</g>
		<g>
			<path class="st0" d="M89.86,172.14c-1.48,0-2.68-1.2-2.68-2.68s1.2-2.68,2.68-2.68s2.68,1.2,2.68,2.68S91.34,172.14,89.86,172.14
				z M89.86,168.14c-0.73,0-1.32,0.59-1.32,1.32s0.59,1.32,1.32,1.32s1.32-0.59,1.32-1.32S90.59,168.14,89.86,168.14z"/>
		</g>
		<g>
			<path class="st0" d="M85.94,174.68c-1.48,0-2.68-1.2-2.68-2.68s1.2-2.68,2.68-2.68s2.68,1.2,2.68,2.68S87.42,174.68,85.94,174.68
				z M85.94,170.68c-0.73,0-1.32,0.59-1.32,1.32s0.59,1.32,1.32,1.32s1.32-0.59,1.32-1.32S86.67,170.68,85.94,170.68z"/>
		</g>
		<g>
			<path class="st0" d="M82,177.21c-1.48,0-2.68-1.2-2.68-2.68s1.2-2.68,2.68-2.68s2.68,1.2,2.68,2.68S83.48,177.21,82,177.21z
				 M82,173.21c-0.73,0-1.32,0.59-1.32,1.32s0.59,1.32,1.32,1.32s1.32-0.59,1.32-1.32S82.73,173.21,82,173.21z"/>
		</g>
		<g>
			<path class="st0" d="M78.06,179.78c-1.49,0-2.71-1.21-2.71-2.71s1.22-2.71,2.71-2.71c1.49,0,2.71,1.22,2.71,2.71
				S79.55,179.78,78.06,179.78z M78.06,175.72c-0.74,0-1.35,0.61-1.35,1.35s0.61,1.35,1.35,1.35c0.74,0,1.35-0.61,1.35-1.35
				S78.8,175.72,78.06,175.72z"/>
		</g>
		<g>
			<path class="st0" d="M74.17,182.29c-1.48,0-2.68-1.2-2.68-2.68s1.2-2.68,2.68-2.68s2.68,1.2,2.68,2.68S75.65,182.29,74.17,182.29
				z M74.17,178.29c-0.73,0-1.32,0.59-1.32,1.32s0.59,1.32,1.32,1.32s1.32-0.59,1.32-1.32S74.9,178.29,74.17,178.29z"/>
		</g>
		<g>
			<path class="st0" d="M70.24,184.83c-1.48,0-2.68-1.2-2.68-2.68s1.2-2.68,2.68-2.68s2.68,1.2,2.68,2.68S71.72,184.83,70.24,184.83
				z M70.24,180.83c-0.73,0-1.32,0.59-1.32,1.32s0.59,1.32,1.32,1.32s1.32-0.59,1.32-1.32S70.97,180.83,70.24,180.83z"/>
		</g>
		<g>
			<path class="st0" d="M66.32,187.37c-1.48,0-2.68-1.2-2.68-2.68s1.2-2.68,2.68-2.68s2.68,1.2,2.68,2.68S67.8,187.37,66.32,187.37z
				 M66.32,183.37c-0.73,0-1.32,0.59-1.32,1.32s0.59,1.32,1.32,1.32s1.32-0.59,1.32-1.32S67.05,183.37,66.32,183.37z"/>
		</g>
		<g>
			<path class="st0" d="M62.37,189.94c-1.49,0-2.71-1.22-2.71-2.71s1.22-2.71,2.71-2.71c1.49,0,2.71,1.21,2.71,2.71
				S63.86,189.94,62.37,189.94z M62.37,185.88c-0.74,0-1.35,0.61-1.35,1.35s0.61,1.35,1.35,1.35c0.74,0,1.35-0.61,1.35-1.35
				S63.11,185.88,62.37,185.88z"/>
		</g>
		<g>
			<path class="st0" d="M58.47,192.45c-1.48,0-2.68-1.2-2.68-2.68s1.2-2.68,2.68-2.68s2.68,1.2,2.68,2.68S59.95,192.45,58.47,192.45
				z M58.47,188.45c-0.73,0-1.32,0.59-1.32,1.32s0.59,1.32,1.32,1.32s1.32-0.59,1.32-1.32S59.2,188.45,58.47,188.45z"/>
		</g>
		<g>
			<path class="st0" d="M54.54,194.98c-1.48,0-2.68-1.2-2.68-2.68s1.2-2.68,2.68-2.68s2.68,1.2,2.68,2.68S56.02,194.98,54.54,194.98
				z M54.54,190.98c-0.73,0-1.32,0.59-1.32,1.32s0.59,1.32,1.32,1.32s1.32-0.59,1.32-1.32S55.27,190.98,54.54,190.98z"/>
		</g>
		<g>
			<path class="st0" d="M50.62,197.52c-1.48,0-2.68-1.2-2.68-2.68s1.2-2.68,2.68-2.68s2.68,1.2,2.68,2.68S52.1,197.52,50.62,197.52z
				 M50.62,193.52c-0.73,0-1.32,0.59-1.32,1.32s0.59,1.32,1.32,1.32s1.32-0.59,1.32-1.32S51.35,193.52,50.62,193.52z"/>
		</g>
		<g>
			<path class="st0" d="M46.67,200.09c-1.49,0-2.71-1.22-2.71-2.71s1.22-2.71,2.71-2.71c1.49,0,2.71,1.22,2.71,2.71
				S48.16,200.09,46.67,200.09z M46.67,196.03c-0.74,0-1.35,0.61-1.35,1.35s0.61,1.35,1.35,1.35c0.74,0,1.35-0.61,1.35-1.35
				S47.41,196.03,46.67,196.03z"/>
		</g>
		<g>
			<path class="st0" d="M42.63,202.29c-1.48,0-2.68-1.2-2.68-2.68s1.2-2.68,2.68-2.68s2.68,1.2,2.68,2.68S44.11,202.29,42.63,202.29
				z M42.63,198.29c-0.73,0-1.32,0.59-1.32,1.32s0.59,1.32,1.32,1.32s1.32-0.59,1.32-1.32S43.36,198.29,42.63,198.29z"/>
		</g>
		<g>
			<path class="st0" d="M38.1,203.55c-1.49,0-2.71-1.22-2.71-2.71s1.22-2.71,2.71-2.71c1.49,0,2.71,1.22,2.71,2.71
				S39.59,203.55,38.1,203.55z M38.1,199.49c-0.74,0-1.35,0.61-1.35,1.35s0.61,1.35,1.35,1.35c0.74,0,1.35-0.61,1.35-1.35
				S38.84,199.49,38.1,199.49z"/>
		</g>
		<g>
			<path class="st0" d="M2.48,210.24c-1.64-1.91-2.27-7.86-2.34-8.54L0,200.29l6.36,4.17l29.6-4.29l0.2,1.35l-30.11,4.37l-4.38-2.87
				c0.31,2.13,0.93,5.29,1.84,6.34L2.48,210.24z"/>
		</g>
		<g>
			<path class="st0" d="M99.73,203.88c-11.42,0-50.41-1.49-52.23-1.56l0.05-1.36c0.49,0.02,49.09,1.87,54.65,1.51
				c5.61-0.37,54.74-2.29,55.24-2.31l0.05,1.36c-0.5,0.02-49.61,1.94-55.2,2.31C101.77,203.86,100.89,203.88,99.73,203.88z"/>
		</g>
		<g>
			<path class="st0" d="M108.55,167.06c-1.48,0-2.68-1.2-2.68-2.68s1.2-2.68,2.68-2.68s2.68,1.2,2.68,2.68
				S110.03,167.06,108.55,167.06z M108.55,163.06c-0.73,0-1.32,0.59-1.32,1.32s0.59,1.32,1.32,1.32s1.32-0.59,1.32-1.32
				S109.28,163.06,108.55,163.06z"/>
		</g>
		<g>
			<path class="st0" d="M112.47,169.59c-1.49,0-2.71-1.22-2.71-2.71s1.22-2.71,2.71-2.71c1.49,0,2.71,1.22,2.71,2.71
				S113.96,169.59,112.47,169.59z M112.47,165.53c-0.74,0-1.35,0.61-1.35,1.35s0.61,1.35,1.35,1.35c0.74,0,1.35-0.61,1.35-1.35
				S113.21,165.53,112.47,165.53z"/>
		</g>
		<g>
			<path class="st0" d="M116.34,172.06c-1.48,0-2.68-1.2-2.68-2.68s1.2-2.68,2.68-2.68s2.68,1.2,2.68,2.68
				S117.82,172.06,116.34,172.06z M116.34,168.06c-0.73,0-1.32,0.59-1.32,1.32s0.59,1.32,1.32,1.32s1.32-0.59,1.32-1.32
				S117.07,168.06,116.34,168.06z"/>
		</g>
		<g>
			<path class="st0" d="M120.23,174.57c-1.48,0-2.68-1.2-2.68-2.68s1.2-2.68,2.68-2.68s2.68,1.2,2.68,2.68
				S121.71,174.57,120.23,174.57z M120.23,170.57c-0.73,0-1.32,0.59-1.32,1.32s0.59,1.32,1.32,1.32s1.32-0.59,1.32-1.32
				S120.96,170.57,120.23,170.57z"/>
		</g>
		<g>
			<path class="st0" d="M124.13,177.07c-1.48,0-2.68-1.2-2.68-2.68s1.2-2.68,2.68-2.68s2.68,1.2,2.68,2.68
				S125.61,177.07,124.13,177.07z M124.13,173.07c-0.73,0-1.32,0.59-1.32,1.32s0.59,1.32,1.32,1.32s1.32-0.59,1.32-1.32
				S124.86,173.07,124.13,173.07z"/>
		</g>
		<g>
			<path class="st0" d="M128.05,179.6c-1.49,0-2.71-1.22-2.71-2.71s1.22-2.71,2.71-2.71c1.49,0,2.71,1.21,2.71,2.71
				S129.54,179.6,128.05,179.6z M128.05,175.54c-0.74,0-1.35,0.61-1.35,1.35s0.61,1.35,1.35,1.35c0.74,0,1.35-0.61,1.35-1.35
				S128.79,175.54,128.05,175.54z"/>
		</g>
		<g>
			<path class="st0" d="M131.91,182.07c-1.48,0-2.68-1.2-2.68-2.68s1.2-2.68,2.68-2.68s2.68,1.2,2.68,2.68
				S133.39,182.07,131.91,182.07z M131.91,178.07c-0.73,0-1.32,0.59-1.32,1.32s0.59,1.32,1.32,1.32s1.32-0.59,1.32-1.32
				S132.64,178.07,131.91,178.07z"/>
		</g>
		<g>
			<path class="st0" d="M135.83,184.6c-1.49,0-2.71-1.22-2.71-2.71s1.22-2.71,2.71-2.71c1.49,0,2.71,1.21,2.71,2.71
				S137.32,184.6,135.83,184.6z M135.83,180.54c-0.74,0-1.35,0.61-1.35,1.35s0.61,1.35,1.35,1.35c0.74,0,1.35-0.61,1.35-1.35
				S136.57,180.54,135.83,180.54z"/>
		</g>
		<g>
			<path class="st0" d="M139.7,187.08c-1.48,0-2.68-1.2-2.68-2.68s1.2-2.68,2.68-2.68s2.68,1.2,2.68,2.68
				S141.18,187.08,139.7,187.08z M139.7,183.08c-0.73,0-1.32,0.59-1.32,1.32s0.59,1.32,1.32,1.32s1.32-0.59,1.32-1.32
				S140.43,183.08,139.7,183.08z"/>
		</g>
		<g>
			<path class="st0" d="M143.62,189.61c-1.49,0-2.71-1.22-2.71-2.71s1.22-2.71,2.71-2.71c1.49,0,2.71,1.21,2.71,2.71
				S145.11,189.61,143.62,189.61z M143.62,185.55c-0.74,0-1.35,0.61-1.35,1.35s0.61,1.35,1.35,1.35c0.74,0,1.35-0.61,1.35-1.35
				S144.36,185.55,143.62,185.55z"/>
		</g>
		<g>
			<path class="st0" d="M147.49,192.08c-1.48,0-2.68-1.2-2.68-2.68s1.2-2.68,2.68-2.68s2.68,1.2,2.68,2.68
				S148.97,192.08,147.49,192.08z M147.49,188.08c-0.73,0-1.32,0.59-1.32,1.32s0.59,1.32,1.32,1.32s1.32-0.59,1.32-1.32
				S148.22,188.08,147.49,188.08z"/>
		</g>
		<g>
			<path class="st0" d="M151.38,194.58c-1.48,0-2.68-1.2-2.68-2.68s1.2-2.68,2.68-2.68s2.68,1.2,2.68,2.68
				S152.86,194.58,151.38,194.58z M151.38,190.58c-0.73,0-1.32,0.59-1.32,1.32s0.59,1.32,1.32,1.32s1.32-0.59,1.32-1.32
				S152.11,190.58,151.38,190.58z"/>
		</g>
		<g>
			<path class="st0" d="M155.27,197.09c-1.48,0-2.68-1.2-2.68-2.68s1.2-2.68,2.68-2.68s2.68,1.2,2.68,2.68
				S156.75,197.09,155.27,197.09z M155.27,193.09c-0.73,0-1.32,0.59-1.32,1.32s0.59,1.32,1.32,1.32s1.32-0.59,1.32-1.32
				S156,193.09,155.27,193.09z"/>
		</g>
		<g>
			<path class="st0" d="M159.17,199.59c-1.48,0-2.68-1.2-2.68-2.68s1.2-2.68,2.68-2.68s2.68,1.2,2.68,2.68
				S160.65,199.59,159.17,199.59z M159.17,195.59c-0.73,0-1.32,0.59-1.32,1.32s0.59,1.32,1.32,1.32s1.32-0.59,1.32-1.32
				S159.9,195.59,159.17,195.59z"/>
		</g>
		<g>
			<path class="st0" d="M163.09,202.12c-1.49,0-2.71-1.21-2.71-2.71s1.22-2.71,2.71-2.71c1.49,0,2.71,1.22,2.71,2.71
				S164.58,202.12,163.09,202.12z M163.09,198.06c-0.74,0-1.35,0.61-1.35,1.35s0.61,1.35,1.35,1.35c0.74,0,1.35-0.61,1.35-1.35
				S163.83,198.06,163.09,198.06z"/>
		</g>
		<g>
			
				<rect x="180.97" y="187.93" transform="matrix(0.2755 -0.9613 0.9613 0.2755 -66.1881 323.6743)" class="st0" width="1.36" height="35.64"/>
		</g>
		<g>
			<path class="st0" d="M202.71,212.81l-1-0.92c1.21-1.33,1.53-4.98,1.58-7.18l-4.07,2.12l-0.23-0.05l-34-6.71l0.26-1.33l33.77,6.66
				l5.6-2.92l0.03,1.08C204.66,204.28,204.79,210.53,202.71,212.81z"/>
		</g>
		<g>
			
				<rect x="12.31" y="207.64" transform="matrix(0.9575 -0.2885 0.2885 0.9575 -58.8718 17.2505)" class="st0" width="33.53" height="1.36"/>
		</g>
		<g>
			
				<rect x="18.93" y="208.67" transform="matrix(0.9243 -0.3818 0.3818 0.9243 -77.2675 29.2426)" class="st0" width="32.28" height="1.36"/>
		</g>
		<g>
			
				<rect x="23.28" y="210.17" transform="matrix(0.8886 -0.4587 0.4587 0.8886 -92.3266 41.5397)" class="st0" width="32.16" height="1.36"/>
		</g>
		<g>
			
				<rect x="31.3" y="210.51" transform="matrix(0.8668 -0.4987 0.4987 0.8668 -99.2107 50.994)" class="st0" width="29.07" height="1.36"/>
		</g>
		<g>
			
				<rect x="39.23" y="210.57" transform="matrix(0.8388 -0.5444 0.5444 0.8388 -106.485 62.8107)" class="st0" width="27.23" height="1.36"/>
		</g>
		<g>
			
				<rect x="48.93" y="211.21" transform="matrix(0.7492 -0.6624 0.6624 0.7492 -125.0557 93.5363)" class="st0" width="24.11" height="1.36"/>
		</g>
		<g>
			
				<rect x="56.94" y="211.58" transform="matrix(0.6852 -0.7283 0.7283 0.6852 -133.4117 115.8168)" class="st0" width="20.7" height="1.36"/>
		</g>
		<g>
			
				<rect x="64.75" y="212.4" transform="matrix(0.5871 -0.8095 0.8095 0.5871 -141.8056 148.1683)" class="st0" width="19.18" height="1.36"/>
		</g>
		<g>
			
				<rect x="74.83" y="211.67" transform="matrix(0.4598 -0.888 0.888 0.4598 -143.9083 188.1179)" class="st0" width="15.69" height="1.36"/>
		</g>
		<g>
			
				<rect x="82.27" y="212.42" transform="matrix(0.2959 -0.9552 0.9552 0.2959 -140.4841 235.6119)" class="st0" width="14.61" height="1.36"/>
		</g>
		<g>
			
				<rect x="89.08" y="212.58" transform="matrix(0.1249 -0.9922 0.9922 0.1249 -126.9476 282.5964)" class="st0" width="15.29" height="1.36"/>
		</g>
		<g>
			<rect x="103.44" y="205.91" class="st0" width="1.36" height="15.7"/>
		</g>
		<g>
			
				<rect x="110.16" y="205.26" transform="matrix(0.9852 -0.1713 0.1713 0.9852 -34.8709 22.1382)" class="st0" width="1.36" height="15.7"/>
		</g>
		<g>
			
				<rect x="116.89" y="204.8" transform="matrix(0.9412 -0.3378 0.3378 0.9412 -64.9372 52.2258)" class="st0" width="1.36" height="15.75"/>
		</g>
		<g>
			
				<rect x="124.25" y="204.23" transform="matrix(0.8734 -0.4869 0.4869 0.8734 -88.0478 87.8284)" class="st0" width="1.36" height="18.11"/>
		</g>
		<g>
			
				<rect x="131.09" y="202.65" transform="matrix(0.792 -0.6105 0.6105 0.792 -102.3897 124.6568)" class="st0" width="1.36" height="19.94"/>
		</g>
		<g>
			
				<rect x="138.04" y="201" transform="matrix(0.7301 -0.6834 0.6834 0.7301 -107.2353 151.9536)" class="st0" width="1.36" height="21.44"/>
		</g>
		<g>
			
				<rect x="145.74" y="199.15" transform="matrix(0.6388 -0.7694 0.7694 0.6388 -109.7877 189.0296)" class="st0" width="1.36" height="24.58"/>
		</g>
		<g>
			
				<rect x="156.02" y="196.06" transform="matrix(0.5197 -0.8544 0.8544 0.5197 -105.6325 235.5734)" class="st0" width="1.36" height="31.35"/>
		</g>
		<g>
			
				<rect x="162.34" y="193.87" transform="matrix(0.4682 -0.8836 0.8836 0.4682 -99.7869 256.2839)" class="st0" width="1.36" height="34.35"/>
		</g>
		<g>
			
				<rect x="170.33" y="191.37" transform="matrix(0.4126 -0.9109 0.9109 0.4126 -91.4425 279.5207)" class="st0" width="1.36" height="38.59"/>
		</g>
		<g>
			
				<rect x="175.19" y="191.91" transform="matrix(0.403 -0.9152 0.9152 0.403 -86.6503 285.962)" class="st0" width="1.36" height="34.99"/>
		</g>
		<g>
			
				<rect x="178.79" y="190.1" transform="matrix(0.3527 -0.9357 0.9357 0.3527 -78.0958 302.3383)" class="st0" width="1.36" height="35.02"/>
		</g>
		<g>
			<path class="st0" d="M98.77,206.14c-11.1,0-36.77-1.2-48.44-1.74c-2.27-0.11-4.07-0.19-5.22-0.24l-2.15-0.09l58.76-37.53h2.85
				l57.46,36.38l-2.12,0.12c-0.51,0.03-50.94,2.77-57.87,3.06C101.17,206.13,100.07,206.14,98.77,206.14z M47.3,202.9
				c0.89,0.04,1.93,0.09,3.08,0.14c13.02,0.61,43.51,2.04,51.58,1.69c6.1-0.25,46.02-2.42,55.73-2.94l-53.54-33.9h-2.05L47.3,202.9z
				"/>
		</g>
		<g>
			<path class="st0" d="M104.47,196.51h-3.75v-0.67c-0.93-0.2-1.54-1.11-1.38-2.05c0.13-0.73,0.69-1.28,1.38-1.43v-7.29h-1.54
				c0,0.07-0.01,0.13-0.02,0.2c-0.08,0.47-0.34,0.88-0.73,1.15c-0.39,0.27-0.86,0.38-1.33,0.29c-0.47-0.08-0.88-0.34-1.15-0.73
				c-0.19-0.27-0.3-0.58-0.32-0.9h-0.31v-3.22h0.19c0-0.07,0.01-0.13,0.02-0.2c0.17-0.96,1.1-1.61,2.06-1.44
				c0.82,0.15,1.41,0.84,1.46,1.64h1.56v-1.17c-0.93-0.2-1.54-1.11-1.38-2.05c0.08-0.47,0.34-0.88,0.73-1.15
				c0.2-0.14,0.41-0.23,0.64-0.28v-0.77h3.66v0.75c0.93,0.2,1.54,1.11,1.38,2.05c-0.13,0.73-0.69,1.28-1.38,1.43v1.24h1.41
				c0-0.08,0.01-0.17,0.03-0.25c0.09-0.47,0.36-0.87,0.76-1.13c0.4-0.26,0.87-0.36,1.34-0.27c0.47,0.09,0.87,0.36,1.13,0.76
				c0.18,0.27,0.28,0.58,0.3,0.89h0.43v3.17h-0.22c0,0.08-0.01,0.17-0.03,0.25c-0.09,0.47-0.36,0.87-0.76,1.13
				c-0.4,0.26-0.87,0.36-1.34,0.27c-0.47-0.09-0.87-0.36-1.13-0.76c-0.18-0.27-0.28-0.58-0.3-0.89h-1.43v7.27
				c0.93,0.2,1.54,1.11,1.38,2.05c-0.13,0.73-0.69,1.28-1.38,1.43V196.51z M102.08,195.15h1.03v-0.67l0.91,0.01
				c0.23,0.04,0.45-0.11,0.49-0.34c0.04-0.23-0.11-0.45-0.34-0.49c-0.06-0.01-0.13-0.01-0.19,0.01l-0.87,0.25v-10.21h4.26
				l-0.09,0.76c-0.01,0.07-0.01,0.14,0,0.2l0.01,0.11l-0.02,0.11c-0.02,0.11,0,0.22,0.06,0.31c0.06,0.09,0.16,0.16,0.27,0.18
				c0.11,0.02,0.22,0,0.32-0.06s0.16-0.16,0.18-0.27c0.01-0.07,0.01-0.14-0.01-0.21l-0.04-0.14l0.02-0.14l-0.09-0.76l0.35-0.05v-0.5
				h-0.54l0.09-0.76c0.01-0.07,0.01-0.14,0-0.2l-0.01-0.11l0.02-0.11c0.02-0.11,0-0.22-0.06-0.31c-0.06-0.09-0.16-0.16-0.27-0.18
				c-0.11-0.02-0.22,0-0.32,0.06c-0.09,0.06-0.16,0.16-0.18,0.27c-0.01,0.07-0.01,0.14,0.01,0.21l0.04,0.14l-0.02,0.14
				c0,0.03,0,0.07,0,0.11l0.08,0.76h-4.26v-3.94l0.91,0.01c0.23,0.04,0.45-0.11,0.49-0.34s-0.11-0.45-0.34-0.49
				c-0.06-0.01-0.13-0.01-0.19,0.01l-0.87,0.25v-0.98h-0.94v0.75l-0.91-0.01c-0.11-0.02-0.22,0.01-0.31,0.07
				c-0.09,0.06-0.15,0.16-0.17,0.27c-0.04,0.23,0.11,0.45,0.34,0.49c0.06,0.01,0.13,0.01,0.19-0.01l0.87-0.25v4.11H97.6l0.09-0.76
				c0.01-0.07,0.01-0.14,0-0.2l-0.01-0.1l0.02-0.1c0.04-0.23-0.11-0.45-0.34-0.49c-0.23-0.03-0.45,0.11-0.49,0.34
				c-0.01,0.06-0.01,0.13,0.01,0.19l0.03,0.11l-0.01,0.12c0,0.06,0,0.12,0,0.18l0.04,0.72h-0.27v0.5h0.38L97,184.45
				c-0.01,0.08-0.01,0.17,0,0.26l0.01,0.09l-0.02,0.09c-0.02,0.11,0,0.22,0.07,0.31s0.16,0.15,0.27,0.17c0.11,0.02,0.22,0,0.31-0.07
				c0.09-0.06,0.15-0.16,0.17-0.27c0.01-0.06,0.01-0.13-0.01-0.19l-0.04-0.13l0.02-0.14l-0.09-0.76l0.76-0.1h3.62v9.99l-0.91-0.01
				c-0.23-0.05-0.45,0.11-0.49,0.34s0.11,0.45,0.34,0.49c0.06,0.01,0.13,0.01,0.19-0.01l0.87-0.25V195.15z"/>
		</g>
		<g>
			<path class="st0" d="M147.88,261.21H56.63v-34.34h91.25V261.21z M57.99,259.85h88.53v-31.62H57.99V259.85z"/>
		</g>
		<g>
			<path class="st0" d="M5.01,213.07c-1.14,0-2.28-1.26-2.75-3.12c-0.33-1.3-0.24-2.56,0.24-3.37c0.26-0.43,0.62-0.71,1.05-0.82
				c0.43-0.11,0.89-0.02,1.34,0.25c0.81,0.49,1.49,1.58,1.79,2.83c0.33,1.31,0.23,2.57-0.25,3.37c-0.26,0.43-0.62,0.71-1.04,0.81
				C5.25,213.05,5.13,213.07,5.01,213.07z M3.9,207.08c-0.01,0-0.03,0-0.04,0c-0.09,0.02-0.17,0.13-0.21,0.2
				c-0.24,0.4-0.36,1.28-0.09,2.33c0.37,1.43,1.16,2.18,1.48,2.09c0.09-0.02,0.16-0.13,0.2-0.19c0.24-0.4,0.36-1.28,0.09-2.34
				l0-0.01c-0.24-1.02-0.76-1.73-1.17-1.99C4.06,207.11,3.97,207.08,3.9,207.08z"/>
		</g>
		<g>
			<path class="st0" d="M8.52,215.14c-0.55,0-1.12-0.3-1.61-0.86c-0.51-0.58-0.91-1.38-1.12-2.27v0c-0.49-2.02,0.08-3.85,1.31-4.17
				c0.41-0.1,0.84-0.03,1.26,0.22c0.81,0.48,1.51,1.58,1.83,2.87c0.31,1.26,0.21,2.54-0.29,3.35c-0.26,0.43-0.62,0.71-1.03,0.81
				C8.76,215.13,8.64,215.14,8.52,215.14z M7.11,211.69c0.16,0.67,0.46,1.29,0.82,1.7c0.29,0.33,0.52,0.41,0.62,0.39
				c0.04-0.01,0.11-0.07,0.19-0.19c0.25-0.41,0.39-1.29,0.13-2.32c-0.27-1.06-0.81-1.8-1.21-2.03c-0.11-0.07-0.19-0.08-0.22-0.07
				C7.18,209.22,6.75,210.19,7.11,211.69L7.11,211.69z"/>
		</g>
		<g>
			<path class="st0" d="M12.04,217.2c-0.34,0-0.69-0.11-1.02-0.33c-0.79-0.51-1.44-1.6-1.69-2.84c-0.3-1.29-0.19-2.53,0.3-3.33
				c0.27-0.43,0.63-0.71,1.06-0.81c1.25-0.29,2.56,1.05,3.05,3.12c0.3,1.28,0.18,2.57-0.31,3.36c-0.26,0.42-0.63,0.7-1.05,0.79
				C12.27,217.19,12.16,217.2,12.04,217.2z M11.05,211.22c-0.01,0-0.03,0-0.04,0c-0.09,0.02-0.17,0.14-0.21,0.2
				c-0.24,0.4-0.38,1.26-0.13,2.31l0,0.02c0.2,1,0.7,1.72,1.1,1.98c0.13,0.08,0.24,0.12,0.32,0.1c0.06-0.01,0.13-0.08,0.2-0.19
				c0.25-0.4,0.39-1.27,0.14-2.32C12.1,211.98,11.37,211.22,11.05,211.22z"/>
		</g>
		<g>
			<path class="st0" d="M15.31,219.91c-1.21,0-2.29-1.41-2.56-3.38l0,0c-0.18-1.33,0.04-2.57,0.61-3.31c0.3-0.4,0.69-0.63,1.13-0.69
				c1.29-0.16,2.44,1.25,2.76,3.36c0.19,1.29-0.03,2.56-0.59,3.3c-0.31,0.41-0.7,0.65-1.14,0.71
				C15.44,219.9,15.37,219.91,15.31,219.91z M14.09,216.34c0.2,1.44,0.91,2.25,1.24,2.21c0.09-0.01,0.18-0.12,0.23-0.18
				c0.28-0.37,0.49-1.22,0.33-2.28c-0.23-1.51-0.95-2.26-1.24-2.22c-0.09,0.01-0.17,0.11-0.22,0.17
				C14.16,214.4,13.94,215.25,14.09,216.34L14.09,216.34z"/>
		</g>
		<g>
			<path class="st0" d="M18.94,221.35c-1.14,0-2.25-1.3-2.66-3.2l0,0c-0.44-2.06,0.17-3.83,1.43-4.11c0.42-0.1,0.87,0,1.29,0.26
				c0.78,0.5,1.42,1.59,1.7,2.91c0.19,0.9,0.19,1.8-0.01,2.52c-0.24,0.88-0.75,1.44-1.42,1.58
				C19.15,221.34,19.04,221.35,18.94,221.35z M17.6,217.86c0.3,1.41,1.06,2.18,1.36,2.13c0.12-0.02,0.28-0.22,0.39-0.62
				c0.14-0.51,0.14-1.2,0-1.88c-0.23-1.07-0.72-1.8-1.1-2.05c-0.06-0.04-0.17-0.1-0.25-0.08C17.69,215.43,17.3,216.43,17.6,217.86z"
				/>
		</g>
		<g>
			<path class="st0" d="M22.41,223.36c-0.34,0-0.68-0.11-1-0.33c-0.77-0.51-1.38-1.6-1.64-2.9c-0.27-1.3-0.12-2.54,0.39-3.31
				c0.28-0.42,0.65-0.68,1.08-0.77c1.27-0.25,2.53,1.12,2.94,3.18c0.18,0.9,0.17,1.8-0.04,2.52c-0.25,0.88-0.76,1.44-1.43,1.57
				C22.61,223.35,22.51,223.36,22.41,223.36z M21.55,217.38c-0.01,0-0.03,0-0.04,0c-0.09,0.02-0.17,0.12-0.21,0.19
				c-0.25,0.38-0.41,1.24-0.19,2.29l0,0.01c0.22,1.13,0.71,1.8,1.06,2.03c0.06,0.04,0.19,0.11,0.28,0.09
				c0.11-0.02,0.28-0.22,0.39-0.61c0.15-0.51,0.15-1.2,0.01-1.88C22.58,218.14,21.88,217.38,21.55,217.38z"/>
		</g>
		<g>
			<path class="st0" d="M26.04,224.87c-1.17,0-2.24-1.3-2.61-3.24c-0.25-1.3-0.09-2.53,0.43-3.3c0.29-0.42,0.67-0.68,1.11-0.76
				c1.29-0.24,2.51,1.12,2.9,3.21c0.24,1.32,0.08,2.56-0.44,3.31c-0.28,0.41-0.67,0.67-1.11,0.75
				C26.24,224.86,26.14,224.87,26.04,224.87z M25.26,218.89c-0.01,0-0.03,0-0.04,0c-0.09,0.02-0.18,0.12-0.23,0.19
				c-0.26,0.38-0.43,1.23-0.22,2.28l0,0c0.26,1.38,0.96,2.19,1.32,2.13c0.08-0.01,0.15-0.08,0.23-0.19
				c0.24-0.34,0.43-1.14,0.22-2.29C26.29,219.68,25.64,218.89,25.26,218.89z"/>
		</g>
		<g>
			<path class="st0" d="M30.09,224.97c-0.34,0-0.68-0.11-1-0.33c-0.76-0.52-1.36-1.62-1.6-2.93s-0.07-2.55,0.46-3.3
				c0.28-0.41,0.66-0.66,1.09-0.74c1.29-0.23,2.49,1.14,2.87,3.24c0.37,2.1-0.28,3.8-1.54,4.04
				C30.27,224.97,30.18,224.97,30.09,224.97z M29.31,219.01c-0.01,0-0.02,0-0.03,0c-0.09,0.02-0.17,0.12-0.21,0.17
				c-0.26,0.37-0.43,1.22-0.24,2.28l0,0c0.19,1.06,0.66,1.8,1.03,2.05c0.06,0.04,0.17,0.1,0.25,0.09c0.29-0.06,0.72-0.97,0.46-2.46
				C30.32,219.72,29.63,219.01,29.31,219.01z"/>
		</g>
		<g>
			<path class="st0" d="M34.14,225.07c-1.15,0-2.27-1.37-2.6-3.27l0,0c-0.35-2.07,0.31-3.8,1.55-4.02c0.42-0.08,0.85,0.03,1.25,0.31
				c0.76,0.53,1.37,1.66,1.6,2.95c0.23,1.29,0.04,2.55-0.49,3.3c-0.28,0.4-0.65,0.65-1.07,0.72
				C34.3,225.06,34.22,225.07,34.14,225.07z M32.88,221.56c0.25,1.43,1.02,2.18,1.28,2.15c0.05-0.01,0.12-0.07,0.18-0.16
				c0.26-0.38,0.45-1.22,0.26-2.28c-0.19-1.06-0.66-1.8-1.04-2.07c-0.11-0.08-0.2-0.1-0.23-0.09
				C33.09,219.15,32.63,220.07,32.88,221.56z"/>
		</g>
		<g>
			<path class="st0" d="M38.14,225.19c-0.59,0-1.16-0.34-1.64-0.98c-0.45-0.6-0.77-1.43-0.92-2.33c-0.15-0.9-0.1-1.79,0.14-2.5
				c0.28-0.86,0.81-1.4,1.49-1.5c1.27-0.21,2.46,1.21,2.8,3.28c0.15,0.9,0.1,1.79-0.14,2.5c-0.28,0.86-0.81,1.4-1.49,1.5
				C38.31,225.18,38.23,225.19,38.14,225.19z M37.45,219.22c-0.01,0-0.02,0-0.03,0c-0.11,0.02-0.29,0.21-0.41,0.59
				c-0.16,0.5-0.2,1.17-0.08,1.85c0.11,0.68,0.35,1.31,0.67,1.73c0.24,0.32,0.46,0.45,0.58,0.43c0.11-0.02,0.29-0.21,0.41-0.59
				c0.16-0.5,0.2-1.17,0.08-1.85C38.45,220.02,37.77,219.22,37.45,219.22z"/>
		</g>
		<g>
			<path class="st0" d="M42.2,225.29c-0.59,0-1.17-0.35-1.64-1c-0.44-0.61-0.76-1.43-0.9-2.33l0,0c-0.2-1.31,0.01-2.54,0.56-3.28
				c0.29-0.4,0.68-0.64,1.1-0.7c1.25-0.19,2.44,1.24,2.77,3.3c0.21,1.3,0,2.52-0.55,3.27c-0.3,0.4-0.68,0.65-1.11,0.72
				C42.35,225.28,42.28,225.29,42.2,225.29z M41,221.76c0.1,0.68,0.34,1.31,0.65,1.73c0.24,0.32,0.47,0.45,0.57,0.44
				c0.06-0.01,0.14-0.07,0.22-0.18c0.27-0.37,0.47-1.21,0.3-2.25c-0.22-1.42-0.95-2.2-1.23-2.16c-0.08,0.01-0.16,0.11-0.2,0.16
				C41.04,219.86,40.84,220.7,41,221.76L41,221.76z"/>
		</g>
		<g>
			<path class="st0" d="M46.27,225.44c-1.3,0-2.3-1.64-2.55-3.34c-0.19-1.3,0.03-2.52,0.58-3.26c0.3-0.4,0.68-0.64,1.11-0.7
				c1.27-0.18,2.42,1.22,2.77,3.31c0.21,1.27,0,2.49-0.55,3.24c-0.3,0.42-0.7,0.67-1.14,0.73
				C46.41,225.43,46.34,225.44,46.27,225.44z M45.63,219.48c-0.01,0-0.02,0-0.02,0c-0.06,0.01-0.14,0.07-0.22,0.17
				c-0.27,0.36-0.48,1.2-0.33,2.25v0c0.21,1.43,0.95,2.17,1.23,2.17c0.07-0.01,0.15-0.08,0.24-0.19c0.27-0.37,0.48-1.2,0.31-2.22
				C46.61,220.27,45.94,219.48,45.63,219.48z"/>
		</g>
		<g>
			<path class="st0" d="M50.27,225.46c-1.19,0-2.25-1.4-2.5-3.37v0c-0.27-2.08,0.48-3.77,1.74-3.93c1.25-0.15,2.42,1.28,2.7,3.35
				c0.17,1.3-0.06,2.52-0.62,3.25c-0.3,0.39-0.69,0.63-1.12,0.69C50.4,225.45,50.33,225.46,50.27,225.46z M49.11,221.91
				c0.19,1.42,0.87,2.22,1.18,2.18c0.08-0.01,0.17-0.11,0.21-0.17c0.28-0.36,0.49-1.19,0.35-2.24c-0.19-1.4-0.89-2.24-1.18-2.19
				C49.38,219.54,48.94,220.51,49.11,221.91z"/>
		</g>
		<g>
			<path class="st0" d="M54.29,225.61c-0.36,0-0.72-0.13-1.05-0.39c-0.73-0.56-1.26-1.69-1.42-3.01c-0.25-2.04,0.48-3.68,1.74-3.9
				c0.43-0.07,0.85,0.04,1.24,0.33c0.73,0.54,1.29,1.71,1.45,3.04c0.25,2.07-0.51,3.75-1.77,3.92
				C54.42,225.6,54.36,225.61,54.29,225.61z M53.81,219.65c-0.01,0-0.01,0-0.02,0c-0.31,0.05-0.8,0.93-0.62,2.4
				c0.13,1.07,0.55,1.82,0.9,2.1c0.04,0.03,0.13,0.11,0.23,0.1c0.31-0.04,0.77-0.98,0.59-2.4c-0.13-1.09-0.57-1.86-0.91-2.11
				C53.96,219.7,53.88,219.65,53.81,219.65z"/>
		</g>
		<g>
			<path class="st0" d="M58.34,225.7c-1.2,0-2.24-1.42-2.46-3.41l0,0c-0.23-2.04,0.52-3.68,1.78-3.88c0.42-0.07,0.85,0.05,1.24,0.34
				c0.73,0.55,1.27,1.72,1.42,3.06c0.14,1.31-0.11,2.52-0.69,3.24c-0.31,0.38-0.7,0.61-1.12,0.65
				C58.45,225.7,58.39,225.7,58.34,225.7z M57.9,219.75c-0.01,0-0.01,0-0.02,0c-0.31,0.05-0.81,0.92-0.65,2.39l0,0
				c0.16,1.42,0.82,2.18,1.12,2.2c0.08-0.01,0.17-0.1,0.21-0.15c0.28-0.35,0.51-1.18,0.4-2.24c-0.12-1.08-0.54-1.86-0.89-2.12
				C58.04,219.81,57.96,219.75,57.9,219.75z"/>
		</g>
		<g>
			<path class="st0" d="M62.34,225.82c-0.36,0-0.71-0.13-1.03-0.38c-0.73-0.57-1.24-1.71-1.36-3.05c-0.21-2.05,0.55-3.67,1.81-3.87
				c0.42-0.07,0.85,0.06,1.23,0.35c0.72,0.55,1.25,1.73,1.39,3.06c0.21,2.05-0.55,3.68-1.81,3.87
				C62.49,225.81,62.41,225.82,62.34,225.82z M61.98,219.86c0,0-0.01,0-0.01,0c-0.31,0.05-0.82,0.91-0.67,2.39l0,0
				c0.1,1.08,0.5,1.84,0.85,2.11c0.05,0.04,0.14,0.1,0.21,0.09c0.31-0.05,0.82-0.93,0.67-2.39c-0.11-1.09-0.53-1.86-0.87-2.12
				C62.12,219.92,62.04,219.86,61.98,219.86z"/>
		</g>
		<g>
			<path class="st0" d="M66.39,225.93c-0.36,0-0.72-0.13-1.05-0.4c-0.71-0.57-1.23-1.74-1.35-3.06l0,0
				c-0.19-2.06,0.59-3.68,1.86-3.85c0.42-0.05,0.85,0.08,1.23,0.38c0.71,0.57,1.23,1.74,1.35,3.06c0.19,2.03-0.61,3.68-1.86,3.85
				C66.51,225.92,66.45,225.93,66.39,225.93z M65.35,222.35c0.1,1.07,0.51,1.85,0.85,2.12c0.04,0.03,0.14,0.11,0.21,0.09
				c0.3-0.04,0.81-0.91,0.68-2.37c-0.1-1.07-0.51-1.85-0.85-2.12c-0.04-0.03-0.12-0.12-0.21-0.09
				C65.73,220.01,65.21,220.89,65.35,222.35L65.35,222.35z"/>
		</g>
		<g>
			<path class="st0" d="M70.42,226.02c-0.38,0-0.74-0.14-1.07-0.42c-0.71-0.59-1.19-1.73-1.3-3.05c-0.16-2.07,0.63-3.68,1.9-3.83
				c0.43-0.05,0.85,0.09,1.23,0.4c0.7,0.58,1.21,1.76,1.31,3.08c0.16,2.05-0.66,3.69-1.91,3.82
				C70.53,226.02,70.48,226.02,70.42,226.02z M70.12,220.07c0,0-0.01,0-0.01,0c-0.3,0.04-0.82,0.9-0.7,2.37
				c0.08,1.07,0.47,1.83,0.81,2.11c0.04,0.03,0.13,0.1,0.22,0.1c0.31-0.03,0.81-0.95,0.69-2.36c-0.08-1.07-0.48-1.86-0.82-2.13
				C70.28,220.14,70.19,220.07,70.12,220.07z"/>
		</g>
		<g>
			<path class="st0" d="M74.46,226.13c-0.38,0-0.76-0.15-1.09-0.43c-0.69-0.59-1.18-1.76-1.26-3.07c-0.15-2.05,0.69-3.69,1.94-3.8
				c0.43-0.04,0.85,0.1,1.22,0.42c0.7,0.59,1.18,1.74,1.27,3.07c0.15,2.05-0.69,3.69-1.94,3.81
				C74.56,226.13,74.51,226.13,74.46,226.13z M74.19,220.19C74.19,220.19,74.19,220.19,74.19,220.19c-0.32,0.03-0.83,0.95-0.73,2.35
				l0,0c0.07,1.06,0.45,1.83,0.79,2.12c0.08,0.07,0.16,0.11,0.22,0.11c0.31-0.03,0.82-0.95,0.72-2.35
				c-0.08-1.07-0.46-1.84-0.79-2.13C74.36,220.26,74.27,220.19,74.19,220.19z"/>
		</g>
		<g>
			<path class="st0" d="M78.5,226.24c-1.19,0-2.14-1.41-2.33-3.5l0-0.02c-0.13-2.07,0.73-3.69,1.99-3.78
				c0.42-0.03,0.85,0.12,1.22,0.45c0.69,0.6,1.15,1.75,1.23,3.06c0.12,2.06-0.73,3.69-1.98,3.79
				C78.58,226.24,78.54,226.24,78.5,226.24z M77.53,222.63c0.14,1.53,0.74,2.26,0.99,2.25c0.31-0.03,0.82-0.94,0.74-2.35
				c-0.06-1.06-0.43-1.83-0.77-2.12c-0.05-0.04-0.14-0.13-0.23-0.11C77.95,220.32,77.44,221.22,77.53,222.63z"/>
		</g>
		<g>
			<path class="st0" d="M82.61,226.29c-1.26,0-2.27-1.46-2.39-3.48l0-0.01c-0.1-2.07,0.77-3.69,2.03-3.76
				c1.24-0.09,2.3,1.44,2.43,3.53c0.08,1.29-0.26,2.5-0.89,3.17C83.45,226.1,83.04,226.29,82.61,226.29z M81.58,222.73
				c0.09,1.44,0.72,2.2,1.03,2.2c0.05,0,0.12-0.05,0.19-0.12c0.3-0.31,0.58-1.12,0.52-2.16c-0.09-1.43-0.68-2.27-0.99-2.25
				C82.03,220.42,81.51,221.32,81.58,222.73z"/>
		</g>
		<g>
			<path class="st0" d="M86.58,226.42c-1.29,0-2.26-1.52-2.26-3.54c-0.05-1.32,0.29-2.5,0.92-3.16c0.34-0.35,0.75-0.54,1.18-0.54
				c1.29,0,2.26,1.53,2.26,3.56C88.68,224.91,87.82,226.42,86.58,226.42z M86.42,220.54c-0.07,0-0.16,0.08-0.2,0.12
				c-0.3,0.32-0.59,1.11-0.54,2.17l0,0.03c0,1.42,0.59,2.2,0.9,2.2c0.22,0,0.74-0.79,0.74-2.32
				C87.32,221.32,86.73,220.54,86.42,220.54z"/>
		</g>
		<g>
			<path class="st0" d="M90.63,226.6c-1.23,0-2.22-1.53-2.31-3.57l0-0.03c0-2.17,0.88-3.68,2.13-3.68c1.25,0,2.25,1.54,2.31,3.58
				c0.04,1.33-0.32,2.51-0.95,3.17C91.47,226.42,91.06,226.6,90.63,226.6z M89.68,222.99c0.06,1.4,0.65,2.25,0.95,2.25
				c0.07,0,0.16-0.09,0.2-0.12c0.31-0.32,0.6-1.11,0.57-2.18c-0.04-1.4-0.64-2.26-0.95-2.26C90.22,220.68,89.68,221.46,89.68,222.99
				z"/>
		</g>
		<g>
			<path class="st0" d="M94.68,226.62c-1.28,0-2.24-1.52-2.28-3.61l0-0.01c0-2.13,0.91-3.68,2.16-3.68c1.26,0,2.24,1.55,2.28,3.61
				c0.02,1.33-0.34,2.51-0.99,3.16C95.51,226.44,95.11,226.62,94.68,226.62z M93.76,222.99c0.03,1.47,0.62,2.27,0.92,2.27
				c0.07,0,0.17-0.09,0.2-0.12c0.31-0.32,0.62-1.12,0.6-2.18c-0.03-1.41-0.61-2.27-0.92-2.27
				C94.33,220.68,93.76,221.49,93.76,222.99z"/>
		</g>
		<g>
			<path class="st0" d="M98.7,226.77c-1.28,0-2.22-1.52-2.25-3.62v-0.01c0-2.13,0.92-3.68,2.19-3.68c1.26,0,2.23,1.56,2.26,3.62
				c0.02,1.32-0.36,2.5-1.01,3.15C99.54,226.58,99.13,226.77,98.7,226.77z M97.81,223.14c0.02,1.41,0.59,2.27,0.89,2.27
				c0.08,0,0.17-0.08,0.22-0.13c0.32-0.32,0.63-1.12,0.62-2.18c-0.02-1.41-0.59-2.28-0.9-2.28
				C98.4,220.82,97.81,221.63,97.81,223.14z"/>
		</g>
		<g>
			<path class="st0" d="M102.73,226.91c-1.27,0-2.22-1.58-2.22-3.68s0.95-3.68,2.22-3.68s2.22,1.58,2.22,3.68
				S104,226.91,102.73,226.91z M102.73,220.91c-0.25,0-0.86,0.81-0.86,2.32s0.61,2.32,0.86,2.32c0.3,0,0.86-0.9,0.86-2.32
				S103.03,220.91,102.73,220.91z"/>
		</g>
		<g>
			<path class="st0" d="M106.76,226.98c-0.42,0-0.82-0.18-1.16-0.53c-0.65-0.66-1.04-1.88-1.03-3.21c0-1.31,0.42-2.52,1.08-3.15
				c0.36-0.34,0.78-0.5,1.21-0.48c1.27,0.07,2.18,1.62,2.15,3.69C108.98,225.4,108.02,226.98,106.76,226.98z M106.78,220.98
				c-0.05,0-0.12,0.04-0.19,0.11c-0.32,0.3-0.66,1.1-0.66,2.16v0.01c-0.01,1.08,0.32,1.92,0.63,2.24c0.08,0.08,0.15,0.12,0.2,0.12
				c0.3,0,0.87-0.91,0.89-2.33C107.67,221.83,107.08,221,106.78,220.98C106.78,220.98,106.78,220.98,106.78,220.98z"/>
		</g>
		<g>
			<path class="st0" d="M110.85,226.83c-0.03,0-0.07,0-0.1,0c-1.25-0.09-2.16-1.67-2.11-3.69c0-1.3,0.42-2.5,1.1-3.14
				c0.37-0.34,0.79-0.5,1.23-0.47c1.26,0.09,2.15,1.64,2.11,3.69c-0.02,1.33-0.46,2.54-1.13,3.15
				C111.61,226.67,111.24,226.83,110.85,226.83z M110.86,220.89c-0.05,0-0.12,0.04-0.2,0.11c-0.32,0.3-0.67,1.1-0.67,2.15l0,0.02
				c-0.04,1.45,0.54,2.28,0.85,2.3c0.06,0.03,0.11-0.03,0.19-0.1c0.32-0.29,0.67-1.09,0.69-2.17
				C111.74,221.74,111.16,220.91,110.86,220.89C110.86,220.89,110.86,220.89,110.86,220.89z"/>
		</g>
		<g>
			<path class="st0" d="M114.85,226.73c-0.02,0-0.04,0-0.05,0c-1.27-0.04-2.17-1.63-2.12-3.69c0-1.3,0.43-2.49,1.13-3.12
				c0.38-0.34,0.81-0.51,1.26-0.46c1.26,0.12,2.13,1.67,2.07,3.7c-0.04,1.29-0.48,2.47-1.14,3.09
				C115.65,226.56,115.26,226.73,114.85,226.73z M114.93,220.81c-0.05,0-0.13,0.04-0.21,0.11c-0.33,0.3-0.68,1.09-0.68,2.13l0,0.02
				c-0.04,1.41,0.5,2.29,0.8,2.3c0.07,0.01,0.14-0.04,0.22-0.12c0.33-0.31,0.67-1.09,0.71-2.14
				C115.82,221.65,115.25,220.84,114.93,220.81C114.93,220.81,114.93,220.81,114.93,220.81z"/>
		</g>
		<g>
			<path class="st0" d="M118.87,226.68c-0.02,0-0.04,0-0.05,0c-0.43-0.02-0.83-0.21-1.16-0.57c-0.61-0.66-0.96-1.86-0.92-3.14l0,0
				c0.09-2.08,1.1-3.64,2.36-3.56c0.43,0.02,0.83,0.21,1.17,0.57c0.61,0.66,0.97,1.86,0.92,3.13
				C121.11,225.13,120.1,226.68,118.87,226.68z M118.1,223.03c-0.04,1.04,0.25,1.83,0.55,2.16c0.08,0.08,0.16,0.13,0.21,0.14
				c0,0,0,0,0,0c0.27,0,0.91-0.84,0.96-2.26c0.04-1.03-0.25-1.83-0.56-2.16c-0.08-0.09-0.16-0.14-0.22-0.14c0,0,0,0,0,0
				C118.75,220.77,118.16,221.64,118.1,223.03z"/>
		</g>
		<g>
			<path class="st0" d="M122.92,226.53c-0.03,0-0.06,0-0.09,0c-1.28-0.08-2.13-1.64-2.03-3.71l0,0c0.1-2.08,1.11-3.57,2.4-3.54
				c0.43,0.02,0.84,0.23,1.17,0.6c0.6,0.67,0.94,1.87,0.87,3.12c-0.07,1.3-0.54,2.47-1.22,3.08
				C123.69,226.38,123.31,226.53,122.92,226.53z M122.16,222.88c-0.07,1.45,0.46,2.27,0.75,2.29c0.05,0,0.13-0.04,0.21-0.11
				c0.33-0.29,0.7-1.08,0.76-2.14c0.06-1.01-0.22-1.8-0.52-2.13c-0.08-0.09-0.16-0.15-0.23-0.15c0,0,0,0-0.01,0
				C122.83,220.64,122.23,221.5,122.16,222.88L122.16,222.88z"/>
		</g>
		<g>
			<path class="st0" d="M126.95,226.5c-0.03,0-0.06,0-0.09,0c-0.43-0.03-0.83-0.23-1.15-0.6c-0.61-0.69-0.92-1.88-0.84-3.19
				c0.08-1.31,0.54-2.46,1.23-3.06c0.37-0.32,0.8-0.47,1.22-0.45c1.26,0.09,2.12,1.71,1.99,3.78
				C129.17,225.01,128.17,226.5,126.95,226.5z M127.2,220.56c-0.08,0-0.17,0.07-0.22,0.11c-0.33,0.29-0.7,1.06-0.77,2.12
				c-0.06,1.06,0.21,1.87,0.5,2.21c0.08,0.09,0.16,0.14,0.22,0.15c0.33,0.03,0.92-0.84,1-2.24
				C128.03,221.48,127.52,220.58,127.2,220.56C127.21,220.56,127.21,220.56,127.2,220.56z"/>
		</g>
		<g>
			<path class="st0" d="M130.99,226.41c-0.04,0-0.07,0-0.11,0c-0.43-0.03-0.83-0.24-1.15-0.62c-0.6-0.69-0.9-1.89-0.81-3.19
				c0.09-1.3,0.55-2.44,1.25-3.04c0.37-0.32,0.8-0.47,1.23-0.45c0.43,0.03,0.83,0.24,1.15,0.62c0.6,0.69,0.9,1.89,0.81,3.19
				C133.21,224.94,132.2,226.41,130.99,226.41z M131.29,220.47c-0.06,0-0.15,0.04-0.23,0.12c-0.34,0.29-0.71,1.06-0.78,2.11l0,0
				c-0.08,1.05,0.19,1.86,0.48,2.2c0.08,0.09,0.16,0.15,0.22,0.15c0,0,0.01,0,0.01,0c0.3,0,0.91-0.85,1.01-2.23
				c0.08-1.05-0.19-1.86-0.48-2.2C131.44,220.53,131.36,220.47,131.29,220.47C131.3,220.47,131.3,220.47,131.29,220.47z"/>
		</g>
		<g>
			<path class="st0" d="M135.03,226.33c-0.04,0-0.08,0-0.12,0c-1.26-0.1-2.1-1.75-1.93-3.83v0c0.18-2.08,1.26-3.54,2.52-3.46
				c1.26,0.1,2.09,1.75,1.92,3.82c-0.1,1.31-0.58,2.45-1.28,3.04C135.79,226.18,135.42,226.33,135.03,226.33z M134.33,222.61
				c-0.12,1.51,0.43,2.34,0.69,2.37c0.06,0,0.15-0.04,0.24-0.11c0.34-0.29,0.73-1.06,0.81-2.11c0.12-1.51-0.42-2.34-0.68-2.36
				C135.1,220.39,134.45,221.21,134.33,222.61z"/>
		</g>
		<g>
			<path class="st0" d="M139.05,226.25c-0.04,0-0.08,0-0.12,0c-0.42-0.04-0.81-0.25-1.12-0.63c-0.59-0.7-0.88-1.94-0.77-3.23l0,0
				c0.19-2.04,1.31-3.54,2.55-3.45c1.24,0.11,2.07,1.8,1.9,3.86C141.31,224.77,140.26,226.25,139.05,226.25z M138.39,222.51
				c-0.1,1.05,0.16,1.88,0.45,2.23c0.09,0.1,0.16,0.14,0.2,0.15c0,0,0.01,0,0.01,0c0.28,0,0.95-0.81,1.07-2.21
				c0.13-1.49-0.45-2.37-0.66-2.38C139.25,220.3,138.52,221.01,138.39,222.51L138.39,222.51z"/>
		</g>
		<g>
			<path class="st0" d="M143.1,226.16c-0.05,0-0.11,0-0.16-0.01c-1.26-0.13-2.06-1.8-1.84-3.88v0c0.14-1.31,0.64-2.44,1.36-3.01
				c0.38-0.31,0.81-0.45,1.23-0.4c1.27,0.13,2.06,1.8,1.84,3.88c-0.14,1.31-0.64,2.44-1.36,3.02
				C143.84,226.02,143.47,226.16,143.1,226.16z M142.45,222.42c-0.15,1.49,0.38,2.36,0.64,2.38c0.05,0,0.14-0.03,0.23-0.11
				c0.35-0.28,0.75-1.04,0.86-2.1c0.15-1.49-0.38-2.36-0.64-2.38c-0.06-0.01-0.14,0.03-0.23,0.11
				C142.96,220.6,142.56,221.36,142.45,222.42L142.45,222.42z"/>
		</g>
		<g>
			<path class="st0" d="M147.14,226.08c-0.06,0-0.11,0-0.17-0.01c-0.43-0.04-0.83-0.27-1.13-0.65c-0.57-0.71-0.83-1.92-0.68-3.24
				c0.14-1.31,0.65-2.44,1.36-3c0.39-0.31,0.82-0.45,1.26-0.4c1.28,0.15,2.04,1.78,1.81,3.89
				C149.36,224.69,148.35,226.08,147.14,226.08z M147.6,220.13c-0.08,0-0.17,0.06-0.24,0.11c-0.35,0.28-0.75,1.03-0.86,2.09v0
				c-0.12,1.07,0.11,1.89,0.39,2.23c0.05,0.07,0.13,0.15,0.22,0.15c0.31,0.03,0.97-0.78,1.12-2.2c0.16-1.42-0.31-2.36-0.61-2.39
				C147.62,220.13,147.61,220.13,147.6,220.13z"/>
		</g>
		<g>
			<path class="st0" d="M151.18,226c-0.06,0-0.13,0-0.19-0.01c-1.26-0.16-2.02-1.84-1.77-3.91l0,0c0.25-2.08,1.4-3.55,2.66-3.38
				c0.43,0.05,0.82,0.28,1.12,0.67c0.57,0.72,0.81,1.94,0.65,3.25c-0.16,1.31-0.69,2.43-1.41,3C151.9,225.86,151.54,226,151.18,226z
				 M151.69,220.04c-0.31,0-0.96,0.8-1.12,2.2h0c-0.17,1.42,0.29,2.35,0.59,2.39c0.08,0.02,0.19-0.06,0.24-0.1
				c0.35-0.27,0.77-1.03,0.9-2.08c0.13-1.06-0.1-1.89-0.37-2.24c-0.07-0.09-0.15-0.15-0.21-0.16
				C151.7,220.05,151.7,220.04,151.69,220.04z"/>
		</g>
		<g>
			<path class="st0" d="M155.2,225.92c-0.07,0-0.13,0-0.2-0.01c-0.68-0.09-1.22-0.6-1.53-1.46c-0.25-0.7-0.32-1.57-0.21-2.48l0,0
				c0.28-2.08,1.44-3.51,2.7-3.35c1.26,0.16,2,1.85,1.74,3.93c-0.12,0.9-0.41,1.73-0.84,2.34
				C156.39,225.56,155.81,225.92,155.2,225.92z M154.61,222.15c-0.09,0.68-0.04,1.35,0.14,1.84c0.13,0.37,0.31,0.55,0.42,0.57
				c0.11,0.01,0.34-0.12,0.57-0.44c0.3-0.43,0.52-1.06,0.61-1.74c0.18-1.4-0.27-2.37-0.56-2.41
				C155.49,219.91,154.8,220.75,154.61,222.15z"/>
		</g>
		<g>
			<path class="st0" d="M159.24,225.88c-0.07,0-0.14,0-0.21-0.01c-0.43-0.06-0.82-0.3-1.12-0.69c-0.55-0.72-0.77-1.98-0.58-3.27v0
				c0.31-2.11,1.47-3.5,2.76-3.33c0.44,0.06,0.83,0.3,1.13,0.69c0.55,0.72,0.76,1.94,0.58,3.27
				C161.52,224.49,160.44,225.88,159.24,225.88z M158.67,222.1c-0.15,1.06,0.05,1.89,0.32,2.25c0.05,0.07,0.13,0.15,0.21,0.16
				c0.31,0.04,1.03-0.75,1.24-2.18c0.15-1.07-0.05-1.91-0.31-2.25c-0.08-0.1-0.15-0.16-0.22-0.17
				C159.54,219.87,158.88,220.71,158.67,222.1z"/>
		</g>
		<g>
			<path class="st0" d="M163.28,225.75c-0.08,0-0.15-0.01-0.23-0.02c-0.43-0.07-0.82-0.31-1.11-0.71c-0.54-0.74-0.75-1.96-0.55-3.26
				l0,0c0.32-2.08,1.52-3.49,2.77-3.31c0.43,0.07,0.82,0.31,1.11,0.71c0.54,0.74,0.75,1.96,0.55,3.26
				C165.52,224.38,164.45,225.75,163.28,225.75z M163.93,219.79c-0.32,0-0.99,0.78-1.2,2.17l0,0c-0.16,1.05,0.04,1.89,0.3,2.25
				c0.04,0.06,0.13,0.16,0.22,0.17c0.31,0.06,1.01-0.74,1.23-2.17c0.16-1.06-0.04-1.89-0.3-2.25c-0.04-0.06-0.13-0.16-0.22-0.17
				C163.95,219.79,163.94,219.79,163.93,219.79z"/>
		</g>
		<g>
			<path class="st0" d="M167.31,225.67c-0.08,0-0.16-0.01-0.25-0.02c-1.24-0.21-1.95-1.97-1.62-4c0.21-1.31,0.78-2.41,1.53-2.95
				c0.4-0.29,0.83-0.4,1.25-0.33c1.24,0.21,1.95,1.97,1.62,4c-0.22,1.32-0.79,2.42-1.54,2.96
				C167.99,225.55,167.65,225.67,167.31,225.67z M167.99,219.71c-0.05,0-0.13,0.03-0.21,0.09c-0.37,0.27-0.82,1.01-0.98,2.06l0,0
				c-0.25,1.49,0.25,2.4,0.5,2.44c0.05,0.01,0.13-0.02,0.22-0.09c0.37-0.26,0.82-1,0.99-2.07c0.25-1.49-0.25-2.4-0.5-2.44
				C168,219.71,168,219.71,167.99,219.71z"/>
		</g>
		<g>
			<path class="st0" d="M171.32,225.58c-0.09,0-0.18-0.01-0.27-0.03c-1.22-0.23-1.9-1.99-1.54-4.01c0.22-1.31,0.83-2.44,1.58-2.96
				c0.39-0.27,0.81-0.38,1.22-0.3c0.42,0.08,0.79,0.34,1.07,0.75c0.53,0.77,0.71,2.03,0.47,3.28
				C173.48,224.27,172.44,225.58,171.32,225.58z M172.05,219.62c-0.03,0-0.09,0.02-0.18,0.08c-0.36,0.25-0.83,1.01-1.01,2.08l0,0
				c-0.26,1.5,0.23,2.4,0.46,2.44c0.19,0,0.92-0.65,1.21-2.16c0.19-1.02,0.01-1.87-0.26-2.26
				C172.17,219.68,172.09,219.63,172.05,219.62C172.05,219.62,172.05,219.62,172.05,219.62z"/>
		</g>
		<g>
			<path class="st0" d="M175.38,225.5c-0.09,0-0.18-0.01-0.26-0.02c-0.43-0.07-0.8-0.33-1.08-0.73c-0.53-0.75-0.7-1.99-0.47-3.31
				l0,0c0.24-1.31,0.84-2.4,1.61-2.93c0.41-0.28,0.85-0.39,1.28-0.31c1.26,0.24,1.92,1.97,1.54,4.04
				C177.64,224.16,176.54,225.5,175.38,225.5z M174.9,221.68c-0.19,1.07-0.01,1.92,0.24,2.29c0.04,0.06,0.12,0.15,0.2,0.17
				c0.31,0.05,1.04-0.72,1.3-2.14s-0.15-2.4-0.46-2.46c-0.08-0.01-0.2,0.05-0.26,0.09C175.56,219.89,175.09,220.62,174.9,221.68z"/>
		</g>
		<g>
			<path class="st0" d="M179.45,225.42c-0.1,0-0.2-0.01-0.3-0.03c-1.24-0.25-1.9-1.99-1.54-4.04l0-0.01
				c0.4-2.07,1.66-3.44,2.91-3.22c1.26,0.23,1.91,1.94,1.55,4.05c-0.22,1.26-0.83,2.38-1.6,2.91
				C180.15,225.3,179.8,225.42,179.45,225.42z M178.96,221.58c-0.25,1.42,0.16,2.41,0.46,2.47c0.07,0.01,0.17-0.02,0.28-0.1
				c0.39-0.27,0.86-0.99,1.03-2.02c0.25-1.45-0.15-2.43-0.45-2.49C179.99,219.41,179.24,220.16,178.96,221.58z"/>
		</g>
		<g>
			<path class="st0" d="M183.45,225.34c-0.1,0-0.2-0.01-0.29-0.03c-0.43-0.09-0.81-0.36-1.09-0.78c-0.51-0.78-0.66-2.02-0.38-3.3
				c0.42-2.07,1.68-3.43,2.94-3.19c0.43,0.09,0.8,0.35,1.08,0.77c0.51,0.78,0.66,2.02,0.39,3.31
				C185.7,224.02,184.6,225.34,183.45,225.34z M184.32,219.36c-0.33,0-1.03,0.76-1.3,2.13l0,0.01c-0.22,1.04-0.06,1.89,0.19,2.28
				c0.04,0.06,0.13,0.18,0.22,0.19c0.31,0.06,1.04-0.7,1.34-2.13c0.22-1.05,0.06-1.9-0.2-2.29c-0.04-0.06-0.12-0.17-0.21-0.19
				C184.35,219.36,184.33,219.36,184.32,219.36z"/>
		</g>
		<g>
			<path class="st0" d="M187.49,225.26c-0.1,0-0.21-0.01-0.31-0.03c-0.43-0.09-0.79-0.36-1.07-0.78c-0.51-0.78-0.65-2.03-0.37-3.33
				c0.28-1.31,0.91-2.4,1.7-2.9c0.42-0.27,0.86-0.36,1.29-0.26c1.25,0.28,1.86,2.04,1.43,4.09
				C189.75,223.95,188.64,225.26,187.49,225.26z M188.4,219.28c-0.08,0-0.17,0.05-0.22,0.08c-0.38,0.25-0.87,0.97-1.1,2.04l0,0
				c-0.23,1.06-0.07,1.92,0.18,2.31c0.04,0.06,0.12,0.17,0.21,0.19c0.3,0.05,1.06-0.71,1.36-2.13c0.3-1.42-0.08-2.42-0.39-2.48
				C188.42,219.28,188.41,219.28,188.4,219.28z"/>
		</g>
		<g>
			<path class="st0" d="M190.74,223.09c-0.11,0-0.22-0.01-0.33-0.04c-0.43-0.09-0.8-0.37-1.06-0.79c-0.5-0.79-0.62-2.03-0.33-3.33
				c0.29-1.3,0.93-2.38,1.71-2.88c0.42-0.27,0.87-0.36,1.3-0.26c0.43,0.09,0.8,0.37,1.06,0.79c0.5,0.79,0.62,2.03,0.33,3.33
				C193,221.8,191.88,223.09,190.74,223.09z M191.7,217.11c-0.08,0-0.18,0.05-0.23,0.09c-0.39,0.25-0.89,0.97-1.12,2.03l0,0
				c-0.24,1.05-0.09,1.91,0.15,2.3c0.04,0.06,0.12,0.17,0.21,0.19c0.29,0.06,1.06-0.68,1.39-2.12c0.24-1.05,0.09-1.91-0.15-2.3
				c-0.04-0.06-0.12-0.17-0.21-0.19C191.72,217.11,191.71,217.11,191.7,217.11z"/>
		</g>
		<g>
			<path class="st0" d="M193.81,220.46c-0.12,0-0.23-0.01-0.35-0.04c-1.25-0.29-1.83-2.08-1.36-4.14v0c0.3-1.3,0.96-2.38,1.75-2.87
				c0.42-0.26,0.87-0.35,1.3-0.25c0.43,0.1,0.79,0.38,1.06,0.81c0.49,0.8,0.6,2.05,0.3,3.34
				C196.06,219.18,194.94,220.46,193.81,220.46z M193.43,216.58c-0.33,1.43,0.04,2.44,0.34,2.52c0.31,0.06,1.07-0.67,1.41-2.11
				c0.25-1.05,0.11-1.91-0.13-2.31c-0.04-0.07-0.12-0.18-0.21-0.2c-0.09-0.02-0.21,0.04-0.27,0.08
				C194.18,214.81,193.68,215.53,193.43,216.58z"/>
		</g>
		<g>
			<path class="st0" d="M196.87,217.84c-0.12,0-0.23-0.01-0.35-0.04c-0.42-0.1-0.79-0.37-1.05-0.79c-0.49-0.79-0.6-2.05-0.28-3.38
				l0,0c0.32-1.3,0.98-2.37,1.79-2.85c0.43-0.26,0.88-0.34,1.31-0.24c1.25,0.31,1.82,2.1,1.32,4.16
				C199.15,216.57,198.02,217.84,196.87,217.84z M196.52,213.95c-0.26,1.08-0.13,1.95,0.11,2.34c0.04,0.06,0.11,0.16,0.2,0.18
				c0.31,0.07,1.11-0.67,1.46-2.1c0.35-1.43-0.01-2.44-0.32-2.52c-0.09-0.02-0.21,0.04-0.28,0.08
				C197.29,212.18,196.78,212.89,196.52,213.95z"/>
		</g>
		<g>
			<path class="st0" d="M200,215.22c-0.13,0-0.26-0.02-0.38-0.05c-1.25-0.32-1.8-2.12-1.28-4.18c0.28-1.25,0.96-2.33,1.76-2.82
				c0.45-0.28,0.91-0.36,1.35-0.26c0.42,0.1,0.78,0.38,1.04,0.81c0.48,0.8,0.58,2.06,0.25,3.37c-0.33,1.3-1,2.37-1.81,2.85
				C200.63,215.13,200.31,215.22,200,215.22z M201.08,209.23c-0.07,0-0.17,0.03-0.27,0.1c-0.41,0.25-0.92,0.96-1.15,1.98l0,0.02
				c-0.37,1.43-0.01,2.45,0.3,2.53c0.09,0.02,0.21-0.04,0.27-0.08c0.4-0.24,0.92-0.95,1.19-2.01c0.27-1.07,0.15-1.95-0.09-2.34
				c-0.04-0.06-0.11-0.17-0.2-0.19C201.11,209.23,201.1,209.23,201.08,209.23z"/>
		</g>
		<g>
			<path class="st0" d="M89.03,261.24H70.79v-18.68c0.31-4.57,3.96-8.21,8.48-8.53c2.44-0.17,4.79,0.62,6.62,2.22
				c1.68,1.46,2.75,3.44,3.05,5.62h0.09V261.24z M72.15,259.88h15.52l-0.02-17.27c-0.14-2.07-1.08-3.96-2.65-5.32
				c-1.56-1.36-3.57-2.03-5.64-1.89c-3.85,0.26-6.95,3.37-7.22,7.22L72.15,259.88z"/>
		</g>
		<g>
			<path class="st0" d="M134.26,261.24h-18.27v-18.68c0.28-4.65,3.96-8.33,8.56-8.6c4.8-0.29,8.98,3.22,9.59,7.92h0.12V261.24z
				 M117.35,259.88h15.55v-16.9l-0.06-0.38c-0.25-4.27-3.95-7.54-8.21-7.28c-3.92,0.23-7.05,3.37-7.28,7.28L117.35,259.88z"/>
		</g>
		<g>
			<path class="st0" d="M89.03,246.08H70.76v-3.14h18.27V246.08z M72.12,244.72h15.55v-0.42H72.12V244.72z"/>
		</g>
		<g>
			<rect x="78.91" y="243.83" class="st0" width="1.98" height="17.39"/>
		</g>
		<g>
			<path class="st0" d="M134.23,246.08h-18.27v-3.14h18.27V246.08z M117.32,244.72h15.55v-0.42h-15.55V244.72z"/>
		</g>
		<g>
			<rect x="124.11" y="243.83" class="st0" width="1.98" height="17.39"/>
		</g>
		<g>
			<path class="st0" d="M178.45,277.2h-22.47v-43.24h22.47V277.2z M157.34,275.84h19.75v-40.52h-19.75V275.84z"/>
		</g>
		<g>
			<path class="st0" d="M168.69,277.2h-2.26v-20.52h-10.45v-2.87h10.45v-10.1h-10.45v-2.31h10.45v-6.93h2.26v6.93h9.72v2.31h-9.72
				v10.1h9.61v2.87h-9.61V277.2z M167.79,255.32h9.15v-0.15h-19.6v0.15H167.79z"/>
		</g>
		<g>
			<path class="st0" d="M49.07,277.2H26.6v-43.24h22.47V277.2z M27.96,275.84h19.75v-40.52H27.96V275.84z"/>
		</g>
		<g>
			<path class="st0" d="M39.32,277.2h-2.27v-20.52H26.6v-2.87h10.45v-10.1H26.6v-2.31h10.45v-6.93h2.27v6.93h9.71v2.31h-9.71v10.1
				h9.6v2.87h-9.6V277.2z M38.41,255.32h9.15v-0.15h-19.6v0.15H38.41z"/>
		</g>
		<g>
			<path class="st0" d="M104.61,277.2h-4.22v-50.33h4.22V277.2z M101.75,275.84h1.5v-47.61h-1.5V275.84z"/>
		</g>
		<g>
			<rect x="156.5" y="267.08" class="st0" width="21.46" height="9.09"/>
		</g>
		<g>
			<rect x="27.08" y="267.08" class="st0" width="21.46" height="9.09"/>
		</g>
		<g>
			<polygon class="st0" points="1126.14,190.34 1123.92,3.2 1115.9,3.2 1113.89,190.24 1110.71,190.2 1112.74,0 1127.08,0 
				1129.33,190.3 			"/>
		</g>
		<g>
			<path class="st0" d="M1118.51,199.57h-3.02v-7c0-0.02-0.05-0.15-0.27-0.34c-0.88-0.75-3.21-1.32-6.25-0.82l-5.59,1.37v6.2h-3.02
				v-8.58l8.06-1.96c3.6-0.6,6.96-0.04,8.75,1.49c0.86,0.73,1.33,1.67,1.33,2.64V199.57z"/>
		</g>
		<g>
			<path class="st0" d="M1115.4,278.03l-22.57-0.01c-1.85-0.26-3.18-1.95-3.01-3.79v-56.79l10.57-3.52c0.07-0.14,0.1-0.29,0.1-0.45
				v-9.26h3.02v9.23c0.02,1.02-0.36,2.02-1.07,2.79l-0.26,0.28l-9.33,3.11l-0.01,54.87c-0.03,0.24,0.12,0.46,0.35,0.53h21.98
				c0.23-0.07,0.38-0.29,0.35-0.53l-0.01-0.18v-70.1h3.02v70.02c0.17,1.85-1.16,3.54-3.01,3.79L1115.4,278.03z"/>
		</g>
		<g>
			
				<rect x="1097.98" y="217" transform="matrix(7.761733e-03 -1 1 7.761733e-03 874.9185 1318.7655)" class="st0" width="7.99" height="3.02"/>
		</g>
		<g>
			<path class="st0" d="M1151.13,278.03l-22.55-0.01c-1.86-0.25-3.2-1.94-3.03-3.79l-0.14-70.02l3.02-0.01l0.14,70.19l-0.01,0.09
				c-0.03,0.24,0.13,0.47,0.36,0.53h21.98c0.23-0.06,0.38-0.29,0.36-0.53l-0.01-0.18v-54.65l-9.33-3.11l-0.26-0.28
				c-0.7-0.75-1.08-1.73-1.07-2.76l-0.44-8.42l3.02-0.16l0.44,8.52l0,0.05c0,0.16,0.03,0.31,0.1,0.45l10.57,3.52v56.75
				c0.17,1.85-1.17,3.54-3.03,3.79L1151.13,278.03z"/>
		</g>
		<g>
			<path class="st0" d="M1125.59,199.7c-0.69-8.33,1.21-10.33,2.4-10.79l0.19-0.07l0.2-0.02c0.91-0.09,9.03-0.76,12.55,2.45
				c1.1,1,1.68,2.3,1.68,3.77l0.19,3.48l-3.02,0.16l-0.19-3.56c0-0.7-0.22-1.18-0.69-1.61c-1.81-1.64-6.69-1.92-9.71-1.72
				c-0.31,0.55-1.03,2.43-0.59,7.66L1125.59,199.7z M1129.33,191.59L1129.33,191.59L1129.33,191.59z"/>
		</g>
		<g>
			
				<rect x="1140.63" y="214.52" transform="matrix(1 -7.516287e-03 7.516287e-03 1 -1.6402 8.5909)" class="st0" width="3.02" height="15.98"/>
		</g>
		<g>
			<path class="st0" d="M1146.14,205.31h-49.52v-6.84h49.52V205.31z M1098.83,203.09h45.1v-2.42h-45.1V203.09z"/>
		</g>
		<g>
			<rect x="1114.34" y="30.73" class="st0" width="12.76" height="3.3"/>
		</g>
		<g>
			
				<rect x="1118.9" y="61.62" transform="matrix(5.989229e-03 -1 1 5.989229e-03 1045.5253 1188.4264)" class="st0" width="3.3" height="13.37"/>
		</g>
		<g>
			
				<rect x="1118.71" y="97.25" transform="matrix(0.0115 -0.9999 0.9999 0.0115 1003.2881 1223.3361)" class="st0" width="3.3" height="13.97"/>
		</g>
		<g>
			
				<rect x="1118.54" y="132.88" transform="matrix(0.0165 -0.9999 0.9999 0.0165 961.5849 1257.8989)" class="st0" width="3.3" height="14.58"/>
		</g>
		<g>
			
				<rect x="1118.37" y="168.5" transform="matrix(0.0211 -0.9998 0.9998 0.0211 920.3427 1292.1534)" class="st0" width="3.3" height="15.19"/>
		</g>
		<g>
			<rect x="1116.99" y="272.79" class="st0" width="10.11" height="3.02"/>
		</g>
	</g>
</g>
</svg>
