<svg id="레이어_1" data-name="레이어 1" xmlns="http://www.w3.org/2000/svg" viewBox="0 0 1154.3 278.03"><defs><style>.cls-1{fill:#7036cc;}.cls-2{fill:#fff;}</style></defs><g id="레이어_2" data-name="레이어 2"><g id="Layer_1" data-name="Layer 1"><path class="cls-1" d="M492.92,233.6l-40.61-42.47L416.82,233H351l-6.23.14-3-3.75,3.57-1.84-2.16-5.42,7.59,2.78,24.46-22L375,199l4.76,2.14h56.11l16.32-19.47,17.43,19.22H635.08l5.07-3.25V203L663,224.3l4.25.59-.89,2.7,3.36,1.81-2.64,3.34h-.52ZM452.22,188l41.59,43.5L666,230.64l.46-.58-2.7-1.45.65-2L662,226.3l-24-22.36v-2.42l-2.35,1.5h-167L452.29,184.9l-15.41,18.39H379.35l-2.06-.92.06,1.42-26.14,23.53-4.37-1.61,1.12,2.83-3,1.53.75.94,5.22-.13h64.9Z"/><polygon class="cls-1" points="414.89 229.54 343.36 229.54 343.36 227.44 413.92 227.44 435.57 201.56 437.19 202.91 414.89 229.54"/><polygon class="cls-1" points="494.79 230.34 468.43 202.69 469.94 201.25 495.69 228.24 665.07 227.06 665.09 229.16 494.79 230.34"/><polygon class="cls-1" points="661.93 278.06 349.93 278.06 349.93 231.94 352.02 231.94 352.02 275.95 659.84 275.95 659.84 231.94 661.93 231.94 661.93 278.06"/><path class="cls-1" d="M463.27,227.49h-20.9v-8.61h20.9Zm-18.8-2.11h16.7V221h-16.7Z"/><path class="cls-1" d="M581,246.23H477.84V239.7H581Zm-101.1-2.1h99v-2.34h-99v2.34Z"/><path class="cls-1" d="M581,270H566.3V248.25H581Zm-12.63-2.1h10.53V250.35H568.4Z"/><path class="cls-1" d="M519.61,270H504.88V248.25h14.73ZM507,267.94h10.53V250.35H507Z"/><path class="cls-1" d="M501.67,270H486.94V248.25h14.73ZM489,267.94h10.53V250.35H489Z"/><path class="cls-1" d="M443.73,263.69H431.82V241.9h11.91Zm-9.81-2.1h7.71V244h-7.71Z"/><path class="cls-1" d="M423.13,263.69H412.31V241.9h10.82Zm-8.72-2.1H421V244h-6.62Z"/><path class="cls-1" d="M411.46,263.69H400.64V241.9h10.82Zm-8.72-2.1h6.62V244h-6.62Z"/><path class="cls-1" d="M364.93,263.69H354.11V241.9h10.82Zm-8.72-2.1h6.62V244h-6.62Z"/><path class="cls-1" d="M377,263.69H366.13V241.9H377Zm-8.72-2.1h6.62V244h-6.62Z"/><path class="cls-1" d="M651.71,263.69H639.8V241.9h11.91Zm-9.81-2.1h7.71V244H641.9Z"/><path class="cls-1" d="M636,263.69H624V241.9H636Zm-9.81-2.1h7.71V244h-7.71Z"/><path class="cls-1" d="M604.43,263.69H592.52V241.9h11.91Zm-9.81-2.1h7.71V244h-7.71Z"/><path class="cls-1" d="M620.18,263.69h-11.9V241.9h11.9Zm-9.8-2.1h7.71V244h-7.71Z"/><path class="cls-1" d="M458.72,263.69H446.81V241.9h11.91Zm-9.81-2.1h7.71V244h-7.71Z"/><path class="cls-1" d="M473.71,263.69H461.8V241.9h11.91Zm-9.81-2.1h7.71V244H463.9Z"/><path class="cls-1" d="M398.85,253.85h-19.8v-5.59h19.8Zm-17.7-2.11h15.6v-1.39h-15.6Z"/><rect class="cls-1" x="562.92" y="267.96" width="97.97" height="2.1"/><rect class="cls-1" x="393.17" y="267.96" width="129.57" height="2.1"/><rect class="cls-1" x="350.98" y="267.96" width="32.95" height="2.1"/><path class="cls-1" d="M533.84,278.06H521.68V247.25h12.16ZM523.79,276h8V249.35h-8Z"/><path class="cls-1" d="M564,278.06H551.82V247.25H564ZM553.92,276h8V249.35h-8Z"/><path class="cls-1" d="M553.92,278H531.73V248.25h22.19Zm-20.09-2.1h18V250.35h-18Z"/><path class="cls-1" d="M395,277.54H382.88V251.75H395Zm-10-2.1h7.95V253.85H385Z"/><path class="cls-1" d="M468.89,223.18h-2.1a14,14,0,0,0-28.06,0h-2.1a16.13,16.13,0,0,1,32.26,0Z"/><rect class="cls-1" x="532.78" y="267.96" width="19.05" height="2.1"/><path class="cls-1" d="M953.68,194.07a1.26,1.26,0,0,0-1.29-.78s-1.69.17-4.22.34c1-3.17-.45-7.72-.65-8.29a1.23,1.23,0,0,0-1.43-.83c-6.32,1.28-16.31,3.21-17.92,3.21-2.94,0-26.26-12.7-50.38-26.66a6,6,0,0,0,1.33-4.79,5.31,5.31,0,0,0-4.59-4.28,4.51,4.51,0,0,0,.09-.53,9.56,9.56,0,0,0-3.23-7.53,3.84,3.84,0,0,0,.2-2.69,4.55,4.55,0,0,0-2.36-2.57h-.05a1.24,1.24,0,0,0-.84-.22,1.29,1.29,0,0,0-.69.23,4.55,4.55,0,0,0-2.42,2.6,3.84,3.84,0,0,0,.19,2.69,9.55,9.55,0,0,0-3.22,7.53,3.08,3.08,0,0,0,.08.53,5.31,5.31,0,0,0-4.59,4.28,6,6,0,0,0,1.31,4.76c-24.11,14-47.5,26.69-50.45,26.69-1.61,0-11.77-1.92-18.2-3.22a1.25,1.25,0,0,0-1.44.86c-.18.59-1.46,5.08-.43,8.23-1.8-.15-2.93-.28-3-.28a1.23,1.23,0,0,0-1.38,1.1,1.26,1.26,0,0,0,.46,1.12,57.24,57.24,0,0,0,11.9,6.86,2.25,2.25,0,0,0,.86.56,1.38,1.38,0,0,0,.45.08h.2a43.09,43.09,0,0,0,5.16,1.67,1.27,1.27,0,0,0,1,.5h1.15c.57.11,1.15.21,1.73.28v3.74a1.26,1.26,0,0,0,1.27,1.23h4v2.44a1.25,1.25,0,0,0,1,1.23v.43a6.73,6.73,0,0,0,6.43,6.7,6.12,6.12,0,0,0,4,4.8v14.1h-2.59a1.25,1.25,0,0,0-1.18-.86H813a1.25,1.25,0,0,0-1.21.94,6.25,6.25,0,0,0,2.63,6.28,8.52,8.52,0,0,0,.79,7.2,6.13,6.13,0,0,0,2.23,2.06v2.82a1.25,1.25,0,0,0,1.25,1.25h1.82l-1,15.83a1.31,1.31,0,0,0,.33.94,1.26,1.26,0,0,0,.91.39h13a1.24,1.24,0,0,0,1.25-1.25,1.31,1.31,0,0,0,0-.28l-.95-15.63H849l-1,15.83a1.25,1.25,0,0,0,.34.94,1.26,1.26,0,0,0,.91.39h13.12a1.24,1.24,0,0,0,1.24-1.23v0a1.31,1.31,0,0,0,0-.28l-.94-15.63h12.45l-1,15.83a1.25,1.25,0,0,0,.34.94,1.26,1.26,0,0,0,.91.39h13a1.24,1.24,0,0,0,1.24-1.23v0a1.31,1.31,0,0,0,0-.28l-.94-15.63H902l-1,15.83a1.31,1.31,0,0,0,.33.94,1.26,1.26,0,0,0,.91.39h13a1.24,1.24,0,0,0,1.25-1.25,1.31,1.31,0,0,0,0-.28l-1-15.63H917a1.25,1.25,0,0,0,1.25-1.25V256.1a6,6,0,0,0,2.9-2.35,8.56,8.56,0,0,0,.78-7.2,6.26,6.26,0,0,0,2.64-6.28,1.25,1.25,0,0,0-1.21-.94h-6.93a1.24,1.24,0,0,0-1.18.86h-2v-14a6.12,6.12,0,0,0,4.59-5,6.72,6.72,0,0,0,6.44-6.7v-.41h1.34a1.25,1.25,0,0,0,1.25-1.25v-2.38h4.64a1.25,1.25,0,0,0,1.25-1.25v-4.09c11.08-2.27,20-9.23,20.46-9.58A1.28,1.28,0,0,0,953.68,194.07Zm-10.44,4.67v-2.38l2.77-.11,1.94-.11c-1.3.81-2.9,1.71-4.71,2.6Zm-7.63,3.08v-5.44h4.3v3.84A39,39,0,0,1,935.61,201.82ZM930.33,208H809.53v-2.21c.7,0,1.4.08,2.1.08h115.3a29.59,29.59,0,0,0,3.4-.28Zm-5.9,3.7H814.78v-1.16H924.44v1.16Zm-7.47,7a1.26,1.26,0,0,0-1,.31,1.22,1.22,0,0,0-.41,1v.28a3.63,3.63,0,0,1-2.17,3.3v-7.46a1.26,1.26,0,0,0,.18-.89,4.17,4.17,0,0,1-.06-.71,1.22,1.22,0,0,1,0-.27h8.39a1.22,1.22,0,0,1,0,.27,4.2,4.2,0,0,1-4.15,4.23,5.12,5.12,0,0,1-.78-.06ZM919.88,245a1.22,1.22,0,0,0-.5,1.53,6.33,6.33,0,0,1-.22,5.83,3.7,3.7,0,0,1-1,1l-.37.22V241.8h4.48a4.62,4.62,0,0,1-2.39,3.18ZM914,274.49H903.59l.89-14.67h8.6Zm-26.88,0H876.72l.88-14.67h8.6Zm-26.06,0H850.66l.88-14.67h8.6Zm-28.5,0H822.15l.89-14.67h8.6ZM816.6,245a4.53,4.53,0,0,1-2.38-3.18h4.48v11.81a3,3,0,0,1-.75-.52,3.58,3.58,0,0,1-.65-.75,6.32,6.32,0,0,1-.21-5.83,1.24,1.24,0,0,0-.5-1.51v0Zm5.56-24.67a1.4,1.4,0,0,1,0-.29,1.19,1.19,0,0,0-.41-1,1.25,1.25,0,0,0-.84-.33h-.2a4.17,4.17,0,0,1-4.86-3.38,4.77,4.77,0,0,1-.07-.76v-.27h7.92v9a3.57,3.57,0,0,1-1.54-2.95Zm80.42,19.84h-15v-26h15Zm12.71,15.16a1.35,1.35,0,0,0,.36.75,1.56,1.56,0,0,0,.2.16v1.12H820v-.92a1.31,1.31,0,0,0,.86-.36,1.2,1.2,0,0,0,.35-.75Zm-65.78-12.66H863.1v10.16H846.38V242.65Zm21.33,0v10.16h-5.25V242.65Zm6,0h13.54v10.16h-17V242.65Zm-38.16,0h5.25v10.16h-5.25Zm59.45,10.16h-5.25V242.65h5.25Zm-13-12.66h-5.78v-26h5.78Zm-8.27,0H860.28v-26h16.5Zm-19,0h-5.77v-26h5.69Zm-8.27,0h-15v-26h15ZM826.3,226.29V214.15h5.77v26H826.3Zm0,16.34h9.92v10.16h-15V242.65h5Zm88.81,10.16H900.58V242.65H915Zm-10-12.66v-26h5.77v26ZM791.18,193.49c-.91-1.28-.65-4.2-.17-6.33,3.92.77,15.46,3,17.53,3,4.47,0,35.16-17.42,52.42-27.42a11.93,11.93,0,0,0,2.08,1h.19l-5.21,3a1.2,1.2,0,0,0-.79.14,2.68,2.68,0,0,0-.85.79h0l-6,3.45a1.18,1.18,0,0,0-.8.14,2.6,2.6,0,0,0-.85.8l-6,3.45a1.16,1.16,0,0,0-.79.15,2.47,2.47,0,0,0-.85.79l-6,3.45a1.28,1.28,0,0,0-.79.14,2.6,2.6,0,0,0-.85.8l-6,3.44a1.22,1.22,0,0,0-.79.15,2.36,2.36,0,0,0-.84.79l-6,3.43a1.37,1.37,0,0,0-.8.15,2.36,2.36,0,0,0-.84.79l-4.06,2.3a10.52,10.52,0,0,1-1.42.62,1.43,1.43,0,0,0-.65,0,3.53,3.53,0,0,0-.75.38,35.4,35.4,0,0,1-6.06.87h-.3l-.49.05h-.19c-1.36.07-2.83.11-4.4.11-3,0-5.9-.14-8.32-.3A1.35,1.35,0,0,1,791.18,193.49Zm69-36.78a2.87,2.87,0,0,1,3-2.31,4.9,4.9,0,0,1,1.15.15,1.25,1.25,0,0,0,1.5-.94,1.24,1.24,0,0,0-.61-1.37,1.47,1.47,0,0,1-.46-1.08c-.16-1.44.56-3.89,3.09-6a1.26,1.26,0,0,0,.25-1.63,2.06,2.06,0,0,1-.42-1.55,2,2,0,0,1,.8-.91,1.76,1.76,0,0,1,.79.91,1.88,1.88,0,0,1-.5,1.5,1.25,1.25,0,0,0,.24,1.63c2.54,2.14,3.26,4.59,3.1,6a1.43,1.43,0,0,1-.46,1.08,1.25,1.25,0,0,0,.9,2.31,4.33,4.33,0,0,1,1.13-.15,2.86,2.86,0,0,1,3,2.3,3.49,3.49,0,0,1-1.06,3.06,5.48,5.48,0,0,1-1,.86,8.09,8.09,0,0,1-1.3.69l-.19.09h-9.35l-.24-.11a9,9,0,0,1-1.3-.7,5.83,5.83,0,0,1-1-.86,3.47,3.47,0,0,1-1.09-3Zm85.35,36.8a2.73,2.73,0,0,1-.23.25l-2.27.09a1.71,1.71,0,0,0-.11-.14,1.33,1.33,0,0,0-.91-.35,1.59,1.59,0,0,0-1.19.54h-1.9c-1.23,0-2.4,0-3.52-.06a1.27,1.27,0,0,0-1-.53,1.68,1.68,0,0,0-1.11.42,47.85,47.85,0,0,1-5.48-.62,1.24,1.24,0,0,0-.8-.56,1.61,1.61,0,0,0-1.1.13,10.8,10.8,0,0,1-2.11-.74c-.85-.41-2.08-1-3.59-1.85a1.28,1.28,0,0,0-.5-.48,1.84,1.84,0,0,0-.88-.26c-1.81-1-3.94-2.14-6.27-3.44a1.35,1.35,0,0,0-.48-.47,2.07,2.07,0,0,0-.87-.28l-6.3-3.53a1.18,1.18,0,0,0-.47-.47,2.23,2.23,0,0,0-.87-.28l-6.31-3.58a1.18,1.18,0,0,0-.47-.47,2,2,0,0,0-.86-.29c-2.14-1.21-4.26-2.41-6.32-3.61a1.22,1.22,0,0,0-.46-.44,1.94,1.94,0,0,0-.87-.31c-5.81-3.33-11-6.35-14.57-8.38h.13a11.32,11.32,0,0,0,2-1c17.23,10,47.91,27.41,52.36,27.41,2.09,0,13.44-2.25,17.29-3,.52,2.11.88,5,0,6.33Zm-13.91,9.26c-.41.08-.83.14-1.25.2-.78.12-1.58.21-2.37.26V195.7c1,.17,2.11.3,3.31.41l1,.08v6.45Zm-140.84-6.5c1.48.11,3.15.2,5,.26v2.73a57.27,57.27,0,0,1-5.63-3Zm122.51,7h-.62V188.9l4.31,2.36v12.06Zm-38.87,0V167.18l4.31,2.47v33.67Zm-14.2,0h-1.1v-34.2l4.31-2.47v36.67Zm-39.35,0V191.05l4.31-2.46v14.73ZM813.68,202v-7.08a9.36,9.36,0,0,0,1.65-.74l2.19-1.24v10.37h-3.84Zm14.84,1.31V186.68l4.31-2.47v19.11Zm7.65-.06v-21l4.31-2.47v23.5h-4.31Zm7.65,0V177.9l4.31-2.47v27.89h-4.35Zm12-32.22v32.28h-4.31V173.49Zm11,32.22V164.73l1.4-.83h.56l2.32,1.34v38.08h-4.32Zm15.3.06V171.57l4.31,2.47v29.28Zm7.65-.06V176l4.31,2.46v24.91h-4.31Zm7.65,0V180.32l4.31,2.44v20.56h-4.31Zm12-14.52v14.58h-4.31V184.63l4.31,2.41Zm11,14.52v-10.2c1,.49,1.74.89,2.35,1.18a16,16,0,0,0,2,.74v8.35h-4.31Zm-121.24-5.63v-1h1.48c.82,0,1.6,0,2.36,0V202c-1.32-.38-2.61-.82-3.85-1.28Zm7.19,5.16v-6.42h.38c1.35-.12,2.58-.29,3.69-.5v7.46l-.79-.06-1.25-.12-1.25-.18Z"/><polygon class="cls-1" points="187.01 277.69 17.54 277.69 17.54 221.12 18.89 221.12 18.89 276.32 185.66 276.32 185.66 226.69 187.01 226.69 187.01 277.69"/><path class="cls-1" d="M150.19,277.69H54.36V225.2h95.83Zm-94.47-1.37h93.11V226.55H55.72Z"/><rect class="cls-1" x="6.79" y="205.5" width="31.34" height="1.36" transform="translate(-36.64 7.38) rotate(-10.34)"/><path class="cls-1" d="M99.68,163.51l-.18-.41c-.14-.34-3.45-8.11,1.55-11.82a2.38,2.38,0,0,1,3-.06c2.08,1.57,3.11,6.76,1.25,11.71l-.16.43Zm2.92-11.44a1.29,1.29,0,0,0-.75.31c-3.54,2.63-1.85,8.19-1.28,9.75l3.6-.1c1.49-4.4.47-8.66-1-9.72A1,1,0,0,0,102.6,152.07Z"/><path class="cls-1" d="M97.49,167.54a2.68,2.68,0,1,1,2.68-2.67A2.67,2.67,0,0,1,97.49,167.54Zm0-4a1.33,1.33,0,1,0,1.32,1.33A1.32,1.32,0,0,0,97.49,163.54Z"/><path class="cls-1" d="M93.57,170.09a2.68,2.68,0,1,1,2.68-2.68A2.68,2.68,0,0,1,93.57,170.09Zm0-4a1.32,1.32,0,1,0,1.32,1.32A1.32,1.32,0,0,0,93.57,166.09Z"/><path class="cls-1" d="M89.64,172.63A2.68,2.68,0,1,1,92.32,170,2.68,2.68,0,0,1,89.64,172.63Zm0-4A1.32,1.32,0,1,0,91,170,1.31,1.31,0,0,0,89.64,168.63Z"/><path class="cls-1" d="M85.72,175.16a2.68,2.68,0,1,1,2.68-2.67A2.68,2.68,0,0,1,85.72,175.16Zm0-4A1.33,1.33,0,1,0,87,172.49,1.32,1.32,0,0,0,85.72,171.16Z"/><path class="cls-1" d="M81.78,177.7A2.68,2.68,0,1,1,84.46,175,2.68,2.68,0,0,1,81.78,177.7Zm0-4A1.32,1.32,0,1,0,83.1,175,1.32,1.32,0,0,0,81.78,173.7Z"/><path class="cls-1" d="M77.84,180.26a2.71,2.71,0,1,1,2.71-2.71A2.71,2.71,0,0,1,77.84,180.26Zm0-4a1.35,1.35,0,1,0,1.35,1.35A1.36,1.36,0,0,0,77.84,176.21Z"/><path class="cls-1" d="M74,182.77a2.68,2.68,0,1,1,2.68-2.67A2.68,2.68,0,0,1,74,182.77Zm0-4a1.33,1.33,0,1,0,1.32,1.33A1.32,1.32,0,0,0,74,178.77Z"/><path class="cls-1" d="M70,185.32a2.68,2.68,0,1,1,2.68-2.68A2.68,2.68,0,0,1,70,185.32Zm0-4a1.32,1.32,0,1,0,1.32,1.32A1.31,1.31,0,0,0,70,181.32Z"/><path class="cls-1" d="M66.1,187.85a2.68,2.68,0,1,1,2.68-2.67A2.68,2.68,0,0,1,66.1,187.85Zm0-4a1.33,1.33,0,1,0,1.32,1.33A1.32,1.32,0,0,0,66.1,183.85Z"/><path class="cls-1" d="M62.15,190.43a2.72,2.72,0,1,1,2.71-2.72A2.72,2.72,0,0,1,62.15,190.43Zm0-4.06a1.35,1.35,0,1,0,1.35,1.35A1.36,1.36,0,0,0,62.15,186.37Z"/><path class="cls-1" d="M58.25,192.93a2.68,2.68,0,1,1,2.68-2.67A2.67,2.67,0,0,1,58.25,192.93Zm0-4a1.33,1.33,0,1,0,1.32,1.33A1.32,1.32,0,0,0,58.25,188.93Z"/><path class="cls-1" d="M54.32,195.46A2.68,2.68,0,1,1,57,192.79,2.68,2.68,0,0,1,54.32,195.46Zm0-4a1.33,1.33,0,1,0,1.32,1.33A1.32,1.32,0,0,0,54.32,191.46Z"/><path class="cls-1" d="M50.4,198a2.68,2.68,0,1,1,2.68-2.68A2.68,2.68,0,0,1,50.4,198Zm0-4a1.32,1.32,0,1,0,1.32,1.32A1.32,1.32,0,0,0,50.4,194Z"/><path class="cls-1" d="M46.45,200.57a2.71,2.71,0,1,1,2.71-2.71A2.72,2.72,0,0,1,46.45,200.57Zm0-4.06a1.36,1.36,0,1,0,1.35,1.36A1.37,1.37,0,0,0,46.45,196.51Z"/><path class="cls-1" d="M42.41,202.77a2.68,2.68,0,1,1,2.68-2.67A2.68,2.68,0,0,1,42.41,202.77Zm0-4a1.33,1.33,0,1,0,1.32,1.33A1.32,1.32,0,0,0,42.41,198.77Z"/><path class="cls-1" d="M37.88,204a2.72,2.72,0,1,1,2.71-2.72A2.72,2.72,0,0,1,37.88,204Zm0-4.06a1.35,1.35,0,1,0,1.35,1.35A1.36,1.36,0,0,0,37.88,200Z"/><path class="cls-1" d="M2.26,210.73C.62,208.82,0,202.87-.08,202.19l-.14-1.42,6.36,4.17,29.6-4.29.2,1.36L5.83,206.38l-4.38-2.87c.31,2.13.93,5.28,1.84,6.34Z"/><path class="cls-1" d="M99.51,204.37c-11.42,0-50.41-1.49-52.23-1.56l0-1.36c.49,0,49.09,1.87,54.65,1.51s54.74-2.29,55.24-2.31l.05,1.36c-.5,0-49.61,1.94-55.2,2.31C101.55,204.35,100.67,204.37,99.51,204.37Z"/><path class="cls-1" d="M108.33,167.54a2.68,2.68,0,1,1,2.68-2.67A2.67,2.67,0,0,1,108.33,167.54Zm0-4a1.33,1.33,0,1,0,1.32,1.33A1.32,1.32,0,0,0,108.33,163.54Z"/><path class="cls-1" d="M112.25,170.07a2.71,2.71,0,1,1,2.71-2.71A2.72,2.72,0,0,1,112.25,170.07Zm0-4.06a1.36,1.36,0,1,0,1.35,1.36A1.37,1.37,0,0,0,112.25,166Z"/><path class="cls-1" d="M116.12,172.54a2.68,2.68,0,1,1,2.68-2.67A2.67,2.67,0,0,1,116.12,172.54Zm0-4a1.33,1.33,0,1,0,1.32,1.33A1.32,1.32,0,0,0,116.12,168.54Z"/><path class="cls-1" d="M120,175.06a2.68,2.68,0,1,1,2.68-2.68A2.68,2.68,0,0,1,120,175.06Zm0-4a1.32,1.32,0,1,0,1.32,1.32A1.32,1.32,0,0,0,120,171.06Z"/><path class="cls-1" d="M123.91,177.56a2.68,2.68,0,1,1,2.68-2.68A2.68,2.68,0,0,1,123.91,177.56Zm0-4a1.32,1.32,0,1,0,1.32,1.32A1.32,1.32,0,0,0,123.91,173.56Z"/><path class="cls-1" d="M127.83,180.09a2.72,2.72,0,1,1,2.71-2.71A2.72,2.72,0,0,1,127.83,180.09Zm0-4.07a1.36,1.36,0,1,0,1.35,1.36A1.36,1.36,0,0,0,127.83,176Z"/><path class="cls-1" d="M131.69,182.56a2.68,2.68,0,1,1,2.68-2.68A2.68,2.68,0,0,1,131.69,182.56Zm0-4a1.32,1.32,0,1,0,1.32,1.32A1.32,1.32,0,0,0,131.69,178.56Z"/><path class="cls-1" d="M135.61,185.09a2.72,2.72,0,1,1,2.71-2.71A2.72,2.72,0,0,1,135.61,185.09Zm0-4.07a1.36,1.36,0,1,0,1.35,1.36A1.36,1.36,0,0,0,135.61,181Z"/><path class="cls-1" d="M139.48,187.57a2.68,2.68,0,1,1,2.68-2.68A2.68,2.68,0,0,1,139.48,187.57Zm0-4a1.32,1.32,0,1,0,1.32,1.32A1.31,1.31,0,0,0,139.48,183.57Z"/><path class="cls-1" d="M143.4,190.1a2.72,2.72,0,1,1,2.71-2.72A2.72,2.72,0,0,1,143.4,190.1Zm0-4.06a1.35,1.35,0,1,0,1.35,1.35A1.36,1.36,0,0,0,143.4,186Z"/><path class="cls-1" d="M147.27,192.57a2.68,2.68,0,1,1,2.68-2.68A2.68,2.68,0,0,1,147.27,192.57Zm0-4a1.32,1.32,0,1,0,1.32,1.32A1.31,1.31,0,0,0,147.27,188.57Z"/><path class="cls-1" d="M151.16,195.07a2.68,2.68,0,1,1,2.68-2.68A2.68,2.68,0,0,1,151.16,195.07Zm0-4a1.32,1.32,0,1,0,1.32,1.32A1.31,1.31,0,0,0,151.16,191.07Z"/><path class="cls-1" d="M155.05,197.57a2.68,2.68,0,1,1,2.68-2.67A2.67,2.67,0,0,1,155.05,197.57Zm0-4a1.33,1.33,0,1,0,1.32,1.33A1.32,1.32,0,0,0,155.05,193.57Z"/><path class="cls-1" d="M159,200.07a2.68,2.68,0,1,1,2.68-2.67A2.67,2.67,0,0,1,159,200.07Zm0-4a1.33,1.33,0,1,0,1.32,1.33A1.32,1.32,0,0,0,159,196.07Z"/><path class="cls-1" d="M162.87,202.6a2.71,2.71,0,1,1,2.71-2.71A2.71,2.71,0,0,1,162.87,202.6Zm0-4.06a1.36,1.36,0,1,0,1.35,1.36A1.36,1.36,0,0,0,162.87,198.54Z"/><rect class="cls-1" x="180.74" y="188.4" width="1.36" height="35.64" transform="translate(-66.8 323.81) rotate(-74.01)"/><path class="cls-1" d="M202.49,213.29l-1-.91c1.21-1.34,1.53-5,1.58-7.18L199,207.32l-.23-.06-34-6.71.26-1.33,33.77,6.66,5.6-2.92,0,1.08C204.44,204.76,204.57,211,202.49,213.29Z"/><rect class="cls-1" x="12.08" y="208.13" width="33.53" height="1.36" transform="translate(-59.02 17.2) rotate(-16.77)"/><rect class="cls-1" x="18.71" y="209.16" width="32.28" height="1.36" transform="translate(-77.47 29.2) rotate(-22.44)"/><rect class="cls-1" x="23.06" y="210.65" width="32.16" height="1.36" transform="translate(-92.58 41.5) rotate(-27.3)"/><rect class="cls-1" x="31.08" y="211" width="29.07" height="1.36" transform="translate(-99.49 50.95) rotate(-29.91)"/><rect class="cls-1" x="39.01" y="211.04" width="27.23" height="1.36" transform="matrix(0.84, -0.54, 0.54, 0.84, -106.78, 62.77)"/><rect class="cls-1" x="48.71" y="211.69" width="24.11" height="1.36" transform="translate(-125.43 93.52) rotate(-41.48)"/><rect class="cls-1" x="56.71" y="212.06" width="20.7" height="1.36" transform="translate(-133.83 115.8) rotate(-46.75)"/><rect class="cls-1" x="64.51" y="212.89" width="19.18" height="1.36" transform="translate(-142.29 148.17) rotate(-54.05)"/><rect class="cls-1" x="74.6" y="212.15" width="15.69" height="1.36" transform="translate(-144.46 188.18) rotate(-62.63)"/><rect class="cls-1" x="82.04" y="212.91" width="14.61" height="1.36" transform="translate(-141.12 235.74) rotate(-72.79)"/><rect class="cls-1" x="88.86" y="213.07" width="15.29" height="1.36" transform="translate(-127.62 282.8) rotate(-82.83)"/><rect class="cls-1" x="103.22" y="206.4" width="1.36" height="15.7"/><rect class="cls-1" x="109.93" y="205.74" width="1.36" height="15.7" transform="translate(-34.95 22.1) rotate(-9.86)"/><rect class="cls-1" x="116.66" y="205.29" width="1.36" height="15.75" transform="translate(-65.11 52.17) rotate(-19.74)"/><rect class="cls-1" x="124.01" y="204.71" width="1.36" height="18.11" transform="translate(-88.31 87.77) rotate(-29.14)"/><rect class="cls-1" x="130.87" y="203.12" width="1.36" height="19.94" transform="translate(-102.73 124.63) rotate(-37.63)"/><rect class="cls-1" x="137.83" y="201.49" width="1.36" height="21.44" transform="translate(-107.63 151.94) rotate(-43.11)"/><rect class="cls-1" x="145.52" y="199.64" width="1.36" height="24.58" transform="translate(-110.24 189.04) rotate(-50.3)"/><rect class="cls-1" x="155.81" y="196.54" width="1.36" height="31.35" transform="matrix(0.52, -0.85, 0.85, 0.52, -106.14, 235.63)"/><rect class="cls-1" x="162.11" y="194.36" width="1.36" height="34.35" transform="translate(-100.34 256.34) rotate(-62.08)"/><rect class="cls-1" x="170.11" y="191.86" width="1.36" height="38.59" transform="translate(-92.02 279.6) rotate(-65.63)"/><rect class="cls-1" x="174.97" y="192.39" width="1.36" height="34.99" transform="translate(-87.22 286.05) rotate(-66.23)"/><rect class="cls-1" x="178.56" y="190.61" width="1.36" height="35.02" transform="translate(-78.72 302.43) rotate(-69.35)"/><path class="cls-1" d="M98.55,206.63c-11.1,0-36.77-1.2-48.44-1.75l-5.22-.24-2.15-.09L101.5,167h2.85l57.46,36.38-2.12.12c-.51,0-50.94,2.77-57.87,3.06C101,206.62,99.85,206.63,98.55,206.63Zm-51.47-3.25,3.08.14c13,.61,43.51,2,51.58,1.69,6.1-.25,46-2.42,55.73-2.94l-53.54-33.9h-2.05Z"/><path class="cls-1" d="M104.25,197H100.5v-.67a1.79,1.79,0,0,1-1.38-2,1.76,1.76,0,0,1,1.38-1.42v-7.29H99a1.36,1.36,0,0,1,0,.2,1.7,1.7,0,0,1-.73,1.14,1.66,1.66,0,0,1-1.33.29,1.78,1.78,0,0,1-1.47-1.62H95.1v-3.22h.19a1.12,1.12,0,0,1,0-.2,1.78,1.78,0,0,1,3.52.2h1.56v-1.17A1.79,1.79,0,0,1,99,179.13a1.7,1.7,0,0,1,.73-1.15,1.74,1.74,0,0,1,.64-.28v-.77H104v.75a1.79,1.79,0,0,1,1.38,2,1.76,1.76,0,0,1-1.38,1.42v1.25h1.41a1.07,1.07,0,0,1,0-.25,1.77,1.77,0,0,1,.76-1.14,1.86,1.86,0,0,1,1.34-.27,1.72,1.72,0,0,1,1.13.76,1.82,1.82,0,0,1,.3.89h.43v3.17h-.22a1.07,1.07,0,0,1,0,.25,1.72,1.72,0,0,1-.76,1.13,1.81,1.81,0,0,1-1.34.27,1.71,1.71,0,0,1-1.13-.75,1.85,1.85,0,0,1-.3-.89h-1.43v7.27a1.78,1.78,0,0,1,0,3.48V197Zm-2.39-1.36h1V195h.91a.42.42,0,0,0,.15-.83.41.41,0,0,0-.19,0l-.87.25V184.19h4.26l-.09.76a.67.67,0,0,0,0,.2v.11l0,.11a.42.42,0,0,0,.06.31.42.42,0,0,0,.27.18.45.45,0,0,0,.32-.06.39.39,0,0,0,.18-.27.5.5,0,0,0,0-.21l0-.14,0-.14-.09-.76.35-.05v-.5h-.54l.09-.76a.67.67,0,0,0,0-.2v-.11l0-.11a.42.42,0,0,0-.06-.31.42.42,0,0,0-.27-.18.45.45,0,0,0-.32.06.42.42,0,0,0-.18.27.5.5,0,0,0,0,.21l0,.14,0,.14V183l.08.76h-4.26v-3.94h.91a.42.42,0,0,0,.15-.83.41.41,0,0,0-.19,0l-.87.25v-1h-.94V179h-.91a.42.42,0,0,0-.31.07.41.41,0,0,0-.17.27.42.42,0,0,0,.34.49.41.41,0,0,0,.19,0l.87-.25v4.11H97.38l.09-.76a.6.6,0,0,0,0-.19v-.11l0-.1a.42.42,0,0,0-.34-.49.43.43,0,0,0-.49.34.41.41,0,0,0,0,.19l0,.11v.3l0,.72h-.27v.5h.38l0,.73a1.13,1.13,0,0,0,0,.26v.09l0,.09a.38.38,0,0,0,.07.31.44.44,0,0,0,.27.17.38.38,0,0,0,.31-.07.42.42,0,0,0,.16-.46l0-.13,0-.14-.09-.76.76-.1h3.62v10h-.91a.41.41,0,0,0-.49.34.42.42,0,0,0,.34.49.41.41,0,0,0,.19,0l.87-.25v.89Z"/><path class="cls-1" d="M147.66,261.69H56.41V227.35h91.25Zm-89.89-1.35H146.3V228.72H57.77Z"/><path class="cls-1" d="M4.79,213.56c-1.14,0-2.28-1.26-2.75-3.12a4.63,4.63,0,0,1,.24-3.37,1.72,1.72,0,0,1,1.05-.82,1.74,1.74,0,0,1,1.34.25,4.59,4.59,0,0,1,1.79,2.83,4.62,4.62,0,0,1-.25,3.37,1.68,1.68,0,0,1-1,.81A1.81,1.81,0,0,1,4.79,213.56Zm-1.11-6h0c-.09,0-.17.13-.21.19a3.38,3.38,0,0,0-.09,2.34c.37,1.42,1.16,2.17,1.48,2.08.09,0,.16-.13.2-.19a3.38,3.38,0,0,0,.09-2.34h0a3.4,3.4,0,0,0-1.17-2A.63.63,0,0,0,3.68,207.57Z"/><path class="cls-1" d="M8.3,215.63a2.22,2.22,0,0,1-1.61-.87,5.32,5.32,0,0,1-1.12-2.27h0c-.49-2,.08-3.85,1.31-4.17a1.65,1.65,0,0,1,1.26.22A4.7,4.7,0,0,1,10,211.41a4.59,4.59,0,0,1-.29,3.35,1.65,1.65,0,0,1-1,.81A.83.83,0,0,1,8.3,215.63Zm-1.41-3.45a4.15,4.15,0,0,0,.82,1.7c.29.33.52.41.62.38s.11-.07.19-.19a3.29,3.29,0,0,0,.13-2.32,3.43,3.43,0,0,0-1.21-2,.32.32,0,0,0-.22-.07c-.26.06-.69,1-.33,2.53Z"/><path class="cls-1" d="M11.82,217.68a1.84,1.84,0,0,1-1-.33,4.45,4.45,0,0,1-1.69-2.84,4.62,4.62,0,0,1,.3-3.33,1.7,1.7,0,0,1,1.06-.8c1.25-.29,2.56,1.05,3,3.11a4.68,4.68,0,0,1-.31,3.36,1.66,1.66,0,0,1-1.05.79A1,1,0,0,1,11.82,217.68Zm-1-6h0c-.09,0-.17.14-.21.19a3.36,3.36,0,0,0-.13,2.31v0a3.14,3.14,0,0,0,1.1,2,.55.55,0,0,0,.32.11c.06,0,.13-.08.2-.19a3.35,3.35,0,0,0,.14-2.33C11.88,212.46,11.15,211.71,10.83,211.71Z"/><path class="cls-1" d="M15.09,220.4c-1.21,0-2.29-1.41-2.56-3.39h0a4.55,4.55,0,0,1,.61-3.3,1.69,1.69,0,0,1,1.13-.7c1.29-.16,2.44,1.25,2.76,3.37a4.63,4.63,0,0,1-.59,3.3,1.75,1.75,0,0,1-1.14.71A1.34,1.34,0,0,0,15.09,220.4Zm-1.22-3.58c.2,1.44.91,2.25,1.24,2.22.09,0,.18-.12.23-.18a3.28,3.28,0,0,0,.33-2.28c-.23-1.51-.95-2.26-1.24-2.22-.09,0-.17.11-.22.17a3.37,3.37,0,0,0-.34,2.29Z"/><path class="cls-1" d="M18.72,221.84c-1.14,0-2.25-1.3-2.66-3.2h0c-.44-2.06.17-3.83,1.43-4.11a1.7,1.7,0,0,1,1.29.26,4.59,4.59,0,0,1,1.7,2.91,5.48,5.48,0,0,1,0,2.52,2,2,0,0,1-1.42,1.58A2.11,2.11,0,0,1,18.72,221.84Zm-1.34-3.49c.3,1.41,1.06,2.17,1.36,2.13.12,0,.28-.22.39-.62a4.24,4.24,0,0,0,0-1.88,3.39,3.39,0,0,0-1.1-2c-.06,0-.17-.11-.25-.08C17.47,215.91,17.08,216.91,17.38,218.35Z"/><path class="cls-1" d="M22.19,223.85a1.7,1.7,0,0,1-1-.34,5.34,5.34,0,0,1-1.25-6.2,1.71,1.71,0,0,1,1.08-.77c1.27-.25,2.53,1.11,2.94,3.17a5.5,5.5,0,0,1,0,2.53,2,2,0,0,1-1.43,1.57A1,1,0,0,1,22.19,223.85Zm-.86-6h0a.39.39,0,0,0-.21.19,3.33,3.33,0,0,0-.19,2.29h0a3.18,3.18,0,0,0,1.06,2,.45.45,0,0,0,.28.09c.11,0,.28-.22.39-.61a4.09,4.09,0,0,0,0-1.88C22.36,218.63,21.66,217.87,21.33,217.87Z"/><path class="cls-1" d="M25.82,225.35c-1.17,0-2.24-1.3-2.61-3.24a4.55,4.55,0,0,1,.43-3.3,1.72,1.72,0,0,1,1.11-.76c1.29-.24,2.51,1.12,2.9,3.21a4.59,4.59,0,0,1-.44,3.31,1.68,1.68,0,0,1-1.11.75A.83.83,0,0,1,25.82,225.35Zm-.78-6h0a.43.43,0,0,0-.23.19,3.25,3.25,0,0,0-.22,2.28h0c.26,1.38,1,2.19,1.32,2.13.08,0,.15-.08.23-.19a3.26,3.26,0,0,0,.22-2.29C26.07,220.16,25.42,219.38,25,219.38Z"/><path class="cls-1" d="M29.87,225.46a1.76,1.76,0,0,1-1-.33,4.59,4.59,0,0,1-1.6-2.93,4.52,4.52,0,0,1,.46-3.3,1.74,1.74,0,0,1,1.09-.75c1.29-.22,2.49,1.14,2.87,3.25s-.28,3.8-1.54,4A.92.92,0,0,1,29.87,225.46Zm-.78-6h0a.45.45,0,0,0-.21.17,3.33,3.33,0,0,0-.24,2.28h0a3.3,3.3,0,0,0,1,2.05c.06,0,.17.11.25.09.29-.06.72-1,.46-2.46S29.41,219.49,29.09,219.49Z"/><path class="cls-1" d="M33.92,225.56c-1.15,0-2.27-1.37-2.6-3.27h0c-.35-2.08.31-3.8,1.55-4a1.62,1.62,0,0,1,1.25.31,4.68,4.68,0,0,1,1.6,3,4.58,4.58,0,0,1-.49,3.3,1.64,1.64,0,0,1-1.07.72ZM32.66,222c.25,1.43,1,2.18,1.28,2.15a.36.36,0,0,0,.18-.16,3.32,3.32,0,0,0,.26-2.28,3.38,3.38,0,0,0-1-2.07.35.35,0,0,0-.23-.09C32.87,219.63,32.41,220.56,32.66,222Z"/><path class="cls-1" d="M37.92,225.68a2.11,2.11,0,0,1-1.64-1,5.43,5.43,0,0,1-.92-2.33,5.29,5.29,0,0,1,.14-2.5,2,2,0,0,1,1.49-1.5c1.27-.22,2.46,1.21,2.8,3.28a5.3,5.3,0,0,1-.14,2.5,2,2,0,0,1-1.49,1.5A1.57,1.57,0,0,1,37.92,225.68Zm-.69-6h0c-.11,0-.29.21-.41.58a4.54,4.54,0,0,0,.59,3.59c.24.32.46.44.58.42s.29-.21.41-.59a4,4,0,0,0,.08-1.85C38.23,220.51,37.55,219.71,37.23,219.71Z"/><path class="cls-1" d="M42,225.77a2.09,2.09,0,0,1-1.64-1,5.42,5.42,0,0,1-.9-2.33h0a4.54,4.54,0,0,1,.56-3.28,1.65,1.65,0,0,1,1.1-.7c1.25-.19,2.44,1.25,2.77,3.3a4.5,4.5,0,0,1-.55,3.28,1.82,1.82,0,0,1-1.11.72Zm-1.2-3.53a4,4,0,0,0,.65,1.73c.24.32.47.45.57.44a.43.43,0,0,0,.22-.17,3.26,3.26,0,0,0,.3-2.25c-.22-1.42-1-2.2-1.23-2.17-.08,0-.16.11-.2.17a3.26,3.26,0,0,0-.31,2.25Z"/><path class="cls-1" d="M46.05,225.93c-1.3,0-2.3-1.64-2.55-3.34a4.54,4.54,0,0,1,.58-3.26,1.67,1.67,0,0,1,1.11-.7c1.27-.18,2.42,1.22,2.77,3.31a4.43,4.43,0,0,1-.55,3.24,1.68,1.68,0,0,1-1.14.73Zm-.64-6h0a.5.5,0,0,0-.22.17,3.31,3.31,0,0,0-.33,2.25h0c.21,1.43.95,2.17,1.23,2.17a.47.47,0,0,0,.24-.19,3.17,3.17,0,0,0,.31-2.22C46.39,220.76,45.72,220,45.41,220Z"/><path class="cls-1" d="M50.05,226c-1.19,0-2.25-1.4-2.5-3.37h0c-.27-2.08.48-3.77,1.74-3.93s2.42,1.28,2.7,3.35a4.55,4.55,0,0,1-.62,3.25,1.72,1.72,0,0,1-1.12.69A1.27,1.27,0,0,0,50.05,226Zm-1.16-3.55c.19,1.42.87,2.22,1.18,2.17.08,0,.17-.11.21-.17a3.25,3.25,0,0,0,.35-2.24c-.19-1.4-.89-2.24-1.18-2.19S48.72,221,48.89,222.4Z"/><path class="cls-1" d="M54.07,226.1a1.75,1.75,0,0,1-1-.39,4.54,4.54,0,0,1-1.42-3c-.25-2,.48-3.68,1.74-3.9a1.6,1.6,0,0,1,1.24.33,4.54,4.54,0,0,1,1.45,3c.25,2.07-.51,3.75-1.77,3.92Zm-.48-6h0c-.31.05-.8.93-.62,2.4a3.34,3.34,0,0,0,.9,2.1.41.41,0,0,0,.23.11c.31,0,.77-1,.59-2.4a3.29,3.29,0,0,0-.91-2.11A.2.2,0,0,0,53.59,220.13Z"/><path class="cls-1" d="M58.12,226.18c-1.2,0-2.24-1.42-2.46-3.41h0c-.23-2,.52-3.67,1.78-3.88a1.62,1.62,0,0,1,1.24.34,5.28,5.28,0,0,1,.73,6.3,1.66,1.66,0,0,1-1.12.65Zm-.44-5.94h0c-.31,0-.81.91-.65,2.39h0c.16,1.41.82,2.17,1.12,2.19.08,0,.17-.1.21-.14a3.38,3.38,0,0,0,.4-2.25,3.22,3.22,0,0,0-.89-2.11A.3.3,0,0,0,57.68,220.24Z"/><path class="cls-1" d="M62.12,226.31a1.66,1.66,0,0,1-1-.38,4.43,4.43,0,0,1-1.36-3.05c-.21-2.06.55-3.67,1.81-3.87a1.55,1.55,0,0,1,1.23.35,4.54,4.54,0,0,1,1.39,3.06c.21,2.05-.55,3.68-1.81,3.87Zm-.36-6h0c-.31.05-.82.91-.67,2.39h0a3.21,3.21,0,0,0,.85,2.11s.14.1.21.08c.31-.05.82-.92.67-2.39a3.23,3.23,0,0,0-.87-2.11A.37.37,0,0,0,61.76,220.35Z"/><path class="cls-1" d="M66.17,226.41a1.65,1.65,0,0,1-1-.4,4.54,4.54,0,0,1-1.35-3h0c-.19-2.06.59-3.68,1.86-3.86a1.63,1.63,0,0,1,1.23.39,4.54,4.54,0,0,1,1.35,3c.19,2-.61,3.68-1.86,3.86Zm-1-3.57A3.29,3.29,0,0,0,66,225s.14.11.21.08c.3,0,.81-.91.68-2.36a3.24,3.24,0,0,0-.85-2.12s-.12-.12-.21-.09c-.3,0-.82.91-.68,2.37Z"/><path class="cls-1" d="M70.2,226.51a1.63,1.63,0,0,1-1.07-.42,4.49,4.49,0,0,1-1.3-3.05c-.16-2.08.63-3.68,1.9-3.83a1.58,1.58,0,0,1,1.23.39,4.55,4.55,0,0,1,1.31,3.08c.16,2.06-.66,3.7-1.91,3.83Zm-.3-5.95h0c-.3,0-.82.9-.7,2.37A3.2,3.2,0,0,0,70,225a.41.41,0,0,0,.22.1c.31,0,.81-.95.69-2.36a3.23,3.23,0,0,0-.82-2.13A.42.42,0,0,0,69.9,220.56Z"/><path class="cls-1" d="M74.24,226.62a1.69,1.69,0,0,1-1.09-.43,4.5,4.5,0,0,1-1.26-3.07c-.15-2.05.69-3.69,1.94-3.8a1.61,1.61,0,0,1,1.22.42,4.44,4.44,0,0,1,1.27,3.07c.15,2.05-.69,3.69-1.94,3.81ZM74,220.68h0c-.32,0-.83.95-.73,2.35h0a3.23,3.23,0,0,0,.79,2.12.38.38,0,0,0,.22.11c.31,0,.82-.95.72-2.36a3.38,3.38,0,0,0-.79-2.13A.41.41,0,0,0,74,220.68Z"/><path class="cls-1" d="M78.28,226.73c-1.19,0-2.14-1.41-2.33-3.5v0c-.13-2.08.73-3.7,2-3.78a1.61,1.61,0,0,1,1.22.45,4.47,4.47,0,0,1,1.23,3.05c.12,2.06-.73,3.7-2,3.79Zm-1-3.61c.14,1.53.74,2.26,1,2.25s.82-.94.74-2.36a3.16,3.16,0,0,0-.77-2.11s-.14-.14-.23-.11C77.73,220.81,77.22,221.71,77.31,223.12Z"/><path class="cls-1" d="M82.39,226.77c-1.26,0-2.27-1.46-2.39-3.48h0c-.1-2.08.77-3.69,2-3.76s2.3,1.44,2.43,3.53a4.37,4.37,0,0,1-.89,3.17A1.6,1.6,0,0,1,82.39,226.77Zm-1-3.56c.09,1.44.72,2.2,1,2.2a.35.35,0,0,0,.19-.12,3.09,3.09,0,0,0,.52-2.16c-.09-1.42-.68-2.27-1-2.25S81.29,221.81,81.36,223.21Z"/><path class="cls-1" d="M86.36,226.9c-1.29,0-2.26-1.52-2.26-3.53a4.41,4.41,0,0,1,.92-3.16,1.6,1.6,0,0,1,1.18-.54c1.29,0,2.26,1.53,2.26,3.56S87.6,226.9,86.36,226.9ZM86.2,221a.37.37,0,0,0-.2.12,3.18,3.18,0,0,0-.54,2.17v0c0,1.42.59,2.2.9,2.2s.74-.79.74-2.32S86.51,221,86.2,221Z"/><path class="cls-1" d="M90.41,227.09c-1.23,0-2.22-1.53-2.31-3.58v0c0-2.17.88-3.68,2.13-3.68s2.25,1.54,2.31,3.58a4.49,4.49,0,0,1-1,3.17A1.67,1.67,0,0,1,90.41,227.09Zm-1-3.61c.06,1.4.65,2.25,1,2.25.07,0,.16-.09.2-.12a3.22,3.22,0,0,0,.57-2.18c0-1.4-.64-2.26-1-2.26S89.46,222,89.46,223.48Z"/><path class="cls-1" d="M94.46,227.1c-1.28,0-2.24-1.52-2.28-3.61h0c0-2.14.91-3.68,2.16-3.68s2.24,1.55,2.28,3.61a4.45,4.45,0,0,1-1,3.16A1.6,1.6,0,0,1,94.46,227.1Zm-.92-3.62c0,1.47.62,2.27.92,2.27.07,0,.17-.09.2-.12a3.27,3.27,0,0,0,.6-2.18c0-1.41-.61-2.27-.92-2.27S93.54,222,93.54,223.48Z"/><path class="cls-1" d="M98.48,227.26c-1.28,0-2.22-1.52-2.25-3.62h0c0-2.13.92-3.68,2.19-3.68s2.23,1.56,2.26,3.62a4.45,4.45,0,0,1-1,3.15A1.68,1.68,0,0,1,98.48,227.26Zm-.89-3.63c0,1.41.59,2.27.89,2.27a.35.35,0,0,0,.22-.14,3.23,3.23,0,0,0,.62-2.17c0-1.41-.59-2.28-.9-2.28S97.59,222.12,97.59,223.63Z"/><path class="cls-1" d="M102.51,227.4c-1.27,0-2.22-1.58-2.22-3.68s.95-3.68,2.22-3.68,2.22,1.58,2.22,3.68S103.78,227.4,102.51,227.4Zm0-6c-.25,0-.86.81-.86,2.32s.61,2.32.86,2.32.86-.9.86-2.32S102.81,221.4,102.51,221.4Z"/><path class="cls-1" d="M106.54,227.46a1.57,1.57,0,0,1-1.16-.53,4.66,4.66,0,0,1-1-3.21,4.5,4.5,0,0,1,1.08-3.15,1.62,1.62,0,0,1,1.21-.47c1.27.07,2.18,1.61,2.15,3.69S107.8,227.46,106.54,227.46Zm0-6a.32.32,0,0,0-.19.11,3.24,3.24,0,0,0-.66,2.17h0a3.52,3.52,0,0,0,.63,2.25.31.31,0,0,0,.2.11c.3,0,.87-.91.89-2.33s-.57-2.28-.87-2.31Z"/><path class="cls-1" d="M110.63,227.32h-.1c-1.25-.09-2.16-1.67-2.11-3.69a4.4,4.4,0,0,1,1.1-3.14,1.68,1.68,0,0,1,1.23-.48c1.26.09,2.15,1.64,2.11,3.7a4.46,4.46,0,0,1-1.13,3.14A1.67,1.67,0,0,1,110.63,227.32Zm0-5.94a.31.31,0,0,0-.2.11,3.16,3.16,0,0,0-.67,2.14v0c0,1.45.54,2.28.85,2.31.06,0,.11,0,.19-.11a3.22,3.22,0,0,0,.69-2.17c0-1.45-.56-2.28-.86-2.3Z"/><path class="cls-1" d="M114.63,227.21h0c-1.27,0-2.17-1.63-2.12-3.69a4.28,4.28,0,0,1,1.13-3.12,1.68,1.68,0,0,1,1.26-.46c1.26.12,2.13,1.67,2.07,3.7a4.56,4.56,0,0,1-1.14,3.09A1.73,1.73,0,0,1,114.63,227.21Zm.08-5.92a.39.39,0,0,0-.21.11,3.1,3.1,0,0,0-.68,2.14v0c0,1.41.5,2.29.8,2.3.07,0,.14,0,.22-.12a3.3,3.3,0,0,0,.71-2.14c0-1.47-.52-2.28-.84-2.31Z"/><path class="cls-1" d="M118.65,227.16h-.05a1.66,1.66,0,0,1-1.16-.57,4.58,4.58,0,0,1-.92-3.14h0c.09-2.08,1.1-3.64,2.36-3.56a1.7,1.7,0,0,1,1.17.57,4.55,4.55,0,0,1,.92,3.14C120.89,225.62,119.88,227.16,118.65,227.16Zm-.77-3.65a3.28,3.28,0,0,0,.55,2.17.5.5,0,0,0,.21.14h0c.27,0,.91-.84,1-2.26a3.2,3.2,0,0,0-.56-2.16.35.35,0,0,0-.22-.14h0C118.53,221.26,117.94,222.13,117.88,223.51Z"/><path class="cls-1" d="M122.7,227h-.09c-1.28-.08-2.13-1.63-2-3.71h0c.1-2.08,1.11-3.57,2.4-3.54a1.69,1.69,0,0,1,1.17.61,4.48,4.48,0,0,1,.87,3.12,4.57,4.57,0,0,1-1.22,3.08A1.61,1.61,0,0,1,122.7,227Zm-.76-3.64c-.07,1.45.46,2.27.75,2.28a.33.33,0,0,0,.21-.11,3.29,3.29,0,0,0,.76-2.14,3.14,3.14,0,0,0-.52-2.13.34.34,0,0,0-.23-.14h0c-.29,0-.89.86-1,2.24Z"/><path class="cls-1" d="M126.73,227h-.09a1.63,1.63,0,0,1-1.15-.61,5.25,5.25,0,0,1,.39-6.25,1.74,1.74,0,0,1,1.22-.45c1.26.09,2.12,1.72,2,3.78S128,227,126.73,227Zm.25-6c-.08,0-.17.08-.22.11a3.3,3.3,0,0,0-.77,2.12,3.43,3.43,0,0,0,.5,2.22.4.4,0,0,0,.22.14c.33,0,.92-.84,1-2.24s-.41-2.32-.73-2.35Z"/><path class="cls-1" d="M130.77,226.9h-.11a1.68,1.68,0,0,1-1.15-.62,4.52,4.52,0,0,1-.81-3.19,4.46,4.46,0,0,1,1.25-3,1.74,1.74,0,0,1,1.23-.45,1.64,1.64,0,0,1,1.15.62,4.52,4.52,0,0,1,.81,3.19C133,225.43,132,226.9,130.77,226.9Zm.3-5.94a.35.35,0,0,0-.23.11,3.23,3.23,0,0,0-.78,2.11h0a3.24,3.24,0,0,0,.48,2.2.37.37,0,0,0,.22.15h0c.3,0,.91-.85,1-2.23a3.26,3.26,0,0,0-.48-2.2.34.34,0,0,0-.23-.14Z"/><path class="cls-1" d="M134.81,226.82h-.12c-1.26-.11-2.1-1.75-1.93-3.83h0c.18-2.09,1.26-3.54,2.52-3.47s2.09,1.75,1.92,3.83a4.47,4.47,0,0,1-1.28,3A1.78,1.78,0,0,1,134.81,226.82Zm-.7-3.72c-.12,1.5.43,2.33.69,2.36a.39.39,0,0,0,.24-.11,3.25,3.25,0,0,0,.81-2.11c.12-1.5-.42-2.34-.68-2.36S134.23,221.7,134.11,223.1Z"/><path class="cls-1" d="M138.83,226.74h-.12a1.61,1.61,0,0,1-1.12-.64,4.6,4.6,0,0,1-.77-3.22h0c.19-2,1.31-3.54,2.55-3.45s2.07,1.8,1.9,3.86S140,226.74,138.83,226.74Zm-.66-3.75a3.27,3.27,0,0,0,.45,2.23.47.47,0,0,0,.2.15h0c.28,0,.95-.81,1.07-2.21s-.45-2.37-.66-2.38-.94.71-1.07,2.21Z"/><path class="cls-1" d="M142.88,226.65h-.16c-1.26-.13-2.06-1.8-1.84-3.88h0a4.48,4.48,0,0,1,1.36-3,1.64,1.64,0,0,1,1.23-.4c1.27.13,2.06,1.8,1.84,3.88a4.53,4.53,0,0,1-1.36,3A1.74,1.74,0,0,1,142.88,226.65Zm-.65-3.75c-.15,1.5.38,2.36.64,2.39a.39.39,0,0,0,.23-.11,3.28,3.28,0,0,0,.86-2.11c.15-1.49-.38-2.36-.64-2.38a.32.32,0,0,0-.23.11,3.33,3.33,0,0,0-.86,2.1Z"/><path class="cls-1" d="M146.92,226.57h-.17a1.64,1.64,0,0,1-1.13-.65,5.31,5.31,0,0,1,.68-6.24,1.69,1.69,0,0,1,1.26-.4c1.28.15,2,1.78,1.81,3.89S148.13,226.57,146.92,226.57Zm.46-5.95a.48.48,0,0,0-.24.11,3.24,3.24,0,0,0-.86,2.09h0a3.2,3.2,0,0,0,.39,2.22.28.28,0,0,0,.22.15c.31,0,1-.78,1.12-2.2s-.31-2.36-.61-2.39C147.4,220.62,147.39,220.62,147.38,220.62Z"/><path class="cls-1" d="M151,226.49h-.19c-1.26-.16-2-1.84-1.77-3.91h0c.25-2.08,1.4-3.56,2.66-3.39a1.69,1.69,0,0,1,1.12.67,4.52,4.52,0,0,1,.65,3.25,4.58,4.58,0,0,1-1.42,3A1.75,1.75,0,0,1,151,226.49Zm.51-6c-.31,0-1,.8-1.12,2.2h0c-.17,1.42.29,2.35.59,2.39.08,0,.19-.06.24-.1a4,4,0,0,0,.53-4.32.4.4,0,0,0-.21-.16S151.48,220.52,151.47,220.52Z"/><path class="cls-1" d="M155,226.4h-.2a2,2,0,0,1-1.53-1.47,5.5,5.5,0,0,1-.21-2.47h0c.28-2.08,1.44-3.51,2.7-3.36s2,1.86,1.74,3.93a5.35,5.35,0,0,1-.84,2.34A2.08,2.08,0,0,1,155,226.4Zm-.59-3.77a4,4,0,0,0,.14,1.84c.13.37.31.55.42.57s.34-.11.57-.44a4,4,0,0,0,.61-1.74c.18-1.4-.27-2.37-.56-2.41S154.58,221.24,154.39,222.63Z"/><path class="cls-1" d="M159,226.37h-.21a1.72,1.72,0,0,1-1.12-.69,4.56,4.56,0,0,1-.58-3.27h0c.31-2.11,1.47-3.5,2.76-3.33a1.71,1.71,0,0,1,1.13.69,4.56,4.56,0,0,1,.58,3.27C161.3,225,160.22,226.37,159,226.37Zm-.57-3.78a3.31,3.31,0,0,0,.32,2.25.36.36,0,0,0,.21.16c.31,0,1-.75,1.24-2.18a3.34,3.34,0,0,0-.31-2.25.4.4,0,0,0-.22-.17C159.32,220.35,158.66,221.2,158.45,222.59Z"/><path class="cls-1" d="M163.06,226.24a.91.91,0,0,1-.23,0,1.7,1.7,0,0,1-1.11-.71,4.54,4.54,0,0,1-.55-3.26h0c.32-2.08,1.52-3.49,2.77-3.31a1.72,1.72,0,0,1,1.11.72,4.53,4.53,0,0,1,.55,3.25C165.3,224.87,164.23,226.24,163.06,226.24Zm.65-6c-.32,0-1,.78-1.2,2.17h0a3.34,3.34,0,0,0,.3,2.25.38.38,0,0,0,.22.17c.31.06,1-.74,1.23-2.17a3.33,3.33,0,0,0-.3-2.25.38.38,0,0,0-.22-.17Z"/><path class="cls-1" d="M167.09,226.15a1.1,1.1,0,0,1-.25,0c-1.24-.21-2-2-1.62-4a4.53,4.53,0,0,1,1.53-2.95,1.73,1.73,0,0,1,1.25-.33c1.24.22,1.95,2,1.62,4a4.61,4.61,0,0,1-1.54,3A1.7,1.7,0,0,1,167.09,226.15Zm.68-6a.4.4,0,0,0-.21.09,3.25,3.25,0,0,0-1,2.06h0c-.25,1.49.25,2.39.5,2.44a.46.46,0,0,0,.22-.09,3.27,3.27,0,0,0,1-2.07c.25-1.5-.25-2.4-.5-2.45Z"/><path class="cls-1" d="M171.1,226.07a1.24,1.24,0,0,1-.27,0c-1.22-.23-1.9-2-1.54-4a4.59,4.59,0,0,1,1.58-3,1.56,1.56,0,0,1,1.22-.31,1.72,1.72,0,0,1,1.07.75,4.54,4.54,0,0,1,.47,3.28C173.26,224.76,172.22,226.07,171.1,226.07Zm.73-6a.56.56,0,0,0-.18.08,3.38,3.38,0,0,0-1,2.08h0c-.26,1.5.23,2.4.46,2.45s.92-.65,1.21-2.17a3.22,3.22,0,0,0-.26-2.25.59.59,0,0,0-.22-.19Z"/><path class="cls-1" d="M175.16,226a1.09,1.09,0,0,1-.26,0,1.67,1.67,0,0,1-1.08-.72,4.6,4.6,0,0,1-.47-3.31h0A4.55,4.55,0,0,1,175,219a1.69,1.69,0,0,1,1.28-.31c1.26.24,1.92,2,1.54,4S176.32,226,175.16,226Zm-.48-3.83a3.4,3.4,0,0,0,.24,2.29.42.42,0,0,0,.2.17c.31,0,1-.72,1.3-2.14s-.15-2.4-.46-2.46a.48.48,0,0,0-.26.09A3.42,3.42,0,0,0,174.68,222.16Z"/><path class="cls-1" d="M179.23,225.9a1.51,1.51,0,0,1-.3,0c-1.24-.25-1.9-2-1.54-4h0c.4-2.07,1.66-3.44,2.91-3.22s1.91,1.94,1.55,4a4.54,4.54,0,0,1-1.6,2.91A1.79,1.79,0,0,1,179.23,225.9Zm-.49-3.83c-.25,1.42.16,2.41.46,2.47a.5.5,0,0,0,.28-.11,3.16,3.16,0,0,0,1-2c.25-1.45-.15-2.42-.45-2.49S179,220.65,178.74,222.07Z"/><path class="cls-1" d="M183.23,225.82a.92.92,0,0,1-.29,0,1.71,1.71,0,0,1-1.09-.78,4.48,4.48,0,0,1-.38-3.3c.42-2.07,1.68-3.42,2.94-3.19a1.75,1.75,0,0,1,1.08.77,4.57,4.57,0,0,1,.39,3.31C185.48,224.51,184.38,225.82,183.23,225.82Zm.87-6c-.33,0-1,.75-1.3,2.13h0a3.28,3.28,0,0,0,.19,2.27c0,.06.13.18.22.2.31,0,1-.7,1.34-2.14a3.23,3.23,0,0,0-.2-2.28c0-.06-.12-.17-.21-.19Z"/><path class="cls-1" d="M187.27,225.74a1.09,1.09,0,0,1-.31,0,1.67,1.67,0,0,1-1.07-.78,5.31,5.31,0,0,1,1.33-6.22,1.61,1.61,0,0,1,1.29-.26c1.25.28,1.86,2,1.43,4.09C189.53,224.43,188.42,225.74,187.27,225.74Zm.91-6a.49.49,0,0,0-.22.09,3.39,3.39,0,0,0-1.1,2h0a3.34,3.34,0,0,0,.18,2.31.36.36,0,0,0,.21.19c.3.05,1.06-.71,1.36-2.13s-.08-2.42-.39-2.48Z"/><path class="cls-1" d="M190.52,223.57a1.23,1.23,0,0,1-.33,0,1.66,1.66,0,0,1-1.06-.79,5.37,5.37,0,0,1,1.38-6.21,1.63,1.63,0,0,1,1.3-.26,1.66,1.66,0,0,1,1.06.79,4.57,4.57,0,0,1,.33,3.33C192.78,222.29,191.66,223.57,190.52,223.57Zm1-6a.52.52,0,0,0-.23.08,3.34,3.34,0,0,0-1.12,2h0a3.35,3.35,0,0,0,.15,2.3.51.51,0,0,0,.21.2c.29,0,1.06-.68,1.39-2.12a3.36,3.36,0,0,0-.15-2.3c0-.06-.12-.17-.21-.19Z"/><path class="cls-1" d="M193.59,221a1.39,1.39,0,0,1-.35,0c-1.25-.29-1.83-2.08-1.36-4.14h0a4.6,4.6,0,0,1,1.75-2.87,1.63,1.63,0,0,1,2.36.56,4.63,4.63,0,0,1,.3,3.34C195.84,219.66,194.72,221,193.59,221Zm-.38-3.88c-.33,1.42,0,2.44.34,2.52s1.07-.67,1.41-2.11a3.36,3.36,0,0,0-.13-2.31c0-.07-.12-.18-.21-.2a.4.4,0,0,0-.27.08A3.37,3.37,0,0,0,193.21,217.07Z"/><path class="cls-1" d="M196.65,218.32a1.38,1.38,0,0,1-.35,0,1.74,1.74,0,0,1-1.05-.79,4.62,4.62,0,0,1-.28-3.38h0a4.61,4.61,0,0,1,1.79-2.86,1.82,1.82,0,0,1,1.31-.24c1.25.31,1.82,2.11,1.32,4.16C198.93,217.06,197.8,218.32,196.65,218.32Zm-.35-3.89a3.39,3.39,0,0,0,.11,2.34c0,.06.11.16.2.18.31.07,1.11-.67,1.46-2.1s0-2.44-.32-2.52a.46.46,0,0,0-.28.08A3.45,3.45,0,0,0,196.3,214.43Z"/><path class="cls-1" d="M199.78,215.71a1.59,1.59,0,0,1-.38-.06c-1.25-.32-1.8-2.11-1.28-4.17a4.55,4.55,0,0,1,1.76-2.83,1.76,1.76,0,0,1,1.35-.25,1.68,1.68,0,0,1,1,.81,4.59,4.59,0,0,1,.25,3.36,4.64,4.64,0,0,1-1.81,2.86A1.73,1.73,0,0,1,199.78,215.71Zm1.08-6a.45.45,0,0,0-.27.11,3.22,3.22,0,0,0-1.15,2v0c-.37,1.42,0,2.44.3,2.53a.37.37,0,0,0,.27-.09,4.12,4.12,0,0,0,1.1-4.34c0-.06-.11-.17-.2-.19A.06.06,0,0,0,200.86,209.71Z"/><path class="cls-1" d="M88.81,261.72H70.57V243a9.18,9.18,0,0,1,8.48-8.53,9.15,9.15,0,0,1,9.67,7.84h.09Zm-16.88-1.35H87.45l0-17.27a7.77,7.77,0,0,0-8.29-7.22,7.81,7.81,0,0,0-7.22,7.22Z"/><path class="cls-1" d="M134,261.72H115.77V243a9.12,9.12,0,0,1,18.15-.68H134v19.36Zm-16.91-1.35h15.55v-16.9l-.06-.38a7.76,7.76,0,0,0-15.49,0Z"/><path class="cls-1" d="M88.81,246.57H70.54v-3.14H88.81ZM71.9,245.21H87.45v-.42H71.9Z"/><rect class="cls-1" x="78.69" y="244.32" width="1.98" height="17.39"/><path class="cls-1" d="M134,246.57H115.74v-3.14H134Zm-16.91-1.36h15.55v-.42H117.1Z"/><rect class="cls-1" x="123.89" y="244.32" width="1.98" height="17.39"/><path class="cls-1" d="M178.23,277.69H155.76V234.45h22.47Zm-21.11-1.37h19.75V235.8H157.12Z"/><path class="cls-1" d="M168.47,277.69h-2.26V257.17H155.76V254.3h10.45V244.2H155.76v-2.31h10.45V235h2.26v6.93h9.72v2.31h-9.72v10.1h9.61v2.87h-9.61Zm-.9-21.88h9.15v-.15h-19.6v.15Z"/><path class="cls-1" d="M48.85,277.69H26.38V234.45H48.85Zm-21.11-1.37H47.49V235.8H27.74Z"/><path class="cls-1" d="M39.1,277.69H36.83V257.17H26.38V254.3H36.83V244.2H26.38v-2.31H36.83V235H39.1v6.93h9.71v2.31H39.1v10.1h9.6v2.87H39.1Zm-.91-21.88h9.15v-.15H27.74v.15Z"/><path class="cls-1" d="M104.39,277.69h-4.22V227.36h4.22Zm-2.86-1.37H103V228.71h-1.5Z"/><rect class="cls-1" x="156.28" y="267.56" width="21.46" height="9.09"/><rect class="cls-1" x="26.86" y="267.56" width="21.46" height="9.09"/><polygon class="cls-1" points="1125.91 190.82 1123.69 3.69 1115.67 3.69 1113.66 190.72 1110.48 190.69 1112.52 0.48 1126.86 0.48 1129.11 190.78 1125.91 190.82"/><path class="cls-1" d="M1118.29,200.06h-3v-7a.84.84,0,0,0-.28-.34c-.88-.75-3.2-1.32-6.25-.82l-5.58,1.36v6.2h-3v-8.58l8.06-2c3.6-.6,7,0,8.75,1.49a3.48,3.48,0,0,1,1.33,2.64v7Z"/><path class="cls-1" d="M1115.18,278.51h-22.57a3.53,3.53,0,0,1-3-3.79V217.92l10.57-3.52a1.14,1.14,0,0,0,.1-.45v-9.26h3v9.23a4,4,0,0,1-1.07,2.79l-.26.28-9.33,3.11V275a.49.49,0,0,0,.35.53h22a.49.49,0,0,0,.35-.53V204.69h3v70a3.51,3.51,0,0,1-3,3.79Z"/><rect class="cls-1" x="1097.76" y="217.46" width="7.99" height="3.02" transform="translate(874.24 1319) rotate(-89.56)"/><path class="cls-1" d="M1150.91,278.51h-22.56a3.53,3.53,0,0,1-3-3.79l-.14-70h3l.14,70.2V275a.49.49,0,0,0,.36.53h22a.5.5,0,0,0,.36-.53V220.14l-9.33-3.11-.26-.28a4,4,0,0,1-1.07-2.76l-.43-8.42,3-.16.44,8.52v0a1.13,1.13,0,0,0,.09.45l10.57,3.52V274.7a3.52,3.52,0,0,1-3,3.79Z"/><path class="cls-1" d="M1125.36,200.18c-.68-8.33,1.21-10.33,2.41-10.78l.18-.08.2,0c.91-.09,9-.76,12.55,2.45a5,5,0,0,1,1.69,3.77l.18,3.48-3,.16-.19-3.56a2,2,0,0,0-.68-1.61c-1.82-1.64-6.69-1.92-9.71-1.72-.31.55-1,2.43-.59,7.66Zm3.74-8.11Z"/><rect class="cls-1" x="1140.44" y="215.01" width="3.02" height="15.98" transform="translate(-1.64 8.59) rotate(-0.43)"/><path class="cls-1" d="M1145.92,205.79H1096.4V199h49.52Zm-47.32-2.22h45.1v-2.42h-45.1Z"/><rect class="cls-1" x="1114.11" y="31.22" width="12.76" height="3.3"/><rect class="cls-1" x="1118.67" y="62.09" width="3.3" height="13.37" transform="translate(1044.84 1188.65) rotate(-89.66)"/><rect class="cls-1" x="1118.52" y="97.79" width="3.3" height="13.97" transform="translate(1002.52 1223.66) rotate(-89.34)"/><rect class="cls-1" x="1118.35" y="133.33" width="3.3" height="14.58" transform="translate(960.92 1258.15) rotate(-89.05)"/><rect class="cls-1" x="1118.16" y="168.96" width="3.3" height="15.19" transform="translate(919.66 1292.39) rotate(-88.79)"/><rect class="cls-1" x="1116.77" y="273.28" width="10.11" height="3.02"/><rect class="cls-2" x="101.53" y="259.29" width="1.5" height="4.53"/></g></g></svg>