<?xml version="1.0" encoding="utf-8"?>
<!-- Generator: Adobe Illustrator 24.3.0, SVG Export Plug-In . SVG Version: 6.00 Build 0)  -->
<svg version="1.1" id="Layer_1" xmlns="http://www.w3.org/2000/svg" xmlns:xlink="http://www.w3.org/1999/xlink" x="0px" y="0px"
	 viewBox="0 0 541 542" style="enable-background:new 0 0 541 542;" xml:space="preserve">
<style type="text/css">
	.st0{display:none;fill:none;stroke:#172944;stroke-miterlimit:10;}
	.st1{display:none;}
	.st2{display:inline;}
	.st3{display:inline;clip-path:url(#SVGID_2_);}
	.st4{fill:none;stroke:#172944;stroke-miterlimit:10;}
	.st5{fill:#FFFFFF;stroke:#172944;stroke-miterlimit:10;}
	.st6{fill:#212848;}
	.st7{fill:none;stroke:#3E4354;stroke-width:2.5113;stroke-miterlimit:10;}
</style>
<circle class="st0" cx="-565" cy="1141" r="50"/>
<g class="st1">
	<defs>
		<circle id="SVGID_1_" cx="-565" cy="1141" r="50"/>
	</defs>
	<clipPath id="SVGID_2_" class="st2">
		<use xlink:href="#SVGID_1_"  style="overflow:visible;"/>
	</clipPath>
	<g class="st3">
		<path class="st4" d="M-564,1140c0,0,1-3,4-4s7-1.4,8-0.7s4.79,2.7,4.89,4.7s0,2.83,0,2.83S-544,1144-542,1145s4,3,5,5s3,7,3,8
			s0,4.49,0,4.49s3,1.51,3,3.51s1,4.87,0,5.94s-5,4.06-6,4.06s-5,0-6-1s-1-3-1-3s-4,1-5,2s-4,1-4,1s-1,3-3,3s-5,0.32-8-1.34
			s-6-2.66-6-2.66s-2,3-7,0c-2.06-1.24-3-4-3-4s-2,2-4,1s-7-6-7-10s1-8,3-9s6-2,6-2s1-6,2-7s7-5,10-5S-566,1138-564,1140z"/>
		<path class="st4" d="M-563,1126l-2.11,1.5c0,0-0.89,2.5-1.89,2.5s-3.62,1.22-5.31,2.11c-1.69,0.89-4.69,0-4.69,0s-3,4.89-5,4.89
			s-8,1-10-1s-5-6-4-8s2-4,2-4s0-9,1-11s4-9,6-10s11-3,11-3s2-5,6-5s8,3,8,3s5-2,9,0s7,8,7,8v4.02c0,0,5,1.98,6,6.98s-3,11-6,12
			s-8,1.11-11,0.55C-560,1129-563,1126-563,1126z"/>
		<path class="st5" d="M-567,1118l3,6v4.79v3.7h-1.5l-5.5-2.49h-4v1.6l4.66,0.89l4.34,4.51l1,4c0,0,2,2,3,2s0-6,0-6l1-10l1-4l3-4
			l-1.6-1l-3.4,5l-2-4l-1-3L-567,1118z"/>
		<polygon class="st5" points="-561,1167 -561,1175 -564,1180 -566,1182.66 -568,1182 -571,1175 -574,1170 -577,1170 
			-573.79,1175.33 -571,1182 -572,1189 -574,1195 -561.91,1195 -561,1181.5 -556,1176 -550,1169 -554,1169 -558,1173 -559,1167 		
			"/>
	</g>
</g>
<g>
	<circle class="st6" cx="269.38" cy="270.3" r="252.03"/>
	
		<ellipse transform="matrix(0.7071 -0.7071 0.7071 0.7071 -112.229 269.6509)" class="st7" cx="269.38" cy="270.3" rx="192.81" ry="192.81"/>
	
		<ellipse transform="matrix(0.7071 -0.7071 0.7071 0.7071 -112.229 269.6509)" class="st7" cx="269.38" cy="270.3" rx="122.37" ry="122.37"/>
</g>
</svg>
