<svg id="Layer_1" data-name="Layer 1" xmlns="http://www.w3.org/2000/svg" viewBox="0 0 414.74 233.29"><defs><style>.cls-1{fill:#fff;}.cls-2{fill:#162142;}.cls-3{fill:#eeb926;}.cls-4{fill:none;stroke:#c3b595;stroke-miterlimit:10;stroke-width:3px;}</style></defs><path class="cls-1" d="M259.12,46c0,13.35-21.68,24.26-48.19,24.26h-4.22c-26.5,0-48.18-10.91-48.18-24.26s21.68-24.26,48.18-24.26h4.22C237.44,21.77,259.12,32.68,259.12,46Z"/><path class="cls-2" d="M253.18,46c0,10-16.58,18.2-36.85,18.2h-15c-20.27,0-36.85-8.19-36.85-18.2s16.58-18.2,36.85-18.2h15C236.6,27.83,253.18,36,253.18,46Z"/><path class="cls-2" d="M255.2,46c0,11.41-17.85,20.74-39.68,20.74H202.13c-21.83,0-39.69-9.33-39.69-20.74s17.86-20.74,39.69-20.74h13.39C237.35,25.29,255.2,34.62,255.2,46Z"/><path class="cls-3" d="M191.43,54.1l-.22.41,0,.23.1.3a.55.55,0,0,1,0,.33l-.15.38.08.56v.18a.45.45,0,0,1-.1.3l-.36.44a.41.41,0,0,1-.32.17h-.2l-.28,0a.46.46,0,0,1-.2,0l-.33-.12-.53.17-.12,0h-.3s-.05,0-.08,0l-.58-.12-.37,0H187l-.11,0-.52-.18-.3.18a.5.5,0,0,1-.33.07l-.25,0-.78-.07h-.38a.44.44,0,0,1-.15-.05l-.17-.06-.76.11a.34.34,0,0,1-.17,0l-.18,0-.4.08-.73.17c-.05,0-.1,0-.15,0l-.35-.05-.56-.12-.15.1a.38.38,0,0,1-.27.1H180a.43.43,0,0,1-.16,0l-.47-.23-.3.15a.38.38,0,0,1-.18.08l-.58,0H178a.56.56,0,0,1-.26-.1l-.27-.2a.45.45,0,0,1-.15-.48l.12-.46-.07-.25V55.4l0-.13.2-.46,0-.05-.18-.17a.56.56,0,0,1-.1-.33l.08-.49.15-.71-.1-.71-.05-.17a.42.42,0,0,1,.05-.36l.22-.33-.12-.48a.4.4,0,0,1,.05-.36l.1-.15.28-.38.32-.69a.46.46,0,0,1,.13-.48l.2-.15.07-.3a.45.45,0,0,1,.36-.33l.25,0,.25-.46a.46.46,0,0,1,.22-.2l.18,0,.73-.84.1-.07.25-.13a.19.19,0,0,1,.1,0l.35-.05.33-.31.1-.07.6-.26.08-.17a.38.38,0,0,1,.32-.28l.43-.08.13-.43a.38.38,0,0,1,.12-.18l.25-.23a.35.35,0,0,1,.13-.05l.45-.17.4-.31.48-.38.2-.33s.08,0,.1-.08l.43-.33.05-.27c0-.06,0-.06,0-.11l.28-.4-.08-1L186,40.1l-.25-.41-.1,0-.45-.41h-.43l-1.31,0-.3.18a.33.33,0,0,1-.2,0l-.28,0-.55.56-.18.25a.11.11,0,0,1-.07.08l-.25.2-.05,0-.28.18-.25.46a.44.44,0,0,1-.28.23l-.2,0a.34.34,0,0,1-.37-.08l-.26-.2-.52-.38h-.13a.54.54,0,0,1-.3-.15l-.25-.28-.48-.28-.43-.21-.35-.2a.35.35,0,0,1-.15-.18l-.25-.5a.4.4,0,0,1,0-.31l.1-.38a.19.19,0,0,1,.05-.13l.12-.2.45-.56.28-.33.15-.35s.05-.15.1-.18l.3-.23.08-.05.45-.18.1-.28a.46.46,0,0,1,.28-.28l.37-.12.61-.51.2-.08.48-.1.62-.15.15-.08a.74.74,0,0,1,.21,0l.5.08.53-.1.45-.18a.39.39,0,0,1,.15,0l.93,0h.07l.53.1.45-.07h.13l.3,0a.49.49,0,0,1,.28.15l.1.11.68.3.27,0,.15,0,.43.13a.37.37,0,0,1,.23.23l.2.35.37.15a.06.06,0,0,1,.05,0l.23.13.45.45.33.18a.38.38,0,0,1,.2.3l.08.46.2.38.27.15a.38.38,0,0,1,.2.41l-.05.23.23.33a.49.49,0,0,1,0,.2l0,.64.1.25s0,.13,0,.15l0,.51.12.68c0,.05,0,.16,0,.21l-.2.63-.15.59-.05.25.1.23a.47.47,0,0,1,0,.33l-.13.28,0,.1-.45.48-.23.28v.25c0,.28-.07.48-.22.51l-.28.05-.15.51a.35.35,0,0,1-.2.25l-.38.21a.31.31,0,0,1-.2,0h-.2l-.55.71s-.08,0-.11.07l-.42.26-.3.4a.4.4,0,0,1-.13.13l-.28.15-.37.15-.56.41a.23.23,0,0,1-.17,0l-.4.05-.28.46-.05.07-.25.26-.4.33-.23.2-.1.08-.53.23-.2.33a.1.1,0,0,1,0,.07l-.4.38-.13.66s0,0,0,.08l-.08.15,0,.3.07,0,.25.1.46,0,.6-.1.33-.08a.24.24,0,0,1,.12,0l.45,0a.24.24,0,0,1,.13,0l.5.2.33-.1a.22.22,0,0,1,.1,0l.5,0,.55,0,.36-.08s.07,0,.12,0l.25,0,.08,0,.53.21.85-.18h.15l.38,0,.73.18.07-.05a.5.5,0,0,1,.66,0l.17.2a.46.46,0,0,1,.1.25v.36l0,.43A.45.45,0,0,1,191.43,54.1Z"/><path class="cls-3" d="M200,57.58h-.61l-.43,0-.52-.13H198l-.13,0-.65-.21a.37.37,0,0,1-.12-.07L197,57l-.5-.13-.4,0a.28.28,0,0,1-.18,0l-.25-.18a.44.44,0,0,1-.2-.28l0-.25-.43-.61s0-.05,0-.08l-.1-.25-.28-.36-.3-.43-.22-.35a.32.32,0,0,1-.08-.23v-.58l0-.36s0-.05,0-.1l.1-.43-.28-.43a.51.51,0,0,1-.07-.33l.25-1.07.05-.3-.18-.44a.43.43,0,0,1,0-.35l.18-.28L194,48.5v-.33l-.18-.44a.41.41,0,0,1,0-.43l.15-.12-.13-.69v-.13l.1-.45-.12-.43a.3.3,0,0,1,0-.23l.12-.33-.1-.48-.07-.41a.68.68,0,0,1,0-.2l.15-.41-.15-.3a.48.48,0,0,1,0-.38l.1-.16-.13-.76v-.1l0-.18.23-1.09-.23-.68,0-.13v-.25s0-.11,0-.13l.12-.33.23-.63,0-.28a.42.42,0,0,1,.13-.36l.27-.3,0-.46a.48.48,0,0,1,.08-.18l.17-.25a.26.26,0,0,1,.13-.1l.48-.26.1-.28a.37.37,0,0,1,.25-.25l.23-.08.27-.38a.48.48,0,0,1,.2-.15l.18,0,.12,0h.46l.4-.26s0,0,.07,0l.71-.25h.07l.23-.05a.38.38,0,0,1,.38.1l.12.15.45-.13c.25-.07.51,0,.56.1l.05.18a.47.47,0,0,1,0,.18l0,.51.15.28a.43.43,0,0,1,0,.25l0,.38.05.31v.17l-.07.36-.1.68.1.31,0,.12v.44a.5.5,0,0,1,0,.17c-.08.18-.23.31-.38.28l-.28,0-.42.53L199,40l-.2.63.25.89a.45.45,0,0,1,0,.28l-.13.31-.15.28.18.45a.49.49,0,0,1,0,.43l-.12.18.15.51a.47.47,0,0,1,0,.18l-.05.35.05.51.05.43a.55.55,0,0,1,0,.18l-.1.4-.15.56.15.33a.43.43,0,0,1,0,.38l-.07.15,0,.59.13.56v.33l0,.81.05.2a.45.45,0,0,1,0,.18l-.05.51-.1,1,.15.48.45.38.33.3h.12a.4.4,0,0,1,.36.18l0,0a.48.48,0,0,1,.08.28l-.1.71.05.08a.53.53,0,0,1,.1.25v.59l0,.07a.48.48,0,0,1,.05.26l0,.4,0,.59,0,.53-.07.48,0,.13-.05.07C200.3,57.55,200.18,57.58,200,57.58Zm2.46-4.87.32-.48-.1-.56v-.13l.15-.91L203,50l-.05-.08a.46.46,0,0,1,0-.33l.2-.63h0a.51.51,0,0,1-.21-.56l.16-.43-.11-.13a.46.46,0,0,1,0-.48l.18-.31-.18-.17a.43.43,0,0,1-.1-.31l.05-.63-.08-.28v-.18l.13-.46,0-.63-.07-.33,0-.08v-.61l0-.48-.1-.23c0-.05,0-.1,0-.15l0-.66,0-.28.21-1.21-.28-.23a.54.54,0,0,1-.1-.18l-.13-.33-.3-.36-.4,0a.41.41,0,0,1-.33-.25l-.07-.13a.62.62,0,0,1,0-.35l.08-.15-.18-.54a.66.66,0,0,1,0-.28l.18-.4h0a.51.51,0,0,1-.05-.36l.08-.25.07-.69-.22-.35a.49.49,0,0,1,0-.21v-.3a.42.42,0,0,1,.13-.33l.12-.1c.18-.18.38-.23.53-.1l.23.18.65-.18c.05,0,.1,0,.15,0l.45,0a.22.22,0,0,1,.1,0l.43.16.48.2.12.1.15.15.36,0a.41.41,0,0,1,.22.1l.3.31h.13a.42.42,0,0,1,.4.28l.18.4.2.08a.41.41,0,0,1,.22.25l.1.28.36.51.3.53a.54.54,0,0,1,0,.26v.15l.15.25a.47.47,0,0,1,.05.31l-.1.53.1.36.07.55.18,1.12v.13l-.05.38,0,.48,0,.31v.15l-.18.73V44l0,.54.18.43a.53.53,0,0,1,0,.25l0,.18,0,.74,0,.3a.56.56,0,0,1,0,.23l-.18.4,0,.71.1.33.13.51a.45.45,0,0,1-.08.36l-.13.2.23.46a.4.4,0,0,1,0,.2V50l0,.79,0,.68a.26.26,0,0,1,0,.16l-.2.63-.1.43.07.23a.45.45,0,0,1,0,.28l-.25.69-.05.27,0,.33a.43.43,0,0,1-.1.23l-.28.33-.35.48-.13.36c0,.08,0,.13-.1.15l-.37.36-.33.25-.43.31-.07,0-.53.2-.43.1h-.6l-.28.08-.35.3a.53.53,0,0,1-.28.1h-.42l-.66-.17-.25-.13a.51.51,0,0,1-.2-.41v-.43l-.05-.28v-.94a.25.25,0,0,1,.08-.2l.22-.28-.12-.68-.13-.51,0-.08v-.23a.53.53,0,0,1,.05-.2l0-.13a.39.39,0,0,1,.3-.2l.38-.1Z"/><path class="cls-3" d="M224.6,54.1l-.23.41,0,.23.1.3a.48.48,0,0,1,0,.33l-.15.38.07.56v.18a.41.41,0,0,1-.1.3l-.35.44a.43.43,0,0,1-.33.17h-.2l-.27,0a.53.53,0,0,1-.21,0l-.32-.12-.53.17-.12,0h-.31l-.07,0-.58-.12-.38,0h-.45l-.1,0-.53-.18-.3.18a.49.49,0,0,1-.33.07l-.25,0-.78-.07h-.37a.44.44,0,0,1-.15-.05l-.18-.06-.75.11a.38.38,0,0,1-.18,0l-.17,0-.41.08-.72.17c-.06,0-.11,0-.16,0l-.35-.05-.55-.12-.15.1a.42.42,0,0,1-.28.1h-.35a.44.44,0,0,1-.15,0l-.48-.23-.3.15a.32.32,0,0,1-.17.08l-.58,0h-.33a.53.53,0,0,1-.25-.1l-.28-.2a.45.45,0,0,1-.15-.48l.13-.46L210.5,56V55.4l0-.13.2-.46,0-.05-.17-.17a.5.5,0,0,1-.1-.33l.07-.49.15-.71-.1-.71,0-.17a.51.51,0,0,1,0-.36l.23-.33L210.7,51a.47.47,0,0,1,.05-.36l.1-.15.28-.38.33-.69a.48.48,0,0,1,.12-.48l.2-.15.08-.3a.45.45,0,0,1,.35-.33l.25,0,.25-.46a.44.44,0,0,1,.23-.2l.18,0,.72-.84.1-.07.26-.13a.14.14,0,0,1,.1,0l.35-.05L215,46l.1-.07.6-.26.07-.17a.4.4,0,0,1,.33-.28l.43-.08.12-.43a.49.49,0,0,1,.13-.18l.25-.23a.35.35,0,0,1,.13-.05l.45-.17.4-.31.48-.38.2-.33s.07,0,.1-.08l.43-.33.05-.27c0-.06,0-.06.05-.11l.27-.4-.07-1-.35-.73-.26-.41-.1,0-.45-.41h-.43l-1.3,0-.3.18a.34.34,0,0,1-.2,0l-.28,0-.55.56-.18.25a.11.11,0,0,1-.07.08l-.26.2-.05,0-.27.18-.25.46a.44.44,0,0,1-.28.23l-.2,0a.36.36,0,0,1-.38-.08l-.25-.2-.53-.38h-.12a.51.51,0,0,1-.3-.15l-.26-.28-.47-.28-.43-.21-.35-.2a.31.31,0,0,1-.15-.18l-.25-.5a.44.44,0,0,1,0-.31l.1-.38a.25.25,0,0,1,0-.13l.13-.2.45-.56.28-.33.15-.35s0-.15.1-.18l.3-.23.07-.05.46-.18.1-.28a.47.47,0,0,1,.27-.28l.38-.12.6-.51.2-.08.48-.1.63-.15.15-.08a.67.67,0,0,1,.2,0l.5.08.53-.1.45-.18a.39.39,0,0,1,.15,0l.93,0h.08l.53.1.45-.07h.13l.3,0a.43.43,0,0,1,.27.15l.1.11.68.3.28,0,.15,0,.43.13a.38.38,0,0,1,.22.23l.2.35.38.15a.06.06,0,0,1,.05,0l.23.13.45.45.33.18a.4.4,0,0,1,.2.3l.07.46.2.38.28.15a.38.38,0,0,1,.2.41l0,.23.23.33a.73.73,0,0,1,.05.2l0,.64.1.25s0,.13,0,.15l0,.51.13.68a.74.74,0,0,1,0,.21l-.2.63-.15.59-.05.25.1.23a.54.54,0,0,1,0,.33l-.12.28-.05.1-.46.48-.22.28v.25c0,.28-.08.48-.23.51l-.28.05-.15.51a.32.32,0,0,1-.2.25l-.37.21a.31.31,0,0,1-.2,0h-.21l-.55.71s-.07,0-.1.07l-.43.26-.3.4a.3.3,0,0,1-.12.13l-.28.15-.38.15-.55.41a.25.25,0,0,1-.18,0l-.4.05-.27.46-.05.07-.26.26-.4.33-.22.2-.1.08-.53.23-.2.33s0,0-.05.07l-.4.38-.13.66s0,0,0,.08l-.07.15,0,.3s.05,0,.08,0l.25.1.45,0,.61-.1.32-.08a.28.28,0,0,1,.13,0l.45,0a.24.24,0,0,1,.13,0l.5.2.33-.1.1,0,.5,0,.55,0,.35-.08c.05,0,.08,0,.13,0l.25,0,.07,0,.53.21.86-.18h.15l.37,0,.73.18.08-.05a.49.49,0,0,1,.65,0l.18.2a.46.46,0,0,1,.1.25v.36l.05.43A.45.45,0,0,1,224.6,54.1Z"/><path class="cls-3" d="M240.63,56.29a.51.51,0,0,1,0,.22l-.15.31-.37.43a.5.5,0,0,1-.31.15l-.37,0-.4,0-.21,0a.34.34,0,0,1-.22,0l-.55-.25-.28.18a.45.45,0,0,1-.43.05l-.2-.08-.73-.15-.12.13a.4.4,0,0,1-.25.12l-.43.05h-.15l-.5-.12-.58-.13-.46.2a.23.23,0,0,1-.15.05h-.15a.33.33,0,0,1-.22-.05l-.43-.25-.18.15a.42.42,0,0,1-.42.08l-.4-.1-.18.12a.57.57,0,0,1-.25.1h-.38a.37.37,0,0,1-.17,0l-.53-.25-.5-.05-.31.18a.36.36,0,0,1-.35.05l-.25-.05-.53,0s-.1,0-.12,0l-.28-.1-.1,0c-.3-.1-.53-.28-.48-.38l.1-.21-.2-.6v-.46a.46.46,0,0,1,0-.2l.17-.28-.17-.49a.47.47,0,0,1,0-.33l.15-.25.07-.58a.46.46,0,0,1,0-.41l.08-.2a.48.48,0,0,1,.43-.31l.77,0a.49.49,0,0,1,.21,0l.45.18.35-.08a.34.34,0,0,1,.33.05l.12.1.55-.2a.2.2,0,0,1,.11,0l.42,0h.28l-.08-.53v-.25l-.17-.56s0,0,0-.08l0-.45v-.13l.15-.53.07-.39.08-.6-.2-.33a.5.5,0,0,1,0-.46l.2-.28-.2-.25a.33.33,0,0,1-.1-.23l0-.31a.47.47,0,0,1,.05-.25l.1-.13-.13-.63a.61.61,0,0,1,0-.23l.15-.3-.18-.51s0-.05,0-.1v-.61l.12-.48-.05-.28a.44.44,0,0,1,0-.26l.07-.1v-.58l-.52-.56-.51-.18-.8.23a.36.36,0,0,1-.33,0l-.25-.18-.48,0a.36.36,0,0,1-.22,0l-.25-.16a.47.47,0,0,1-.23-.38l0-.2.08-.53-.1-.76-.11-.16a.41.41,0,0,1,0-.38l.23-.55v-.54a.42.42,0,0,1,.08-.61l.37-.2.23-.15a.49.49,0,0,1,.25-.08h.38l.32-.15a.46.46,0,0,1,.36,0l.22.08.58-.33.3-.3.33-.38.2-.54.2-.38.08-.1.2-.2a.5.5,0,0,1,.4-.13l.5.1.38.05.27-.17a.49.49,0,0,1,.28-.06l.48.06a.1.1,0,0,1,.07,0l.28.1.45-.15,0,0,.28,0a.27.27,0,0,1,.2,0l.45.18a.35.35,0,0,1,.23.17l.1.18a.67.67,0,0,1,.07.18l0,.33.17.66a.31.31,0,0,1,0,.23l-.1.38v.3s0,0,0,.08l-.08.38,0,.46v.73l0,.51.21.48a.9.9,0,0,1,0,.23l-.05.28s0,0,0,.08l-.1.25.05.68a.62.62,0,0,1,0,.18l-.13.36.15.4a.47.47,0,0,1,0,.26l-.08.4.05.31,0,.48v.76l-.07.25-.15.59.07.53.1.41v.17l-.07.54.12.33a.35.35,0,0,1,0,.35l-.1.13-.05.56-.07.66,0,.43.1.56v.17l-.07.39,0,.1c.15.2.18.43.07.5l-.17.16.17.28a.4.4,0,0,1,0,.35l-.12.48h.07a.48.48,0,0,1,.31.1l.2.18.75,0,.53,0h.25l.75-.2s.1,0,.13,0h.05a.36.36,0,0,1,.3.18l.33.43a.45.45,0,0,1,.1.28v.28l0,.4v.13l-.12.53-.05.15.15.38c0,.08.07.13.05.23l-.05.33Z"/><path class="cls-4" d="M252.4,46c0,10-17.85,18.2-39.68,18.2h-7.79c-21.83,0-39.69-8.19-39.69-18.2s17.86-18.2,39.69-18.2h7.79C234.55,27.83,252.4,36,252.4,46Z"/><path class="cls-1" d="M174.35,135.37l-1.22-.08-1.22-.19-.43.05a4.85,4.85,0,0,1-2.2-.12l-.36-.1-1.6-.34a4.7,4.7,0,0,1-1.75-.65l-.49-.15a5.08,5.08,0,0,1-3-2.29l-.51-.48-.9-1.21a4.48,4.48,0,0,1-.32-.56l-.15-.17a5,5,0,0,1-1.08-1.82l-.15-.42a5,5,0,0,1-.36-1.67l0-.22,0-1-.1-1.64.16-.19,0-.17-.07-1.14.13-1,0-.42.27-.71.09-.23.5-1.34.46-.76.47-.87.08-.17a5,5,0,0,1-.63-.88,5.3,5.3,0,0,1-1.39-2l-.07-.17-.94-1.3-.21-.51c0-.1-.1-.26-.17-.46l-.49-.62a5.35,5.35,0,0,1-.86-4l.24-.89a5.37,5.37,0,0,1,2.49-3.28l.58-.31.39-.29a5.46,5.46,0,0,1-1.06-1l-.48-.56a5.14,5.14,0,0,1-1.06-3.26l0-.3.05-.34a5.09,5.09,0,0,1-.26-2.54,5.86,5.86,0,0,1-.18-1.1v-.24a5.32,5.32,0,0,1,2.67-5L160,86a5,5,0,0,1,1.12-.5l.8-.42a5.13,5.13,0,0,1,2.64-.48l.5,0,.06-.16.29-.62a5.42,5.42,0,0,1,5.22-3h.26a5.17,5.17,0,0,1,3.56-.22l.09,0a9.86,9.86,0,0,1,6.86.9l.71.58a5.56,5.56,0,0,1,1.14,1.39,5.09,5.09,0,0,1,1.1.21,4.52,4.52,0,0,1,.75-.13l1.09-.12A5.46,5.46,0,0,1,189,84a5.51,5.51,0,0,1,1.59-2.13l.5-.37a5.47,5.47,0,0,1,3.13-1.14l.71-.28a5.37,5.37,0,0,1,3.05-.11,5,5,0,0,1,2.3-.14l.26,0h0a5.37,5.37,0,0,1,4.16.88l.6.41a5.42,5.42,0,0,1,2.35,5v.09l.12,1.53-.15,1,.13.58.18.31.1,1.54a5.08,5.08,0,0,1-.17,1.66,5.12,5.12,0,0,1,0,3l.08,1.18.15,1,0,.78v1.26l.39,1,.07,1.06a4.87,4.87,0,0,1,.32,1.41l.15,1.36-.19,1.74-.07.2a4.77,4.77,0,0,1,.37,1.56l0,.35a5.38,5.38,0,0,1-1.54,4.14l.09.22h0l.07.06a5.39,5.39,0,0,1,1.78,3.67l.43,1.31.24.49.08,1.08.08,2-.27,2.44-.15.81a5,5,0,0,1-.68,1.92l-.14.23a5.05,5.05,0,0,1-1.7,1.91,5.5,5.5,0,0,1-.82,1.23l-.32.32L204.85,132l-1.13.62-1.23.43-1.18.36a5.23,5.23,0,0,1-2.86.07l-1.23.24-1.4.38-.35.05a5.28,5.28,0,0,1-2.59-.12l-.4.08-3.11.41-.68-.09a4.64,4.64,0,0,1-1.85-.09l-.27-.05a4.35,4.35,0,0,1-1.13-.26,5.43,5.43,0,0,1-1.64.74l-.52.11-1.43.15-.79-.06-.78.12a5,5,0,0,1-1.84,0,5.17,5.17,0,0,1-2.18.08,2.7,2.7,0,0,1-.41.06Zm15.46-4.68,0,.09Zm-23.19-3.88-.05.06Zm3.13-.9h.06l-.95-5.92-.72.39-.3.55,0,.36,0,.07.28,1.1-.32,1.54.38.43.24.6.53.49.43.13Zm29.36-7.78.67,5.43,1.53-1.16.09-.84,0-.83-.56-1.7-.36-.54-.27-.06-.23-.2Zm-32,4.37,0,.06Zm-7.3-1.6-.05.06ZM199,104.34l.52.46-.51,1.54.69-.09,0-.71.22-.6-.34-.75V103l-.49-1.32,0-2.57,0-.31-.77,3.29,0,.37.67,1.83Zm-29.4.38,0,0Zm.52-.46-.26.48.22-.13.29-.58Zm.87-1-.3.36.51-.28,0-.19,2.29-2,.25-.53,0-.39.65-1.7v0l.4-1.61.3-.6-.88-4.7.74,0-.23-2-.87-.1.31,5-1.33-.28.78.69-.08,3.47-.76,1.78-.53,1.89Zm27,.16h0v0Zm-3.83-6.73,4.78.44L198.81,96l-.13-1,.13-.4v0l-.37-3.28.39-.59L198.35,89l-.54,0,.08,1.22-.19,2.06-.22,4.38-3.29-.08Zm5.24-.93,0,.07Zm-29.25-6h0Z"/><path class="cls-1" d="M233.17,134.79a5.32,5.32,0,0,1-1.85-.34h-.11l-.51,0a5.1,5.1,0,0,1-2.74,0,5.22,5.22,0,0,1-2,0h0a5.43,5.43,0,0,1-4.53-2.44l-.62-1a5.35,5.35,0,0,1-.8-2.82,5.73,5.73,0,0,1-.09-1.3l0-.31.13-1.14-.55-.08-1.71.08-2-.17-.91-.31-.56.12a4.81,4.81,0,0,1-1.82.1h-.28l-1.39-.37a5.31,5.31,0,0,1-5-1.25l-.32-.3a5.2,5.2,0,0,1-1.67-4.59,5,5,0,0,1-.1-1.28l0-.36.14-1.12a2.91,2.91,0,0,1,0-.31v-.37l.13-.3v-.18l.12-1.6a5.17,5.17,0,0,1,1.65-3.65l1-1a5.31,5.31,0,0,1-.18-1.37l-.13-.3a4.19,4.19,0,0,1-.22-.59l-.13-.31-.51-.81a5.43,5.43,0,0,1,.65-6.68l.28-.28a5.36,5.36,0,0,1,2.91-1.56l-.29-.22a5.46,5.46,0,0,1-1.93-3.09l-.11-.73a5.06,5.06,0,0,1,.14-2.44l.22-.65a5.24,5.24,0,0,1,.17-3,5.41,5.41,0,0,1,3-5.07l.51-.26a5.62,5.62,0,0,1,2.47-.48l1.43.06a5.11,5.11,0,0,1,1.64.34h0a5.34,5.34,0,0,1,2.08-.3l.33,0,.71.08.2-.06,1.58.06a4.33,4.33,0,0,1,1,.15,5.77,5.77,0,0,1,1.12-.07l2.29.17,1.25.16.47,0,.41.1.46,0,1.22-.07,1.76.07a4.59,4.59,0,0,1,1.53-.18l1.48.06,1.84.35,1.11.05h0a5.11,5.11,0,0,1,2.2,0,5,5,0,0,1,2,.09l.66,0h.16a5.4,5.4,0,0,1,1.51.26,5.41,5.41,0,0,1,1.84,0h.06a5.2,5.2,0,0,1,2.26.09l.64-.1a4.6,4.6,0,0,1,2.44.12l.4.1a5.23,5.23,0,0,1,3.12,2.5l.79,1.4a5.41,5.41,0,0,1,.32,4.15l0,.29a4.28,4.28,0,0,1,.12,1.23l-.18,2.34-.39,1.36a5.13,5.13,0,0,1-1.73,2.41l-.3.24.39.19.51,0,1.25,1a5.4,5.4,0,0,1,1.5,5.83l-.32,1a4.51,4.51,0,0,1-.72,1.54,5.14,5.14,0,0,1-1.21,2.42l.23.14a5.33,5.33,0,0,1,2.49,3.37l.43,2,0,.67a4.88,4.88,0,0,1-.24,1.32,5.5,5.5,0,0,1-.15,2.18l0,.62v0a5.42,5.42,0,0,1-3.23,5.24l-1.36.64a5.27,5.27,0,0,1-2.47.52h-.41a5.29,5.29,0,0,1-1.73-.34,5.15,5.15,0,0,1-1.71-.14h-.09a5.38,5.38,0,0,1-2.7-.1l-.15,0a4.72,4.72,0,0,1-1.61.2l-1.4-.11a4.88,4.88,0,0,1-.23,1.78l-.21,1a5.24,5.24,0,0,1-2.14,4.08l-.44.35a5.16,5.16,0,0,1-3.39,1.17l-.31.06A5.45,5.45,0,0,1,233.17,134.79Zm1.6-9.17h0Zm-4.87-.23.76,0,1.08-.42-.05-2,.19-.63-1.28-5-.67.09-.47-.16-.15,4.23v.06l.71,2.25-.66,1,0,.13,0,.11ZM212,119l0,0Zm23.17-1.44-.13.06Zm13.2-11.2h0Zm-1.83-.48.18,0,.19-.22-1-.48-1,0,.65.26Zm-27.36-.75.06,0Zm24-.58.28.09L243,104l-.35,0,.06.22Zm-20-2.25.35,0,.28-.39-.5.16Zm4.11-3.12-.28,1.19.61-.08.34-.31.16-.89,1.83-1.15.39-.67.89-1.87.37-2.11,0-.2-3.26,5.06Zm-.8.75,0,0Zm2.83-9.51,2,.36,0-.37-1.22,0Zm-11-.24.12.06Z"/><path class="cls-1" d="M101.51,209.37a5,5,0,0,1-1.38-.2l-1.43-.48A5,5,0,0,1,95,204l-.13-.13-.59-1-.72-2-.51-1.12-.27-.73a5.33,5.33,0,0,1-.33-1.41,5.23,5.23,0,0,1-.84-2l-.12-.53a6.43,6.43,0,0,1-.22-.71,4.82,4.82,0,0,1-.5-.27l-.8-.42-.43-.4-.32-.33-.12-.11a5.31,5.31,0,0,1-1.78-3.27,5.1,5.1,0,0,1-.8-2.27,5.24,5.24,0,0,1-.37-4.25l.14-.45a4.72,4.72,0,0,1,.43-1L86,180.25a5.57,5.57,0,0,1-.73-2.32l-.1-.11-.11-.3c-.07-.12-.13-.26-.19-.39l-.39-.88a5.48,5.48,0,0,1-.37-1.77h0a5.63,5.63,0,0,1-1.19-1.87l-.34-1.06c0-.16-.09-.32-.13-.46l-.18-.49h0a5.26,5.26,0,0,1-.66-1.89,5.41,5.41,0,0,1,.81-5.61l.44-.48a5.12,5.12,0,0,1,2.06-1.33l0,0,.29-.19a4.69,4.69,0,0,1,2.22-.88l.12-.05,1.49-.72a4.88,4.88,0,0,1,1.22-.3,5.25,5.25,0,0,1,2.71-.9l1.4-.76a5.11,5.11,0,0,1,2.49-.62l.79-.29a5.19,5.19,0,0,1,4.42-1.43l.38,0a5,5,0,0,1,1.54-1,5.18,5.18,0,0,1,2.28-1.2,4.47,4.47,0,0,1,1.32-.59l1.87-.7.24,0,.79-.3,1-.29a5.32,5.32,0,0,1,1.46-.81l.52-.16.57-.13a4.28,4.28,0,0,1,1-.18l.2-.13a5.05,5.05,0,0,1,2-.84,5,5,0,0,1,1.86-.61l.5-.07a5.39,5.39,0,0,1,4.91.73l.24.18a4.84,4.84,0,0,1,1.53,1.62h0l.35.43,1,2.45.17.89a5.25,5.25,0,0,1,.6,1.15l.42,1.32.08.52a4.46,4.46,0,0,1,.51,1l0,0a4.64,4.64,0,0,1,.49.83l.53,1.1.49,1.42.86,3.29a5.35,5.35,0,0,1,3,2.66,5,5,0,0,1,1.21,1.85l.23.6a4.58,4.58,0,0,1,.19.66l.07.25a5.25,5.25,0,0,1,.93,2.72l0,.58a5.32,5.32,0,0,1-.86,3.14l-1.38,2.12-.49.18,0,0a5.36,5.36,0,0,1,3.11,1.65l.28.29a5.06,5.06,0,0,1,1,1.42,4.94,4.94,0,0,1,1.41,2.43,5,5,0,0,1,.49,1l.16.42.43,2.69a5.13,5.13,0,0,1-.46,2.81l-.45.81a5.19,5.19,0,0,1-3.19,2.61,5.57,5.57,0,0,1-1.69.75,5.14,5.14,0,0,1-2.41.72l-1.07.37L130.82,199l-1.18.44a5.06,5.06,0,0,1-2.17.32l-.17.07-.81.33a4.86,4.86,0,0,1-2.32,1l-.71.14-1.37.54-.52.15-1.2.45a5.35,5.35,0,0,1-2.25,1,5.36,5.36,0,0,1-2.53,1l-.68.07-.69.47a5,5,0,0,1-1,.6l-1.3.55-1.43.4a4.79,4.79,0,0,1-1.35.58,4.2,4.2,0,0,1-1,.17l-.12,0-1,.37-.45,0-.42.14a4.8,4.8,0,0,1-1.55.63A5.38,5.38,0,0,1,101.51,209.37Zm.79-10.78.23.25.3.51,1.55-.51-2.26-3-.25-1-.37,0,0,1.62.58,1.27Zm-9.62-10.9h0Zm38.19-.81v0ZM112,180.79l1.53,4.08h.07l-.28-2.71-.34-1.86Zm2.2,3.1v0Zm6.4-21.91.77,2.05.11-.15.67.13-.08-.19-.49-.54-.43-1.13L120.5,161Zm-21.52-1.64v0Zm20.58-1,.5.64-.1-.65-.41-.42-.33-1.11-.19.12Z"/><path class="cls-1" d="M140.16,193.41a5,5,0,0,1-1.26-.16l-1.33-.33a5.09,5.09,0,0,1-1.77-1l-.56-.42-1.11-1.65a5.26,5.26,0,0,1-.67-3.43l-.11-.31-.17-1.17,0-.41-.16-.82-.11-.77.53-2.35a5.22,5.22,0,0,1,5-3.78h.29l.24-.06.49-.19,1.48-.16-.25-.11-1.13-.53-.48-.12a5,5,0,0,1-1.37-.61l-.83-.53a5.39,5.39,0,0,1-1.47-1.59l-.24-.17a5.25,5.25,0,0,1-2-3.15,4.77,4.77,0,0,1-1.08-2l-.22-.73,0-.34a5.13,5.13,0,0,1,0-1.83v-.05l-.35-1.9a5.49,5.49,0,0,1-.3-1.93c-.15-.15-.3-.32-.44-.49l-.57-.81-.14-.28a5.63,5.63,0,0,1-.6-1.83l-.06-.82v-.12a5.34,5.34,0,0,1-.42-2.26,5.61,5.61,0,0,1-.23-1l-.08-.51,0-.35a5.36,5.36,0,0,1,.57-4.35l.24-.36a5.16,5.16,0,0,1,4.46-2.32,4.88,4.88,0,0,1,1.7-.42l.16,0a5.24,5.24,0,0,1,2.19-2.76l.87-.55a5,5,0,0,1,1.71-.76l1.83-.38,1.23,0a4.79,4.79,0,0,1,.94,0l.89-.13.36.08a5.19,5.19,0,0,1,3.57-.88l1.9-.39a5.33,5.33,0,0,1,5.17,2.2l.43.58.06.08,1.62-.3.81-.08a4.7,4.7,0,0,1,.46-.75l.36-.49a10.14,10.14,0,0,1,6.27-2.61,5.25,5.25,0,0,1,.52-.17l1.29-.3a4.9,4.9,0,0,1,1.69,0l.78.08.73,0a5,5,0,0,1,3.18.78l.33.18a5.26,5.26,0,0,1,2.66,4.46l.06,2.23,0,.47.1.18a5,5,0,0,1,.58,2.72v.13l0,.26a5.31,5.31,0,0,1,.32,2.66c.06.12.1.24.15.37a5.46,5.46,0,0,1,3.33,1.72l1.06,1.21.28.48a5.22,5.22,0,0,1,.84,3.15l0,.39a6.09,6.09,0,0,1,.38,1.34l0,.45.06,1.92,0,.48.06.24a5.25,5.25,0,0,1-.49,4l-.53.79a5.22,5.22,0,0,1-2.35,1.89,5.18,5.18,0,0,1,.08,1.33,5.9,5.9,0,0,1,.3,1.19l.2,1.75a5.07,5.07,0,0,1,.46,2.5l0,.82,0,.65v.4l.16.51.13,1a5.16,5.16,0,0,1-.05,3.92,5.34,5.34,0,0,1-3.46,4.24l-.83.3-1.36.2c-.12,0-.33,0-.6.06a5.49,5.49,0,0,1-2.31.51,5.32,5.32,0,0,1-2.32.12,5.24,5.24,0,0,1-1.89-.05L168.8,189a5.15,5.15,0,0,1-2,.74l-.91.14-1.32,0h-.07a5.27,5.27,0,0,1-.77.06,4.9,4.9,0,0,1-2.2.38H161l-.45,0a5.31,5.31,0,0,1-1.54.44l-.48,0-1.4,0-.46,0a5.4,5.4,0,0,1-2.54.41,5.12,5.12,0,0,1-1.83.17l-1,.44-2.22.33-.23-.07a5.47,5.47,0,0,1-2.19.34,5.81,5.81,0,0,1-1.42.39l-2.65.29-.56,0A5.08,5.08,0,0,1,140.16,193.41Zm2-4.87,0,.05,0-.05Zm0,0h0v0Zm0-5.5h0v0Zm9.16-3.64.42,2.92.68-.07h0l.37-.14h.12l-.95-2.95v-.46l-.29.19-.39,0Zm21.92.69.26,0,.14-.07-.09-.29,0-1.39-.07-.84,0-.56-.14-.28-.49-2.86-.55-1,.1.42,0,1,.38,2,.15,1.06,0,.1.28,1.93Zm-10.85-7.55-.46.57a4.54,4.54,0,0,1,1-.27h0l-.29-.55Zm9-3.09.79,1.64.07.74.26-1,0-.31-.07-1-.24-1.41-.71-1.55-.07.15.41.65Zm-29.28-1.21v0Zm0-1.86.92.54-1.46-2.42-.81-1.7.34,1.77,0,.17,1,1.49Zm15.12-2.72-1.41,2.5-.11.08.37-.08.93-.81.28-.39.17-.53Zm13.58.46.64,1.22,1.2-2.54-1.71.79Zm-13.28-2.54.31.92,0-.06-.36-.89.17-1.26-.19-.07ZM170.09,158l.24.39.24-2-.43-1.11.11-.59-.32-.54-.76-4.22,0,3.23.34,2.31.68,2.11Zm-32.14.19,0,.06Zm1.8-4.51.6,2.93,1.28-2.7.53-.45-.07-.34-2,.29Zm16.37,1.95Zm14.26-1.73Zm-17.07-2.06,2.12.73,1.95-1.37v-.09l-.71.06-.78.21-2.51.27Zm15.07-3.25.79.47v.67l.25-.27,0-.4-.76-1.27,0-1-.29.16-.11,1.24v0Zm-15.76-.6h0Z"/><path class="cls-1" d="M224.64,190l-1.43,0-.56-.15a4.87,4.87,0,0,1-2.62-.22l-1.06-.38a3.58,3.58,0,0,1-.55-.28,5.08,5.08,0,0,1-3.94.7l-1.52-.14h0a5.2,5.2,0,0,1-3.17-.36l-.26,0a5.34,5.34,0,0,1-2-.63l-.46-.29-.47-.34a5.15,5.15,0,0,1-.88-.74,5.12,5.12,0,0,1-3.37,0l-.92-.33a5.09,5.09,0,0,1-1.21-.74,5.37,5.37,0,0,1-3-2.76l-.18-.37-1.2-1.22-.11.07-.05.23-1.28,1.59-1.15,1.12a5.34,5.34,0,0,1-3.54,2.59l-1.3.25a5.13,5.13,0,0,1-5.1-1.64l-.52-.59-.7-.91-.24-.22a5.19,5.19,0,0,1-2.44-2.07l-.43-.63a5.31,5.31,0,0,1-1.36-4.57l.17-.88a5.3,5.3,0,0,1,2.17-3.28l.53-.57a4.42,4.42,0,0,1,.54-.88l.15-.22a4.61,4.61,0,0,1,1.16-1.36l.83-1.23.18-.39a4.94,4.94,0,0,1,.74-1.16l.14-.27.15-.52a5.36,5.36,0,0,1,.92-2.59l.23-1.3a4.69,4.69,0,0,1,1-2.4l0-.81.14-.44,0-.17a5.24,5.24,0,0,1,.38-3.31,4.75,4.75,0,0,1-2-.33l-.26-.09a5.18,5.18,0,0,1-1.72-.91l-.45-.35a5.4,5.4,0,0,1-1.95-5.56l-.06-.35a5.51,5.51,0,0,1,.09-2.37v-.38a5.16,5.16,0,0,1,.1-.87,5,5,0,0,1,.17-2.07l.11-.42a5,5,0,0,1,.54-1.41l.4-.63a5.46,5.46,0,0,1,5.15-2.67,5.62,5.62,0,0,1,2-.05,5.21,5.21,0,0,1,1.09-.06l1.48.08.51.08.78,0,.39.21a5.78,5.78,0,0,1,1.1,0,5.32,5.32,0,0,1,1.79-.21l1.89.14,1.64.17.61,0a5.33,5.33,0,0,1,.87.09,4.89,4.89,0,0,1,1.13-.16l.74-.06a4.61,4.61,0,0,1,2.16.27l.52.12.38.06a5.27,5.27,0,0,1,1.9.13,5.14,5.14,0,0,1,.49-.32l.5-.29a14.72,14.72,0,0,1,5.35-.88,5.11,5.11,0,0,1,3,.28l.71.11a4.92,4.92,0,0,1,1.87.61L220,137a5.25,5.25,0,0,1,3.84-.71l1.72.31a5.62,5.62,0,0,1,.78.17,5.27,5.27,0,0,1,5.08,1.42l.7.69a5.26,5.26,0,0,1,1,1.49l.18.38.35,1.44a5.39,5.39,0,0,1-.46,3.31l-.11,1.63.18,1.15.2,1.94a5.3,5.3,0,0,1-.18,2.24l.17.24,0,1.72a5.35,5.35,0,0,1-.08.7v.12l-.07.18a3.41,3.41,0,0,1-.23.68l-.1.31.05.17.21,1.59-.1,1.8-.19,1.08a5.21,5.21,0,0,1,0,2,5.31,5.31,0,0,1,0,2.39,5.21,5.21,0,0,1-.18,2.14l-.18.51a4.91,4.91,0,0,1,.07,1.08v.36a5.43,5.43,0,0,1,.23,1.86l-.09.9c0,.13,0,.25,0,.37v.19l-.1.28c-.06.18-.12.35-.2.53l0,.39.18.65a5.45,5.45,0,0,1-.09,2.72l-.08.26-.07.5a4.58,4.58,0,0,1-.27,1.15v.3l0,.52.06.25a5.62,5.62,0,0,1,0,2.38,4.86,4.86,0,0,1,0,.89v.39l-.26,1.2a5.32,5.32,0,0,1-2.12,3.27l-.38.28a5.3,5.3,0,0,1-3.51,1ZM202.4,175.52l.44.43,1,1.09.05,0-.58-.57-.16-.41-.59-.4-.1-.25Zm-17.28.26.14.05Zm.37-.5h0Zm4.39-.75,0,.05Zm.47-.63-.19.66.35-.24.08-.74Zm.43-.17,0,.05Zm1.93-4L192.6,171l0,0,.07-.12.56-2.45.77-.84.22-.53-.35-.92-.5,2.14-.39.3-.16.53,0,.44Zm-.38.73,0,.06Zm1.86-5.73-.22,1,1.1-1.7.23-2.27-.65,2.46Zm20.32-2.81.08.16-.4,1.16a3.92,3.92,0,0,1,.4-.42l1-.87Zm-9.63-.5,0,0a5.2,5.2,0,0,1,.48-2l-.07-.25s0,0,0-.05a5.41,5.41,0,0,1-.34,1.27l-.07.21v.11Zm-9.16-1.57-.07.22.09-.08Zm0-1.92.05.57.22-.37-.19-.36Zm.63-3.42-.14.94.22-.36Zm-.39-2.27.41,1.49.35-1.15-.2-.92-.32-1.73,0,1.29Zm6.72-4.64h0Zm-10.77-1.28h0Zm-1.83-.53.62.34.83-.23-.47-.16h-.36l-.22-.12Zm12.43.22Zm12.28-5.82a.21.21,0,0,1,0,.06Z"/><path class="cls-1" d="M267.67,197.54a4.5,4.5,0,0,1-1-.1l-1.68-.35a5.29,5.29,0,0,1-2.48-.48h-.88l-1.29-.33-.76-.27a4.66,4.66,0,0,1-.56-.22,5.19,5.19,0,0,1-4.36-3.55l-.46-1.53v0l-.09.06-.53.15a4.76,4.76,0,0,1-1.71.92l-2,.72-.44-.11a5.49,5.49,0,0,1-2-.14l-.53-.16a5.51,5.51,0,0,1-2.09-.44l-.22-.09L243,191.2a5,5,0,0,1-1.51-.65,5.68,5.68,0,0,1-3,.1l-.3-.09-2.93-.93-1.37-.72a5.13,5.13,0,0,1-1.81-1.34l-.09-.1a4.85,4.85,0,0,1-1.84-1.59l-.77-1a7.75,7.75,0,0,1-.4-.72l-.23-.24-.64-1.14-.5-1.27-.17-.52-.25-.46a5.29,5.29,0,0,1-.45-3.33l0-.21-.65-2.62.14-.55,0-.69.29-2,.09-.23a5.18,5.18,0,0,1,0-.88l.26-1.83.13-.57.9-1.66.33-1.77a5.42,5.42,0,0,1,.51-2.79l.14-.29a5.49,5.49,0,0,1,.56-2v-.18l.45-1.58.26-1.56.38-1,0-.26a5.23,5.23,0,0,1,.31-1.67,5,5,0,0,1,.68-2.26l.84-1.51a4.94,4.94,0,0,1,.53-1.43l.12-.47,3.39-4,1-.73,2-1a5.33,5.33,0,0,1,2.46-1.24h0a5.28,5.28,0,0,1,3.19-.51l.72-.1a5.66,5.66,0,0,1,1.74.11,5.12,5.12,0,0,1,2,.07l.94.23a5.13,5.13,0,0,1,2.15,1.1,5.36,5.36,0,0,1,2.42.05l1.62.44a5.17,5.17,0,0,1,2,1l.56.13a5,5,0,0,1,1.72.75l.58.31.31.14.3.18a5.52,5.52,0,0,1,1.75,1.69l.67,1a4.94,4.94,0,0,1,1.3-1.47l.26-.21a5.46,5.46,0,0,1,4.66-1.08l2.6.68.53.16a4.6,4.6,0,0,1,1.81.33l1.1.34,1.55.42a5.22,5.22,0,0,1,2.93,1.93l.59.72a5.22,5.22,0,0,1,.76,5.3l-.06.14a6.28,6.28,0,0,1-.27.59,5.09,5.09,0,0,1-.3,1.57,5,5,0,0,1,1.17.89l1,1a5.58,5.58,0,0,1,1.28,3.43v.08l0,.72a5.08,5.08,0,0,1-.83,2.72l-.2.38-.24,1-.23.49,0,.74a4.87,4.87,0,0,1-1,2.76l-.36.56a5.79,5.79,0,0,1-2.18,2.16,4.31,4.31,0,0,1,.47.84l.19.39a5.11,5.11,0,0,1,.48,1.51l.25,1.08-.13.5,0,1-.31,1.59a5.19,5.19,0,0,1-.56,1.47,5.34,5.34,0,0,1-.46,1.5v.46l-.11.44a5.34,5.34,0,0,1-4.36,4.56l-.35,0-1.06.07-.09.36a5.11,5.11,0,0,1-.91,1.91l-.34,1.42-.09.15a5.08,5.08,0,0,1-3.52,4.86l-.47.15-.43,0A4.91,4.91,0,0,1,267.67,197.54Zm.83-8.92h0Zm-4-.89.22,0v-1l.93-.85v-2l.25-.75-.79.69-.09,1.49-.62.73-.16.45Zm-.53-2.31v0Zm-27.14-.29a.49.49,0,0,0,0,.12ZM248.3,183l.5.19.53-.43,1-.3.42-1,1.38-.65.65-.81.21-.82.26-.16.43-2.29,1.06-2.11.18-.85.08-1,.5-2.05.22-.42-.12-1.11.92-1.47.22-.77-.39-1.4-.37,2.4-.46.33-.1.56-.32,1.31-.18.36.09.92-1,3.49-.18,1.19-1.13,3-.78.48-.28.54-2.43,2.1-.94.22,0,.34Zm1.43.09-.07,0Zm15.92-2.67.37,2.38.11-.35L267.2,178l3.35.84.82-.19v-.12l-3.3-2.5.84-3.43.31-1,.11-2.08.25-.46-.06-1.09,2.29-4.7,3.57.86.23-.5L271.55,162l.81-3.32-.24-1.29.67-1.91-.1-.56-.45.23,0,.25-.66,1.52-.78,3.21.05,1-.79,1-.14.51.54.87-1.31,2.81-.22,2-.64,1.43-.33,1.9-.6,1.28-.11.46-.09,1,.13,1.12-.93,2.42.09.85Zm-14.3,1.52h0Zm-.27-1.83h0Zm-13.83-.38.31.33,0-.16Zm-1.06-1.11.87.91-1.26-3.27.4-3.07.28-.69-.2-1.12.29-2.3.63-1.26-.35-.56-.11.6-.3,1.26-.71,1.31.26,1.11-.72,1.92,0,.37.53,2.05v1.41l.1.15Zm18.46-.51-.06,0Zm-9.21-6.65.09.48.15-.36.25-.93,0-.16-.17.37Zm-9.82-.57V171A.2.2,0,0,0,235.62,170.88Zm21.4-5h0Zm.25-4.82v.16l-.54,3.08-.28.8.35-.53,1.38-5.39.26-.42v-.37l.06-.34h0l-1-2.09.18,1.2-.05.71.41,1.48Zm-19.73,3,.21.75.62-1.2.09-1,.28-.59-.19-.75,0,1-.42.42v.09Zm1.27-1.21h0Zm9-1.77a4.39,4.39,0,0,1,.15,1.13l.05-.15.24-1.35c0-.22,0-.42,0-.61a6.17,6.17,0,0,1-.38.72ZM238.52,160l0,1.19,1.06-4.84-.08.07v.07l-.63,1.67-.1,1.06Zm1.46-5.75.05,1.16.78-1.79Zm16.62-2.38.22.12.6,3.36.61-.77-.32-1.61-.32-.45-.46-1.12Zm-17,2.9v0Zm36.75-.12h0Zm-18.09-.91,0,0Zm10.52-1h0Zm-28.61-.11,0,0Zm1.13-1.25,0,1.23.25-.56.57-.19.63-1.93,1.78-.32.75-.9-.7.12-.41.36-1.56.65Zm2.35-.77h0Z"/><path class="cls-1" d="M307.61,212.41a5.21,5.21,0,0,1-1.78-.31h-.24a4.91,4.91,0,0,1-1.85-.42,5.08,5.08,0,0,1-3.07-1.07l0,0a4.91,4.91,0,0,1-1.33-.38l-1.06-.46a5.29,5.29,0,0,1-1.37-.87l-.29-.12-3.5-1.54a5.18,5.18,0,0,1-.79-.42,5.33,5.33,0,0,1-3-2h-.07l-1.35-.23a25.5,25.5,0,0,0-3.17-.92l-1.26-.55-.87-.7a4.85,4.85,0,0,1-1.37-.39l-.32-.14-.81-.2-2.16-.95-2.23-1.56a5.91,5.91,0,0,1-1.58-1L274,198a5.2,5.2,0,0,1-2.77-3.16l-.68-1a4.62,4.62,0,0,1-.84-2.37l-.19-.72-.18-1a5.17,5.17,0,0,1,.06-2.53,5.29,5.29,0,0,1,.7-3.1l1.3-2.32.45-.64,1-2.19.57-.25.48-.51a5.09,5.09,0,0,1,2.19-1.44l.19-.08a5.64,5.64,0,0,1,1.67-.82,5.1,5.1,0,0,1-.59-2.1l-.19-.72a5.24,5.24,0,0,1,.1-2.49l0-.75,0-.33a5.8,5.8,0,0,1,.35-1.45v-.1l0-.36a5.31,5.31,0,0,1,.44-1.83l.28-.54,1-1.67a5.23,5.23,0,0,1,1.22-2.44l.07-.07-.09-.39a4.86,4.86,0,0,1-.14-1.32v-.39a5.7,5.7,0,0,1,.9-3.1,5.45,5.45,0,0,1,1.13-2.05l0-.05a5.24,5.24,0,0,1,3.92-3.6l.32-.08a5.49,5.49,0,0,1,4.39-.05c.16-.14.3-.24.39-.31l.26-.22,1.25-.66a5.58,5.58,0,0,1,3-.29H296l.47,0,2.7,1.19.35.41.65.28a5.56,5.56,0,0,1,1.44.93,5.13,5.13,0,0,1,1.93.3l.79.29,1.78.78,1.12.72a5.24,5.24,0,0,1,2,2l.15.26a5.83,5.83,0,0,1,.82,2.64l.51-.2.45-.14.49-.13a5.19,5.19,0,0,1,3.37.12l1,.34a5.09,5.09,0,0,1,2,1l.55.11a5,5,0,0,1,2.5,1.14l0,0a5.62,5.62,0,0,1,1.21,1.28l.72,0,1.6.11,2.66,1.17a20,20,0,0,0,2.52,1.26l.2.13a5.12,5.12,0,0,1,1.83,2l.61,1.06a5.31,5.31,0,0,1-.32,5.43v.08a5.36,5.36,0,0,1-1.17,2.83l-.2.26-.2.93-1.13,2.68a5.33,5.33,0,0,1-.75,1.25l-.21.58-1.35,3.1a5.44,5.44,0,0,1-.77,2l0,.11-.78,1.78a4.89,4.89,0,0,1-1.07,1.55l-.12.22-.76,1.78-.21.82a5.47,5.47,0,0,1-3.43,3.62l.18,1.18-.05,1a5.29,5.29,0,0,1-.34,3.16l-.58,1.33-.21,1a5.33,5.33,0,0,1-1.69,3,5.61,5.61,0,0,1-2,1.83,5.2,5.2,0,0,1-3.83,2.51,4.91,4.91,0,0,1-1.83.51A5.26,5.26,0,0,1,307.61,212.41Zm2.24-15.75-.77,5.65,1-1,.24-.09.16-.8.52-1.18.06-1.14-.06-.14-.58-.77,0-.17Zm1.56,4.34h0Zm-33.56-11h0Zm.84-.19.43.09,1.73-5.08-.67.26L280,185l-.35.82-.24.09-.56.83.25.51-.73,1.66Zm-.84-3.3-.07,0Zm1.37-3.53.1.09Zm-4.67-4.84-.07,0Zm27.32-11.86.12.62,2-1.26-1.59-.73-.14.07.05,1.06Zm3.25-3.52v0Zm-15.45-2.14.16,1,.94-.62.46-.18.44-.81-.78-.34.05.18Zm15-2,0,.05Zm-17.18-.51h0Zm5.5-2,.05.06Zm1.9-1.69,0,0Zm5-4.11.05.06Z"/><path class="cls-2" d="M162.47,110.14l-.57-.78-.37-.51a1.54,1.54,0,0,1-.12-.47l0-.28-1-1.19a.84.84,0,0,1-.14-.66l.16-.54a.91.91,0,0,1,.4-.55l.83-.43.32-.26a.56.56,0,0,1,.33-.17l.94-.15.92-.73a.73.73,0,0,1,.51-.17l.53.06.72-.76.56-1a.59.59,0,0,1,.18-.2l.41-.37.62-.75.54-.51.28-1,.54-1.28,0-.48-.05,0L168,96.77l-.36.31a.83.83,0,0,1-.81.1l-.74-.29-.6.32a.73.73,0,0,1-.62.09l-.34-.12-1.16-.12-.71,0a.76.76,0,0,1-.69-.29l-.36-.41a.64.64,0,0,1-.13-.52v-.14l0-.24.3-.69-.55-1.07a.82.82,0,0,1,0-.67l.29-.74-.43-.69a1.22,1.22,0,0,1-.07-.33v-.24a.85.85,0,0,1,.43-.79l.83-.44a.17.17,0,0,1,.14,0l.52-.18.74-.43a.81.81,0,0,1,.47-.12l.82,0,.91,0,.68.1,1.31-.36.62-.09a.58.58,0,0,1,.29,0l.53.11-.08-1.34v-.9a.58.58,0,0,1,0-.48l.21-.45a.87.87,0,0,1,.88-.48l.92,0,.85-.15.51-.23a.58.58,0,0,1,.57,0l.2.08,1.55.19.74-.28.24-.07a.88.88,0,0,1,.67,0l.54.26.37-.17a.81.81,0,0,1,1,0l.61.49a.92.92,0,0,1,.34.84l-.12.44-.34.74.1.86s.1,0,.15,0l.73.24,1.14-.12,1-.4c.1-.05.1-.05.14-.05l.34-.07a.79.79,0,0,1,.73.19l.16.28h1l.94-.35a.33.33,0,0,1,.19,0l.9-.11a.87.87,0,0,1,.69.25l.56.54a.77.77,0,0,1,.23.61l0,.38-.39,1.41.38.7a.83.83,0,0,1,0,.67l-.24.78.17.47a.55.55,0,0,1,.07.28l.05.86a.61.61,0,0,1-.16.44l-.17.3a.78.78,0,0,1-.61.32L186,96l-.86,0-1,.31h-.23l-.25,0-1.19,0-.77,0-1.33.22h-.14l-.48,0,.07.38a.69.69,0,0,1-.07.49L179,98.48l-.23.93-.11.48a.13.13,0,0,0,0,.1l-.46,1.18,0,.48a.4.4,0,0,1-.08.24l-.46,1-.07.53a.73.73,0,0,1-.3.54l-.87.63-.59.52v.19a.71.71,0,0,1-.24.64l-.32.3-.19.11-1.15.65-.3.59s-.09.15-.09.15l-.44.55a1.22,1.22,0,0,1-.42.27l-.7.19-.93.58-.3.55c-.21.39-.53.6-.68.56l-.3-.12-1.09.93-.5.41-.78.53a.71.71,0,0,1-.66.14l-.35-.13-.59.47a.66.66,0,0,1-.66.14l-.63-.11a.84.84,0,0,1-.72-.72l0-.52-.44-.12a.81.81,0,0,1-.55-.49Zm20.78,7.62-.38.79.11.28a.68.68,0,0,1,.12.28l0,.53a.71.71,0,0,1-.21.54l-.67.75a.72.72,0,0,1-.61.28H181l-.62.09a.72.72,0,0,1-.63-.15l-.25-.23-.93.49a.94.94,0,0,1-.71,0l-.45-.22-.88-.23-1.12.4-.19.06-1.57.1.23,1.47,1.36.21s0,0,.09,0l1,.37.88-.35a.75.75,0,0,1,.29-.06l.91,0c.05,0,.1,0,.15,0l.68.2.83-.58a.61.61,0,0,1,.42-.12l1.2,0,.43,0a1.12,1.12,0,0,1,.54.25l.67.77c.16.19.27.42.23.52l0,.19v.77l-.12,1.11.45,1.12s0,.09.06.19l0,.38a.53.53,0,0,1,0,.29l-.2.63a.24.24,0,0,1-.09.15l-.43.75a.79.79,0,0,1-.55.41l-.57.09h-.19l-1-.08-1.42.23a.62.62,0,0,1-.59-.16l-.49-.3-.79.43a.72.72,0,0,1-.76,0l-.69-.3-.46.27a.74.74,0,0,1-.28.12l-.91.1h-.19l-.48,0-1.79-.27-1.24.13s-.14.05-.23,0l-.59-.16-1.41-.29-.43-.12a.26.26,0,0,1-.25-.08l-.4-.26-1-.28c-.25-.08-.44-.16-.5-.35l-.07-.28-1-.9-.42-.55a1.75,1.75,0,0,1-.11-.18l-.17-.42-.72-.82a.47.47,0,0,1-.11-.19l-.22-.61a.75.75,0,0,1-.07-.33l0-1s0-.05,0-.09l.25-1.27-.32-1.27V121l.1-.72c0-.1,0-.1,0-.15l.37-1,.31-.49.56-1,.08-.15a.47.47,0,0,1,.22-.3l1-.64.6-.32.41-.46a.62.62,0,0,1,.55-.27l1-.06.45-.41a1,1,0,0,1,.52-.23l.81-.05.36-.26a.78.78,0,0,1,.71-.14l1.37.4.66-.14,1.15-.07,1.08-.26c.05,0,.09,0,.14-.06l.72,0,1-.3.57,0,.2,0,1,.22.65-.33a.58.58,0,0,1,.37-.12h1.06l.09,0,.39.07a.67.67,0,0,1,.55.4l.43.69.27.56a.45.45,0,0,1,.11.23l.22,1.14.07.42A.77.77,0,0,1,183.25,117.76Zm1.49-6.94-.76-.62-.7-.44-.91,0-.1,0-.77-.14a.83.83,0,0,1-.61-.49l-.22-.52-1.34-.68-.84-.52a.87.87,0,0,1-.54-.93l.11-.58c0-.09,0-.1,0-.14l.25-.6a.72.72,0,0,1,.45-.45l.47-.18.28-.88,0-.81v-.15l.27-.92a.77.77,0,0,1,.17-.35l.86-.91.05-.63a1,1,0,0,1,0-.19l.25-.59a.68.68,0,0,1,.41-.36c.14-.06.39.07.54.3l.27.46.66.49,1.17.4a.84.84,0,0,1,.35.22l.51.59.56.54.52-.13a.86.86,0,0,1,.83.19l.56.59.87.14a.15.15,0,0,1,.15,0l.89.42a.78.78,0,0,1,1,.47l.23.56a.93.93,0,0,1,.07.33l-.06.58a.58.58,0,0,1-.17.39l-.31.4-.42.94-.2.68s0,.1,0,.15l-.47.89L189,109s-.09.1-.08.15l-.3.64a.61.61,0,0,1-.36.35l-.19.11-1.35.61-.84.25a.87.87,0,0,1-.48,0L185,111A.64.64,0,0,1,184.74,110.82ZM205.85,120l.06,1.72v.09l-.06.48-.12,1.21-.18,1a.57.57,0,0,1-.08.24l-.26.45a.66.66,0,0,1-.36.36l-.24.06-1.1.83,0,.38a1,1,0,0,1-.25.64l-.73.67-.13.1-.51.28-.09.05-.66.23-1.18.36a.9.9,0,0,1-.62-.06l-.4-.21-.71.09-2.13.42-1,.3-.52.08a.77.77,0,0,1-.58-.06l-.69-.34-.62.09-.94.25-2,.31-.24,0-1-.13-.33.07a.34.34,0,0,1-.29,0l-.77-.15a.26.26,0,0,1-.25-.08l-.5-.3c-.45-.31-.65-.58-.57-.73l.13-.25-.08-1.34-.14-.75a.77.77,0,0,1,0-.34l.16-.54-.28-.65a.93.93,0,0,1-.08-.62l.13-.15.52-.94a.93.93,0,0,1,.78-.43l.82,0,.67,0,1.25.07a.26.26,0,0,1,.19,0l.2.13,1.12-.45.66-.28a.9.9,0,0,1,.62.06l.94.47,1.64-.68-.2-1.57-1.34,0-1,.16c-.1,0-.19.06-.29,0l-1.11-.27-1.51.38a.58.58,0,0,1-.49-.07l-.58-.2-.6.37a.84.84,0,0,1-.47.13l-.87,0a1.11,1.11,0,0,1-.34-.08l-.69-.39a.73.73,0,0,1-.43-.69l0-.86a.66.66,0,0,1,.11-.44l.31-.45-.22-.41a.88.88,0,0,1-.07-.48l.18-.92L185,116a.76.76,0,0,1-.28-.61l0-.43a.81.81,0,0,1,.26-.54l.49-.51c.36-.41.73-.57.94-.39l.35.26.74-.38a1,1,0,0,1,.38-.07h.86a.74.74,0,0,1,.29.08l.55.26,1.08-.31c.05,0,.09,0,.14-.06l1.57-.1c.05,0,.1,0,.15,0l1.06.13.86,0H195l2.09-.18.75-.33a.92.92,0,0,1,.72,0l.2.18.86,0a.88.88,0,0,1,.74.39l.27.46,1.06.12a.8.8,0,0,1,.45.22l.2.18.68.14a.86.86,0,0,1,.6.45l.12.32.68,1.06.46.36a.89.89,0,0,1,.27.6l0,.58.41,1.22.24.75C205.79,119.86,205.84,119.91,205.85,120Zm-16.4-23.51.13-.34-.16-1-.14-1.53-.05-.09a.78.78,0,0,1,.28-.73l.64-.57a.8.8,0,0,1,.28-.16l.09,0,.19-.06,1-.07s.09-.05.19,0l.73.15h.57l0-.43.15-1.5,0-.47-.26-1.09v-.19l0-1,0-.09.11-.49-.17-.47a.89.89,0,0,1,.32-1l.37-.26c.18-.15.46-.27.56-.23l.19,0,.95-.2.79-.34a.75.75,0,0,1,.57,0l.54.16,1.25.06.46-.22a.66.66,0,0,1,.43-.07l.73.1,1,0a.83.83,0,0,1,.92.09l.65.44a.9.9,0,0,1,.38.79l-.07.48.12,1,0,.38,0,.24-.28,1,.37,1.27.15.85.05.09,0,.48a.68.68,0,0,1-.21.49l-.26.4.1,1,.28.61a.82.82,0,0,1,.09.66l-.28.83.09.72.09,1.52.14.71,0,.62v1.92l.45,1.22,0,.28v.82l.28.6a.43.43,0,0,1,.06.24l.11,1,0,.33,0,.24-.28.79-.06,1.49.37.5a1,1,0,0,1,.17.37l0,.34a.88.88,0,0,1-.43.84l-.37.21a.63.63,0,0,1-.28.12l-1.05.11-.71.09-1,.26-1.57.09-.9.11h-.15l-1.11-.13-.46.18c-.33.11-.67.08-.77,0l-.16-.23-.58-.06a1,1,0,0,1-.72-.72l-.13-.71,0-.2,0-1-.24-.7a.62.62,0,0,1,0-.43l.24-.73-.1-.09a.73.73,0,0,1-.15-.76l.24-.88-.29-.79-.19-.71-.07-1.1c0-.09.05-.1,0-.19l.11-.49-.62-.06-.9.2-.89.3a.65.65,0,0,1-.53,0l-.39-.16a.87.87,0,0,1-.31-.22l-.36-.46a1.16,1.16,0,0,1-.18-.56l.07-.44-.2-1v-.14l0-1.24-.13-.66A.82.82,0,0,1,189.45,96.45Z"/><path class="cls-2" d="M253.67,115.88v.24a.46.46,0,0,1-.1.23l-.37.8.25,1a1,1,0,0,1-.07.62l-.16.32.1,1.4v.09a.93.93,0,0,1-.51,1l-.59.26-.92.44a.91.91,0,0,1-.34.09l-.43,0a.75.75,0,0,1-.33-.06l-1-.52-.63.17a.63.63,0,0,1-.71,0l-.28-.25-1.3.24-.39.08a.92.92,0,0,1-.52,0l-.8-.32-1.15,0-.49.22a1.05,1.05,0,0,1-.39.13l-.66,0-1.19-.19-1.19-.23-.29.08a.7.7,0,0,1-.53,0l-.85-.27-.92.39a.71.71,0,0,1-.34.08h-.19l.12.48a.87.87,0,0,1,0,.48l-.28.9,0,.81.06,1,.15.91a.5.5,0,0,1,0,.38l-.23.86-.18,1v.15a.76.76,0,0,1-.32.75l-.59.46a.75.75,0,0,1-.49.17l-.43,0-.82.16a.72.72,0,0,1-.61-.12l-.65-.45-.34.13a1.12,1.12,0,0,1-.39.13l-1.24,0-.58.17a.68.68,0,0,1-.67-.07l-.8-.47-.63.36a.74.74,0,0,1-.63.12l-.57-.12a.91.91,0,0,1-1-.37l-.54-.83a.85.85,0,0,1-.13-.44l0-.62-.09-.2a.74.74,0,0,1,0-.33l.14-1.34.18-.75-.17-.68a.78.78,0,0,1,.07-.57l.41-.61-.22-.68s0-.09,0-.14l0-.81,0-.43a.44.44,0,0,1-.24,0h-1.2l-.86-.08a.68.68,0,0,1-.23-.11l-.71-.31-.63.26a.74.74,0,0,1-.57.07l-.43-.11-.91.06-1.2,0h-.14l-.86-.08-.14-.06-1.75-.5-.73.22-1,.2c-.1,0-.24,0-.34,0l-1-.28-.61-.22-1.2,0-.1,0a.82.82,0,0,1-1.1,0l-.32-.3a.77.77,0,0,1-.26-.82l.23-.85-.18-.25a.77.77,0,0,1-.13-.48l.14-1.19c0-.1.05-.09.06-.14l.21-.47-.06-1,.09-1v-.43a.73.73,0,0,1,.21-.52l.7-.64.14-.09.49-.27a.76.76,0,0,1,.77,0l.47.21.44-.22a.79.79,0,0,1,.57-.08l1.05.19,1.15,0,.85.27L216,112a.74.74,0,0,1,.72,0l.47.2.52.26,1-.29a.75.75,0,0,1,.57.07l.57.26,1.05,0,.77-.21.63-.12a.42.42,0,0,1,.33,0l1.47.35c.3-.28.64-.41.87-.26l.43.21,1,.28,1.34,0,.95.09.44-.13a.71.71,0,0,1,.53,0l.66.22,1.63-.23,3.59.14.81-.11a.42.42,0,0,1,.34.06l.33.06,1.42.44.63-.27a.69.69,0,0,1,.53,0l.61.16h.86a.75.75,0,0,1,.33.06l.52.16h1.11l1,0,.34-.13a.82.82,0,0,1,.48-.08l1.19.24.48-.08.14,0h1.1a.82.82,0,0,1,.34.06l.28.11.77-.26a.67.67,0,0,1,.29-.08l1.58.06a.56.56,0,0,1,.38.11l.8.41.79.46a.84.84,0,0,1,.36.54l.25,1ZM209.45,102.7a1,1,0,0,1,.19-1.14l.15-.14c.25-.27.49-.36.63-.31l.28.11.69-.4a.91.91,0,0,1,.72-.12l.71.27.78-.45.15-.09.77-.21,1.11-.2c.1,0,.19,0,.29,0l.8.18,1.12-.39.78-.5a.65.65,0,0,1,.44-.12l.76,0,.36-.52.55-.55a1.41,1.41,0,0,1,.48-.22l.77-.11,1.07-.34.11-.48a1.71,1.71,0,0,1,.2-.33l.85-.78.55-.55.66-1-.34-.06-.77.31a.59.59,0,0,1-.29,0l-.86,0-.91-.08h-1a.85.85,0,0,1-.43-.16l-.23-.15h-1.48l-.86-.13-.34.13a.33.33,0,0,1-.19.09l-1.06,0a.77.77,0,0,1-.33-.06l-.89-.46L215,94a.94.94,0,0,1-.86-.08l-.6-.41-.2,0a.9.9,0,0,1-.47-.11l-.75-.51a1,1,0,0,1-.36-.54l-.07-.53a.7.7,0,0,1,0-.43l.42-.84v-1l0-.91H212A.77.77,0,0,1,212,88l.47-1.08-.14-.25a.93.93,0,0,1,.43-1.23l.34-.17a1,1,0,0,1,.44-.08l1.43.05a1,1,0,0,1,.33.11l.57.26h.86l1-.06.54-.22a.9.9,0,0,1,.38,0l1.29.14.52,0,.15-.05.86,0a.75.75,0,0,1,.51.26l.24.2,1.06-.35a1,1,0,0,1,.34,0l1,.09.72,0,1.14.19.67,0,.9.22.86-.16,1,0,2.24.08.63-.16a.28.28,0,0,1,.2,0l1.09,0,.81.17a1.17,1.17,0,0,1,.38.21l.23.15.82-.16,1.62.06.63-.12a.7.7,0,0,1,.43,0l.85.27.44-.17a.5.5,0,0,1,.57,0l.24.11,1.38,0a1,1,0,0,1,.34.06l.61.22,1,.13.34-.13a.88.88,0,0,1,.67-.07l.38.11,1-.15a.64.64,0,0,1,.57.12l.23.15,1-.11,1.25-.19a.31.31,0,0,1,.28,0l.43.11a.79.79,0,0,1,.46.4l.54.89.13.29a.81.81,0,0,1,0,.86l-.25.33,0,1,.15,1.16s.05.09,0,.14l0,1-.07.62-.16.62a.81.81,0,0,1-.26.42l-.79.64-.15.09-.29.13a1.63,1.63,0,0,1-.43.08l-1-.18-.62.07-.64.26a.49.49,0,0,1-.43.08l-.76-.22-1.43,0h-.29L243.9,95l-1.15.1h-.19L241.8,95l-.86-.13-.05.05a.86.86,0,0,1-1,0l-.52-.35-.68.36a.84.84,0,0,1-.29.08l-.86,0h-.19l-.86-.18h-.19l0,.29c.08.48,0,.77-.28.9l-.43.18-.19,1a.81.81,0,0,1-.21.47l-.24.18-.68,1.41-.2.38-.57,1-.15.19-.69.64s0,.09-.1.09l-.44.27-.12.67a.8.8,0,0,1-.5.6l-.68.26-.85.78-.29.23a.7.7,0,0,1-.39.17l-1.06.16-.5.5-.34.23-.78.21-.55.79-.15.19-.2.18a.81.81,0,0,1-.58.17l-.91-.08-.74.54a.71.71,0,0,1-.62.12l-.48-.11-1,.34-.25.28a1.24,1.24,0,0,1-.34.18l-1.11.29-.63.26a.24.24,0,0,1-.15.09l-1.15.2h-.15l-.52,0c-.05,0-.1-.05-.15-.05l-.57-.07-.78.49a.73.73,0,0,1-.72.12l-.57-.17-.87.16a.58.58,0,0,1-.47-.06l-.61-.31a.87.87,0,0,1-.46-.55l0-.38-.51-.5a.84.84,0,0,1-.21-.73l.11-.37-.47-1.46-.19-.2a.49.49,0,0,1,0-.14l-.35-.87-.45-.79Zm41.41-.75.94.27a.18.18,0,0,1,.15,0l.65.32.19.15h.05a.91.91,0,0,1,.2.92l-.21.61-.22.71c0,.09-.1.14-.16.23l-.65.79,0,.53a.61.61,0,0,1-.17.56l-.85,1-.06.38-.42,1s-.05.09-.05.14l-.25.32a.82.82,0,0,1-.3.28l-1.17.57a.86.86,0,0,1-.34.09l-1.77-.07a.55.55,0,0,1-.37-.16l-.52-.35-.61-.17-.1,0-1.12-.52L242.5,109l-.52-.16-.52-.12a.45.45,0,0,1-.28-.11l-1-.75-.38,0c-.48,0-.86-.13-.89-.42l-.13-.48-.95-.08a.74.74,0,0,1-.47-.21l-.19-.2-1.12-.71-.75-.27a.84.84,0,0,1-.46-.45l-.31-.78s0-.1,0-.19l-.08-.48a.74.74,0,0,1,.17-.62l.7-.83.51-.8.31-.51.2-.18.88-.69.32-.75.43-1.18V98l.31-.57v-.23c-.08-.39,0-.72.27-.85h0a.72.72,0,0,1,.76.07l.52.31.84.46.19.15.41.45,1,.81.42.39.88.56,1.24.15c.05,0,.15,0,.19,0l.38.16a.75.75,0,0,1,.28.25l.45.59,1,0a.56.56,0,0,1,.33.11l.66.41.89.46.66.22.91-.06A.44.44,0,0,1,250.86,102Z"/><path class="cls-2" d="M132.92,174.17l0,.48a.85.85,0,0,1-.12.49l-.59.91s-.09,0-.11.1l-.36.37a1.14,1.14,0,0,1-.32.18l-.58.16-1,.21-1.26.18-.24.29a.73.73,0,0,1-.27.2l-1.12.42-.33.17-.13,0-2,.52-1,.21-.8.5-.55.25-1,.53-.21.09-.84.11-.65.25-1,.27-.76.23.1.51.09,1.05.41.29a.92.92,0,0,1,.36.7v.79l.43,1.27.14.24a.86.86,0,0,1,.11.94l-.24.29a.37.37,0,0,1-.18.17l-.86.47-.48.18a.42.42,0,0,1-.19,0h-.78l-.51.63a1.84,1.84,0,0,1-.39.25l-.9.24s-.06,0-.1,0h-.4l-.82.31-.75.48-.58.31a.74.74,0,0,1-.68,0l-.91-.45a.63.63,0,0,1-.38-.35l-.22-.6-.52-1,0-.13-.12-.45-.47-1.25a.84.84,0,0,1-.07-.32l.11-.63-.07-.17-.72.17a.7.7,0,0,1-.29,0l-.55-.14-.4.5a.75.75,0,0,1-.64.28l-.9-.05-.46.37a.38.38,0,0,1-.3.11l-.75.09-.44.41a.66.66,0,0,1-.24.14l-.83.31-.86.18-1.25.36-.33.42a.82.82,0,0,1-.59.28l-.74,0-.7.11-.78.3-1,.33-.59.51a.72.72,0,0,1-.67.2l-.34-.11-.55.35a.79.79,0,0,1-.85,0l-.43-.24s-.08-.07-.09-.11l-.46-.42a.77.77,0,0,1-.26-.84l.15-.5-.41-.44-.46-.56a1.12,1.12,0,0,1-.09-.66l.12-.59-.58-.62a.8.8,0,0,1-.1-.8l.16-.5a.82.82,0,0,1,.46-.47l.69-.26,1-.24.93-.15,1-.44.27-.34a.57.57,0,0,1,.48-.28l.47-.08a.17.17,0,0,1,.14,0l.81,0,.91-.44.82-.71a.64.64,0,0,1,.39-.14l.61-.08a.16.16,0,0,1,.15,0l.41,0,1.18-.39.31-.36a.61.61,0,0,1,.46-.22l1-.23,1-.13.21-.22a1.06,1.06,0,0,1,.33-.18l.9-.34,1.15-.48.82-.31.3-.26a.7.7,0,0,1,.55-.25l1.09,0,.27-.2c.07-.07.07-.07.11-.09l1.27-.57.36-.34a1.09,1.09,0,0,1,.46-.22l.28,0,1-.33,1.1-.22.94-.25.21-.23a.62.62,0,0,1,.57-.31l.53-.05,2.18-1,1.64-.62a.63.63,0,0,1,.23,0l.52-.05,1.1-.36,1.21-.85a.78.78,0,0,1,.64-.14l.41,0,1.51-.82a.62.62,0,0,1,.57-.06l.53.1.65-.64a.7.7,0,0,1,.54-.26l.73,0,.49-.14a.62.62,0,0,1,.35,0l.21,0a.87.87,0,0,1,.63.5l.28.73.4.3a.9.9,0,0,1,.34.36l.22.61c0,.08,0,.14,0,.19l.09,1.29.29.14A.78.78,0,0,1,132.92,174.17Zm3.74,13.88a.8.8,0,0,1,.15.29l.23,1.39.1.65a.66.66,0,0,1-.09.43l-.3.51a.71.71,0,0,1-.71.46h-.54l-.27.34a.85.85,0,0,1-.8.35l-.45-.13-.17.32a.78.78,0,0,1-.79.39l-.45,0-1.15.48-1,.27-.35.23-1.21.85-.16.11-.65.24a.53.53,0,0,1-.39,0l-.37-.06-1.06.05-.52.34s-.07.08-.11.1l-1.32.54-.47.33a.52.52,0,0,1-.33.17l-.78.15-.6.12-1.19.5-.13,0-.66.2-.95.35-.89.14-.42.45a.91.91,0,0,1-.63.29h-.54l-1.09.65a1,1,0,0,1-.53.3l-.9.09-1.29.24-.66.59-.12.09-.55.36s-.07.07-.11.09l-1,.42-.36.08-1.37.42-.62.33c-.07.08-.22.08-.3.11s-.11,0-.15,0l-.78.15-.43.16s-.11,0-.15,0l-.82.17-1.36.46-.16.1a.56.56,0,0,1-.37.19l-.88.14-.64.53a.84.84,0,0,1-.71.22l-.34-.12-.9-.3c-.34-.12-.61-.31-.6-.42l0-.2-.09-1.3-.56-1-.41-.44-.13-.2-.39-1-.15-.54-.52-1.13-.28-.74c0-.08-.08-.21,0-.27v-1.53l-.64-.4a.78.78,0,0,1-.28-.49l-.18-.87-.15-.39a.63.63,0,0,1-.06-.42l.18-.71a.66.66,0,0,1,.32-.46l.36-.23a.37.37,0,0,1,.3-.12l1.26-.18.33-.31a.64.64,0,0,1,.22-.19l1-.39.67-.05.3-.26a.6.6,0,0,1,.72-.17l.38.1,1-.37.38-.3a.9.9,0,0,1,1.05-.09l.27.19a1,1,0,0,1,.29.38l.34.91.23.21c.07.07.13.1.15.14l.4.54a.55.55,0,0,1,.08.36l.14,1,.19.77.4.54,0,0,.19,0,1.31,0,.64-.14,1.09-.51.3-.36a.8.8,0,0,1,.49-.28l1-.06.62-.58a1.06,1.06,0,0,1,.33-.18l.68-.15h.1l1,0,.63-.29,1.07-.45.28-.3a.66.66,0,0,1,.37-.19l.75-.09,1.65-.61s.07-.08.17-.07l.73,0,1.09-.36.94-.65a.42.42,0,0,1,.31-.11l.81-.06c0-.41.31-.61.59-.52l.55.14.65-.64a.72.72,0,0,1,.24-.14l1.17-.43.53-.16,1.41-.18.05-.12a.65.65,0,0,1,.46-.22l.93-.15.77-.59s.07-.07.11-.09l.56-.21,1-.28.49-.53a.89.89,0,0,1,.33-.18l.58-.17a1,1,0,0,1,.82.24l.41.43a.69.69,0,0,1,.19.23l.39,1c.36.06.68.23.7.57l0,.48ZM86.82,169.9l0-.45-.65-1.08a.66.66,0,0,1-.13-.5l.07-.32-.36-.56a.93.93,0,0,1,.11-1l.28-.3a1,1,0,0,1,.33-.18l.52-.19.87-.58a.43.43,0,0,1,.32-.07l.55-.1.76-.34,1.16-.58a1.19,1.19,0,0,1,.42-.06l.76.06.44-.41.47-.33a.72.72,0,0,1,.8-.1l.12.05.42-.06,1.74-1,.75-.37c.15-.11.27-.06.42-.06l.66,0,1.19-.49.58-.17.78-.29.56-.61a.7.7,0,0,1,.69-.26l.78.1.1,0,.6.16a.85.85,0,0,1,.61.56l0,.34s0,.1,0,.14l-.09.82.6.67a.57.57,0,0,1,.17.18l.5,1.09.07.18a.86.86,0,0,1-.07.86l-.58.81-.41.5a.41.41,0,0,1-.14.15l-.71.46a.7.7,0,0,1-.41.11l-1.15-.06-.14.29a.65.65,0,0,1-.68.41l-.39-.1-1.38.37a.71.71,0,0,1-.73.42l-.56,0-1,.77-.07.08.17.18a1.67,1.67,0,0,1,.25.4l.21,1,.27.34a.8.8,0,0,1,.19.62l0,.3.69-.26a.47.47,0,0,1,.19,0l1.11-.07.77-.44.87-.32.38-.29a.58.58,0,0,1,.37-.19l1.31-.2.66-.34.11-.09.43-.17.75-.37a.69.69,0,0,1,.61-.09l.5.16a.9.9,0,0,1,.58.62l.14.64.26,1.23.54.64a.6.6,0,0,1,.14.39l.07.31.28.74a.86.86,0,0,1,0,.66l-.31.61a.56.56,0,0,1-.32.32l-.79.39-.53.44a.71.71,0,0,1-.53.15L105,176l-.66.2-.84.27-1.9,1.11-.74.37-.74.28-.23,0-.6,0a.72.72,0,0,1-.49.38l-.55.11-1,.39a.87.87,0,0,1-.38,0h-.1a.61.61,0,0,1-.4,0l-.22-.06-.79.39-.32.32a.87.87,0,0,1-.33.17l-.91.2-.42.45a.86.86,0,0,1-.65.24l-1-.1-.16,0a.65.65,0,0,1-.39-.39l-.48-1-.24-.65-.51-.69a.87.87,0,0,1-.09-.76l.15-.4-.44-.92-.43-.48s-.06,0-.09-.11l-.31-.67a.8.8,0,0,1-.07-.47l.12-.59-.47-.86-.61-1.24h-.11a.91.91,0,0,1-.42-.48l-.28-.88A.85.85,0,0,1,86.82,169.9Zm22.67,2c-.12,0-.18-.22-.25-.39l-.35-1c0-.09,0-.15,0-.19l-.07-1.61V168a.83.83,0,0,1,.43-.7l.2-.12a.52.52,0,0,1,.46-.08l.66,0,.78-.69a.8.8,0,0,1,.29-.15l1-.35h.1l.36-.08,1.53-.13.69-.26.49-.29.69-.65a.57.57,0,0,1,.18-.17l-.47-1.25-.14-1-.38-.5-.12-.3-.7.36-.55.36-.93.69-.26.1-.91.19-1.09.12-.42.31-.91.48c-.08,0-.2.13-.3.12l-.49,0-1.13.43a.61.61,0,0,1-.44,0l-.22-.06a.9.9,0,0,1-.58-.62l-.16-1-.25-.8-.34-1.15-.47-.47s-.07-.07-.11-.15l-.17-.33a.84.84,0,0,1,0-.73l.19-.42a.92.92,0,0,1,.59-.41l.63-.14.37-.49a.74.74,0,0,1,.61-.33l.52,0,.66-.5c.07-.07.17-.06.21-.08l1.17-.43h.1l.68-.16.81-.35.13,0,.62-.19,1.35-.21.4-.49a.9.9,0,0,1,.43-.31l.72-.17a.3.3,0,0,1,.19,0l.7,0,.25-.14a2.63,2.63,0,0,1,.52-.3l.13-.05.72-.47a.64.64,0,0,1,.49-.13h.49l.46-.37a.66.66,0,0,1,.37-.19l1.07-.15.31-.12a.91.91,0,0,1,.82.09l.4.29a.37.37,0,0,1,.17.18l.23.36.1.11.44,1.07.08.21.08.47.37,1.38.25.26a1.18,1.18,0,0,1,.23.35l.23.75.18,1.12.51.84c0,.09.07.08.09.12l.31.82.17.18a.48.48,0,0,1,.18.23l.38.74.32.87.33,1.4.21.56.14.64.31,1.21a.64.64,0,0,1,0,.56l0,.12a.67.67,0,0,1-.37.34l-1.1.46-.14.15a.66.66,0,0,1-.32.22l-1,.37a.85.85,0,0,1-.38,0l-.69-.13-.29.4a.56.56,0,0,1-.42.21,1.13,1.13,0,0,1-.23.29l-.32.21a.73.73,0,0,1-.43.16h-.29l0,0a1,1,0,0,1-.33.17l-.32.07c-.19,0-.28.06-.39,0a.8.8,0,0,1-.42.21l-.58,0-1.19.25-1,.48-.12.05-.56.1-.6.23-1.16.58-.67.45a.39.39,0,0,1-.32.07l-.67.06-1,.53,0,.06a.84.84,0,0,1-1,.08l-.33-.22a.81.81,0,0,1-.29-.38l-.21-.56Z"/><path class="cls-2" d="M166.74,179.1a1,1,0,0,1,.1.37v.7l-.08,1.05.12.83c0,.09.07.13,0,.23l-.11.58.26.76a.85.85,0,0,1-.05.66l-.29.56a.87.87,0,0,1-.6.42l-.51.08-1.32,0-.46.06a.56.56,0,0,1-.38,0l-.64-.19-.64.47a.59.59,0,0,1-.44.16l-.85,0-.56,0h-.9l-.74.39a.73.73,0,0,1-.32.09l-1.21,0-.72,0-.63-.14-.91.51a.74.74,0,0,1-.46.07l-1,0-.44.16a.75.75,0,0,1-.52,0l-.29-.06-.92.09-1.24.56-.55.08c-.05,0-.1,0-.15,0l-1.23-.1-.7.38a.82.82,0,0,1-.65.1l-.58-.15-.75.06-.24.27a.9.9,0,0,1-.57.27l-.61,0-1.34.15-.27,0-.24,0-1.06-.17-.47.35a.74.74,0,0,1-.68.15l-1-.23a.53.53,0,0,1-.25-.15l-.22-.16-.11-.17-.37-.56a.75.75,0,0,1-.06-.7l.25-.6-.48-1.29,0-.28,0-.71-.19-.68,0-.27.14-.68.16-.54a.72.72,0,0,1,.72-.53h.56l1-.15.58-.23.18,0,1-.06.83-.08,1.17,0,.21-.17a.93.93,0,0,1,.59-.18l.39.08.77-.53a.75.75,0,0,1,.54-.13l.44.08,0-.09,0-.47-.29-1-.22-1.2a.67.67,0,0,1,0-.28l.06-.24-.23-.58a.86.86,0,0,1,.11-.82l.29-.32a.76.76,0,0,1,.75-.35l.43.08.77-.49a.7.7,0,0,1,.6-.13l.43.07,1.06.13.72-.48a.64.64,0,0,1,.7-.11l.34.14.62-.28a.72.72,0,0,1,.61,0l.45.17.72-.25a.56.56,0,0,1,.47,0l.2.07a.82.82,0,0,1,.64.85l0,.66.34.37a1.16,1.16,0,0,1,.2.4l.1.69a1,1,0,0,1,0,.38l-.12.44,0,1.18.09.27.79-.07,1-.29.49-.17,1-.14L161,178l.67-.24a.47.47,0,0,1,.37,0l.69.18.41-.44a.85.85,0,0,1,.62-.23l.8,0,.33-.05a.84.84,0,0,1,.85.35l.46.59Zm-33.23-25,.18-.4-.4-.79a1,1,0,0,1-.1-.36l.08-1.05-.18-.26a.78.78,0,0,1,0-.89l.08-.11a.75.75,0,0,1,.93-.37l.54.15,1.14-.59c.08-.06.18,0,.27,0l.56-.08a.46.46,0,0,1,.23,0l1.06.18.26-.18a.91.91,0,0,1,.35-.19l1.66-.25L140,148l.11-.86-.08-.23a.93.93,0,0,1,.36-1l.56-.36.43-.25a.46.46,0,0,1,.22-.13l1-.24.18,0,1.08,0s.14,0,.19,0l.58.06.64-.1a.69.69,0,0,1,.45.5l.42,1.26,0,.23,0,.65.2,1a.74.74,0,0,1,0,.33l-.07.48,0,1.13.18.58,0,.28,0,1,.21,1.15v.05a.79.79,0,0,1,.37.88l-.21.83v.38a.48.48,0,0,1-.45.49l-.51.07-.66.57-.36.76.16.82a.81.81,0,0,1,0,.34l-.3,1.17.17,1.48.61,1.28.32.56.74,1.16.43.36.69-.1a.78.78,0,0,1,.64.19l.16.12a.78.78,0,0,1,.26.85l-.14.64.1,1,.14.68.16.73.08,1.21.18.59.1.64,0,.48a.87.87,0,0,1-.9.93h-.89l-1.25.14-1,0-.43,0a.31.31,0,0,1-.2-.06l-.84-.3-.84.08a.66.66,0,0,1-.34-.09l-.86-.4-.62-.38-.77-.12a.53.53,0,0,1-.25-.1l-.57-.34a.75.75,0,0,1-.36-.56V170l-.77-.46-.58-.38a.83.83,0,0,1-.34-.7v-.76l-.3-.42-.54-.49c-.12-.12-.22-.15-.24-.34l-.18-.58a1,1,0,0,1,0-.38l.15-.87-.4-2.1,0-.14v-.71l-.19-.3a.9.9,0,0,1-.05-.7l.27-.74.32-.71-.23-.86-.16-.82-.62.28a.91.91,0,0,1-1-.27l-.24-.34a1.83,1.83,0,0,1-.16-.45v-.42c0-.09,0-.1,0-.15l.21-.83-.44-.4A.87.87,0,0,1,133.51,154.07Zm17.94,17.36a.71.71,0,0,1-.31-.48l-.1-.69a1.19,1.19,0,0,1,0-.33l.24-.6-.38-.69a.74.74,0,0,1-.07-.46l.18-.69-.13-.87c0-.1,0-.15,0-.2l.12-.48-.43-.65a.34.34,0,0,1-.12-.21l-.05-.33a.86.86,0,0,1,.46-1l.64-.18.81-.55.52-.92-.16-.49a.85.85,0,0,1,0-.61l.22-.41,0-1.79-.3-1.41-.65-.61a.63.63,0,0,1-.26-.48l0-.28-1.14-.39-.42.06c-.55.08-1.1-.17-1.1-.5v-.66l-.13-.92v-.23l.1-.3-.34-1a1.59,1.59,0,0,1,0-.43l.2-.59-.46-.54a1,1,0,0,1-.2-.44V148.9l-.24-1,0-.14v-.61l0-1.13-.23-.29a.89.89,0,0,1,.13-1.06l.4-.43A.78.78,0,0,1,149,144l.49.11.95-.23,1.23-.28.28,0a.84.84,0,0,1,.85.35l.41.55a.65.65,0,0,1,.12.5v.66l.5,1.48,1.21-.13.77-.21.13,0,.89-.08.72-.2,1.14-.27.32,0L160,146a.77.77,0,0,1,.33,0l.8.31a.75.75,0,0,1,.57.67l0,.47,0,.71.28.94a.72.72,0,0,1-.07.53l-.1.3.16,1.06-.09,1,.15.35a.89.89,0,0,1-.14,1l-.36.38c-.05,0-.08.11-.13.12l-.76.53.35,1.13c0,.09.06.08.07.17l.05.94.09,0c.42.27.61.57.53.72l-.09.3.62,1a.86.86,0,0,1,.07.5l-.22,1.68.37.94.13.21a.77.77,0,0,1,.09.32v.89a.73.73,0,0,1-.16.5l-.44.53.19.64a.74.74,0,0,1-.17.77l-.61.66-.19.59-1,1.37c0,.05-.08.1-.12.11l-1.05.91-.51.64a.88.88,0,0,1-.44.25l-.73.15-.8.59a.83.83,0,0,1-.65.1l-.63-.15-.49.22-.6.37a1.06,1.06,0,0,1-.31.14l-1.43.21a.73.73,0,0,1-.54-.16Zm28.35-12.32.06.75.25.39a1.62,1.62,0,0,1,.16.44l0,.94v.7l0,1,.23.95a.77.77,0,0,1-.09.67l-.27.37a.79.79,0,0,1-.8.35l-.48-.07-.92.14a.53.53,0,0,1-.28,0l-.69-.18-.81.22h0l-.07.15.42.93.15,1,.2,1.1.09,1.21v.1a.76.76,0,0,1,.14.63l-.2.83.45.88a.92.92,0,0,1,.1.36l0,.75.15.73.14.92.21.44a.79.79,0,0,1,.11.45l-.06,1.19.06.74v.9l.27.85,0,.23.09.93.14.31a.84.84,0,0,1,.06.75l-.17.4-.11.58a.86.86,0,0,1-.5.73l-.45.16-.92.14a.91.91,0,0,1-.33,0l-.48-.12-1,.52a.83.83,0,0,1-.46.11l-.85-.06-.17.12a.73.73,0,0,1-.69.1l-.93-.19a.71.71,0,0,1-.72.2l-.44-.08-1-.33a.8.8,0,0,1-.57-.66l-.2-1.34.05-1.23-.06-.42,0-1.27-.13-.88-.34-.7a1,1,0,0,1-.07-.51l.19-.59-.09-.65-.3-1.36,0-.14,0-.89-.13-.55-.09-.92-.34-.71-.46-.87c0-.05-.06-.09-.07-.18l-.13-.87a.49.49,0,0,1,0-.24l.25-1.21-.43-.69c0-.05-.05,0-.07-.13l-.1-.37a.83.83,0,0,1,.07-.52l.21-.46-.59-1.13a1,1,0,0,1-.07-.51l.2-.83-.06-.09a.85.85,0,0,1-.09-.31v-1.27l0-.94-.31-.52a1,1,0,0,1-.08-.5l.12-.44-.43-.69a.71.71,0,0,1,0-.61l.23-.69-.35-1.08-.42-2.9,0-.94v-1l-.26-.15a.78.78,0,0,1-.38-.7l.07-.76-.24-.72-.15-1,.11-1.19-.38-.65a.66.66,0,0,1-.11-.41l.09-.72-.07-.46v-1a.67.67,0,0,1,.12-.44l.35-.48a.75.75,0,0,1,.76-.3l.57.06.29-.28a.86.86,0,0,1,.85-.27l.5.16.47,0,.65-.38a.44.44,0,0,1,.17-.12l.87-.22a.54.54,0,0,1,.28,0l.86.1.67.05,1.12-.07a.56.56,0,0,1,.44.12l.46.26a.73.73,0,0,1,.38.7l.05.93v1l-.06.9v.85l.62,1a.63.63,0,0,1,.11.4l0,.48.1,1.3.15.36a.76.76,0,0,1,.06.79l-.2.21.25,1.38.25.43a.55.55,0,0,1,.14.26l.2,1.1a.92.92,0,0,1,0,.33l0,.15.31.8a.36.36,0,0,1,0,.32l-.08.72.44-.21.28,0,.89,0,1-.11.27,0a.88.88,0,0,1,.89.25l.73.83.13.22a.81.81,0,0,1,.17.54Z"/><path class="cls-2" d="M198,169.94l-.6.65-.23,1-.22.86a.33.33,0,0,1-.05.19l-.56,1-.6.75-.74.5-.07.62c0,.1,0,.15,0,.19l-.38,1.1c0,.05-.1.09-.15.19l-.4.51-.2.19-.83.5-.74.5-.6.85-.12.52-.25.33-.89.89-.89.74v.14a.88.88,0,0,1-.7.75l-1.3.24a.65.65,0,0,1-.76-.22l-.33-.34-.83-1.09-.28-.3-1-.89-.66-.27a.73.73,0,0,1-.38-.3l-.45-.78-.51-.55a.77.77,0,0,1-.22-.68l.12-.67a.91.91,0,0,1,.3-.56l.25-.09,1-1.07.54-.47.31-.76s0-.09,0-.09l.46-.66c0-.05.1-.14.15-.14l.94-.83.11-.38c0-.1.05-.1.05-.15l.76-1.13.36-.75c0-.15.2-.24.3-.33l.54-.32.07-.81c0-.05.05-.1.06-.15l.37-1.19.07-.62a.91.91,0,0,1,.26-.57l.3-.23.22-1,.17-.81.18-1.15a.67.67,0,0,1,.26-.38l.39-.42.33-1.24L191,160v-.15l.27-.81-.11-1.06-.13-.48a.79.79,0,0,1,.12-.57l.51-.95,0-.86.12-.82-.26-.92-.12-.53c0-.1-.05-.2,0-.24l.07-.91.18-.91v-.19l-.63.17c-.09,0-.19,0-.24,0l-1.15-.09-.24-.05-.47-.26-.68.27-.24,0-1.11,0a.4.4,0,0,1-.24,0l-.57-.21a.43.43,0,0,1-.23-.1l-.52-.4a.86.86,0,0,1-.3-1l.26-.62-.08-.72-.21-.73a.87.87,0,0,1,0-.53l.1-.19,0-1.15a.89.89,0,0,1,.16-.48l.2-.23-.27-.73a.63.63,0,0,1,0-.43l.16-.67a.92.92,0,0,1,.11-.24l.25-.37c.26-.48.74-.7,1-.55l.52.31.29-.23a1,1,0,0,1,.87-.17l.62.22.58-.23a.8.8,0,0,1,.34,0l.92,0,.76.12s.09.05.14.05l1.19.43.49-.18a.82.82,0,0,1,.58,0l.61.21,1-.4a.79.79,0,0,1,.34,0l1,0,.43.06,1.1.13.91.08.72,0a.61.61,0,0,1,.29.05l.9.32.93-.4s.19,0,.24,0l.86-.07c.1,0,.2,0,.29,0l.67.21.67.12,1.24.19.15,0a.8.8,0,0,1,1,.27l.32.39c.1.15.19.25.18.39l.17.83a.73.73,0,0,1-.06.43l-.27.66.32.64c0,.09.09.1.09.14l.13.44,0,1.1,0,.82-.08.87s-.05.09-.05.14l-.17.62c0,.05-.05.09-.1.19l-.41.71c-.25.42-.74.6-1,.4l-.47-.36-.3.28a.88.88,0,0,1-1,.07l-.81-.41-.63.36a.67.67,0,0,1-.68.07l-.76-.31-.19.09a1.22,1.22,0,0,1-.78.07l.09.44.25,1a.75.75,0,0,1,0,.29l-.18.91-.27.91.12.87,0,.72a.82.82,0,0,1-.11.43l-.4.66.22.44a.91.91,0,0,1,.14.34l0,.53a1.82,1.82,0,0,1-.11.43l-.51.89.15,1.21v.24l-.11.53a.68.68,0,0,1-.26.47l-.25.23-.14,1.39.18.54a.8.8,0,0,1,0,.57l-.26.57s-.05.05-.05.09l-.61.95.13.34a1,1,0,0,1,0,.53l-.37.9-.31.76-.12.52C198.18,169.7,198.08,169.8,198,169.94Zm31-15.86v.19c0,.1-.05.1-.05.15l-.38,1.09-.17,1.05.21.83,0,.14.12.87,0,.82-.24,1.38-.07.63.13.63a.94.94,0,0,1-.07.52l-.26.62.31.87a.83.83,0,0,1,0,.68l-.2.28.15,1.06a.7.7,0,0,1,0,.43l-.47,1.05,0,1,0,.14a1,1,0,0,1,.13.49l-.05,1.29.23.54a1.18,1.18,0,0,1,0,.43l-.06.53c0,.1-.06.1-.06.14l-.26.72-.08,1.05,0,.91.3,1a1,1,0,0,1,0,.53l-.16.43-.13,1.05a.5.5,0,0,1-.1.24l-.21.52v1.3l-.08,1,.22.63a1,1,0,0,1,0,.53l-.27.81.18.39a1.25,1.25,0,0,1,0,.43l-.17.81a.81.81,0,0,1-.3.52l-.45.32a.67.67,0,0,1-.58.13l-.29-.06-1.45.24h-.48l-1-.28-.92.16a.4.4,0,0,1-.34,0l-.67-.21a.8.8,0,0,1-.28-.16l-.93-.8a.61.61,0,0,1-.23-.39.64.64,0,0,1,.06-.52l.46-.81-.31-.87a.85.85,0,0,1,0-.48l.32-1,0-.58-.09-1.4,0-.82.12-.47,0-1,.14-1.3-.18-.39a.79.79,0,0,1,0-.48l.26-.85-.19-1.41-.14-.24a.36.36,0,0,1-.08-.24l-.06-1.16a1.14,1.14,0,0,1,.11-.43l.36-.66.23-1.15-.1-.05a.86.86,0,0,1-.35-1l.05-.14-.29.08c-.1.05-.14,0-.19,0l-.58,0-1.09-.33-.2.05s0,0,0,.09l-.21.47v1.4l-.08.72-.16.57,0,1.34.17.54a.67.67,0,0,1,0,.43l-.23.91.31.92a1.22,1.22,0,0,1,0,.44l-.11.57s0,.09,0,.14l-.37.9,0,.82.18.34a.8.8,0,0,1,0,.82l-.25.57.15,1.25.21.78a.7.7,0,0,1-.12.67l-.3.52.31.78a.77.77,0,0,1-.07.72l-.26.52,0,.62a.85.85,0,0,1-.27.67l-.39.37a.68.68,0,0,1-.64.22l-.23-.06L214,185l-1.34-.1-.63.13a.78.78,0,0,1-.57-.12l-.43-.2-1.1-.14a.88.88,0,0,1-.34-.1l-.56-.41a.86.86,0,0,1-.37-.54l-.08-.48v-.34l.38-1.14.08-1-.27-.63a.83.83,0,0,1,0-.58L209,179l.37-1.09s0,.05-.1.05l-.64.41-.3.37-.3.52c0,.05,0,.09-.1.14l-1.09,1-.8.79-.1.24a.91.91,0,0,1-.31.42l-.78.51-.25.23a.77.77,0,0,1-.82.21l-.48-.16c-.09,0-.19,0-.28-.15l-.61-.55-.62-.16a.82.82,0,0,1-.51-.45l-.14-.35-.54-.88-1-1.09-.56-.55-.55-.59a.46.46,0,0,1-.14-.25l-.17-.63-.46-.78s-.09-.1-.09-.15l-.17-.73a.88.88,0,0,1,.22-.85l.4-.28.57-1.18.21-.57a1,1,0,0,1,.2-.29l.84-.74.07-.76.27-.81c0-.1.05-.15.11-.24l.5-.7-.06-1.11v-.15l.13-.76a.5.5,0,0,1,.1-.29l.46-.75.16-.38c.1-.29.3-.52.45-.51s.23.15.23.29l-.06.34.64.88a1.05,1.05,0,0,1,.13.54l-.08,1,.45.88.42.35a.7.7,0,0,1,.23.39l.26.87,1.12.9.29.16a.76.76,0,0,1,.32.44l.26.68.38.26a.66.66,0,0,1,.32.39l.22.59,1.08,1,.7.65s0,0,.09,0l.26-.52.12-.67-.32-.63a.73.73,0,0,1,0-.63l.47-1,0-.58-.2-1.26-.11-1a.69.69,0,0,1,.16-.62l.3-.33,0-1.11-.23-.53a.58.58,0,0,1,0-.29l0-.72.18-1.05-.32-.69a1.06,1.06,0,0,1,0-.53l.38-1.09-.27-.54a.82.82,0,0,1,.12-.76l.3-.47.13-.91-.07-.78-.3-1.11a.4.4,0,0,1,0-.34l.21-.66-.21-.78c0-.05,0-.1,0-.15V155a.85.85,0,0,1,0-.33l.26-.48.18-1-.22-.78a.79.79,0,0,1,.12-.57l.31-.57-.4-1.07a1,1,0,0,1,0-.53l.31-.81.12-.57-.16-1v-.24l.11-.43.13-1,.19-1.43-.32-.5a.79.79,0,0,1,0-.86l.3-.33-.14-.29a.91.91,0,0,1,.42-1.09l.54-.32a.84.84,0,0,1,.58-.13l.62.12.64-.22a.81.81,0,0,1,.76,0l.38.25.73-.31a.74.74,0,0,1,.63,0l.57.21,1.29.19a.67.67,0,0,1,.29.1l.28.15a1,1,0,0,1,.4.93l-.12.72c0,.1,0,.09,0,.14l-.26.62.31.83a.9.9,0,0,1,0,.72l-.25.52.18.39a.87.87,0,0,1,.07.62l-.27.86-.18,1.29,0,.1a.85.85,0,0,1,.22.73l-.12.72-.05,1.39-.12.62.13.58a1.13,1.13,0,0,1-.12.67l-.25.43.26.77c0,.05,0,.05,0,.15l.16,1.16a2.2,2.2,0,0,1-.11.48l-.36.7v.2a.27.27,0,0,1,.19.05l.43.16.39-.23a.91.91,0,0,1,.63-.12l1.15.23.19.05,0-.62,0-.87V156l.13-.77-.27-.82a.93.93,0,0,1,0-.34l.11-.38-.15-1.21a.74.74,0,0,1,.12-.57l.45-.56-.22-.78-.17-.68v-.34l.27-.9-.2-1.06v-.34l.27-.91-.18-.34c-.05-.05,0-.19,0-.24l0-1.34a.85.85,0,0,1,0-.68l.36-.61-.07-.68a1,1,0,0,1,.16-.47l.4-.61a.37.37,0,0,1,.2-.19l.59-.36a.79.79,0,0,1,.58-.13l2,.35a.2.2,0,0,1,.14.06l.67.26,1.05,0,.44-.18a.82.82,0,0,1,1,.13l.6.6a1,1,0,0,1,.19.3l.17.67a.94.94,0,0,1-.07.63l-.31.52-.13.95,0,1-.13,1.2.07.53.17.87.07.87.15,1.3a.82.82,0,0,1-.12.58l-.4.56.13.39.28,1.6C228.89,154,228.94,154,228.94,154.08Z"/><path class="cls-2" d="M250.14,148.88l-.4.4v1.23a.86.86,0,0,1-.19.6l-.19.15-.25,1-.18.55a.9.9,0,0,1-1,.7l-.77-.09-.06.08a.72.72,0,0,1-.47.28l-.46.09-.38,1.15a.87.87,0,0,1-.52.51l-.43.15-.66,1.52,0,.74a1,1,0,0,1-.24.59l-.25.19-.54,2.44.23.89c0,.11.06.16.05.21v.2l-.07.28-.5,1.06-.08,1a.88.88,0,0,1-.16.46l-.17.26-.64,1.23.14.23a.87.87,0,0,1,.13.72l-.38,1.14-.77,1.55-.11.86.24,1.3v.24l-.08.53,0,.18-.35.86-.17,1.34.27.71,1.15.57.22.1c.58.24.88.66.68,1.06l-.32.71.07.12a.87.87,0,0,1,0,.84l-.46.87-.11.87-.2,1.24-.17.7-.25.83,0,.74a.81.81,0,0,1-.42.74l-.6.4a1,1,0,0,1-.71.08l-2.57-.82-.17-.09-.83-.45-.13-.08a.74.74,0,0,1-.39-.24l-.67-.71-.74-.42a.43.43,0,0,1-.24-.21l-.6-.79a1.67,1.67,0,0,1-.21-.39v-.25l-.67-.7-.1-.18-.29-.66-.29-1.06-.39-.64a.84.84,0,0,1-.12-.52l.09-.17v-1.44l-.15-.58-.38-1.52a1.31,1.31,0,0,1,0-.2v-.64l.09-1,0-.14.42-1.13-.12-.53a.44.44,0,0,1,0-.25l.11-1.06.06-.24.89-1.66.17-.7.17-1.1.05-.23.44-.79-.24-.84a.87.87,0,0,1,.1-.62l.24-.39.38-.75-.08-.51a.85.85,0,0,1,.21-.64l.39-.4,0-1.15.06-.23.3-.86.1-1,.05-.19.54-1.45,0-1c0-.25.06-.44.17-.51l.19-.15-.05-.85a.59.59,0,0,1,.09-.37l.56-1.06.2-.25.55-.41,0-.93a.59.59,0,0,1,.09-.37l.19-.36c0-.09.07-.08.08-.12l.82-.94.36-.46,1.24-1.48.25-.19.84-.44,1.05-.44.68-.57a.83.83,0,0,1,.45-.24h.25l.83-.39a.81.81,0,0,1,.61,0l.36.13,1.29-.23a1,1,0,0,1,.53.08l.43.25,1-.24a.84.84,0,0,1,.35,0l.93.23a.72.72,0,0,1,.46.36l.39.63a.89.89,0,0,1,.15.63l-.27,1.12.08.67,0,.55A1.18,1.18,0,0,1,250.14,148.88Zm11.2,17.68a1,1,0,0,1,.05.41l-.25,1.07-.18.5-.18.75a.57.57,0,0,1-.11.27l-.4.65.07.7a.76.76,0,0,1-.11.47l-.46.88-.28,1.17-.07.92-.34,1.6-.05.19-.53,1-.49,1-.17.95.09.22a1.13,1.13,0,0,1,.05.61l-.41,1.08-.51.92s-.12.07-.13.12l-.64.78-.15.66a1.33,1.33,0,0,1-.19.35l-.32.31-.19.16-1.16.51-.25.63a.93.93,0,0,1-.33.36l-.87.54-.34.16-.17.11-.85.24-.74.61c-.07.08-.17.06-.23.1l-.81.29c-.05,0-.1,0-.21.05L249,188a1,1,0,0,1-.39,0l-1.13-.42-.22.1a.68.68,0,0,1-.54,0l-.63-.26-2-.47a.75.75,0,0,1-.34-.23l-.2-.19a.86.86,0,0,1-.24-.85l.22-.69.35-.86-.14-1.07a.53.53,0,0,1,0-.15l.12-1.11L244,181l.26-1.08a.94.94,0,0,1,.13-.31l.54-.61c0-.29.3-.42.67-.53l1.57-.36.94-.82.36-.7a.81.81,0,0,1,.27-.28l.35-.21.42-1.14.18-1.14,0-.19L250,173l.53-2-.11-1.17a1,1,0,0,1,0-.38l.47-.92.19-.8.07-.68.07-.92a1.14,1.14,0,0,1,.28-.52l.36-.26.16-1.1,0-.09.33-1,.39-2.23,0-.5a1,1,0,0,1,0-.39l.52-1.11-.14-.48a.44.44,0,0,1,0-.25l.06-.88-.24-1.49-.17-.93-.48-.26-.89-.41a.86.86,0,0,1-.46-.76l-.06-.75.13-.57c0-.09,0-.15.06-.23l.68-1-.13-.28a.88.88,0,0,1,.12-.91l.54-.61-.05-1,.2-.84-.06-.56a.91.91,0,0,1,.34-.81l.71-.47a.7.7,0,0,1,.66-.09l1.53.42a.64.64,0,0,1,.39.24l.23.25.89.42,1.17.28a.57.57,0,0,1,.27.11l.77.49.54.22a1.06,1.06,0,0,1,.37.34l.43.65.42.74a.2.2,0,0,1,0,.11l.27.7.56.78c.14.23.26.36.22.5l-.09.17.25,1.25.61.74.15.38.06.81a.79.79,0,0,1-.14.56l-.43.54.43.89a.36.36,0,0,1,.05.21l.07.51V158l-.16.9,0,1.13a.71.71,0,0,1-.15.41l-.39.6-.22.93-.59,2.23.13.28a.8.8,0,0,1,0,.89l-.47.72Zm15.85,11.38-.2,1a1.13,1.13,0,0,1-.14.36l-.29.38-.19,1a.8.8,0,0,1-.3.62l-.22.1v1.48l-.06.23a.87.87,0,0,1-.65.88l-.61,0h-1l-1.35-.33-.83-.44-.63.14a.36.36,0,0,1-.21.05l-.06.23-.33,1v1.39l0,1.13c0,.09,0,.11,0,.15l-.12.52a.8.8,0,0,1-.3.42l-.51.47v.64l-.26,1.07-.08.13-.36.9,0,.46c.06.56-.08.92-.35,1l-.3,0a.61.61,0,0,1-.26,0l-1.36-.28-.74-.23-.6.05a.69.69,0,0,1-.61-.15l-.2-.19-.81-.15-1.14,0-.28-.06-.86-.31a.45.45,0,0,1-.26-.16l-.25-.21-.73,0a.79.79,0,0,1-.79-.44l-.14-.43-.22-.74a1.1,1.1,0,0,1,0-.44l.25-.83c0-.05.05-.19.1-.22l.78-1-.2-.83a1,1,0,0,1,.05-.39l.29-.82-.06-.36a.74.74,0,0,1,.2-.59l.55-.66.05-.83.14-1a.85.85,0,0,1,.26-.44l.18-.15-.17-1.13a1,1,0,0,1,0-.34l.24-.78.08-.13.46-.88-.08-.71a.69.69,0,0,1,.1-.42l.44-.78.4-1-.1-.82.12-.51.09-1,.29-1.21.52-1.12.09-.57.22-1.13.2-.64.42-.89.12-1.11,0-.73.06-.24.6-1.24-.11-.17a1,1,0,0,1-.06-.56l.22-.94.35-1.25.06-.43a.88.88,0,0,1,.12-.31l.36-.46,0-1a.84.84,0,0,1,.24-.58l.25-.24.56-2.34.34-.76-.17-1.37,0-.3a.89.89,0,0,1,.36-.71l.4-.2-.07-1.35.06-.23.17-.5.05-.63a.73.73,0,0,1,.29-.58l.37-.3a.87.87,0,0,1,.73-.17l.84.2.6.19,1.16.28a.73.73,0,0,1,.26.17l.26.16,1.1,0c.1,0,.18.05.28.07l.81.3.56.13,1.21.34.51.13a.63.63,0,0,1,.42.3l.62.74a.76.76,0,0,1,.15.78l-.11.27a.37.37,0,0,1-.15.21l-.65.63.2.84a.82.82,0,0,1-.15.8l-.4.45.11.57c.07.32,0,.65-.14.76l-.25.24-.31.86.17.93a1.12,1.12,0,0,1-.05.43l0,.14.64.25.57.29,1.11.12.65.16a.51.51,0,0,1,.31.17l.68.66a1,1,0,0,1,.25.6l0,.69a.66.66,0,0,1-.15.41l-.3.42-.43.79-.09.77-.07.28-.41.89-.05,1,0,.59c0,.19-.12.26-.2.39l-.31.47-.24.39c-.27.53-.76.7-1,.54l-.47-.31-1.18-.23-.95.06c-.11,0-.14,0-.19,0l-.65-.16-.2.4.06,1a.62.62,0,0,1-.11.42l-.26.48-.07,1.32-.13.76,0,.14-.35,1.05-.05.19.67.5,1-.19c.06,0,.15,0,.2,0l.43.05a.76.76,0,0,1,.4.2l.72.67c0,.05.17.14.19.24l.3.62a.31.31,0,0,1,.05.2l.07.32s0,.06,0,.15Z"/><path class="cls-2" d="M282.49,166.84l1.05-1.8.12-.63a.63.63,0,0,1,.17-.39l.49-.52.6-.53.34-1.37-.12-.79-.31-1.34a.18.18,0,0,1,0-.11v-.58a.79.79,0,0,1,.39-.77l.42-.24-.1-.36a.82.82,0,0,1,.24-.78l.33-.28.56-1.27c0-.31.18-.55.65-.66l.94-.22.14-.09a.93.93,0,0,1,.86-.05l.79.35.65.33,1.8.8.28-.41.58-.84.56-.91c0-.09.18-.18.27-.25l.35-.21a1.13,1.13,0,0,1,.6-.06l.37.11h.11l.75.33s.07.08.11.1l.8.56,1.06.46a.75.75,0,0,1,.41.39l.12.32a.83.83,0,0,1,0,.78l-.23.42-.18.76a.63.63,0,0,1-.17.39l-.74.84-.3.34-.06,1a.82.82,0,0,1-.27.61l-.23.17-.41,1.29a.88.88,0,0,1-.2.33l-.63.61-.28.51-.19.91a.89.89,0,0,1-.3.56l-.14.09a.5.5,0,0,1-.3.08l-.83.11-.51.19-1,.7-.66,1-.82,2-.48.74.49,1.16.37,1a1,1,0,0,1,.42,1.45l-.29.76-.45,1.17a.68.68,0,0,1-.18.28l-.51.57-.41.92-.54.76,0,.05a.91.91,0,0,1-.52,1.18l-.45.18A1,1,0,0,1,287,179l-1.07-.68-1.1-.48a.78.78,0,0,1-.46-.51l-.14-.38-.8-.35-.83-.73a.93.93,0,0,1-.22-.47l-.2-1-.35-.62a.68.68,0,0,1-.09-.52l0-.19-.3-.87a.83.83,0,0,1,0-.47l.2-.7-.06-1.18a1.46,1.46,0,0,1,.15-.46l.3-.45-.07-1a1.21,1.21,0,0,1,.08-.44Zm9.82,30.24a.53.53,0,0,1-.07.28l-.23.53c0,.09-.19.18-.27.25l-.64.5-.14.68,0,.19a.92.92,0,0,1-.95.85l-.74-.12-.67-.14a.4.4,0,0,1-.31-.13l-.56-.4h-.84a1,1,0,0,1-.34,0l-.75-.33-.16-.12-.67-.61-.62-.38-1-.14a.55.55,0,0,1-.24-.06l-.71-.3-.8-.2-1.37-.6-1.67-1.21-.3-.28-.68-.25a2.07,2.07,0,0,1-.4-.28l-.53-.7-.39-.07a.84.84,0,0,1-.74-.59l-.18-.55-1-1.54c-.09-.15-.14-.17-.12-.32v-.36l-.25-.74-.21-1.2a.56.56,0,0,1,0-.45l.37-.84-.17-.33a.76.76,0,0,1,0-.82l.3-.56.77-1.39.7-1,.39-.88s.06,0,.08-.07l.36-.58.1-.11.49-.52a.79.79,0,0,1,.42-.24l.89-.24.12-.15a.81.81,0,0,1,.91-.39l.59.2.76-.29.65-.29a.77.77,0,0,1,.87.06l.29.29.57-.23a.78.78,0,0,1,.58,0l.87.28.18.07.82.52,1.37.13a.57.57,0,0,1,.52.23l.43.45,1.37.23c.11,0,.13.06.18.08l.61.27.21.14.63.59.78.14a.67.67,0,0,1,.46.25l.27.23,2.95,1.66.7.2a.62.62,0,0,1,.37.21l.14.17a.73.73,0,0,1,.13.79l-.19.55-.12.26-.48.63-.66,1-.29.77L295,190l-.16.24,0,.78a1,1,0,0,1-.53.87l-.13,0a.78.78,0,0,1-.94-.25l-.41-.5h-.58a.52.52,0,0,1-.49-.21l-.56-.51-1.08-.16c-.05,0-.11,0-.16,0l-.66-.29a1.27,1.27,0,0,1-.33-.2l-.39-.54-1.29.06-.19,0-.29-.07-.17-.08-2.08-1-.73,2.15,2,1.15.65.18,1.12.33.32,0a.77.77,0,0,1,.56.15l.54.45.14.16.31.5,1-.07a.49.49,0,0,1,.31,0l.63.22a1.28,1.28,0,0,1,.36.26l.32.46.5.79a1,1,0,0,1,.08.78l-.27.61Zm10.86-21.27-.76,1.13-.36,1.05-.1.23-.34.42-.51.93a.81.81,0,0,1-.44.39l-.44.17-.32.49a.84.84,0,0,1-.35.32l-.82.32-.6.16-1.52.48a.22.22,0,0,1-.17,0l-.66.08a.18.18,0,0,1-.16,0l-.86-.07s-.11,0-.15,0l-.5-.17-.09,0-1.06-.57-1.72-.75a.79.79,0,0,1-.39-.43l-.05-.13a.64.64,0,0,1,0-.43l.21-1,.1-.22.53-1,.3-.45-.07-1a.42.42,0,0,1,0-.25l.14-.46.1-.22.83-1.16c.05-.24.45-.33,1-.29l.2,0,1.07,0,1.32-1.21,0-.56a.53.53,0,0,1,.07-.28l.83-1.79.2-1.17-.15-.85-.35-1.11-.32-.35c-.28-.33-.42-.6-.38-.69l.12-.15.23-1a.79.79,0,0,1,.36-.47l.48-.27,0-.64a.84.84,0,0,1,.33-.75l.4-.19.17-1.24.31-.7c0-.09.09-.07.12-.16l.55-.65v-.69a.65.65,0,0,1,.13-.41l.63-.83.53-.86a.15.15,0,0,1,.09-.07l.26-.25a.76.76,0,0,1,.85-.26l.5.17,1.41.62.45.3.62.37a.62.62,0,0,1,.29.29l.21.36c.24.41.3.76,0,1l-.35.32-.48,1.1-.2.7,2.05.95.39.07a.4.4,0,0,1,.31.13l.93.62.29.18a1.12,1.12,0,0,1,.34.42l.37.84a.58.58,0,0,1,.06.45l-.11.26-.67,1.28-.09.8c0,.11-.08.18-.11.27l-.22.48-.57.95,0,.16a.92.92,0,0,1-.77.92H306l-1.52,1,.19.29a.9.9,0,0,1,0,.8l-.2.44.11.94a.84.84,0,0,1-.08.43l-.41.82Zm11.06,28-.57.48-.16.35a.9.9,0,0,1-.58.48l-.42.13-.94.95-.08.29a.77.77,0,0,1-.72.57l-.79.13-.48.26a.55.55,0,0,1-.41.08l-.49-.06-.63.35a.8.8,0,0,1-.69,0l-.55-.19-1-.06a.74.74,0,0,1-.33-.09l-.72-.37-.76,0a.71.71,0,0,1-.52-.13L302,206l-.41.09a.71.71,0,0,1-.52,0l-1.05-.46c-.05,0-.18-.08-.2-.14l-.59-.58-.88-.28-2-.88-.27-.23-1.18-.41a1.17,1.17,0,0,1-.34-.2l-.43-.45h-.36a.92.92,0,0,1-1-.66l-.1-.36c-.13-.53-.05-1,.19-1l.42-.13v-.69a.79.79,0,0,1,.24-.68l.24-.06.43-.86.34-1.26.13-.52a.87.87,0,0,1,.57-.59l.42-.13a.52.52,0,0,1,.37,0l.43.09.27.11.8.57,1,.53,1,.51H300s.11,0,.15,0l.65.18a.74.74,0,0,1,.29.18l1,.9.09-.07c.14-.1.38,0,.53,0l2.27.58.24-1.74-1.61-.76-.16-.12-.65-.55a.37.37,0,0,1-.14-.16l-.17-.34-1.05-.46-1.29-.3-.69-.1a.77.77,0,0,1-.51-.27l-.19-.29-1-.3a.74.74,0,0,1-.29-.18l-.43-.34a.7.7,0,0,1-.24-.53l0-.27a.82.82,0,0,1,.09-.33l.17-.4.17-.87.1-.22.38-.62,0-1.08a.83.83,0,0,1,.19-.44l.51-.56.09-.44a.8.8,0,0,1,.49-.51l.3-.08a.74.74,0,0,1,.62,0l1,.51,1,.44.54.45.68.24.85.32,1,.11a.72.72,0,0,1,.52.23l.68.61.85.22a.5.5,0,0,1,.33.19l.32.25,1.23.17c.11,0,.13.06.18.08l1.67.73a.62.62,0,0,1,.31.25l.56.76.38.33,1.2.73.4.18a.69.69,0,0,1,.33.3l.45.67.09.15.11.46.6.79c0,.07.13.17.14.27l.12.69.13.89-.06,1.34.07.19a.77.77,0,0,1,0,.63l-.77,1.76-.31,1.54A.74.74,0,0,1,314.23,203.81Zm-10.64-22.15a.8.8,0,0,1,.05-.82l.72-.94.23-.53.33-.85.57-1.06.21-.59,0-.09.58-1,.08-1a.77.77,0,0,1,.19-.44l.25-.21.73-1.3.26-.84.32-.85a.6.6,0,0,1,.16-.25l.56-.54.07-.65.14-1v-.11l.26-.72.1-.22.69-.85.4-.93.16-.71.24-.79.46-1.16.06-.14.34-.53a.85.85,0,0,1,.5-.3l.59-.16a.79.79,0,0,1,.48,0l.89.35.62.16a.73.73,0,0,1,.51.38l.21.36,1.3.26.92.19a.51.51,0,0,1,.35.15l.16.12a.82.82,0,0,1,.35.52l.17,1.28a1,1,0,0,1-.12,1.11l-.49.41.13.64a.81.81,0,0,1-.13.67l-.57.81-.24.67-.08.18-.27.51-.65,1.24-.28.51.05,0,1.19.15h.36a.6.6,0,0,1,.62.27l.25-.57.45-.54.28-.87.3-.7.17-1.09a.51.51,0,0,1,.15-.35l.36-.47c0-.09.09-.07.17-.14l.6-.42.24-.89a.88.88,0,0,1,.7-.64l.72-.1H323l.56,0,1.94.85a.82.82,0,0,1,.22.2l.52.49.52,0a.48.48,0,0,1,.43.08l.45.3a.51.51,0,0,1,.25.27l.54.92a.84.84,0,0,1-.06,1l-.36.47-.27.25-.08,1.38a.78.78,0,0,1-.2.44l-.12.16-.88.82-.15,1.41,0,.23-.29.66-.22.64-.43,1a1,1,0,0,1-.18.29l-.47.47-.31,1.07-.43,1-.48,1-.06.24-.11.27-.5.88-.09.8a.77.77,0,0,1-.27.51l-.35.32-.11.84-.52,1.19a.51.51,0,0,1-.2.23l-.39.41-.57,1.06-.38,1-.06.14-.32.59-.22.64-.22.85a.92.92,0,0,1-.72.68l-.74.15a.77.77,0,0,1-.7-.21l-.43-.45-.71-.41-.32.12a1,1,0,0,1-.87-.17l-.86-.8-.63-.23h-.52a.82.82,0,0,1-.78-.61l-.08-.3a.94.94,0,0,1,.13-.78l.33-.38.19-1.17.13-1a.82.82,0,0,1,.27-.51l.29-.18.51-.67v-1a.61.61,0,0,1,.08-.28l.88-2,.15-.2-.72-.16c-.09,0-.2,0-.27-.11l-.62-.49-.18-.07-.08.17-.88,1.29.1.73a.76.76,0,0,1-.1.59l-.27.51-.29.76a.85.85,0,0,1-.34.43l-.36.21-.11.85-.15.71a1.17,1.17,0,0,1-.2.34l-.53.6a.3.3,0,0,1-.17.14l-.62.46a.91.91,0,0,1-.68.12l-.67-.14a.39.39,0,0,1-.31-.13l-.77-.65-.66.07a.75.75,0,0,1-.55-.18l-.61-.53-1-.72a.85.85,0,0,1-1.05-.73l0-.75s0-.1,0-.15l.08-.43.48-1.1.65-.88Z"/></svg>