<?xml version="1.0" encoding="utf-8"?>
<!-- Generator: Adobe Illustrator 25.2.3, SVG Export Plug-In . SVG Version: 6.00 Build 0)  -->
<svg version="1.1" id="Layer_1" xmlns="http://www.w3.org/2000/svg" xmlns:xlink="http://www.w3.org/1999/xlink" x="0px" y="0px"
	 viewBox="0 0 626 779" style="enable-background:new 0 0 626 779;" xml:space="preserve">
<style type="text/css">
	.st0{fill:#939393;}
	.st1{fill:#EF2551;}
</style>
<g>
	<path class="st0" d="M95,680c0.38-0.73,1.77-4.03,1.8-4.85l2.8-66.38l163.03-21.11l114.62-16.03l2.51,32.61
		c0.23,2.94,2.69,5.18,5.59,5.18c0.14,0,0.29-0.01,0.44-0.02c3.09-0.24,5.4-2.94,5.17-6.03l-2.56-33.31l53.76-7.52l25.45,20.13
		l4.25,43.74c0.47,4.84,4.54,8.45,9.3,8.45c0.3,0,0.61-0.01,0.92-0.04c5.14-0.5,8.91-5.07,8.41-10.22l-6.36-65.47l-1.11-11.66
		l117.42-21.23c3.05-0.55,5.08-3.47,4.53-6.52c-0.55-3.05-3.47-5.08-6.52-4.53l-91.6,16.56l-7.51-173.77l-5.06-144.33L489.27,66.7
		c-0.1-3.1-2.7-5.52-5.8-5.42c-3.1,0.11-5.53,2.7-5.42,5.8l4.98,146.96l3.05,87.12l-26.06,1.43l-5.57-72.96
		c0.34-1.29,0.49-2.66,0.4-4.07c-0.09-1.56-0.47-3.04-1.05-4.4L441.96,66.18c-0.39-5.15-4.88-9.01-10.04-8.62
		c-5.15,0.39-9.01,4.89-8.62,10.04l11.15,146.03l-72.66,4.24L349.94,66.45c-0.24-3.09-2.95-5.4-6.03-5.16
		c-3.09,0.24-5.4,2.94-5.16,6.03l1.93,24.68l-86.58,8.5l-2.37-31.03c-0.16-2.06-1.95-3.6-4.02-3.45c-2.06,0.16-3.6,1.96-3.45,4.02
		l2.39,31.19l-85.92,8.44l-2.29-5.15c-0.05-0.11-0.11-0.23-0.16-0.34l-21.09-39.92c-1.45-2.74-4.84-3.79-7.59-2.34
		c-2.74,1.45-3.79,4.84-2.34,7.59l21,39.76l0.7,1.56l-87.73,8.61L50,65.74c-0.63-3.03-3.61-4.98-6.64-4.35
		c-3.03,0.63-4.98,3.61-4.35,6.64l12.21,58.43l21.66,165.07l17.18,205.8l-1.49,106.32l-2.94,69.77C85.27,688.86,95,680,95,680z
		 M486.34,308.64l1.74,49.79l0.57,13.24l-22.41,1.71l-3.84-39.46l-1.82-23.86L486.34,308.64z M388.48,558.72L385,514.19l74.92-11.7
		l2.31,24.3l-21.37,24.6L388.48,558.72z M347.46,564.46l-5.91-44.96l9.25-0.65c0.08-0.01,0.15-0.01,0.23-0.02l22.83-3.03l3.48,44.49
		L347.46,564.46z M295.68,571.7l-7.81-48.41l46.2-3.26l5.98,45.47L295.68,571.7z M312.74,239.19l3.38,34.48l5.23,59.64v3.93
		l-46.34,4.41l-2.44,0.17L269.69,303l-4.73-61.05l0.52-0.05L312.74,239.19z M349.04,237.11c0.83,1.58,1.96,2.97,3.32,4.08
		l7.23,92.41l-30.76,2.93v-3.38c0-0.11,0-0.22-0.01-0.33l-5.24-59.84l-3.36-34.22L349.04,237.11z M455,450.88l4.2,44.14l-24.94,3.9
		l-6.3-67.73l24.84-2.83L455,450.88z M426.85,500.07l-42.44,6.63l-5.47-69.93l41.59-4.74L426.85,500.07z M287.65,506.52l-1.08-11.38
		l47.54-3.06l2.75,20.23l-49.2,3.47v-8.92C287.67,506.76,287.66,506.64,287.65,506.52z M223.05,477.03l53.82-4.95l1.52,16.1
		l-53.95,3.47L223.05,477.03z M284.33,471.39l46.47-4.28l0.3,2.75c0,0.03,0.01,0.07,0.01,0.1l2,14.7l-47.24,3.04L284.33,471.39z
		 M282.79,455.16l-0.66-10.21l45.83-3.76l2.02,18.48l-46.37,4.27L282.79,455.16z M363.43,382.53l-31.11,3.2v-0.1
		c0-0.1,0-0.2-0.01-0.29l-3.25-41.3l31.13-2.96L363.43,382.53z M367.18,430.47l-31.78,2.6l0.9-10.45c0.02-0.27,0.02-0.54-0.02-0.81
		l-3.26-24.87l31.28-3.21L367.18,430.47z M278.23,391.28l-2.66-18.19l47.91-4.33l1.34,17.01v0.73L278.23,391.28z M321.6,344.74
		l1.3,16.56l-48.41,4.38l-0.32-2.17l-1.05-14.23l2.45-0.17c0.03,0,0.07-0.01,0.1-0.01L321.6,344.74z M266.72,364.19
		c0.01,0.09,0.02,0.18,0.03,0.26l0.28,1.89l-53.87,4.87l-1.6-17.7l54.1-3.72L266.72,364.19z M213.83,378.67l54.28-4.91l2.64,18.09
		l-55.45,3.11L213.83,378.67z M279.4,402.45l46.17-4.74l3.24,24.68l-0.98,11.31l-46.18,3.79L279.4,402.45z M344.35,511.8l-5.81-42.8
		l-3.11-28.42l32.33-2.65l5.51,70.39l-23.11,3.07L344.35,511.8z M378.35,429.31l-2.88-36.73l38.81-3.99l2.19-0.17l3.36,36.16
		L378.35,429.31z M413.36,377.41c-0.05,0-0.1,0.01-0.15,0.01l-38.62,3.97l-5.19-66.33l40.04-2.2l5.99,64.39L413.36,377.41z
		 M408.81,305.4l-39.99,2.19l-2.63-33.62l20.66-2.14c0.13-0.01,0.25-0.03,0.38-0.06l19.23-4.01L408.81,305.4z M262.23,303.57
		l2.87,38.77l-54.22,3.73l-1.07-11.86l-6.66-86.87l54.36-4.74L262.23,303.57z M271.94,403.04l2.25,35.05l-40.35,3.31
		c-0.11,0.01-0.22,0.02-0.33,0.04l-13.62,2.34l-3.54-37.21l-0.04-0.41L271.94,403.04z M234.62,448.84l40.05-3.28l0.65,10.13
		c0,0.04,0.01,0.08,0.01,0.11l0.83,8.82l-53.82,4.95l-1.74-18.32L234.62,448.84z M227.02,518.7l-1.86-19.6l53.95-3.47l1.08,11.43
		v9.27l-53.21,3.76C227.04,519.62,227.06,519.16,227.02,518.7z M464.72,538.27l1.09,11.46l-12.57,1.76L464.72,538.27z
		 M452.08,420.91l-24.81,2.83l-3.34-35.88l24.74-1.88L452.08,420.91z M422.9,376.68l-5.97-64.23l24.97-1.37l1.86,24.36
		c0.01,0.07,0.01,0.13,0.02,0.2l3.81,39.16L422.9,376.68z M441.32,303.61l-25.04,1.37l-3.99-63.82l24.15-1.41L441.32,303.61z
		 M404.83,241.6l1.16,18.62l-20.1,4.19l-20.29,2.1L363.84,244L404.83,241.6z M350.88,222.33c-1.8,2.01-2.96,4.57-3.25,7.37
		l-28.07,1.61l-9.88-124.97l31.88-3.13L350.88,222.33z M302.22,107.06l9.86,124.67l-47.09,2.7c-0.04,0-0.07,0.01-0.11,0.01
		l-0.51,0.04l-2.17-28.04l-7.25-94.75L302.22,107.06z M247.51,112.44l7.24,94.59l2.18,28.11l-54.35,4.73l-0.25-3.25
		c-0.02-0.24-0.05-0.48-0.1-0.71l-12.72-61.38c-0.08-0.39-0.21-0.78-0.37-1.15l-23.58-52.91L247.51,112.44z M63.08,130.55l90.7-8.91
		l24.85,55.77l12.53,60.43l3.66,47.77L84.31,293.5l-0.25-3.03c-0.01-0.09-0.02-0.18-0.03-0.26L63.08,130.55z M85.25,304.69
		l110.43-7.89l2.94,38.3c0,0.03,0,0.05,0.01,0.08l5.64,62.35c-0.8,1.03-1.25,2.34-1.17,3.75c0.09,1.54,0.79,2.9,1.86,3.86l0.22,2.47
		l10.56,111.11l-18.68,66.12l-97.17,12.58l1.41-100.18c0-0.18,0-0.36-0.02-0.55L85.25,304.69z M261.12,576.53l-51.96,6.73
		l15.69-55.53l55.52-3.92l7.9,48.92L261.12,576.53z M454.8,558.6l12.76-1.78l0.25,2.64l0.99,10.21L454.8,558.6z M473.62,449.09
		l-6.29-64.53l21.8-1.66l6.52,150.88l-13.73,2.48L473.62,449.09z"/>
	<circle class="st1" cx="357.28" cy="239.91" r="9.73"/>
	<circle class="st1" cx="382.73" cy="553.28" r="9.73"/>
</g>
</svg>
