<svg xmlns="http://www.w3.org/2000/svg" viewBox="0 0 71.09 186.09"><defs><style>.cls-1{fill:#424e64;}</style></defs><g id="레이어_2" data-name="레이어 2"><g id="레이어_1-2" data-name="레이어 1"><path class="cls-1" d="M45.64,104.18A2.83,2.83,0,0,0,45,103,10.89,10.89,0,0,0,42,101.3a5.49,5.49,0,0,0-.81-1.16L41,100l-.16,0a14.25,14.25,0,0,1-1.69.1,12.51,12.51,0,0,1-1.28-.07,5.63,5.63,0,0,0-.58,0l-.21-9.51h.05l.09-.13a.34.34,0,0,0,.06-.34,1.27,1.27,0,0,0-.22-.37L35.7,26.09l.14.08L35.7,26,35.2,3.6l0-.1C34.4,1.22,33.48.08,32.36,0c-1.64-.11-2.87,2.32-2.93,2.43l0,.07V6l-.75,83.56,0,0,0,.09a.62.62,0,0,0,0,.62.25.25,0,0,0,.11.12l-.14,15-.77-.29-.83.31H26.4l-1.65-.18v0a1.84,1.84,0,0,0-.33,0c-.7.14-2.22,2-2.61,3a9.25,9.25,0,0,0-.2,1.58l-.05.18h-.22l-.73.67s-.07.94.56.73l.32-.13c-.22,4.52-.34,13.29-.16,15.68.24,3.26.13,18.65-.08,21.13-.1,1.14-.18,3.62-.25,6.18l-21,4.9.15.63L21,155c-.08,3.28-.12,6.48-.12,6.92v6.35c-1,1.43-2,3.21-1.25,3.73a6.13,6.13,0,0,0,1.7.58c-.77.07-4,.82-8.51,1.87-2.66.62-5.18,1.21-5.59,1.26-.94.11-3.53,2-4.28,3.39a1.22,1.22,0,0,0-.17,1.15c.59,1.31,4.13,5.1,5.12,5.49a1.38,1.38,0,0,0,.27.08.88.88,0,0,0,.67.3A1.1,1.1,0,0,0,9.2,186l1-.33c.6-.19,1.21-.39,1.51-.51.49-.19,2.91-1,3.57-1.1a13,13,0,0,0,2-.89,8,8,0,0,1,.85-.28l.18-.06a3.46,3.46,0,0,0,.52,0,3.13,3.13,0,0,0,1.21-.6l.21-.05a8.57,8.57,0,0,0,1.08-.3c1.06-.22,1.16-.3,1.2-.33s.6-.25,1.12-.45L24,181c.36-.08,1.49-.46,2.23-.72v0l-.06.17.12.14a15.1,15.1,0,0,0,1,1.16,8.25,8.25,0,0,0,1.34.77,1,1,0,0,0,.45.08,2.3,2.3,0,0,0,.42,0,7.81,7.81,0,0,0,1,.33,4.69,4.69,0,0,0,.81.06,6.52,6.52,0,0,0,.91-.06,2.11,2.11,0,0,0,1.06-.75,2.47,2.47,0,0,1,.78-.64c.71-.17.88-.23,1-.4a3.37,3.37,0,0,0-.28-1.66c.71.49,1.44,1,1.91,1.39a1.71,1.71,0,0,0,1,.48.56.56,0,0,0,.42-.18.71.71,0,0,0,.14-.31l9.11-2.77v-.24c0-.06,0-1.31,0-3.45,9.55-3.22,9.66-3.3,9.72-3.33a.49.49,0,0,0,.14-.55.45.45,0,0,1,0-.23c.09-.49-.36-.61-.57-.67a2.08,2.08,0,0,1-.39-.15,3.87,3.87,0,0,0-.79-.31A2.16,2.16,0,0,1,55,169a9.21,9.21,0,0,0-2-.36.62.62,0,0,0-.35-.34,14.9,14.9,0,0,0-2.67-.65h-.43a2.2,2.2,0,0,0-.35,0,11.75,11.75,0,0,0-1.56.39l-.36.08c0-3.57-.1-7.89-.17-12.58l20,4,.13-.63-20.16-4.07c-.08-5.62-.18-11.73-.3-17.68l.28.06c.68.13,1.65.33,2.82.54s2.54.46,4,.7,3,.49,4.6.73,3.13.46,4.61.65,2.84.37,4,.51,2.17.23,2.86.3l1.09.1L70,140.54c-.68-.13-1.65-.34-2.82-.55s-2.54-.46-4-.7-3-.49-4.6-.73L54,137.91c-1.47-.19-2.84-.37-4-.5s-2.17-.23-2.86-.31l-.3,0c-.06-3.24-.13-6.42-.2-9.45-.21-8.63-.62-16.33-.82-20,0-.75-.08-1.37-.1-1.78M38.06,103l-.54-.07-.28,0a.64.64,0,0,1-.16.06.42.42,0,0,0-.2.08.72.72,0,0,0-.24.15,11.88,11.88,0,0,0-.19-1.35,3.07,3.07,0,0,0-.48-1.11,6.89,6.89,0,0,1,1.25-.12,5.93,5.93,0,0,1,.61,0,11.78,11.78,0,0,0,1.36.07,15.79,15.79,0,0,0,1.6-.08,4.11,4.11,0,0,1,.64,1l0,.13.13,0a11.06,11.06,0,0,1,2.92,1.58,2.13,2.13,0,0,1,.53,1.18v0L39,103.33m-5.71,1.33-.29-.54a8.29,8.29,0,0,1,.34-2.71,1.94,1.94,0,0,1,1.09-.4,3.17,3.17,0,0,0,.79-.06c.22.12.46.39.64,1.12a10.1,10.1,0,0,1,.19,1.37l-.31.09Zm-.54,73.06a4.3,4.3,0,0,1-1.77,1,3.43,3.43,0,0,1-1.48-.54,1.91,1.91,0,0,0-.57-.25,4,4,0,0,1-.65-.62,18.72,18.72,0,0,1,2.53-1,.85.85,0,0,1,.68.15,4.32,4.32,0,0,0,.82.34,3,3,0,0,1,.41.17C32.69,177.33,32.7,177.58,32.71,177.72Zm-7.53-25.09a47.37,47.37,0,0,1,0-6.74c0-.85.06-1.51.06-1.88,0-.6,0-1.93.07-3.34,0-1.7.09-3.46.09-4.41,0-.59,0-2.9-.08-5.81-.09-5.87-.21-13.91-.15-15.13,0-.76.1-3.75.13-5.65v-.16l3.2-1.52c0,.34,0,.68,0,1h0v1.51c.06,7.92.12,17.45.16,26.64,0,1.22,0,2.44,0,3.51v28.11c0,1.35,0,2.37-.07,3l-3.76.54-.05-2.39C24.83,169.3,25.49,154.56,25.18,152.63ZM25.34,106l.15,0a4.81,4.81,0,0,0,1.24.09l.23,0h0c.6,0,1.21,0,1.22,0V106l.32.12v.79a6,6,0,0,1-3.22,1.5c0-1.15,0-2.33,0-2.33Zm10.09-5.72-.17,0-.18-.06-.1,0a4.35,4.35,0,0,0-2,.47l-.11,0-.06.1a1.34,1.34,0,0,0-.07.18l-.19.15-.1.08-.24,2.93.07.14c0,.2,0,.39,0,.58a8.28,8.28,0,0,0-1.34.25,6.28,6.28,0,0,0-1.84.7v-.24l.13-15.21.23-.1a10,10,0,0,1,4-1h.09a5,5,0,0,1,2.82,1l.21,9.79A9.59,9.59,0,0,0,35.43,100.25Zm-2.91,6.49v1a7.81,7.81,0,0,0-3.23.78c0-.32-.07-.65-.09-.88l3.24-1.56C32.47,106.43,32.51,106.66,32.52,106.74Zm-1.2,44.92v0s.24,0,.24-.07a1.94,1.94,0,0,0-.11-1c-.12-.2,0-.36.12-.51s0,0,0,0l0-.18s.1,0,.1-.08a2.69,2.69,0,0,1-.05-.32l.11-.05s.07,0,0-.06l-.08,0a.24.24,0,0,0-.2,0l-.05,0c-.28-.2.19-.51-.07-.74.14,0,.21-.15.13-.35s-.26,0-.23.07l0,.2,0,0c-.05,0-.21,0-.21.09h0s0,0,.05,0h0c.32.19-.21.59.16.77l.13,0,0,.09s0,0,0,0,.12.12.07.21-.1,0-.11.06-.07.37-.08.38-.09,0-.07.06.09.33.19.49,0,.39-.06.56c0,0,0,.17,0,.34l-.37,0c-.23,0-.46,0-.68,0l-.59,0-.24,0c0-3.11,0-6.68,0-10.79a1.35,1.35,0,0,0,.24.08c.17.06.37.1.58.15a5.06,5.06,0,0,0,.69.06,5.52,5.52,0,0,0,1.28-.12l.1,0c0,.41,0,.82,0,1.25,0,.82,0,2.56.09,4.57,0,1.65.09,3.42.11,4.91l-.27,0-.59-.07Zm1-32.46v.36c0,3,0,6.39,0,9.91l-1.27,0a5.21,5.21,0,0,0-1.77.23c0-1.33.23-6.52.39-10.11A8.05,8.05,0,0,1,32.35,119.2Zm-.1,21.53-.1,0a5.75,5.75,0,0,0-1.25-.16,8.06,8.06,0,0,0-1.27.08l-.27,0V138.9c0-.44,0-.89,0-1.33,0-4.64,0-6.47,0-7.2a4,4,0,0,1,1.73-.27l1.29,0c0,1.69,0,3.42,0,5.17,0,.86,0,1.44,0,1.45S32.29,138.51,32.25,140.73Zm.07-27.82a32.63,32.63,0,0,0,0,5.64,8.84,8.84,0,0,0-2.62.35c-.05-1.89-.23-7.51-.33-9.4a2.24,2.24,0,0,1,.75-.39l.35-.11a6.93,6.93,0,0,1,2-.42c0,.92,0,2-.07,3.17A10.15,10.15,0,0,1,32.32,112.91Zm-3.16-6.34v-.14a4.1,4.1,0,0,1,.61-.45,11.18,11.18,0,0,1,2.08-.66ZM29.39,152l.18.08.28.09a1.67,1.67,0,0,0,.32.08,4,4,0,0,0,.71.08h.36a2,2,0,0,0,.34,0,2.51,2.51,0,0,0,.61-.13l.24-.09c0,1.17,0,2.15,0,2.72-.05,1.19,0,3.82.13,6.4,0,.52,0,1,0,1.54a11.13,11.13,0,0,1-3.18-.28C29.39,159.69,29.4,156.27,29.39,152Zm.48-125.72c.09-.1.19-.22.31-.33a4,4,0,0,1,.43-.38,1.14,1.14,0,0,1,.25-.18c.09-.05.17-.12.26-.16l.29-.14c.1-.05.21-.06.31-.1l.15-.05.16,0,.33,0,.33,0a1.12,1.12,0,0,1,.32,0,3.35,3.35,0,0,1,.64.17c.2.09.41.14.59.23l.52.27a1.46,1.46,0,0,1,.28.15l.16,6.95a1.5,1.5,0,0,0-.23-.2l-.49-.37a4.56,4.56,0,0,0-.62-.35,3.22,3.22,0,0,0-.72-.25,1.34,1.34,0,0,0-.4-.06l-.41,0-.41.05-.2,0-.19.07a2.74,2.74,0,0,0-.71.34c-.11.07-.19.16-.29.23a2,2,0,0,0-.25.25c-.07.08-.15.16-.21.24l-.18.26L29.8,33Zm.31,6.88a4,4,0,0,1,.43-.38,1.6,1.6,0,0,1,.25-.18c.09,0,.17-.12.26-.16l.29-.14c.1,0,.21-.06.31-.1l.15,0,.16,0,.33,0,.33,0a1.12,1.12,0,0,1,.32,0,3.35,3.35,0,0,1,.64.17c.2.09.41.14.59.24l.52.26a3,3,0,0,1,.44.25h0l.16,7v0a2.66,2.66,0,0,0-.38-.36l-.49-.37a3.67,3.67,0,0,0-.62-.34,2.8,2.8,0,0,0-.72-.26,1.34,1.34,0,0,0-.4-.06l-.41,0-.41.06-.2,0-.19.07a2.48,2.48,0,0,0-.71.35,3.15,3.15,0,0,0-.29.22,2,2,0,0,0-.25.25,2.52,2.52,0,0,0-.21.25l-.18.25a1.35,1.35,0,0,0-.15.26l.06-6.83C29.91,33.39,30,33.26,30.18,33.11Zm0,7.21a4,4,0,0,1,.43-.38,1.6,1.6,0,0,1,.25-.18c.09,0,.17-.12.26-.16l.29-.14c.1-.05.21-.06.31-.1l.15,0,.16,0,.33,0,.33,0a1.12,1.12,0,0,1,.32,0,4.29,4.29,0,0,1,.64.17c.2.09.41.14.59.24l.52.26a3,3,0,0,1,.44.25l.17.1.16,7.32-.11-.15a2.21,2.21,0,0,0-.34-.35,2.9,2.9,0,0,0-.45-.38,4.52,4.52,0,0,0-.57-.34,3.11,3.11,0,0,0-.69-.23,3.18,3.18,0,0,0-.75-.07,3.14,3.14,0,0,0-.75.09,1.93,1.93,0,0,0-.34.11c-.12.05-.23.08-.33.13a4.19,4.19,0,0,0-1,.7,4.44,4.44,0,0,0-.49.52l.07-6.87C29.86,40.67,30,40.5,30.18,40.32Zm.2,7.13.48-.24a4.5,4.5,0,0,1,.55-.22,4.08,4.08,0,0,1,.6-.16,3.87,3.87,0,0,1,1.24,0c.21,0,.4.1.6.14l.54.23a5.22,5.22,0,0,1,.47.26,2.91,2.91,0,0,1,.39.25l.28.2.16,7.19-.15-.16a2.66,2.66,0,0,0-.39-.31,2.26,2.26,0,0,0-.5-.32A3.61,3.61,0,0,0,34,54a3.19,3.19,0,0,0-.71-.15l-.37,0h-.38a4.55,4.55,0,0,0-.74.11,7,7,0,0,0-.69.22A5,5,0,0,0,30,54.8a4.28,4.28,0,0,0-.43.37l.06-7.28C29.84,47.78,30.08,47.62,30.38,47.45Zm4.5-29h0a2.25,2.25,0,0,0-.34-.36c-.13-.12-.28-.25-.45-.38a5.06,5.06,0,0,0-.57-.35,3,3,0,0,0-.69-.25,1.17,1.17,0,0,0-.38-.07l-.39,0a2.87,2.87,0,0,0-.77.17,3,3,0,0,0-.66.37,4.35,4.35,0,0,0-.48.48,2.64,2.64,0,0,0-.21.29l0-3.92c.11-.14.25-.33.42-.53s.23-.25.37-.37a3,3,0,0,1,.43-.35,2,2,0,0,1,.51-.26,2.08,2.08,0,0,1,.55-.12,2.71,2.71,0,0,1,.29,0,.7.7,0,0,1,.29,0,2.6,2.6,0,0,1,.56.17,3.56,3.56,0,0,1,.52.24l.46.26a3.13,3.13,0,0,1,.38.25l0,0Zm-.11-5.07a.91.91,0,0,0-.17-.17c-.13-.12-.27-.25-.43-.38a3.59,3.59,0,0,0-.54-.35,2.39,2.39,0,0,0-.66-.26,1.15,1.15,0,0,0-.37-.06,1.7,1.7,0,0,0-.39,0,2.67,2.67,0,0,0-.74.18,1.16,1.16,0,0,0-.33.18c-.1.07-.21.13-.29.2a2.9,2.9,0,0,0-.45.49,3,3,0,0,0-.31.48,2.56,2.56,0,0,0-.11.24l0-5.42c.05-.09.09-.18.15-.28a3,3,0,0,1,.32-.41,2.15,2.15,0,0,1,.44-.34,2.45,2.45,0,0,1,.55-.23,1.36,1.36,0,0,1,.29-.06l.33,0h.31a1.55,1.55,0,0,1,.31,0,2.31,2.31,0,0,1,.59.14,3.51,3.51,0,0,1,.95.56,5.07,5.07,0,0,1,.4.38Zm-4.66,5.37a4.67,4.67,0,0,1,.39-.37A5.63,5.63,0,0,1,31,18a3.7,3.7,0,0,1,.54-.24,2.47,2.47,0,0,1,.59-.12l.31,0a1,1,0,0,1,.3,0,3.68,3.68,0,0,1,.59.18c.19.09.38.13.55.23l.48.27a3.52,3.52,0,0,1,.4.24l.17.11L35,25.31,35,25.25l-.49-.38a6,6,0,0,0-.62-.34,3.22,3.22,0,0,0-.72-.25,1.34,1.34,0,0,0-.4-.06l-.41,0-.41,0-.2,0-.19.06a3.13,3.13,0,0,0-.71.35,3.25,3.25,0,0,0-.29.23,2,2,0,0,0-.25.25c-.07.08-.15.16-.21.24l-.18.25a.05.05,0,0,1,0,0l.06-6.78Zm.12,36.41.51-.21a4.92,4.92,0,0,1,.58-.19,6.42,6.42,0,0,1,.63-.15,3.5,3.5,0,0,1,.65-.07l.33,0,.32,0a4.34,4.34,0,0,1,.63.08,4.91,4.91,0,0,1,.58.16,3.38,3.38,0,0,1,.51.19c.15.08.31.12.43.2l.3.16.16,7.39-.16-.17a2,2,0,0,0-.4-.36,4.19,4.19,0,0,0-.51-.37,6.49,6.49,0,0,0-.65-.31l-.37-.11a1.7,1.7,0,0,0-.39-.09,3.66,3.66,0,0,0-.81,0,1.84,1.84,0,0,0-.41,0l-.39.09a2.35,2.35,0,0,0-.37.14,3.68,3.68,0,0,0-.35.15,4.81,4.81,0,0,0-1.09.8,5.33,5.33,0,0,0-.42.47l.06-7.53Zm0,7.65.52-.3c.18-.1.38-.18.58-.27s.43-.15.65-.21l.33-.07.35,0a3.09,3.09,0,0,1,.68,0A6.45,6.45,0,0,1,34,62l.61.2c.2.07.36.18.53.25a3.13,3.13,0,0,1,.45.24l.31.19L36,71a2.83,2.83,0,0,0-.31-.26,3.13,3.13,0,0,0-.53-.38,4.64,4.64,0,0,0-.67-.33l-.38-.12a1.38,1.38,0,0,0-.4-.1,4.51,4.51,0,0,0-.83-.06c-.13,0-.28,0-.41,0l-.41.07a1.59,1.59,0,0,0-.39.1l-.38.12a5.8,5.8,0,0,0-.66.33,4,4,0,0,0-.55.36,5.2,5.2,0,0,0-.66.6l.08-8.11C29.7,63.09,29.93,62.94,30.19,62.77Zm-.7,8.72c.19-.12.48-.28.82-.45l.57-.24c.2-.09.42-.14.64-.22s.45-.11.69-.15l.36-.05h.37a4.35,4.35,0,0,1,.72,0c.24,0,.46.1.69.14s.43.15.63.22a1.28,1.28,0,0,1,.29.13l.26.13a3.42,3.42,0,0,1,.47.25l0,0,.2,9-.11-.12a2.74,2.74,0,0,0-.43-.37,2.86,2.86,0,0,0-.54-.38,6.1,6.1,0,0,0-.68-.32L34.11,79a1.92,1.92,0,0,0-.4-.09,4.76,4.76,0,0,0-.84-.07c-.15,0-.29,0-.43,0L32,79a1.8,1.8,0,0,0-.4.1c-.12,0-.25.07-.37.12a5.36,5.36,0,0,0-.68.32,4.92,4.92,0,0,0-.56.36,6.77,6.77,0,0,0-.64.57l.08-9Zm-.11,9.15c.2-.12.49-.27.84-.44a5.15,5.15,0,0,1,.57-.24c.2-.09.42-.14.65-.22a5.44,5.44,0,0,1,.7-.15l.37,0a2.26,2.26,0,0,1,.37,0,3.58,3.58,0,0,1,.73,0,4.13,4.13,0,0,1,.7.14,5.33,5.33,0,0,1,.64.22,1.34,1.34,0,0,1,.3.12l.27.13a5,5,0,0,1,.47.25l.26.17.19,8.52a3.94,3.94,0,0,0-1-.5,5.6,5.6,0,0,0-1.87-.26,11.19,11.19,0,0,0-4.31.87Zm-.2,91.67.15,0v-4c0-1.31,0-3,.05-5.25a10.82,10.82,0,0,0,2.58.28l.6,0c0,3.22.06,6.06.09,8.37,0,.3,0,.6-.06.87s0,.75,0,1.33a4.45,4.45,0,0,1-.78.06,6,6,0,0,1-1.11-.1,2.33,2.33,0,0,1-1.53-1.39A1,1,0,0,1,29.18,172.31ZM30.05,2.65c.33-.64,1.3-2.07,2.27-2,.8,0,1.57,1.09,2.24,3l.09,4.06-.12-.17a2.46,2.46,0,0,0-.42-.44,2.39,2.39,0,0,0-.57-.39,2.13,2.13,0,0,0-.35-.14,1.56,1.56,0,0,0-.37-.1,2.33,2.33,0,0,0-.38,0h-.39a2.52,2.52,0,0,0-.37,0,1.59,1.59,0,0,0-.39.1,2.71,2.71,0,0,0-.68.34,2.17,2.17,0,0,0-.49.52A1.1,1.1,0,0,0,30,7.6l0-1.58ZM22.4,108.52a6.69,6.69,0,0,1,2.14-2.6h.16V106s0,1.3,0,2.5l-.06.3c-1.19.55-1.78.72-2.35,1A10,10,0,0,1,22.4,108.52Zm-1,60,.06-.08v-6.55c0-1.12.16-11.18.38-13.71s.32-18,.08-21.23c-.16-2.23-.07-10.92.17-15.77V111c.62-.28,1.31-.61,2.53-1.19,0,1.9-.1,4.73-.13,5.48-.05,1.23.07,9.28.15,15.16,0,2.91.08,5.21.08,5.8,0,.94-.05,2.77-.09,4.39,0,1.42-.06,2.75-.06,3.36,0,.35,0,1-.07,1.85a50.65,50.65,0,0,0,0,6.87c.3,1.87-.38,17-.38,17.18l0,2.47h-.54a19.3,19.3,0,0,1-3.65-.92C19.88,171.19,20.55,169.81,21.44,168.52Zm-14.15,7.8c.44,0,2.86-.61,5.65-1.27,3.36-.79,8-1.86,8.47-1.86a6.13,6.13,0,0,0,1.13-.11,2.88,2.88,0,0,1,.77-.05h.27l1.23.22h.06l1.73-.39,1.11,0h.78a2.6,2.6,0,0,0,1.8,1.89,5.61,5.61,0,0,0,1.8.29,3.89,3.89,0,0,0,.51,0c0,.44,0,.87,0,1.27l-.2-.07a3.73,3.73,0,0,1-.7-.3,1.54,1.54,0,0,0-1.09-.21A22,22,0,0,0,27.58,177l-.11.05,0,.11c0,.08-.15.38-.29.76l-.3,0a4.21,4.21,0,0,0-1.17.07,4.71,4.71,0,0,0-1.56.44l-.2.08c-.95.38-1.56.6-1.56.6-.42.15-.63.31-.69.58a2.45,2.45,0,0,1-.42.06,5,5,0,0,1-.92,0,3.23,3.23,0,0,0-1.12.14c-.37.09-.55.12-.67.14a2,2,0,0,0-.64.24l-.22.1a1.07,1.07,0,0,0-.51.38l-.84.21-.52.12a9.91,9.91,0,0,0-1.71.47c-.3.12-.78.25-1.24.38s-.88.25-1.14.35a6.66,6.66,0,0,0-.75.34l-.6.28a11.52,11.52,0,0,0-1.31.67l-.16-.39a17.23,17.23,0,0,0-2.47-2.79,3.62,3.62,0,0,1-1.21-1.42,5,5,0,0,1,0-1.31A6.67,6.67,0,0,1,7.29,176.32Zm19.26,3.16-.17.06v0l-2.46.81-.45.17c-.31.09-.73.23-1.18.39l-1.08.36-1.15.22H20l-.06.06-.15.12c-.25.08-.55.19-.85.31s-.48.19-.67.25a1.22,1.22,0,0,1-.24,0l-.12,0-.11.06-.72.39c-.43.14-1,.34-1.68.59-2,.72-5.12,1.82-5.63,1.9a6.57,6.57,0,0,1-1,.12l.46-1a11.68,11.68,0,0,1,1.45-.77c.24-.1.44-.2.63-.29l.7-.32L13,182.5c.48-.13,1-.27,1.34-.41a8.65,8.65,0,0,1,1.58-.43l.53-.12c1-.23,1.16-.27,1.24-.5a1.3,1.3,0,0,1,.24-.13l.22-.11a1.45,1.45,0,0,1,.48-.18l.7-.15a2.39,2.39,0,0,1,.93-.12,6.56,6.56,0,0,0,1,0c.56,0,.94-.11,1-.53a1,1,0,0,1,.3-.14s.62-.23,1.58-.62l.2-.07a4.15,4.15,0,0,1,1.41-.4,3.3,3.3,0,0,1,1-.06h.11ZM3.34,180c0-.11,0-.31.15-.57a5.47,5.47,0,0,1,1-1.19,3.64,3.64,0,0,0,.08.9A4.09,4.09,0,0,0,6,180.85a18.09,18.09,0,0,1,2.25,2.51c.09.23.21.48.27.63L8,185.07A22.15,22.15,0,0,1,3.34,180Zm31.19.78-.56.15a2.55,2.55,0,0,0-1.08.81c-.23.23-.53.54-.69.56a5.8,5.8,0,0,1-1.5,0,7.93,7.93,0,0,1-1-.33l-.09,0-.1,0a2.44,2.44,0,0,1-.38,0,.47.47,0,0,1-.19,0,8.57,8.57,0,0,1-1.19-.68c-.13-.11-.54-.58-.84-.93.24-.65.65-1.8.9-2.46.66.73.89.75,1,.75a1.94,1.94,0,0,1,.35.18,4,4,0,0,0,1.79.61,4.33,4.33,0,0,0,2.15-1.16l.85.58A19.26,19.26,0,0,1,34.53,180.73Zm2.62-.41c-.65-.51-1.78-1.3-2.66-1.91-.14-.39-.25-.67-.26-.68a2.66,2.66,0,0,0-.88-1.07c0-1,0-2.75-.06-5,.08-1.53.08-3.35.07-5.24,0-.83-.06-2.37-.13-4.15,0-.36,0-.73,0-1.1-.06-7.72-.13-17.15-.17-26.07,0-2.31.08-6.37.13-7.68.07-1.8,0-5.82-.14-7.92,0-2.9,0-5.5.06-7.69.06-1,.08-2.19.09-3.22h.05v-.85h0v-.1c0-.83.06-1.48.1-2l2.81-1.35a64.44,64.44,0,0,1-.27,11.17,46.33,46.33,0,0,0,.21,11.1c.08.72.15,1.35.19,1.85.13,1.78.29,8.88.41,14.06,0,1.88.08,3.55.11,4.69s.14,4.39.28,8.39c.31,8.67.8,23,.73,24.68l-.11,0,0,.27v0A2.13,2.13,0,0,1,37.15,180.32Zm.58.67v-.33h0Zm17.55-11.25a3.47,3.47,0,0,1,.65.25,2.36,2.36,0,0,0,.54.21l.09,0a1.42,1.42,0,0,0,0,.31c-1,.36-5.76,2-9.22,3.14v-.74l.29,0,.47,0a4.82,4.82,0,0,0,.61-.06c.45-.08,1-.18,1.53-.31.27-.06.57-.12.85-.21l.85-.24.86-.26.41-.14.41-.16c.52-.19,1-.39,1.4-.57.83-.35,1.37-.63,1.37-.63s-.6.08-1.48.27c-.44.11-1,.25-1.49.41l-.4.11-.43.12-.85.24-1.67.52c-.52.16-1,.33-1.43.48-.21.08-.41.13-.59.19l-.45.16-.26.09c0-.51,0-1,0-1.62v-.45l5.46-1.59a9.82,9.82,0,0,1,2,.33A3.8,3.8,0,0,0,55.28,169.74Zm-7.45-1.11a12.55,12.55,0,0,1,1.44-.37H50a10.69,10.69,0,0,1,1.83.41l-.35.13a1.92,1.92,0,0,1-.4.14l-.62.17a8.64,8.64,0,0,1-1.69.38,3.53,3.53,0,0,0-1.44.5l0-1.27A2.54,2.54,0,0,0,47.83,168.63Zm-1.14,3.07,0,2c0,2,0,3.32,0,3.85l-8.38,2.54c.05-1.47-.08-6.48-.71-24.52-.14-4-.25-7.14-.28-8.38s-.07-2.81-.11-4.69c-.12-5.19-.28-12.29-.42-14.08,0-.52-.1-1.15-.18-1.88a45.57,45.57,0,0,1-.22-10.95,64.17,64.17,0,0,0,.26-11.56l.16-.08s.33-.1.65-.22a1.28,1.28,0,0,1,.39,0h.22l6.93,1.21v0a1.38,1.38,0,0,1,0,.2c0,.06,0,.2,0,.86v0h0c0,.35,0,.85.08,1.56.2,3.69.93,29.38,1,29.4C46.42,150.09,46.6,164,46.69,171.7Z"/><path class="cls-1" d="M32,142.37l.1-.37h-.2l-.17.18S31.75,142.4,32,142.37Z"/><path class="cls-1" d="M32.12,142.68l-.18-.18s-.21,0-.19.27l.36.11Z"/><path class="cls-1" d="M31.92,143.14l-.12-.09s-.05.36.22.33c0,0,.13-.32.1-.38S31.92,143.14,31.92,143.14Z"/><path class="cls-1" d="M31.75,143.69s0,.22.27.19l.1-.37h-.2Z"/><path class="cls-1" d="M31.75,144.2a.38.38,0,0,1,.11.06s.07.13.16.12l.1-.37h-.2Z"/><path class="cls-1" d="M31.88,144.63l-.13.07s0,.22.27.19l.1-.38h-.2Z"/><path class="cls-1" d="M31.17,142.77s0,.11,0,.12-.1,0-.11.06h0s0,0,0,0a.49.49,0,0,1,.11.14.11.11,0,0,0,0,.05s.2,0,.23,0v0s.06,0,0-.06l-.11-.13c.13-.06.24-.18.09-.31s-.2,0-.23.06,0,0,0,0a.22.22,0,0,0,.15-.17c.08,0,.16-.05.17-.12s-.16-.25-.23-.34-.24,0-.23.07a.3.3,0,0,0,0,.1l.06,0c.07.09.16.2.11.21s-.14,0-.14.07,0,.11-.09.12-.13,0-.1.09A.31.31,0,0,0,31.17,142.77Z"/><path class="cls-1" d="M31.42,143.92a.1.1,0,0,1-.11,0,.16.16,0,0,0,.07-.09.26.26,0,0,0,0-.21s0-.07,0-.15-.23-.06-.23,0v.08c-.07,0-.11.12,0,.12s-.06.13,0,.14-.21,0-.16.11a.42.42,0,0,0,.23.15c-.05.08-.09.17-.16.18s-.15,0-.13.1.07.09.15.11.28-.1.14-.13h0l.06,0c.08-.08.1-.2.18-.27S31.48,143.91,31.42,143.92Z"/><path class="cls-1" d="M31.16,145.84a.26.26,0,0,0,.05.24c0,.06.26,0,.22-.08a.19.19,0,0,1,0-.27s0,0,0,0-.2-.15-.16-.16.13-.05.09-.09-.08-.1-.12-.15a.28.28,0,0,0,.17-.15c0-.09-.07-.18-.11-.28s.19-.1.06-.1h-.15s-.16,0-.16.08.24.34,0,.41c0,0-.14,0-.1.09a.93.93,0,0,1,.13.15c-.07,0-.13.09-.05.16a.52.52,0,0,0,.11.1S31.17,145.83,31.16,145.84Z"/><path class="cls-1" d="M31.48,146.4c.05-.06-.17,0-.21,0s-.08.09,0,.16,0,.19,0,.29,0,.19,0,.3a1.54,1.54,0,0,0,0,.37c0,.05.24,0,.23-.06a1.15,1.15,0,0,1,0-.49s0,0,0,0,0-.22,0-.34S31.39,146.5,31.48,146.4Z"/><path class="cls-1" d="M31.38,147.68h0c-.06,0-.26.06-.22.08a.14.14,0,0,0,.09,0C31.28,147.78,31.5,147.69,31.38,147.68Z"/><path class="cls-1" d="M30.1,142.81a.37.37,0,0,0,.18.17h0c-.06,0-.15.09-.07.15l.11.11a.54.54,0,0,0-.07.13c0,.12.21.09.24,0l.05-.08s.06-.06,0-.1l-.09-.11a.33.33,0,0,0,.13-.13c0-.09-.05-.17-.07-.25v0a.35.35,0,0,0,.05-.08s0-.09,0-.11a.31.31,0,0,0-.12-.05.23.23,0,0,0,0-.21l.06-.07a.06.06,0,0,0,0-.1l-.09-.07a.42.42,0,0,0,.15-.21c.05-.13-.18-.13-.22,0s0,.14-.14.16-.15.1-.07.15l.11.07s-.07.05-.07.08v.14h0l0,.1c-.09.06,0,.14.07.14h.06l-.11.08C30.13,142.7,30.07,142.75,30.1,142.81Z"/><path class="cls-1" d="M30.22,144.29s.19,0,.22,0a.26.26,0,0,1-.07.1,0,0,0,0,0,0,0c.15.15,0,.13-.11.22s-.11.13-.08.16a.34.34,0,0,0,.26.1.07.07,0,0,1,0,.07s-.12,0-.11.06a2,2,0,0,0,.07.23c-.13.07-.21.19,0,.22.05,0,.25-.08.19-.08s-.15-.06-.05-.13.08,0,.07-.05l-.06-.23a.19.19,0,0,0,.13-.18l0,0s0,0,0,0l-.08-.08s-.12,0-.18,0a.16.16,0,0,1,0-.09c0-.05.15-.09.19-.14s-.06-.12,0-.17.08-.14,0-.21a.26.26,0,0,0-.26-.06.29.29,0,0,0-.11-.11c-.05,0-.24.06-.22.08a.3.3,0,0,1,.15.19A.2.2,0,0,0,30.22,144.29Z"/><path class="cls-1" d="M30.24,146.9c-.06.08.13.06.16,0l.1,0a.35.35,0,0,0,0,.06l0,0h0s0,0,0,0-.19,0-.17.09a1.16,1.16,0,0,0,.1.28l-.07,0a.16.16,0,0,0,0,.15c0,.12.13,0,.08.26,0,0,0,0,0,0l-.07.3s-.12.07,0,.09l.23.17c.07,0,.28,0,.22-.09l-.2-.15a.73.73,0,0,0,.18-.14c.1-.11-.06-.34,0-.47s0,0,0,0h0a.38.38,0,0,0,.19-.13,0,0,0,0,0,0-.05.57.57,0,0,0-.18,0,.84.84,0,0,0-.05-.17.21.21,0,0,0,.14-.23c0-.14-.07-.18-.15-.17l-.15-.14c.16-.11.23-.3.1-.34.07,0,.16-.07.1-.11l-.08-.05c0-.07-.05-.12-.16-.15s-.23,0-.18.11a1.27,1.27,0,0,0,.1.12s0,.08-.07.12.06.09.11.07l-.08.18s-.15.06-.1.1l.19.18A.63.63,0,0,0,30.24,146.9Z"/><path class="cls-1" d="M30.51,147h0Z"/><path class="cls-1" d="M30.83,149.19h0a.25.25,0,0,0,0-.12.08.08,0,0,0,0-.09,0,0,0,0,1,0,0c-.05-.08-.21,0-.23.06l0,.08a.06.06,0,0,0,0,0v.1a.29.29,0,0,0,0,.14c0,.1.14.09.19,0s0,0,0,0a.34.34,0,0,1-.18.26.07.07,0,0,0,0,.11c.11.15,0,.37,0,.49a.1.1,0,0,0,0,.09c0,.08,0,.19.08.24s0,.1,0,.15a.4.4,0,0,1-.1-.12c-.06-.09-.28,0-.21.11a.78.78,0,0,0,.15.16c0,.05.06.08.11.08h.14c.09,0,.16-.1.09-.15.09-.06.17-.12.16-.25s-.17-.21-.17-.21h0c.11,0,.19-.16.05-.17h0s0-.3,0-.45C30.88,149.59,31.07,149.36,30.83,149.19Z"/><path class="cls-1" d="M29.92,145.5c-.2-.18.08-.49,0-.74,0,0-.05,0-.07,0v-.18s-.05-.05-.07-.05a3.13,3.13,0,0,1-.06-.63c.17-.15.16-.22.09-.34s.08-.05,0-.09-.1-.44-.16-.6c.12-.08.12-.21.05-.4v0s0,0,0-.07,0-.53.11-.64-.17-.07-.22,0-.11.37-.23.58a0,0,0,0,0,0,.05.12.12,0,0,1,0,.1v.21a0,0,0,0,0,0,0,.41.41,0,0,0,0,.11.41.41,0,0,0-.12,0c-.09.05,0,.11.06.1h.05a1.26,1.26,0,0,0,0,.44s-.07.05-.05.09.11.27-.06.42-.1.06-.06.1a.62.62,0,0,1,.17.62s0,0,.07,0,0,.19,0,.19.05,0,.07,0-.11.62,0,.73S30,145.55,29.92,145.5Z"/><path class="cls-1" d="M30.09,149a1.41,1.41,0,0,1,0-.46,0,0,0,0,0,0-.06l0,0a.23.23,0,0,0,.08-.07s.07-.12,0-.14H30a.23.23,0,0,0,0-.21.23.23,0,0,0,.06-.12c0-.16,0-.14,0-.25.12-.14.13-.32,0-.36,0-.17,0-.31.06-.48a.09.09,0,0,0,0-.07.3.3,0,0,1-.08-.33c.09-.12-.13-.16-.2-.08s-.1.12-.07.22.1.25,0,.48a.08.08,0,0,0,0,.08l0,.24c0,.07,0,.11.1.11l-.05.14h0l0,0s0,.07,0,.09l0,.31a.09.09,0,0,0,0,.07.82.82,0,0,1,.1.25.57.57,0,0,0,0,.23s-.06,0-.06.07a.82.82,0,0,0,0,.22s0,0,.05,0a1.91,1.91,0,0,0,0,.5c.07.16.19.68,0,.78,0,0-.07,0-.07.08,0,.27.06.55.06.84,0,.12.23.08.23,0,0-.28-.05-.55-.05-.82,0,0,.12-.13.13-.18a3.29,3.29,0,0,0-.08-1S30.09,149,30.09,149Z"/><path class="cls-1" d="M17.45,157.7a1,1,0,0,0-.68-.5c-1.66-.25-2.62-.21-2.88.13a.42.42,0,0,0-.06.14,2.58,2.58,0,0,0-.43.77l0,0v11.18l-.74.4,2.06,1.38a.45.45,0,0,0,.41.31h0l.12.09.07-.15a.58.58,0,0,0,.15-.11A6.36,6.36,0,0,1,17,171c.47,0,.74-.13.88-.32a.55.55,0,0,0,.09-.47s0,0,0,0a.51.51,0,0,0-.36-.48l.13-10.91A1.9,1.9,0,0,0,17.45,157.7Zm-.77.14c.16,0,.27.26.34.48l-.33,0h-.17a2.61,2.61,0,0,0-.92.28l-.08,0a4.41,4.41,0,0,0-.32-.91C15.62,157.71,16.15,157.76,16.68,157.84Zm-2.66,12V158.41a1.6,1.6,0,0,1,.43-.65s.25.11.52,1.3v.18h0v0l.08,10.8a2.68,2.68,0,0,0-.27.45l-.89-.6Zm2.9.54a5.85,5.85,0,0,0-1.22.24v-.34h0l-.08-10.83a1.6,1.6,0,0,1,1-.53,1.31,1.31,0,0,1,.45.11l-.14,11.22.29,0h.09v0A2,2,0,0,1,16.92,170.4Z"/></g></g></svg>