<?xml version="1.0" encoding="utf-8"?>
<!-- Generator: Adobe Illustrator 25.2.3, SVG Export Plug-In . SVG Version: 6.00 Build 0)  -->
<svg version="1.1" id="레이어_1" xmlns="http://www.w3.org/2000/svg" xmlns:xlink="http://www.w3.org/1999/xlink" x="0px"
	 y="0px" viewBox="0 0 104.4 37.8" style="enable-background:new 0 0 104.4 37.8;" xml:space="preserve">
<style type="text/css">
	.st0{clip-path:url(#SVGID_2_);}
	.st1{clip-path:url(#SVGID_4_);}
	.st2{fill:none;}
	.st3{fill:#FFFFFF;}
	.st4{fill:#E6211A;}
	.st5{fill:#2E2D2C;}
</style>
<g id="레이어_1_1_">
</g>
<g>
	<g>
		<g>
			<g>
				<g>
					<defs>
						<rect id="SVGID_1_" x="351.4" y="1639.2" width="45.9" height="45.9"/>
					</defs>
					<clipPath id="SVGID_2_">
						<use xlink:href="#SVGID_1_"  style="overflow:visible;"/>
					</clipPath>
					<g class="st0">
						<g>
							<defs>
								<rect id="SVGID_3_" x="351.4" y="1639.2" width="45.9" height="45.9"/>
							</defs>
							<clipPath id="SVGID_4_">
								<use xlink:href="#SVGID_3_"  style="overflow:visible;"/>
							</clipPath>
							<g class="st1">
								
									<image style="overflow:visible;enable-background:new    ;" width="98" height="98" xlink:href="C44732869A6082E5.jpg"  transform="matrix(0.4702 0 0 0.4702 351.36 1639.09)">
								</image>
							</g>
						</g>
					</g>
				</g>
			</g>
		</g>
		<path class="st2" d="M385,1639.2h-10.8h-10.8h-1.6c-2.9,0-5.5,1.2-7.4,3c-0.9,0.9-1.6,1.9-2.1,3.1c-0.6,1.3-0.9,2.7-0.9,4.2v0.8
			v6.1v9.8v6.9v1.5c0,1.8,0.4,3.4,1.2,4.9c0.5,0.9,1.1,1.8,1.8,2.5c1.9,1.9,4.5,3,7.4,3h1.6h10.8H385h1.9c2.9,0,5.5-1.2,7.4-3
			c0.7-0.7,1.4-1.6,1.8-2.5c0.8-1.5,1.2-3.1,1.2-4.9v-1.5v-6.9v-9.8v-6.1v-0.8c0-1.5-0.3-2.9-0.9-4.2c-0.5-1.2-1.3-2.2-2.1-3.1
			c-1.9-1.9-4.5-3-7.4-3H385z"/>
		<path class="st3" d="M381,1644.9h-14.2c-5.4,0-9.7,4.4-9.7,9.7v14.2c0,5.4,4.4,9.7,9.7,9.7H381c5.4,0,9.7-4.4,9.7-9.7v-14.2
			C390.7,1649.3,386.3,1644.9,381,1644.9 M387.6,1669.1c0,3.6-2.9,6.5-6.5,6.5h-14.6c-3.6,0-6.5-2.9-6.5-6.5v-14.6
			c0-3.6,2.9-6.5,6.5-6.5h14.6c3.6,0,6.5,2.9,6.5,6.5V1669.1z"/>
		<path class="st3" d="M373.9,1653.1c-4.8,0-8.7,3.9-8.7,8.7s3.9,8.7,8.7,8.7s8.7-3.9,8.7-8.7S378.7,1653.1,373.9,1653.1
			 M373.9,1667.5c-3.1,0-5.7-2.5-5.7-5.7c0-3.1,2.5-5.7,5.7-5.7s5.7,2.5,5.7,5.7C379.5,1665,377,1667.5,373.9,1667.5"/>
		<path class="st3" d="M382.9,1650.7c-1.1,0-2,0.9-2,2s0.9,2,2,2s2-0.9,2-2S384,1650.7,382.9,1650.7"/>
	</g>
	<g>
		<path class="st4" d="M322.6,1648.6c-0.6-2.4-2.5-4.2-4.8-4.8c-4.3-1.1-21.4-1.1-21.4-1.1s-17.1,0-21.4,1.1
			c-2.4,0.6-4.2,2.5-4.8,4.8c-1.1,4.3-1.1,13.2-1.1,13.2s0,8.9,1.1,13.2c0.6,2.4,2.5,4.2,4.8,4.8c4.3,1.1,21.4,1.1,21.4,1.1
			s17.1,0,21.4-1.1c2.4-0.6,4.2-2.5,4.8-4.8c1.1-4.3,1.1-13.2,1.1-13.2S323.7,1652.9,322.6,1648.6"/>
		<polygon class="st3" points="290.9,1670 305.1,1661.8 290.9,1653.6 		"/>
	</g>
</g>
<g>
	<path class="st5" d="M94.2-0.1h-8.9h-8.9h-1.3c-2.4,0-4.5,1-6.1,2.5C68.3,3.1,67.7,4,67.3,5c-0.5,1.1-0.7,2.3-0.7,3.5v0.7v5v8.1V28
		v1.2c0,1.5,0.4,2.8,1,4c0.4,0.8,0.9,1.5,1.5,2.1c1.6,1.6,3.7,2.5,6.1,2.5h1.3h8.9h8.9h1.5c2.4,0,4.5-1,6.1-2.5
		c0.6-0.6,1.1-1.3,1.5-2.1c0.6-1.2,1-2.6,1-4V28v-5.7v-8.1v-5V8.5c0-1.2-0.3-2.4-0.7-3.5c-0.4-1-1-1.8-1.8-2.6
		c-1.6-1.6-3.7-2.5-6.1-2.5C95.8-0.1,94.2-0.1,94.2-0.1z"/>
	<g>
		<g>
			<path class="st2" d="M94.2-0.1h-8.9h-8.9h-1.3c-2.4,0-4.5,1-6.1,2.5C68.3,3.1,67.7,4,67.3,5c-0.5,1.1-0.7,2.3-0.7,3.5v0.7v5v8.1
				V28v1.2c0,1.5,0.4,2.8,1,4c0.4,0.8,0.9,1.5,1.5,2.1c1.6,1.6,3.7,2.5,6.1,2.5h1.3h8.9h8.9h1.5c2.4,0,4.5-1,6.1-2.5
				c0.6-0.6,1.1-1.3,1.5-2.1c0.6-1.2,1-2.6,1-4V28v-5.7v-8.1v-5V8.5c0-1.2-0.3-2.4-0.7-3.5c-0.4-1-1-1.8-1.8-2.6
				c-1.6-1.6-3.7-2.5-6.1-2.5C95.8-0.1,94.2-0.1,94.2-0.1z"/>
			<path class="st3" d="M91.3,5H79.6c-4.4,0-8,3.6-8,8v11.8c0,4.4,3.6,8,8,8h11.7c4.4,0,8-3.6,8-8V13C99.3,8.6,95.8,5,91.3,5
				 M96.8,25c0,2.9-2.4,5.3-5.3,5.3h-12c-2.9,0-5.3-2.4-5.3-5.3V13c0-2.9,2.4-5.3,5.3-5.3h12c2.9,0,5.3,2.4,5.3,5.3V25z"/>
			<path class="st3" d="M85.5,11.7c-4,0-7.2,3.2-7.2,7.2s3.2,7.2,7.2,7.2s7.2-3.2,7.2-7.2S89.4,11.7,85.5,11.7 M85.5,23.6
				c-2.6,0-4.7-2.1-4.7-4.7s2.1-4.7,4.7-4.7s4.7,2.1,4.7,4.7C90.1,21.5,88,23.6,85.5,23.6"/>
			<path class="st3" d="M92.9,9.8c-0.9,0-1.7,0.8-1.7,1.7s0.8,1.7,1.7,1.7c0.9,0,1.7-0.8,1.7-1.7C94.6,10.5,93.8,9.8,92.9,9.8"/>
		</g>
	</g>
</g>
<g>
	<path class="st5" d="M44.2,7.8c-0.5-1.9-2-3.5-4-4c-3.5-0.9-17.6-0.9-17.6-0.9S8.4,2.8,4.9,3.8c-1.9,0.5-3.5,2-4,4
		C0,11.3,0,18.6,0,18.6S0,26,0.9,29.5c0.5,1.9,2,3.5,4,4c3.5,0.9,17.6,0.9,17.6,0.9s14.1,0,17.6-0.9c1.9-0.5,3.5-2,4-4
		C45,26,45,18.6,45,18.6S45.1,11.3,44.2,7.8"/>
	<polygon class="st3" points="18,25.4 29.8,18.6 18,11.8 	"/>
</g>
</svg>
