<svg id="Layer_1" data-name="Layer 1" xmlns="http://www.w3.org/2000/svg" xmlns:xlink="http://www.w3.org/1999/xlink" viewBox="0 0 386 149"><defs><style>.cls-1{fill:none;}.cls-2{fill:#efc748;}.cls-3{fill:#fff;}.cls-4{fill:#ccc;}.cls-5{fill:#513c3a;}.cls-6{fill:#a59055;}.cls-7{font-size:7.65px;font-family:MyriadPro-Bold, Myriad Pro;font-weight:700;}.cls-31,.cls-7{fill:#172944;}.cls-8{letter-spacing:-0.02em;}.cls-9{letter-spacing:-0.01em;}.cls-10{fill:#473526;}.cls-11{fill:#1c1515;}.cls-12{fill:#3f3130;}.cls-13{fill:#3a250c;}.cls-14{fill:#281d03;}.cls-15{fill:#6ecfea;}.cls-16{fill:#ff863b;}.cls-17{fill:#237ccc;}.cls-18{fill:#f1ebeb;}.cls-19{fill:#91827f;}.cls-20{fill:#b9a8a1;}.cls-21{fill:#ededed;}.cls-22{fill:#ce4d20;}.cls-23{fill:#dbdbdb;}.cls-24{fill:#ba340f;}.cls-25{fill:#202d26;}.cls-26{fill:#eeeaeb;}.cls-27{fill:#029c66;}.cls-28{fill:#fdbfb2;}.cls-29{fill:#febd63;}.cls-30{fill:#247ecc;}.cls-32{clip-path:url(#clip-path);}.cls-33{fill:#8fac20;}.cls-34{fill:#815a4b;}.cls-35{fill:#694135;}</style><clipPath id="clip-path"><circle class="cls-1" cx="87.75" cy="75.17" r="50"/></clipPath></defs><circle class="cls-2" cx="198.62" cy="75.17" r="50"/><path class="cls-3" d="M205.63,103.23a141.54,141.54,0,0,1-14.76,1.44A92.35,92.35,0,0,1,178,103.23l-3.57-41h34.77Z"/><polygon class="cls-4" points="174.68 65.17 209.87 60.67 208.51 69.88 174.87 69.67 174.68 65.17"/><polygon class="cls-5" points="207.41 55.95 176.2 55.95 177.09 50.6 206.52 50.6 207.41 55.95"/><polygon class="cls-6" points="173.37 66.17 210.36 66.17 207.41 91.2 176.2 91.2 173.37 66.17"/><text class="cls-7" transform="translate(181.88 73.57)"><tspan class="cls-8">C</tspan><tspan x="4.4" y="0">o</tspan><tspan class="cls-9" x="8.82" y="0">ff</tspan><tspan x="13.71" y="0">ee</tspan></text><path class="cls-10" d="M193.36,81.71c0,2.57-.77,4.35-2.49,4.35s-3.11-2.09-3.11-4.66,1.4-4.67,3.11-4.67S193.36,79.13,193.36,81.71Z"/><polygon class="cls-11" points="190.87 77.23 190.25 79.84 190.87 81.71 190.56 85.45 190.87 85.44 191.5 82.33 190.87 79.84 190.87 77.23"/><path class="cls-12" d="M197.88,87.2c-1.29,1.68-2.69,2.45-3.81,1.59s-1-2.93.31-4.62,3.26-2.34,4.38-1.48S199.18,85.51,197.88,87.2Z"/><polygon class="cls-11" points="198.51 83.02 196.79 84.41 196.26 85.94 194.17 88.23 194.38 88.38 196.35 86.66 197.2 84.72 198.51 83.02"/><polyline class="cls-13" points="182.87 95.84 182.87 108.54 227.78 108.54 227.78 95.35"/><polygon class="cls-13" points="213.93 82.67 182.87 95.84 227.78 95.35 227.87 94.67 213.93 82.67"/><path class="cls-14" d="M181.64,56s15.23-.28,25.45-1.93l.78,2.65Z"/><path class="cls-3" d="M223.84,95s-25.54,1.39-26.75,1.43-12.43.2-11.22.2h5s24-1,25-1S223.84,95,223.84,95Z"/><path class="cls-3" d="M213.9,86.67a1.5,1.5,0,0,0,0-3,1.5,1.5,0,0,0,0,3Z"/><path class="cls-3" d="M217.54,89.54a1.5,1.5,0,0,0,0-3,1.5,1.5,0,0,0,0,3Z"/><path class="cls-3" d="M221,91.93a1.5,1.5,0,0,0,0-3,1.5,1.5,0,0,0,0,3Z"/><path class="cls-3" d="M224.43,94.33a1.5,1.5,0,0,0,0-3,1.5,1.5,0,0,0,0,3Z"/><rect class="cls-5" x="171.74" y="55.95" width="40.13" height="6.24"/><circle class="cls-15" cx="309.49" cy="75.17" r="50"/><ellipse class="cls-16" cx="329.88" cy="41.12" rx="5.62" ry="4.32" transform="translate(231.45 358.65) rotate(-79.88)"/><ellipse class="cls-17" cx="336.72" cy="50.07" rx="5.62" ry="4.32" transform="translate(72.71 264.97) rotate(-47.6)"/><path class="cls-18" d="M329.5,45.13a62.65,62.65,0,0,0-2.69,14.3"/><path class="cls-18" d="M334.16,52.94a46.4,46.4,0,0,1-11.67,10.81"/><rect class="cls-19" x="289.38" y="78.84" width="40.21" height="3.66"/><rect class="cls-20" x="292.13" y="82.49" width="34.72" height="12.79"/><rect class="cls-19" x="291.21" y="64.22" width="1.83" height="15.53"/><rect class="cls-19" x="325.94" y="64.22" width="1.83" height="15.53"/><polygon class="cls-21" points="294.87 64.22 287.56 64.22 291.32 54.17 297.27 54.17 294.87 64.22"/><polygon class="cls-22" points="302.18 64.22 294.87 64.22 297.27 54.17 303.22 54.17 302.18 64.22"/><polygon class="cls-21" points="309.49 64.22 302.18 64.22 303.22 54.17 309.18 54.17 309.49 64.22"/><polygon class="cls-22" points="316.8 64.22 309.49 64.22 309.18 54.17 315.13 54.17 316.8 64.22"/><polygon class="cls-21" points="324.11 64.22 316.8 64.22 315.13 54.17 321.08 54.17 324.11 64.22"/><polygon class="cls-22" points="331.42 64.22 324.11 64.22 321.08 54.17 327.03 54.17 331.42 64.22"/><path class="cls-23" d="M287.56,64.22V69.7c0,1.52,1.63,2.74,3.65,2.74s3.66-1.22,3.66-2.74V64.22Z"/><path class="cls-24" d="M294.87,64.22V69.7c0,1.52,1.63,2.74,3.65,2.74s3.66-1.22,3.66-2.74V64.22Z"/><path class="cls-23" d="M302.18,64.22V69.7c0,1.52,1.63,2.74,3.65,2.74s3.66-1.22,3.66-2.74V64.22Z"/><path class="cls-24" d="M309.49,64.22V69.7c0,1.52,1.63,2.74,3.65,2.74s3.66-1.22,3.66-2.74V64.22Z"/><path class="cls-23" d="M316.8,64.22V69.7c0,1.52,1.64,2.74,3.65,2.74s3.66-1.22,3.66-2.74V64.22Z"/><path class="cls-24" d="M324.11,64.22V69.7c0,1.52,1.64,2.74,3.65,2.74s3.66-1.22,3.66-2.74V64.22Z"/><circle class="cls-25" cx="294.87" cy="98.03" r="9.14"/><circle class="cls-25" cx="324.11" cy="98.03" r="9.14"/><circle class="cls-26" cx="324.11" cy="98.03" r="7.31"/><circle class="cls-26" cx="294.87" cy="98.03" r="7.31"/><rect class="cls-27" x="295.78" y="77.01" width="4.57" height="1.83"/><rect class="cls-28" x="301.26" y="77.93" width="4.57" height="0.91"/><rect class="cls-26" x="306.75" y="76.1" width="4.57" height="2.74"/><rect class="cls-29" x="312.23" y="77.01" width="4.57" height="1.83"/><rect class="cls-30" x="317.71" y="75.18" width="4.57" height="3.66"/><circle class="cls-31" cx="87.75" cy="75.17" r="50"/><g class="cls-32"><path class="cls-33" d="M88.82,78.29a6.08,6.08,0,0,1,3.56-3.57c2.68-.89,6.25-1.25,7.14-.62s4.26,2.41,4.36,4.19a17,17,0,0,1,0,2.52s2.77,1,4.55,1.94a10.69,10.69,0,0,1,4.46,4.45c.89,1.79,2.68,6.25,2.68,7.14v4s2.67,1.35,2.67,3.13.89,4.34,0,5.29-4.46,3.63-5.35,3.63-4.46,0-5.35-.9a4.39,4.39,0,0,1-.89-2.67s-3.57.89-4.46,1.78-3.56.89-3.56.89-.9,2.68-2.68,2.68-4.46.28-7.13-1.2a36.19,36.19,0,0,0-5.35-2.37s-1.79,2.68-6.24,0A7.46,7.46,0,0,1,74.55,105s-1.78,1.78-3.56.89-6.25-5.35-6.25-8.92.9-7.13,2.68-8a35.45,35.45,0,0,1,5.35-1.79s.89-5.35,1.78-6.24,6.24-4.45,8.92-4.45S87,76.51,88.82,78.29Z"/><path class="cls-33" d="M89.71,65.81l-1.88,1.33s-.8,2.23-1.69,2.23-3.23,1.09-4.73,1.89-4.18,0-4.18,0-2.68,4.35-4.46,4.35-7.13.9-8.92-.89-4.46-5.35-3.56-7.13L62.07,64s0-8,.89-9.8,3.57-8,5.35-8.92,9.81-2.68,9.81-2.68,1.78-4.45,5.35-4.45,7.13,2.67,7.13,2.67,4.46-1.78,8,0S104.87,48,104.87,48v3.59s4.45,1.76,5.35,6.22-2.68,9.81-5.35,10.7a23.43,23.43,0,0,1-9.81.49C92.38,68.48,89.71,65.81,89.71,65.81Z"/><path class="cls-34" d="M86.14,58.67,88.82,64v7.57H87.48l-4.9-2.22H79V70.8l4.15.79,3.87,4,.9,3.57S89.71,81,90.6,81s0-5.35,0-5.35l.89-8.91.89-3.57,2.68-3.56-1.42-.9-3,4.46-1.78-3.56-.89-2.68Z"/><polygon class="cls-35" points="91.75 101.17 91.75 109.17 88.75 114.17 86.75 116.83 84.75 116.17 81.75 109.17 78.75 104.17 75.75 104.17 78.96 109.5 81.75 116.17 80.75 123.17 78.75 129.17 90.83 129.17 91.75 115.67 96.75 110.17 102.75 103.17 98.75 103.17 94.75 107.17 93.75 101.17 91.75 101.17"/></g></svg>