<svg xmlns="http://www.w3.org/2000/svg" viewBox="0 0 23.14 23.14"><defs><style>.cls-1{fill:#49021f;}.cls-2{fill:#f36;}</style></defs><g id="레이어_2" data-name="레이어 2"><g id="Layer_1" data-name="Layer 1"><rect class="cls-1" width="23.14" height="23.14" rx="4.25"/><path class="cls-2" d="M6.57,16.88V7.31H8.41v9.57Z"/><path class="cls-2" d="M17,5.55v9.09c0,.79,0,1.66.06,2.24H15.27l-.1-1.11h-.05A2.46,2.46,0,0,1,12.91,17c-1.78,0-3-1.64-3-4,0-2.68,1.48-4.15,3.17-4.15a2.09,2.09,0,0,1,1.89.92h0V5.55ZM15,12.23c0-1.14-.7-1.71-1.39-1.71-1.07,0-1.6,1.1-1.6,2.47s.59,2.37,1.58,2.37c.62,0,1.41-.45,1.41-1.69Z"/></g></g></svg>